<svg xmlns="http://www.w3.org/2000/svg" xmlns:xlink="http://www.w3.org/1999/xlink" viewBox="65 1590.134 301 164.232">
  <defs>
    <style>
      .cls-1 {
        fill: #fddcbf;
      }

      .cls-2 {
        fill: #e7e6e6;
      }

      .cls-3 {
        fill: #343434;
      }

      .cls-4 {
        fill: #f2f2f2;
      }

      .cls-5 {
        fill: #eceded;
      }

      .cls-6 {
        fill: #e3e3e4;
      }

      .cls-7 {
        fill: #ec7d87;
      }

      .cls-8 {
        fill: #c49a6c;
      }

      .cls-9 {
        fill: #e0e0e0;
      }

      .cls-10 {
        fill: #bdbdbc;
      }

      .cls-11 {
        fill: #5d5d5d;
      }

      .cls-12 {
        fill: #166d9c;
      }

      .cls-13 {
        fill: #533e2a;
      }

      .cls-14 {
        opacity: 0.13;
      }

      .cls-15 {
        fill: #010202;
      }

      .cls-16 {
        fill: #2980ba;
      }

      .cls-17 {
        clip-path: url(#clip-path);
      }

      .cls-18 {
        fill: #2c3338;
      }

      .cls-19 {
        fill: #599794;
      }

      .cls-20 {
        fill: #f7f1e5;
      }

      .cls-21 {
        fill: #64a6a3;
      }

      .cls-22 {
        fill: #eebf58;
      }

      .cls-23 {
        fill: #584a3a;
      }
    </style>
    <clipPath id="clip-path">
      <rect id="Rectangle_150" data-name="Rectangle 150" width="22.084" height="21.86"/>
    </clipPath>
  </defs>
  <g id="Group_1643" data-name="Group 1643" transform="translate(65.051 1590.134)">
    <g id="Group_1591" data-name="Group 1591" transform="translate(-0.051)">
      <g id="Group_1578" data-name="Group 1578" transform="translate(27.225)">
        <path id="Path_1836" data-name="Path 1836" class="cls-1" d="M230.789,60.1c2.063.112,1.394,6.246,1,9.034.167-.669.39-1.394.725-1.338,2.175.335,1.561,1.561,1.506,2.231.112-.5.446-1.561,1.338-1.338.837.167,1.171,1.171,1.227,1.729a1.04,1.04,0,0,1,1.171-.892c3.234.669-1.115,7.7-1.115,7.7l-7.975-.167S228.168,59.988,230.789,60.1Z" transform="translate(-128.328 -26.584)"/>
        <g id="Group_1577" data-name="Group 1577">
          <ellipse id="Ellipse_151" data-name="Ellipse 151" class="cls-2" cx="42.773" cy="8.309" rx="42.773" ry="8.309" transform="translate(3.643 147.558)"/>
          <g id="Group_1576" data-name="Group 1576">
            <path id="Path_1837" data-name="Path 1837" class="cls-3" d="M149.176,220.8l-.056,25.82s10.094-10.93,13.328-1.115c3.4,10.373-18.347,6.023-18.347,6.023l-3.4-30.058Z" transform="translate(-89.433 -97.668)"/>
            <path id="Path_1838" data-name="Path 1838" class="cls-3" d="M91.876,228.3,93.1,254.622s9.09-11.488,13.551-1.115c4.294,10.038-18.347,6.023-18.347,6.023L83.4,228.969Z" transform="translate(-64.087 -100.985)"/>
            <path id="Path_1839" data-name="Path 1839" class="cls-1" d="M124.26,97.366s12.771-81.921-46.4-58.109c0,0-23.645.112-14,60.284Z" transform="translate(-54.423 -15.445)"/>
            <path id="Path_1840" data-name="Path 1840" class="cls-4" d="M125.81,134l-2.454,54.316L60.229,190.77,55.6,134.613Z" transform="translate(-51.79 -59.273)"/>
            <path id="Path_1841" data-name="Path 1841" class="cls-3" d="M135.112,0S127.249,45.115,77.84,33.293l-7.305,14s-6.19-6.469-8.142.279c-2.008,6.748,6.469,4.573,6.469,4.573s-4.071,15.392-12.6,19.741c0,0-21.693-71.437,8.755-58.945A28.53,28.53,0,0,1,86.707,1.45C101.039,1,108.846,23.255,135.112,0Z" transform="translate(-48.768)"/>
            <ellipse id="Ellipse_152" data-name="Ellipse 152" class="cls-3" cx="1.952" cy="3.346" rx="1.952" ry="3.346" transform="translate(58.003 45.353) rotate(-2.082)"/>
            <ellipse id="Ellipse_153" data-name="Ellipse 153" class="cls-3" cx="1.952" cy="3.346" rx="1.952" ry="3.346" transform="translate(33.689 45.856) rotate(-2.079)"/>
            <path id="Path_1842" data-name="Path 1842" class="cls-4" d="M179.394,115.618S199.3,156.885,205.047,87.4l10.874.948S209.4,164.135,178,128.277Z" transform="translate(-105.932 -38.66)"/>
            <path id="Path_1843" data-name="Path 1843" class="cls-5" d="M136.682,134.2,116.16,162.251,94.3,134.59Z" transform="translate(-68.909 -59.361)"/>
            <path id="Path_1844" data-name="Path 1844" class="cls-6" d="M154.022,134.2l.446,11.878-6.748,1.394,1,9.146L133.5,162.251Z" transform="translate(-86.248 -59.361)"/>
            <path id="Path_1845" data-name="Path 1845" class="cls-6" d="M116.16,162.56l-14.778-7.082.5-6.636-7.138-2.509L94.3,134.9Z" transform="translate(-68.909 -59.671)"/>
            <path id="Path_1846" data-name="Path 1846" class="cls-3" d="M133.794,141.958l-2.231-3.29-5.8-.167-2.063,4.015,2.342,2.733-1.785,12.659,4.907,6.246,5.521-7.473L131.117,145.3Z" transform="translate(-81.913 -61.263)"/>
            <path id="Path_1847" data-name="Path 1847" class="cls-7" d="M118.7,106.183c.167,2.956,2.342,7.807,10.651,7.807,8.477,0,8.477-8.309,8.477-8.309S126.675,103.339,118.7,106.183Z" transform="translate(-79.702 -46.345)"/>
            <g id="Group_1575" data-name="Group 1575" transform="translate(6.375 106.11)">
              <path id="Path_1848" data-name="Path 1848" class="cls-6" d="M60.256,190.345c-.056,0-.056,0-.056-.056C60.367,190.289,60.144,190.233,60.256,190.345Z" transform="translate(-60.2 -190.275)"/>
              <path id="Path_1849" data-name="Path 1849" class="cls-6" d="M65,191.256c.056,0,.056-.056.112,0a.055.055,0,0,1,.056-.056c.056.112-.056.112-.167.056v.056C65.056,191.312,65.056,191.312,65,191.256Z" transform="translate(-62.323 -190.684)"/>
              <path id="Path_1850" data-name="Path 1850" class="cls-6" d="M64.9,191.3Z" transform="translate(-62.279 -190.728)"/>
              <path id="Path_1851" data-name="Path 1851" class="cls-6" d="M65,191.4Z" transform="translate(-62.323 -190.773)"/>
              <path id="Path_1852" data-name="Path 1852" class="cls-6" d="M84.5,204.8Z" transform="translate(-70.949 -196.7)"/>
              <path id="Path_1853" data-name="Path 1853" class="cls-6" d="M83.8,207.5Z" transform="translate(-70.639 -197.894)"/>
              <path id="Path_1854" data-name="Path 1854" class="cls-6" d="M78.6,196.8Z" transform="translate(-68.339 -193.161)"/>
              <path id="Path_1855" data-name="Path 1855" class="cls-6" d="M84.7,204.5Z" transform="translate(-71.037 -196.567)"/>
              <path id="Path_1856" data-name="Path 1856" class="cls-6" d="M60.612,190.3c.056.056-.056.056-.112.056C60.556,190.356,60.612,190.356,60.612,190.3Z" transform="translate(-60.333 -190.286)"/>
              <path id="Path_1857" data-name="Path 1857" class="cls-6" d="M64.8,191.38h0c0-.056.056,0,0,0Z" transform="translate(-62.235 -190.753)"/>
              <path id="Path_1858" data-name="Path 1858" class="cls-6" d="M65.723,191.612,65.5,191.5C65.612,191.5,65.723,191.556,65.723,191.612Z" transform="translate(-62.544 -190.817)"/>
              <path id="Path_1859" data-name="Path 1859" class="cls-6" d="M66.98,191.68h0C66.98,191.625,67.036,191.68,66.98,191.68Z" transform="translate(-63.188 -190.886)"/>
              <path id="Path_1860" data-name="Path 1860" class="cls-6" d="M67,191.78c0-.056.112,0,.112,0C67.056,191.78,67.056,191.836,67,191.78Z" transform="translate(-63.208 -190.93)"/>
              <path id="Path_1861" data-name="Path 1861" class="cls-6" d="M69.2,192.287c0-.056.112.056.112,0C69.312,192.343,69.256,192.287,69.2,192.287Z" transform="translate(-64.181 -191.158)"/>
              <path id="Path_1862" data-name="Path 1862" class="cls-6" d="M70.2,192.6h0c.056,0,.112.056,0,0Z" transform="translate(-64.623 -191.303)"/>
              <path id="Path_1863" data-name="Path 1863" class="cls-6" d="M86.3,200.1v0Z" transform="translate(-71.745 -194.621)"/>
              <path id="Path_1864" data-name="Path 1864" class="cls-6" d="M83.58,208.156s-.056,0,0-.056C83.525,208.156,83.636,208.1,83.58,208.156Z" transform="translate(-70.531 -198.16)"/>
              <path id="Path_1865" data-name="Path 1865" class="cls-6" d="M81.056,211.856,81,211.8Z" transform="translate(-69.401 -199.796)"/>
            </g>
          </g>
        </g>
      </g>
      <g id="Group_1588" data-name="Group 1588" transform="translate(0 99.515)">
        <path id="Path_1866" data-name="Path 1866" class="cls-8" d="M2.041,188.738a2.989,2.989,0,0,0-1.952,3.736l7.027,22.139a2.989,2.989,0,0,0,3.736,1.952l31.787-10.149a2.989,2.989,0,0,0,1.952-3.736l-7.027-22.139a2.989,2.989,0,0,0-3.736-1.952Z" transform="translate(0.051 -178.449)"/>
        <rect id="Rectangle_149" data-name="Rectangle 149" class="cls-9" width="31.843" height="22.585" transform="translate(3.811 13.204) rotate(-17.668)"/>
        <path id="Path_1867" data-name="Path 1867" class="cls-10" d="M60.9,192.1l4.35,13.719,2.621-1.617-.335-4.127,1.561-.948a2.154,2.154,0,0,0,2.4.056,2.511,2.511,0,0,0,1.227-3.234s-.781-2.119-2.509-1.84c-2.008.279-2.119,1.673-2.119,1.673h-1.84l-2.175-3.625Zm10.094,4.127a.58.58,0,0,1,.725.335.566.566,0,0,1-.39.725.58.58,0,0,1-.725-.335A.607.607,0,0,1,70.994,196.227Z" transform="translate(-26.91 -184.487)"/>
        <g id="Group_1579" data-name="Group 1579" transform="translate(30.747 6.999)">
          <path id="Path_1868" data-name="Path 1868" class="cls-10" d="M64.88,220.987c0,.056-.056-.056,0,0Z" transform="translate(-59.406 -204.257)"/>
          <path id="Path_1869" data-name="Path 1869" class="cls-10" d="M55.093,191.335c-.056.223.167.446.167.669,0,0,.056-.056.056.056a1.125,1.125,0,0,0,.279.781h0c.056.056,0,.112,0,.167h.056c-.056,0,0,.112,0,.112h.056l-.056.056c-.056.112.056.223.056.335h0a2,2,0,0,0,.112.613s.056-.056.056,0c-.056,0-.056.112-.056.167.056,0,0,.112.056.167h0c-.056.056.056.056,0,.112h.056c-.056.056.056.056.056.112h0c0,.056.056.056.056.112h0c0,.112.056.112,0,.112.056,0,0-.056.056-.056a3.2,3.2,0,0,0,.223.781.055.055,0,0,1,.056.056v.112h.056c.056.056-.056.056,0,.112a.055.055,0,0,1,.056-.056c-.056.056,0,.112,0,.167v-.056c-.056.056.056.112.056.167v-.056c.056.056-.056.056,0,.112H56.6c-.056.112,0,.167,0,.279h0c0,.056.056.167.056.223,0,0,.056-.056.112.056-.056,0,0,.112-.056.112.056.056.112.167.056.223,0-.056.112,0,.056-.056h.056v.056c0,.056-.056.112-.056.223,0-.056.056,0,.056-.056l-.056.167a.055.055,0,0,1,.056.056l-.056.056a.109.109,0,0,0,.112.112c.056,0,0-.056.056,0v.112h0c0,.056,0,.112-.056.056,0,0,.056,0,0-.056-.056.056,0,.112,0,.167l.056-.056v.223c-.056,0,.056-.056,0-.056.056.056,0,.223.112.279h-.056a.055.055,0,0,0,.056.056v.056h0a.829.829,0,0,0,.056.335.2.2,0,0,0-.056.112h.056c.056,0,0,.056.056.056-.056.056,0-.223-.056-.112.056,0-.056.112,0,.056,0,.056,0,.112.056.112,0,0,.056-.056.056,0v.112c-.056,0,0,.056,0,.056.056,0,0,.112.056.056h.056c0,.056-.056.056-.056.112h0c-.056.056.056.056,0,.112.056.056.056.167.112.167v.112c.056,0,0,.056,0,.056a.2.2,0,0,0,.112.056.055.055,0,0,1-.056.056c.112,0,0,.167.056.167a.055.055,0,0,1,.056-.056c.112,0,0,.112.056.167H57.6c.056,0,0,.112.056.056,0,.056.056.056,0,.112.112.112.056.279.167.279v.056c-.056,0,0-.056,0-.056h0c0,.056.056.056.056,0,.056.056-.056.112,0,.223h.056v.056c.056.056.056,0,.112,0v.112H58.1c-.056,0,0,.056,0,.056h0v.056l-.056-.056v.056a.055.055,0,0,1,.056.056v.056s0,.056.056,0c0,0-.056,0,0-.056a.055.055,0,0,1,.056.056c0,.056-.112,0-.056.056l.056-.056.056.056h-.056a.077.077,0,0,0,0,.112.055.055,0,0,0,.056.056h0c.056,0,.056.056,0,.112h0v.112c.056.056.167-.056.112.056a.2.2,0,0,1-.056.112c.056.056,0,.167.112.223v.056c.056.112.056.279.167.335,0-.056.056,0,.056,0,0,.056.056,0,0,.056h-.056a.423.423,0,0,0,.112.223h-.056c.056,0,.056,0,.056.056h0s-.056.056,0,.056h.056c0,.056-.056.112,0,.167h.056a.055.055,0,0,1-.056.056c.056.056.056.112.112.112a.787.787,0,0,0,.056.5h0c.056.056-.056.056,0,.056H59a.077.077,0,0,1,0,.112c-.056,0,0-.056-.056,0a.077.077,0,0,1,0,.112.055.055,0,0,0,.056-.056v.056c.056,0,.056-.112.167-.112v.056c.056,0,.056-.112.056-.056s-.056.112-.112.056c0,.056-.112.056-.056.167.056,0,0-.056.056-.056s0,.112.056.112c-.056-.056-.056,0-.056.056.056.056.056-.056.056,0l-.056.056c-.056.056.056.056,0,.112.056,0,.112-.112.112-.056-.056,0-.056.112-.112.112h.056c.056,0-.056.112.056.112h-.056l.056.056c0,.056,0,.112.056.112a.055.055,0,0,1-.056.056c-.056-.056,0-.056-.056-.056.056,0,0,.056,0,.112h0v.056h.056l-.056.056c0,.056.056,0,.056.056v-.056a.055.055,0,0,1,.056.056l-.112.056c0,.056.056,0,0,.056L59.22,205a.173.173,0,0,1,.112.056c0,.056-.056.112-.056.056,0,0,.056.056.056,0,0,.056-.056,0-.056.056.056,0,.056.056.112.056l.056-.056v.056c.056-.056.056,0,.112-.056v.056c-.112-.056-.112.112-.167.112,0,.112.223,0,.112.112,0,0-.056.056-.056,0,0,.056-.056.056,0,.112,0-.056.112,0,.112-.056l-.056-.056c.056,0,.056-.056.112,0v.112c-.056,0,0-.056-.056,0,0,.056.056.056,0,.112,0-.056-.056-.056-.112-.056v.056h0c.056.056-.056.056,0,.112H59.5c.056-.056-.056-.112,0-.112v.056s.112,0,.056.112c0,.056,0,0-.056.056v.167c.056-.056.056.112.056,0-.056,0-.056-.112-.056-.167.056,0-.056-.056.056-.112,0,.056.112.056.112.056v.056h-.112c.056.056.056.167,0,.167.056,0,.056,0,.056-.056,0,.112.056.167.112.279-.112-.056,0,.112-.056.056s-.112-.056-.112,0h.056c0,.056.056.056.056.112,0-.056.056-.056.112-.056,0,.056.056,0,.056.056v.223c.056.056.056.167.112.279h.112c0,.056-.056,0,0,.056h0s.056.112,0,.167l.056-.056v.056h.056c.056,0,0,.112.056.112h-.056c0,.112.056.112.056.223h.056v.056c.056,0,.056,0,.056.056l.056-.167a.055.055,0,0,0-.056.056c-.056,0-.056-.056,0-.112v.056a.055.055,0,0,0,.056-.056v-.056c0,.056-.056,0-.056,0,.056,0,.056-.056,0-.112-.056,0,0-.112-.056-.167a.173.173,0,0,0-.056.112c-.056-.056,0-.056-.056-.056,0-.056.056-.056.056-.112h-.056c0-.056.056-.056,0-.112a.942.942,0,0,1-.112-.279H60c.056-.056,0-.167,0-.223-.056-.112-.056-.223-.112-.279-.056-.167-.056-.335-.112-.558l-.056.056c0-.056-.056,0-.056-.056.056,0,.056-.056.056-.112a.418.418,0,0,1-.056-.279H59.61c.056-.112-.056-.167-.112-.279a.055.055,0,0,1-.056-.056c.056-.056,0-.112.056-.167,0-.056-.056-.112-.112-.167,0-.223-.112-.446-.112-.669H59.22c0-.223-.167-.446-.167-.669l-.056.056c-.056-.056,0-.112.056-.112-.056-.056,0-.167-.056-.167-.056-.056,0-.056,0-.112-.056-.112-.056-.167-.112-.279h-.056c0-.056-.056-.167.056-.112-.112-.112-.056-.279-.167-.39l.056-.056c-.056-.112-.112-.167-.112-.279,0,0-.056.056-.056,0a.055.055,0,0,0,.056-.056c0-.167-.167-.335-.167-.446-.056-.279-.167-.558-.223-.781h0c.056-.112-.112-.167-.056-.279l-.056-.056c0-.056-.112-.167-.056-.279h0c-.056-.112-.056-.167-.112-.279v.056c-.056-.056.056-.112-.056-.112,0,0,.056-.056.056,0a2.767,2.767,0,0,1-.167-.725c-.112-.167-.112.056-.112-.112h0c0-.056-.112-.056-.112-.112.056,0,0-.056.056-.056-.056-.112-.112-.112-.112-.167h0c.056-.112-.056-.223,0-.335-.167-.5-.279-1.06-.446-1.561l-.5-1.506c-.112-.112-.112-.112-.112-.223h0c.056,0,0-.112,0-.112-.056-.167-.112-.39-.167-.558,0,.056-.056.056-.056,0v-.056h0a.055.055,0,0,1,.056-.056,15.462,15.462,0,0,0-.558-1.45,1.034,1.034,0,0,1-.112-.39A2.538,2.538,0,0,1,55.2,191C55.2,191.112,55.093,191.223,55.093,191.335Z" transform="translate(-55.084 -191)"/>
          <path id="Path_1870" data-name="Path 1870" class="cls-10" d="M64.812,220.78c-.056,0-.056-.056-.112,0C64.756,220.78,64.756,220.836,64.812,220.78Z" transform="translate(-59.337 -204.162)"/>
          <path id="Path_1871" data-name="Path 1871" class="cls-10" d="M63.68,218.98Z" transform="translate(-58.875 -203.366)"/>
          <path id="Path_1872" data-name="Path 1872" class="cls-10" d="M63.5,218.5v0Z" transform="translate(-58.807 -203.164)"/>
          <path id="Path_1873" data-name="Path 1873" class="cls-10" d="M63.1,218Z" transform="translate(-58.63 -202.943)"/>
          <path id="Path_1874" data-name="Path 1874" class="cls-10" d="M63.2,217.98Z" transform="translate(-58.674 -202.923)"/>
          <path id="Path_1875" data-name="Path 1875" class="cls-10" d="M62.78,216.956V216.9S62.725,216.956,62.78,216.956Z" transform="translate(-58.477 -202.457)"/>
          <path id="Path_1876" data-name="Path 1876" class="cls-10" d="M62.667,216.4Z" transform="translate(-58.42 -202.235)"/>
          <path id="Path_1877" data-name="Path 1877" class="cls-10" d="M59.9,207.4v.056h0Z" transform="translate(-57.214 -198.254)"/>
          <path id="Path_1878" data-name="Path 1878" class="cls-10" d="M58.58,203.5Z" transform="translate(-56.62 -196.529)"/>
          <path id="Path_1879" data-name="Path 1879" class="cls-10" d="M58.1,201.3v.056l.056-.056Z" transform="translate(-56.418 -195.556)"/>
        </g>
        <g id="Group_1580" data-name="Group 1580" transform="translate(28.405 8.338)">
          <path id="Path_1880" data-name="Path 1880" class="cls-10" d="M59.88,222c0,.056-.056,0,0,0C59.88,222.056,59.936,222,59.88,222Z" transform="translate(-54.852 -206.051)"/>
          <path id="Path_1881" data-name="Path 1881" class="cls-10" d="M50.893,193.679c-.056.223.167.446.112.669,0,0,.056-.056.056.056a1,1,0,0,0,.279.725h0c.056.056,0,.112,0,.167h.056c-.056,0,0,.112,0,.112h.056l-.056.056c-.112.112.056.167.056.335h0a2.878,2.878,0,0,0,.112.613s.056-.056.056,0c-.056,0-.056.112-.056.167.056,0,0,.112.056.167h0c-.056.056.056.056,0,.112h.056c-.056.056.056.056.056.112h0a.055.055,0,0,0,.056.056h0c0,.056.056.112,0,.112.056,0,0-.056.056-.056a3.907,3.907,0,0,0,.167.781.055.055,0,0,1,.056.056v.112h.056c.056.056-.056.056,0,.112a.055.055,0,0,1,.056-.056c-.056.056,0,.112,0,.167V198.2c-.056.056.056.112,0,.167h0c.056.056-.056.056,0,.112h.056c-.056.056,0,.167,0,.223h0c0,.056.056.112.056.223,0,0,.056-.056.112.056-.056,0,0,.112-.056.112.056.056.112.167.056.167,0-.056.112,0,.056-.056h.056v.056c0,.056-.056.112-.056.223,0-.056.056,0,.056-.056l-.112.167a.055.055,0,0,1,.056.056l-.056.056s0,.112.056.112,0-.056.056,0v.112h0c0,.056,0,.112-.056.056,0,0,.056,0,0-.056a.077.077,0,0,0,0,.112l.056-.056c-.056.056,0,.167,0,.223-.056,0,.056-.056,0-.056.056.056,0,.223.112.279h-.056c0,.056.056,0,.056.056v.056h0c0,.056,0,.223.056.279a.2.2,0,0,0-.056.112h.056c.056,0,0,.056.056.056-.056.056,0-.167-.056-.112.056,0-.056.112,0,.056,0,.056,0,.112.056.112,0,0,.056-.056.056,0v.112c-.056,0,0,.056,0,.056.056,0,0,.112.056.056H52.9c0,.056-.056.056-.056.112h0c-.056.056,0,.056,0,.112.056.056.056.167.112.167v.112c.056,0,0,.056,0,.056a.2.2,0,0,0,.112.056.055.055,0,0,1-.056.056c.112,0,0,.112.056.167a.055.055,0,0,1,.056-.056c.112,0-.056.112,0,.167h-.056c.056,0,0,.112.056.056,0,0,.056.056,0,.056.112.112.056.279.167.279v.056c-.056,0,0-.056,0-.056h0s.056.056.056,0c.056.056-.056.112,0,.167H53.4v.056c.056.056.056,0,.112,0v.112h.056c-.056,0,0,.056,0,.056h0v.056l-.056-.056v.056a.055.055,0,0,1,.056.056v.056s0,.056.056,0c0,0-.056,0,0-.056a.055.055,0,0,1,.056.056c0,.056-.112,0-.056.056l.056-.056.056.056h-.056a.077.077,0,0,0,0,.112.055.055,0,0,0,.056.056h0c.056,0,.056.056,0,.112h0v.112c.056.056.167-.056.112.056,0,.056-.056.112-.056.056.056.056,0,.167.112.223V204c.056.112.056.279.112.335,0-.056.056,0,.056,0,0,.056.056,0,0,.056h-.056c0,.056.056.167.056.223h-.056c.056,0,.056,0,.056.056h0s-.056.056,0,.056h.056c0,.056-.056.112,0,.167h.056a.055.055,0,0,1-.056.056c.056.056.056.112.112.112a.787.787,0,0,0,.056.5h0c.056.056-.056.056,0,.056h.056a.077.077,0,0,1,0,.112c-.056,0,0-.056,0,0a.077.077,0,0,1,0,.112.055.055,0,0,0,.056-.056v.056c.056,0,.056-.112.167-.112v.056c.056,0,.056-.112.056-.056s-.056.112-.112.056c0,.056-.112.056-.056.167.056,0,0-.056.056-.056s0,.056,0,.112c-.056-.056-.056,0-.056.056.056.056.056-.056.056,0l-.056.056c-.056.056.056.056,0,.112.056,0,.112-.112.112-.056-.056,0-.056.112-.112.056h.056c.056,0-.056.112.056.112h-.056l.056.056c0,.056-.056.112.056.112a.055.055,0,0,1-.056.056c-.056-.056,0-.056-.056-.056.056,0,0,.056,0,.112h0v.056h.056l-.056.056c0,.056.056,0,.056.056v-.056a.055.055,0,0,1,.056.056l-.112.056c0,.056.056,0,0,.056l.056-.056a.055.055,0,0,1,.056.056c0,.056-.056.112-.056.056,0,0,.056.056.056,0,0,.056-.056,0-.056.056.056,0,.056.056.112.056l.056-.056v.056c.056-.056.056,0,.112-.056v.056c-.112-.056-.112.112-.167.112,0,.112.223,0,.112.112,0,0-.056.056-.056,0,0,.056-.056.056,0,.112,0-.056.112,0,.112-.056,0,0-.056-.056,0-.056s.056-.056.112,0v.112c-.056,0,0-.056-.056,0,0,.056.056.056,0,.112,0-.056-.056-.056-.056,0v.056h0c.056.056-.056.056,0,.112h.056c.056-.056-.056-.112.056-.112v.056s.112,0,.056.112c0,.056,0,0-.056.056v.167c.056-.056.056.112.056,0-.056,0-.056-.112,0-.167.056,0-.056-.056.056-.112,0,.056.112.056.112.056v.056h-.112a.1.1,0,0,1,0,.167.055.055,0,0,0,.056-.056c0,.112.056.167.056.223-.056-.056,0,.112-.056.056s-.112-.056-.112,0h.056c0,.056.056.056,0,.056,0-.056.056-.056.112-.056,0,.056.056,0,.056.056v.223a.418.418,0,0,1,.056.279h.112c0,.056-.056,0,0,.056h0s.056.112,0,.167l.056-.056v.056h.056c.056,0,0,.112.056.112h-.056c0,.112.056.112.056.223h.056v.056c.056,0,.056,0,.056.056l.056-.167a.055.055,0,0,0-.056.056c-.056,0-.056-.056,0-.112v.056a.055.055,0,0,0,.056-.056v-.056c0,.056-.056,0-.056,0,.056,0,.056-.056,0-.112-.056,0,0-.112-.056-.167a.173.173,0,0,0-.056.112c-.056-.056,0-.056-.056-.056.056-.056.056-.056.056-.112h-.056c0-.056.056-.056,0-.112-.056-.112-.056-.223-.112-.279h-.056c.056-.056,0-.167,0-.223-.056-.112-.056-.223-.112-.279-.056-.167-.056-.335-.112-.5l-.056.056c0-.056-.056,0-.056-.056.056,0,.056-.056.056-.112a.418.418,0,0,1-.056-.279h-.056c.056-.112-.056-.167-.056-.223a.055.055,0,0,1-.056-.056.2.2,0,0,0,.056-.167c0-.056-.056-.112-.112-.167,0-.223-.112-.39-.112-.613h-.056a1.977,1.977,0,0,0-.167-.613l-.056.056c-.056-.056,0-.112.056-.112-.056-.056,0-.167-.056-.167-.056-.056,0-.056,0-.112-.056-.112-.056-.167-.112-.223h-.056c0-.056-.056-.112.056-.112-.056-.112-.056-.279-.167-.335l.056-.056c-.056-.112-.112-.167-.112-.279,0,0-.056.056-.056,0a.055.055,0,0,0,.056-.056c0-.167-.167-.279-.167-.446-.056-.279-.167-.5-.223-.781h0c.056-.112-.112-.167-.056-.279l-.056-.056c0-.056-.112-.167-.056-.279h0c-.056-.056-.056-.167-.112-.279v.056c-.056,0,.056-.112-.056-.112,0,0,.056-.056.056,0a2.941,2.941,0,0,1-.167-.669c-.112-.167-.112.056-.112-.112h0c0-.056-.112-.056-.056-.112.056,0,0-.056.056-.056-.056-.112-.112-.112-.112-.167h0c.056-.112-.056-.223.056-.335-.167-.5-.223-1-.39-1.506a14.9,14.9,0,0,0-.5-1.45c-.112-.112-.112-.112-.112-.223h0c.056,0,0-.112,0-.112-.056-.167-.112-.335-.167-.558,0,.056-.056.056-.056,0v-.056h0a.055.055,0,0,1,.056-.056,13.956,13.956,0,0,0-.5-1.394,1.034,1.034,0,0,1-.112-.39,3.138,3.138,0,0,1-.39-1C51,193.456,50.893,193.567,50.893,193.679Z" transform="translate(-50.884 -193.4)"/>
          <path id="Path_1882" data-name="Path 1882" class="cls-10" d="M59.812,221.88c-.056,0-.056-.056-.112,0Z" transform="translate(-54.784 -205.987)"/>
          <path id="Path_1883" data-name="Path 1883" class="cls-10" d="M58.767,220.1Z" transform="translate(-54.352 -205.21)"/>
          <path id="Path_1884" data-name="Path 1884" class="cls-10" d="M58.6,219.6v0Z" transform="translate(-54.297 -204.989)"/>
          <path id="Path_1885" data-name="Path 1885" class="cls-10" d="M58.2,219.2Z" transform="translate(-54.12 -204.812)"/>
          <path id="Path_1886" data-name="Path 1886" class="cls-10" d="M58.3,219.1Z" transform="translate(-54.164 -204.768)"/>
          <path id="Path_1887" data-name="Path 1887" class="cls-10" d="M57.88,218.167h0C57.88,218.111,57.825,218.167,57.88,218.167Z" transform="translate(-53.968 -204.337)"/>
          <path id="Path_1888" data-name="Path 1888" class="cls-10" d="M57.78,217.68h0c0-.056-.056,0,0,0Z" transform="translate(-53.923 -204.129)"/>
          <path id="Path_1889" data-name="Path 1889" class="cls-10" d="M55.2,209.1Z" transform="translate(-52.793 -200.345)"/>
          <path id="Path_1890" data-name="Path 1890" class="cls-10" d="M54.067,205.3Z" transform="translate(-52.273 -198.664)"/>
          <path id="Path_1891" data-name="Path 1891" class="cls-10" d="M53.6,203.2Z" transform="translate(-52.085 -197.735)"/>
        </g>
        <g id="Group_1581" data-name="Group 1581" transform="translate(25.669 9.174)">
          <path id="Path_1892" data-name="Path 1892" class="cls-10" d="M55.18,223.5c0,.056-.056,0,0,0C55.18,223.556,55.236,223.5,55.18,223.5Z" transform="translate(-50.038 -207.551)"/>
          <path id="Path_1893" data-name="Path 1893" class="cls-10" d="M45.991,195.235c-.056.223.167.446.112.669,0,0,.056-.056.056.056a1,1,0,0,0,.279.725h0c.056.056,0,.112,0,.167h.056c-.056,0,0,.112,0,.112h.056l-.056.056c-.056.112.056.167.056.335h0a2.878,2.878,0,0,0,.112.613s.056-.056.056,0c-.056,0-.056.112-.056.167.056,0,0,.112.056.167h0c-.056.056.056.056,0,.112h.056c-.056.056.056.056.056.112h0a.055.055,0,0,0,.056.056h0c0,.056.056.112,0,.112.056,0,0-.056.056-.056a2.068,2.068,0,0,0,.223.781.055.055,0,0,1,.056.056v.112h.056c.056.056-.056.056,0,.112a.055.055,0,0,1,.056-.056c-.056.056,0,.112,0,.167v-.056c-.056.056.056.112,0,.167v-.056c.056.056-.056.056,0,.112h.056c-.056.056,0,.167,0,.223h0c0,.056.056.112.056.223,0,0,.056-.056.112.056-.056,0,0,.112-.056.112.056.056.112.167.056.167,0-.056.112,0,.056-.056h.056v.056c0,.056-.056.112-.056.223,0-.056.056,0,.056-.056l-.112.167a.055.055,0,0,1,.056.056l-.056.056a.109.109,0,0,0,.112.112c.056,0,0-.056.056,0v.112h0c0,.056,0,.112-.056.056,0,0,.056,0,0-.056a.077.077,0,0,0,0,.112l.056-.056c-.056.056,0,.167,0,.223-.056,0,.056-.056,0-.056.056.056,0,.223.112.279h-.056c0,.056.056,0,.056.056v.056h0c0,.056,0,.223.056.279a.2.2,0,0,0-.056.112h.056c.056,0,0,.056.056.056-.056.056,0-.167-.056-.112.056,0-.056.112,0,.056,0,.056,0,.112.056.112,0,0,.056-.056.056,0v.112c-.056,0,0,.056,0,.056.056,0,0,.112.056.056h.056a.2.2,0,0,0-.056.112h0c-.056.056,0,.056,0,.112.056.056.056.167.112.167v.112c.056,0,0,.056,0,.056a.2.2,0,0,0,.112.056.055.055,0,0,1-.056.056c.112,0,0,.112.056.167a.055.055,0,0,1,.056-.056c.112,0-.056.112,0,.167h-.056c.056,0,0,.112.056.056,0,0,.056.056,0,.056.112.112.056.279.167.279v.056c-.056,0,0-.056,0-.056h0s.056.056.056,0c.056.056-.056.112,0,.167h.056v.056c.056.056.056,0,.112,0v.112h.056c-.056,0,0,.056,0,.056h0v.056l-.056-.056v.056a.055.055,0,0,1,.056.056v.056s0,.056.056,0c0,0-.056,0,0-.056a.055.055,0,0,1,.056.056c0,.056-.112,0-.056.056l.056-.056.056.056h-.056a.077.077,0,0,0,0,.112.055.055,0,0,0,.056.056h0c.056,0,.056.056,0,.112h0v.112c.056.056.167-.056.112.056,0,.056-.056.112-.056.056.056.056,0,.167.112.223v.056c.056.112.056.279.112.335,0-.056.056,0,.056,0,0,.056.056,0,0,.056h-.056c0,.056.056.167.056.223h-.056c.056,0,.056,0,.056.056h0s-.056.056,0,.056h.056c0,.056-.056.112,0,.167h.056a.055.055,0,0,1-.056.056c.056.056.056.112.112.112a.787.787,0,0,0,.056.5h0c.056.056-.056.056,0,.056h.056a.077.077,0,0,1,0,.112c-.056,0,0-.056,0,0a.077.077,0,0,1,0,.112.055.055,0,0,0,.056-.056v.056c.056,0,.056-.112.167-.112v.056c.056,0,.056-.112.056-.056s-.056.112-.112.056c0,.056-.112.056-.056.167.056,0,0-.056.056-.056s0,.056,0,.112c-.056-.056-.056,0-.056.056.056.056.056-.056.056,0l-.056.056c-.056.056.056.056,0,.112.056,0,.112-.112.112-.056-.056,0-.056.112-.112.112h.056c.056,0-.056.112.056.112h0c0,.056-.056.112.056.112a.055.055,0,0,1-.056.056c-.056-.056,0-.056-.056-.056.056,0,0,.056,0,.112h0v.056h.056l-.056.056c0,.056.056,0,.056.056v-.056a.055.055,0,0,1,.056.056l-.112.056c0,.056.056,0,0,.056l.056-.056a.055.055,0,0,1,.056.056c0,.056-.056.112-.056.056,0,0,.056.056.056,0,0,.056-.056,0-.056.056.056,0,.056.056.112.056l.056-.056v.056c.056-.056.056,0,.112-.056v.056c-.112-.056-.112.112-.167.112,0,.112.223,0,.112.112,0,0-.056.056-.056,0,0,.056-.056.056,0,.112,0-.056.112,0,.112-.056,0,0-.056-.056,0-.056s.056-.056.112,0v.112c-.056,0,0-.056-.056,0,0,.056.056.056,0,.112,0-.056-.056-.056-.112,0v.056h0c.056.056-.056.056,0,.112h.056c.056-.056-.056-.112,0-.112v.056s.112,0,.056.112c0,.056,0,0-.056.056v.167c.056-.056.056.056.056,0-.056,0-.056-.112,0-.167.056,0-.056-.056.056-.112,0,.056.112.056.112.056v.056h-.112a.1.1,0,0,1,0,.167.055.055,0,0,0,.056-.056.29.29,0,0,0,.112.223c-.112,0,0,.112-.056.056s-.112-.056-.112,0h.056c0,.056.056.056,0,.056,0-.056.056-.056.112-.056,0,.056.056,0,.056.056v.223a.418.418,0,0,1,.056.279h.112c0,.056-.056,0,0,.056h0s.056.112,0,.167l.056-.056v.056h.056c.056,0,0,.112.056.112h-.056c0,.056.056.112.056.223h.056v.056c.056,0,.056,0,.056.056l.056-.167a.055.055,0,0,0-.056.056c-.056,0-.056-.056,0-.112v.056a.055.055,0,0,0,.056-.056v-.056c0,.056-.056,0-.056,0,.056,0,.056-.056,0-.112-.056,0,0-.112-.056-.167a.173.173,0,0,0-.056.112c-.056-.056,0-.056-.056-.056.056-.056.056-.056.056-.112h-.056c0-.056.056-.056,0-.112a.942.942,0,0,1-.112-.279h-.056c.056-.056,0-.167,0-.223-.056-.112-.056-.223-.112-.279-.056-.167-.056-.335-.112-.5l-.056.056c0-.056-.056,0-.056-.056.056,0,.056-.056.056-.112a.418.418,0,0,1-.056-.279h-.056c.056-.112-.056-.167-.056-.223a.055.055,0,0,1-.056-.056c.056-.056,0-.112.056-.167,0-.056-.056-.112-.112-.167,0-.223-.112-.39-.112-.613h-.056a1.977,1.977,0,0,0-.167-.613l-.056.056c-.056-.056,0-.112.056-.112-.056-.056,0-.167-.056-.167-.056-.056,0-.056,0-.112-.056-.112-.056-.167-.112-.223h-.056c0-.056-.056-.112.056-.112-.056-.112-.056-.279-.167-.335l.056-.056c-.056-.112-.112-.167-.112-.279,0,0-.056.056-.056,0a.055.055,0,0,0,.056-.056c0-.167-.167-.279-.167-.446-.056-.279-.167-.5-.223-.781h0c.056-.112-.112-.167-.056-.279l-.056-.056c0-.056-.112-.167-.056-.279h0c-.056-.056-.056-.167-.112-.279v.056c-.056,0,.056-.112-.056-.112,0,0,.056-.056.056,0a2.941,2.941,0,0,1-.167-.669c-.112-.167-.112.056-.112-.112h0c0-.056-.112-.056-.112-.112.056,0,0-.056.056-.056-.056-.112-.112-.112-.112-.167h0c.056-.112-.056-.223.056-.335a14.95,14.95,0,0,1-.39-1.506,14.9,14.9,0,0,0-.5-1.45c-.112-.112-.112-.112-.112-.223h0c.056,0,0-.112,0-.112-.056-.167-.112-.335-.167-.558,0,.056-.056.056-.056,0v-.056h0a.055.055,0,0,1,.056-.056c-.112-.5-.39-.892-.5-1.394a1.034,1.034,0,0,1-.112-.39,3.137,3.137,0,0,1-.39-1C46.1,195.012,45.935,195.067,45.991,195.235Z" transform="translate(-45.979 -194.9)"/>
          <path id="Path_1894" data-name="Path 1894" class="cls-10" d="M55.112,223.38c-.056,0-.056-.056-.112,0Z" transform="translate(-49.969 -207.487)"/>
          <path id="Path_1895" data-name="Path 1895" class="cls-10" d="M54,221.6Z" transform="translate(-49.527 -206.71)"/>
          <path id="Path_1896" data-name="Path 1896" class="cls-10" d="M53.8,221.1v0Z" transform="translate(-49.438 -206.489)"/>
          <path id="Path_1897" data-name="Path 1897" class="cls-10" d="M53.48,220.7Z" transform="translate(-49.286 -206.312)"/>
          <path id="Path_1898" data-name="Path 1898" class="cls-10" d="M53.58,220.6Z" transform="translate(-49.33 -206.268)"/>
          <path id="Path_1899" data-name="Path 1899" class="cls-10" d="M53.1,219.68Z" transform="translate(-49.129 -205.85)"/>
          <path id="Path_1900" data-name="Path 1900" class="cls-10" d="M53,219.18Z" transform="translate(-49.085 -205.629)"/>
          <path id="Path_1901" data-name="Path 1901" class="cls-10" d="M50.4,210.6v.056l.056-.056Z" transform="translate(-47.935 -201.845)"/>
          <path id="Path_1902" data-name="Path 1902" class="cls-10" d="M49.18,206.867c0-.056-.056-.056,0,0C49.125,206.867,49.18,206.811,49.18,206.867Z" transform="translate(-47.384 -200.175)"/>
          <path id="Path_1903" data-name="Path 1903" class="cls-10" d="M48.8,204.8Z" transform="translate(-47.227 -199.279)"/>
        </g>
        <g id="Group_1582" data-name="Group 1582" transform="translate(22.937 10.067)">
          <path id="Path_1904" data-name="Path 1904" class="cls-10" d="M49.88,225.2c0,.056-.056,0,0,0Z" transform="translate(-44.962 -209.195)"/>
          <path id="Path_1905" data-name="Path 1905" class="cls-10" d="M41.091,196.835c-.056.223.112.446.112.669,0,0,.056-.056.056.056a1,1,0,0,0,.279.725h0c.056.056,0,.112,0,.167h.056c-.056,0,0,.112,0,.112h.056l-.056.056c-.112.112.056.167.056.335h0a2.877,2.877,0,0,0,.112.613s.056-.056.056,0c-.056,0-.056.112-.056.167.056,0,0,.112.056.167h0c-.056.056.056.056,0,.112h.056c-.056.056.056.056.056.112h0a.055.055,0,0,0,.056.056h0c0,.056.056.112,0,.112.056,0,0-.056.056-.056a3.907,3.907,0,0,0,.167.781.055.055,0,0,1,.056.056v.112h.056c.056.056-.056.056,0,.112a.055.055,0,0,1,.056-.056c-.056.056,0,.112,0,.167v-.056c-.056.056.056.112,0,.167v-.056c.056.056-.056.056,0,.112h.056c-.056.056,0,.167,0,.223h0c0,.056.056.112.056.223,0,0,.056-.056.112.056-.056,0,0,.112-.056.112a.335.335,0,0,1,.056.223c0-.056.112,0,.056-.056h.056v.056c0,.056-.112.112-.056.223,0-.056.056,0,.056-.056l-.112.167a.055.055,0,0,1,.056.056l-.056.056s0,.112.056.112c0,0,0-.056.056,0v.112h0c0,.056,0,.112-.056.056,0,0,.056,0,0-.056a.077.077,0,0,0,0,.112l.056-.056c-.056.056,0,.167,0,.223-.056,0,.056-.056,0-.056.056.056,0,.223.056.279h-.056c0,.056.056,0,.056.056v.056h0c0,.056,0,.223.056.279a.2.2,0,0,0-.056.112h.056c.056,0,0,.056.056.056-.056.056,0-.167-.056-.112.056,0-.056.112,0,.056,0,.056,0,.112.056.112,0,0,.056-.056.056,0v.112c-.056,0,0,.056,0,.056.056,0,0,.112.056.056h.056a.2.2,0,0,0-.056.112h0c-.056.056,0,.056,0,.112.056.056.056.167.112.167v.112c.056,0,0,.056,0,.056a.2.2,0,0,0,.112.056.055.055,0,0,1-.056.056c.112,0,0,.112.056.167a.055.055,0,0,1,.056-.056c.112,0-.056.112,0,.167H43.21c.056,0,0,.112.056.056,0,.056.056.056,0,.056.056.112.056.279.167.279v.056c-.056,0,0-.056,0-.056h0s.056.056.056,0c.056.056-.056.112,0,.167h.056v.056c.056.056.056,0,.112,0v.112h.056c-.056,0,0,.056,0,.056h0v.056l-.056-.056v.056a.055.055,0,0,1,.056.056v.056s0,.056.056,0c0,0-.056,0,0-.056a.055.055,0,0,1,.056.056c0,.056-.112,0-.056.056l.056-.056.056.056h-.056c-.056.056,0,.112-.056.112l.056.056h0c.056,0,.056.056,0,.112h0v.112c.056.056.167-.056.112.056,0,.056-.056.112-.056.056.056.056,0,.167.112.223v.056c.056.112.056.279.112.335,0-.056.056,0,.056,0,0,.056.056,0,0,.056H44.1c0,.056.056.167.056.223H44.1c.056,0,.056,0,.056.056h0s-.056.056,0,.056h.056c0,.056-.056.112,0,.167h.056a.055.055,0,0,1-.056.056c.056.056.056.112.112.112a.787.787,0,0,0,.056.5h0c.056.056-.056.056,0,.056h.056a.077.077,0,0,1,0,.112c-.056,0,0-.056,0,0a.077.077,0,0,1,0,.112h.056v.056c.056,0,.056-.112.167-.112v.056c.056,0,.056-.112.056-.056s-.056.112-.112.056c0,.056-.112.056-.056.167.056,0,0-.056.056-.056s0,.056,0,.112c-.056-.056-.056,0-.056.056.056.056.056-.056.056,0l-.056.056c-.056.056.056.056,0,.112.056,0,.112-.112.112-.056-.056,0-.056.112-.112.056H44.6c.056,0-.056.112.056.112H44.6l.056.056c0,.056-.056.112.056.112a.055.055,0,0,1-.056.056c-.056-.056,0-.056-.056-.056.056,0,0,.056,0,.112h0v.056h.056l-.056.056c0,.056.056,0,.056.056v-.056a.055.055,0,0,1,.056.056l-.112.056c0,.056.056,0,0,.056l.056-.056a.055.055,0,0,1,.056.056c0,.056-.056.112-.056.056,0,0,.056.056.056,0,0,.056-.056,0-.056.056.056,0,.056.056.112.056l.056-.056v.056c.056-.056.056,0,.112-.056v.056c-.112-.056-.112.112-.167.112,0,.112.223,0,.112.112,0,0-.056.056-.056,0,0,.056-.056.056,0,.112,0-.056.112,0,.112-.056,0,0-.056-.056,0-.056s.056-.056.112,0v.112c-.056,0,0-.056-.056,0,0,.056.056.056,0,.112a.055.055,0,0,0-.056-.056v.056h0c.056.056-.056.056,0,.112h.056c.056-.056-.056-.112.056-.112v.056s.112,0,.056.112c0,.056,0,0-.056.056v.167c.056,0,.056.112.056,0-.056,0-.056-.112,0-.167.056,0,0-.056.056-.112,0,.056.112.056.112.056v.056h-.112a.1.1,0,0,1,0,.167.055.055,0,0,0,.056-.056c0,.112.056.167.056.223-.056-.056,0,.112-.056.056,0-.056-.112-.056-.112,0h.056c0,.056.056.056,0,.056,0-.056.056-.056.112-.056,0,.056.056,0,.056.056v.167a.418.418,0,0,1,.056.279H45.5c0,.056-.056,0,0,.056h0s.056.112,0,.167l.056-.056v.056h.056c.056,0,0,.112.056.112h-.056c0,.112.056.112.056.223h.056v.056c.056,0,.056,0,.056.056l.056-.167a.055.055,0,0,0-.056.056c-.056,0-.056-.056,0-.112v.056a.055.055,0,0,0,.056-.056v-.056c0,.056-.056,0-.056,0,.056,0,.056-.056,0-.112-.056,0,0-.112-.056-.167a.173.173,0,0,0-.056.112c-.056-.056,0-.056-.056-.056l.112-.112h-.056c0-.056.056-.056,0-.112-.056-.112-.056-.223-.112-.279H45.5c.056-.056,0-.167,0-.223-.056-.112-.056-.223-.112-.279a1.628,1.628,0,0,0-.112-.5l-.056.056c0-.056-.056,0-.056-.056.056,0,.056-.056.056-.112a.418.418,0,0,1-.056-.279h-.056c.056-.112-.056-.167-.056-.223a.055.055,0,0,1-.056-.056.2.2,0,0,0,.056-.167c0-.056-.056-.112-.112-.167,0-.223-.112-.39-.112-.613h-.056c0-.223-.112-.446-.112-.613l-.056.056c-.056-.056,0-.112.056-.112-.056-.056,0-.167-.056-.167-.056-.056,0-.056,0-.112-.056-.112-.056-.167-.112-.223h-.056c0-.056-.056-.112.056-.112-.056-.112-.056-.279-.112-.335l.056-.056c-.056-.112-.112-.167-.112-.279,0,0-.056.056-.056,0a.055.055,0,0,0,.056-.056c0-.167-.167-.279-.167-.446a4.108,4.108,0,0,0-.223-.781h0c.056-.112-.112-.167-.056-.279l-.056-.056c0-.056-.112-.167-.056-.279h0c-.056-.056-.056-.167-.112-.279v.056c-.056-.056.056-.112-.056-.112h.056a2.941,2.941,0,0,1-.167-.669c-.112-.167-.112.056-.112-.112h0c0-.056-.112-.056-.056-.112.056,0,0-.056.056-.056-.056-.112-.112-.112-.112-.167h0c.056-.112,0-.223.056-.335-.167-.5-.223-1-.39-1.506s-.279-.948-.446-1.45c-.112-.112-.112-.112-.112-.223h0c.056,0,0-.112,0-.112-.056-.167-.112-.335-.167-.558,0,.056-.056.056-.056,0v-.056h0a.055.055,0,0,1,.056-.056,13.956,13.956,0,0,0-.5-1.394,1.034,1.034,0,0,1-.112-.39,3.137,3.137,0,0,1-.39-1C41.2,196.556,41.091,196.667,41.091,196.835Z" transform="translate(-41.08 -196.5)"/>
          <path id="Path_1906" data-name="Path 1906" class="cls-10" d="M49.712,225.08c-.056,0-.056-.056-.112,0Z" transform="translate(-44.848 -209.131)"/>
          <path id="Path_1907" data-name="Path 1907" class="cls-10" d="M48.7,223.3Z" transform="translate(-44.45 -208.355)"/>
          <path id="Path_1908" data-name="Path 1908" class="cls-10" d="M48.5,222.8v0Z" transform="translate(-44.362 -208.134)"/>
          <path id="Path_1909" data-name="Path 1909" class="cls-10" d="M48.18,222.4Z" transform="translate(-44.21 -207.957)"/>
          <path id="Path_1910" data-name="Path 1910" class="cls-10" d="M48.28,222.3Z" transform="translate(-44.254 -207.912)"/>
          <path id="Path_1911" data-name="Path 1911" class="cls-10" d="M47.88,221.3Z" transform="translate(-44.077 -207.47)"/>
          <path id="Path_1912" data-name="Path 1912" class="cls-10" d="M47.767,220.867Z" transform="translate(-44.019 -207.26)"/>
          <path id="Path_1913" data-name="Path 1913" class="cls-10" d="M45.3,212.2v.056h0Z" transform="translate(-42.946 -203.445)"/>
          <path id="Path_1914" data-name="Path 1914" class="cls-10" d="M44.167,208.467c0-.056-.056-.056,0,0C44.111,208.467,44.111,208.411,44.167,208.467Z" transform="translate(-42.427 -201.775)"/>
          <path id="Path_1915" data-name="Path 1915" class="cls-10" d="M43.8,206.4Z" transform="translate(-42.283 -200.879)"/>
        </g>
        <g id="Group_1583" data-name="Group 1583" transform="translate(20.095 11.015)">
          <path id="Path_1916" data-name="Path 1916" class="cls-10" d="M45.18,226.7c0,.056-.056,0,0,0Z" transform="translate(-40.041 -210.807)"/>
          <path id="Path_1917" data-name="Path 1917" class="cls-10" d="M35.993,198.479c-.056.223.167.446.112.669,0,0,.056-.056.056.056a1,1,0,0,0,.279.725h0c.056.056,0,.112,0,.167h.056c-.056,0,0,.112,0,.112h.056l-.056.056c-.112.112.056.167.056.335h0a2.877,2.877,0,0,0,.112.613s.056-.056.056,0c-.056,0-.056.112-.056.167.056,0,0,.112.056.167h0c-.056.056.056.056,0,.112h.056c-.056.056.056.056.056.112h0a.055.055,0,0,0,.056.056h0c0,.056.056.112,0,.112.056,0,0-.056.056-.056a2.068,2.068,0,0,0,.223.781.055.055,0,0,1,.056.056v.112h.056c.056.056-.056.056,0,.112a.055.055,0,0,1,.056-.056c-.056.056,0,.112,0,.167V203c-.056.056.056.112,0,.167h0c.056.056-.056.056,0,.112h.056c-.056.056,0,.167,0,.223h0c0,.056.056.112.056.223,0,0,.056-.056.112.056-.056,0,0,.112-.056.112.056.056.112.167.056.167,0-.056.112,0,.056-.056h.056v.056c0,.056-.056.112-.056.223,0-.056.056,0,.056-.056l-.112.167a.055.055,0,0,1,.056.056l-.056.056a.109.109,0,0,0,.112.112s0-.056.056,0v.112h0s0,.112-.056.056c0,0,.056,0,0-.056a.077.077,0,0,0,0,.112l.056-.056c-.056.056,0,.167,0,.223-.056,0,.056-.056,0-.056.056.056,0,.223.112.279h-.056c0,.056.056,0,.056.056v.056h0c0,.056,0,.223.056.279a.2.2,0,0,0-.056.112h.056c.056,0,0,.056.056.056-.056.056,0-.167-.056-.112.056,0-.056.112,0,.056,0,.056,0,.112.056.112,0,0,.056-.056.056,0v.112c-.056,0,0,.056,0,.056.056,0,0,.112.056.056h.056a.2.2,0,0,0-.056.112h0c-.056.056,0,.056,0,.112.056.056.056.167.112.167v.112c.056,0,0,.056,0,.056a.2.2,0,0,0,.112.056.055.055,0,0,1-.056.056c.112,0,0,.112.056.167a.055.055,0,0,1,.056-.056c.112,0-.056.112,0,.167h-.056c.056,0,0,.112.056.056,0,.056.056.056,0,.056.112.112.056.279.167.279v.056c-.056,0,0-.056,0-.056h0s.056.056.056,0c.056.056-.056.112,0,.167h.056v.056c.056.056.056,0,.112,0v.112h.056c-.056,0,0,.056,0,.056h0v.056l-.056-.056v.056a.055.055,0,0,1,.056.056v.056s0,.056.056,0V207.9a.055.055,0,0,1,.056.056c0,.056-.112,0-.056.056l.056-.056.056.056h-.056a.077.077,0,0,0,0,.112l.056.056h0c.056,0,.056.056,0,.112h0v.112c.056.056.167-.056.112.056,0,.056-.056.112-.056.056.056.056,0,.167.112.223v.056c.056.112.056.279.112.335,0-.056.056,0,.056,0,0,.056.056,0,0,.056h-.056c0,.056.056.167.056.223h-.056c.056,0,.056,0,.056.056h0s-.056.056,0,.056h.056c0,.056-.056.112,0,.167h.056a.055.055,0,0,1-.056.056c.056.056.056.112.112.112a.787.787,0,0,0,.056.5h0c.056.056-.056.056,0,.056h.056a.077.077,0,0,1,0,.112c-.056,0,0-.056,0,0a.077.077,0,0,1,0,.112.055.055,0,0,0,.056-.056v.056c.056,0,.056-.112.167-.112v.056c.056,0,.056-.112.056-.056s-.056.112-.112.056c0,.056-.112.056-.056.167.056,0,0-.056.056-.056s0,.056,0,.112c-.056-.056-.056,0-.056.056.056.056.056-.056.056,0l-.056.056c-.056.056.056.056,0,.112.056,0,.112-.112.112-.056-.056,0-.056.112-.112.112h.056c.056,0-.056.112.056.112h0c0,.056-.056.112.056.112a.055.055,0,0,1-.056.056c-.056-.056,0-.056-.056-.056.056,0,0,.056,0,.112h0v.056h.056l-.056.056c0,.056.056,0,.056.056v-.056a.055.055,0,0,1,.056.056l-.112.056c0,.056.056,0,0,.056l.056-.056a.055.055,0,0,1,.056.056c0,.056-.056.112-.056.056,0,0,.056.056.056,0,0,.056-.056,0-.056.056.056,0,.056.056.112.056l.056-.056v.056c.056-.056.056,0,.112-.056v.056c-.112-.056-.112.112-.167.112,0,.112.223,0,.112.112,0,0-.056.056-.056,0,0,.056-.056.056,0,.112,0-.056.112,0,.112-.056,0,0-.056-.056,0-.056s.056-.056.112,0v.112c-.056,0,0-.056-.056,0,0,.056.056.056,0,.112,0-.056-.056-.056-.112,0v.056h0c.056.056-.056.056,0,.112h.056c.056-.056-.056-.112,0-.112v.056s.112,0,.056.112c0,.056,0,0-.056.056v.167c.056-.056.056.112.056,0-.056,0-.056-.112,0-.167.056,0-.056-.056.056-.112,0,.056.112.056.112.056v.056h-.112a.1.1,0,0,1,0,.167.055.055,0,0,0,.056-.056.29.29,0,0,0,.112.223c-.112,0,0,.112-.056.056s-.112-.056-.112,0h.056c0,.056.056.056,0,.056,0-.056.056-.056.112-.056,0,.056.056,0,.056.056v.223a.418.418,0,0,1,.056.279h.112c0,.056-.056,0,0,.056h0s.056.112,0,.167l.056-.056v.056h.056c.056,0,0,.112.056.112h-.056c0,.112.056.112.056.223h.056v.056c.056,0,.056,0,.056.056l.056-.167a.055.055,0,0,0-.056.056c-.056,0-.056-.056,0-.112v.056a.055.055,0,0,0,.056-.056v-.056c0,.056-.056,0-.056,0,.056,0,.056-.056,0-.112-.056,0,0-.112-.056-.167a.173.173,0,0,0-.056.112c-.056-.056,0-.056-.056-.056.056-.056.056-.056.056-.112h-.056c0-.056.056-.056,0-.112-.056-.112-.056-.223-.112-.279H40.51c.056-.056,0-.167,0-.223-.056-.112-.056-.223-.112-.279-.056-.167-.056-.335-.112-.5l-.056.056c0-.056-.056,0-.056-.056.056,0,.056-.056.056-.112a.418.418,0,0,1-.056-.279H40.12c.056-.112-.056-.167-.056-.223a.055.055,0,0,1-.056-.056.2.2,0,0,0,.056-.167c0-.056-.056-.112-.112-.167,0-.223-.112-.39-.112-.613h-.056a1.977,1.977,0,0,0-.167-.613l-.056.056c-.056-.056,0-.112.056-.112-.056-.056,0-.167-.056-.167-.056-.056,0-.056,0-.112-.056-.112-.056-.167-.112-.223h-.056c0-.056-.056-.112.056-.112-.056-.112-.056-.279-.167-.335l.056-.056c-.056-.112-.112-.167-.112-.279,0,0-.056.056-.056,0a.055.055,0,0,0,.056-.056c0-.167-.167-.279-.167-.446-.056-.279-.167-.5-.223-.781h0c.056-.112-.112-.167-.056-.279l-.056-.056c0-.056-.112-.167-.056-.279h0c-.056-.056-.056-.167-.112-.279v.056c-.056,0,.056-.112-.056-.112,0,0,.056-.056.056,0a2.941,2.941,0,0,1-.167-.669c-.112-.167-.112.056-.112-.112h0c0-.056-.112-.056-.056-.112.056,0,0-.056.056-.056-.056-.112-.112-.112-.112-.167h0c.056-.112-.056-.223.056-.335a14.948,14.948,0,0,1-.39-1.506,14.9,14.9,0,0,0-.5-1.45c-.112-.112-.112-.112-.112-.223h0c.056,0,0-.112,0-.112-.056-.167-.112-.335-.167-.558,0,.056-.056.056-.056,0v-.056h0a.055.055,0,0,1,.056-.056c-.112-.5-.39-.892-.5-1.394a1.034,1.034,0,0,1-.112-.39,3.138,3.138,0,0,1-.39-1C36.1,198.2,35.993,198.312,35.993,198.479Z" transform="translate(-35.984 -198.2)"/>
          <path id="Path_1918" data-name="Path 1918" class="cls-10" d="M45.012,226.58c-.056,0-.056-.056-.112,0Z" transform="translate(-39.928 -210.743)"/>
          <path id="Path_1919" data-name="Path 1919" class="cls-10" d="M43.98,224.8Z" transform="translate(-39.51 -209.966)"/>
          <path id="Path_1920" data-name="Path 1920" class="cls-10" d="M43.8,224.3v0Z" transform="translate(-39.441 -209.745)"/>
          <path id="Path_1921" data-name="Path 1921" class="cls-10" d="M43.467,223.9Z" transform="translate(-39.275 -209.568)"/>
          <path id="Path_1922" data-name="Path 1922" class="cls-10" d="M43.567,223.8h0C43.511,223.8,43.511,223.856,43.567,223.8Z" transform="translate(-39.32 -209.524)"/>
          <path id="Path_1923" data-name="Path 1923" class="cls-10" d="M43.08,222.867h0C43.08,222.811,43.025,222.867,43.08,222.867Z" transform="translate(-39.112 -209.093)"/>
          <path id="Path_1924" data-name="Path 1924" class="cls-10" d="M42.98,222.38h0c0-.056-.056,0,0,0Z" transform="translate(-39.068 -208.885)"/>
          <path id="Path_1925" data-name="Path 1925" class="cls-10" d="M40.4,213.8Z" transform="translate(-37.937 -205.101)"/>
          <path id="Path_1926" data-name="Path 1926" class="cls-10" d="M39.2,210Z" transform="translate(-37.406 -203.42)"/>
          <path id="Path_1927" data-name="Path 1927" class="cls-10" d="M38.8,207.956h0l.056-.056Z" transform="translate(-37.23 -202.491)"/>
        </g>
        <g id="Group_1584" data-name="Group 1584" transform="translate(17.472 11.628)">
          <path id="Path_1928" data-name="Path 1928" class="cls-10" d="M40.18,228.3c0,.056-.056,0,0,0Z" transform="translate(-35.206 -212.128)"/>
          <path id="Path_1929" data-name="Path 1929" class="cls-10" d="M31.291,199.8c-.056.223.112.446.112.669,0,0,.056-.056.056.056a1,1,0,0,0,.279.725h0c.056.056,0,.112,0,.167h.056c-.056,0,0,.112,0,.112h.056l-.056.056c-.112.112.056.167.056.335h0a2.877,2.877,0,0,0,.112.613s.056-.056.056,0c-.056,0-.056.112-.056.167.056,0,0,.112.056.167h0c-.056.056.056.056,0,.112h.056c-.056.056.056.056.056.112h0a.055.055,0,0,0,.056.056h0c0,.056.056.112,0,.112.056,0,0-.056.056-.056a3.907,3.907,0,0,0,.167.781.055.055,0,0,1,.056.056v.112h.056c.056.056-.056.056,0,.112a.055.055,0,0,1,.056-.056c-.056.056,0,.112,0,.167h0c-.056.056.056.112,0,.167h0c.056.056-.056.056,0,.112h.056c-.056.056,0,.167,0,.223h0c0,.056.056.112.056.223,0,0,.056-.056.112.056-.056,0,0,.112-.056.112.056.056.112.167.056.167,0-.056.112,0,.056-.056h.056v.056c0,.056-.056.112-.056.223,0-.056.056,0,.056-.056l-.112.167a.055.055,0,0,1,.056.056l-.056.056a.109.109,0,0,0,.112.112s0-.056.056,0v.112h0c0,.056,0,.112-.056.056,0,0,.056,0,0-.056a.077.077,0,0,0,0,.112l.056-.056c-.056.056,0,.167,0,.223-.056,0,.056-.056,0-.056.056.056,0,.223.112.279H33.02c0,.056.056,0,.056.056v.056h0c0,.056,0,.223.056.279a.2.2,0,0,0-.056.112h.056c.056,0,0,.056.056.056-.056.056,0-.167-.056-.112.056,0-.056.112,0,.056,0,.056,0,.112.056.112,0,0,.056-.056.056,0v.112c-.056,0,0,.056,0,.056.056,0,0,.112.056.056h.056a.2.2,0,0,0-.056.112h0c-.056.056,0,.056,0,.112.056.056.056.167.112.167v.112c.056,0,0,.056,0,.056a.2.2,0,0,0,.112.056.055.055,0,0,1-.056.056c.112,0,0,.112.056.167a.055.055,0,0,1,.056-.056c.112,0-.056.112,0,.167h-.056c.056,0,0,.112.056.056,0,.056.056.056,0,.056.112.112.056.279.167.279v.056c-.056,0,0-.056,0-.056h0c0,.056.056.056.056,0,.056.056-.056.112,0,.167h.056V209c.056.056.056,0,.112,0v.112h.056c-.056,0,0,.056,0,.056h0v.056a.055.055,0,0,1-.056-.056v.056a.055.055,0,0,1,.056.056v.056s0,.056.056,0c0,0-.056,0,0-.056a.055.055,0,0,1,.056.056c0,.056-.112,0-.056.056l.056-.056.056.056h-.056c-.056.056,0,.112-.056.112l.056.056h0c.056,0,.056.056,0,.112h0v.112c.056.056.167-.056.112.056,0,.056-.056.112-.056.056.056.056,0,.167.112.223v.056c.056.112.056.279.112.335,0-.056.056,0,.056,0,0,.056.056,0,0,.056h-.056c0,.056.056.167.056.223h-.056c.056,0,.056,0,.056.056h0s-.056.056,0,.056h.056c0,.056-.056.112,0,.167h.056a.055.055,0,0,1-.056.056c.056.056.056.112.112.112a.787.787,0,0,0,.056.5h0c.056.056-.056.056,0,.056h.056a.077.077,0,0,1,0,.112c-.056,0,0-.056,0,0a.077.077,0,0,1,0,.112.055.055,0,0,0,.056-.056v.056c.056,0,.056-.112.167-.112v.056c.056,0,.056-.112.056-.056s-.056.112-.112.056c0,.056-.112.056-.056.167.056,0,0-.056.056-.056s0,.056,0,.112c-.056-.056-.056,0-.056.056.056.056.056-.056.056,0l-.056.056c-.056.056.056.056,0,.112.056,0,.112-.112.112-.056-.056,0-.056.112-.112.056h.056c.056,0-.056.112.056.112h0c0,.056-.056.112.056.112a.055.055,0,0,1-.056.056c-.056-.056,0-.056-.056-.056.056,0,0,.056,0,.112h0v.056h0c0,.056.056,0,.056.056V212.8a.055.055,0,0,1,.056.056l-.112.056c0,.056.056,0,0,.056l.056-.056a.055.055,0,0,1,.056.056c0,.056-.056.112-.056.056,0,0,.056.056.056,0,0,.056-.056,0-.056.056.056,0,.056.056.112.056l.056-.056v.056c.056-.056.056,0,.112-.056v.056c-.112-.056-.112.112-.167.112,0,.112.223,0,.112.112,0,0-.056.056-.056,0,0,.056-.056.056,0,.112,0-.056.112,0,.112-.056,0,0-.056-.056,0-.056s.056-.056.112,0v.056c-.056,0,0-.056-.056,0,0,.056.056.056,0,.112a.055.055,0,0,0-.056-.056v.056h0c.056.056-.056.056,0,.112h.056c.056-.056-.056-.112.056-.112v.056s.112,0,.056.112c0,.056,0,0-.056,0v.167c.056-.056.056.112.056,0-.056,0-.056-.112,0-.167.056,0-.056-.056.056-.112,0,.056.112.056.112.056v.056h-.112a.1.1,0,0,1,0,.167.055.055,0,0,0,.056-.056c0,.112.056.167.056.223-.056,0,0,.112-.056.056s-.112-.056-.112,0h.056c0,.056.056.056,0,.056,0-.056.056-.056.112-.056,0,.056.056,0,.056.056v.223a.418.418,0,0,1,.056.279h.112c0,.056-.056,0,0,.056h0s.056.112,0,.167l.056-.056v.056h.056c.056,0,0,.112.056.112H35.92c0,.112.056.112.056.223h.056v.056c.056,0,.056,0,.056.056l.056-.167a.055.055,0,0,0-.056.056c-.056,0-.056-.056,0-.112v.056a.055.055,0,0,0,.056-.056v-.056c0,.056-.056,0-.056,0,.056,0,.056-.056,0-.112-.056,0,0-.112-.056-.167a.173.173,0,0,0-.056.112c-.056-.056,0-.056-.056-.056.056-.056.056-.056.056-.112H35.92c0-.056.056-.056,0-.112-.056-.112-.056-.223-.112-.279h-.056c.056-.056,0-.167,0-.223-.056-.112-.056-.223-.112-.279-.056-.167-.056-.335-.112-.5l-.056.056c0-.056-.056,0-.056-.056.056,0,.056-.056.056-.112a.418.418,0,0,1-.056-.279h-.056c.056-.112-.056-.167-.056-.223a.055.055,0,0,1-.056-.056.2.2,0,0,0,.056-.167c0-.056-.056-.112-.112-.167,0-.223-.112-.39-.112-.613h-.056c0-.223-.112-.446-.112-.613l-.056.056c-.056-.056,0-.112.056-.112-.056-.056,0-.167-.056-.167-.056-.056,0-.056,0-.112-.056-.112-.056-.167-.112-.223h-.056c0-.056-.056-.112.056-.112-.056-.112-.056-.279-.112-.335l.056-.056c-.056-.112-.112-.167-.112-.279,0,0-.056.056-.056,0a.055.055,0,0,0,.056-.056c0-.167-.167-.279-.167-.446a4.107,4.107,0,0,0-.223-.781h0c.056-.112-.112-.167-.056-.279l-.056-.056c0-.056-.112-.167-.056-.279h0c-.056-.056-.056-.167-.112-.279v.056c-.056,0,.056-.112-.056-.112,0,0,.056-.056.056,0a2.941,2.941,0,0,1-.167-.669c-.112-.167-.112.056-.112-.112h0c0-.056-.112-.056-.056-.112.056,0,0-.056.056-.056-.056-.112-.112-.112-.112-.167h0c.056-.112,0-.223.056-.335-.167-.5-.223-1-.39-1.506a14.9,14.9,0,0,0-.5-1.45c-.112-.112-.112-.112-.112-.223h0c.056,0,0-.112,0-.112-.056-.167-.112-.335-.167-.558,0,.056-.056.056-.056,0v-.056h0a.055.055,0,0,1,.056-.056,13.956,13.956,0,0,0-.5-1.394,1.034,1.034,0,0,1-.112-.39,3.137,3.137,0,0,1-.39-1C31.4,199.523,31.291,199.635,31.291,199.8Z" transform="translate(-31.28 -199.3)"/>
          <path id="Path_1930" data-name="Path 1930" class="cls-10" d="M40.112,228.18c-.056,0-.056-.056-.112,0Z" transform="translate(-35.137 -212.064)"/>
          <path id="Path_1931" data-name="Path 1931" class="cls-10" d="M39,226.4Z" transform="translate(-34.695 -211.287)"/>
          <path id="Path_1932" data-name="Path 1932" class="cls-10" d="M38.9,225.9v0Z" transform="translate(-34.65 -211.066)"/>
          <path id="Path_1933" data-name="Path 1933" class="cls-10" d="M38.5,225.48Z" transform="translate(-34.473 -210.87)"/>
          <path id="Path_1934" data-name="Path 1934" class="cls-10" d="M38.58,225.38h0C38.58,225.325,38.525,225.38,38.58,225.38Z" transform="translate(-34.498 -210.825)"/>
          <path id="Path_1935" data-name="Path 1935" class="cls-10" d="M38.18,224.38Z" transform="translate(-34.321 -210.383)"/>
          <path id="Path_1936" data-name="Path 1936" class="cls-10" d="M38.067,223.9Z" transform="translate(-34.263 -210.182)"/>
          <path id="Path_1937" data-name="Path 1937" class="cls-10" d="M35.6,215.3v.056h0Z" transform="translate(-33.191 -206.377)"/>
          <path id="Path_1938" data-name="Path 1938" class="cls-10" d="M34.4,211.58Z" transform="translate(-32.66 -204.721)"/>
          <path id="Path_1939" data-name="Path 1939" class="cls-10" d="M34,209.5Z" transform="translate(-32.483 -203.812)"/>
        </g>
        <g id="Group_1585" data-name="Group 1585" transform="translate(14.63 12.632)">
          <path id="Path_1940" data-name="Path 1940" class="cls-10" d="M35.48,229.8c0,.056-.056,0,0,0Z" transform="translate(-30.285 -213.795)"/>
          <path id="Path_1941" data-name="Path 1941" class="cls-10" d="M26.193,201.49c-.056.223.167.446.112.669,0,0,.056-.056.056.056a1,1,0,0,0,.279.725h0c.056.056,0,.112,0,.167h.056c-.056,0,0,.112,0,.112h.056l-.056.056c-.056.112.056.167.056.335h0a2.878,2.878,0,0,0,.112.613s.056-.056.056,0c-.056,0-.056.112-.056.167.056,0,0,.112.056.167h0c-.056.056.056.056,0,.112h.056c-.056.056.056.056.056.112h0a.055.055,0,0,0,.056.056h0c0,.056.056.112,0,.112.056,0,0-.056.056-.056a2.068,2.068,0,0,0,.223.781.055.055,0,0,1,.056.056v.112h.056c.056.056-.056.056,0,.112a.055.055,0,0,1,.056-.056c-.056.056,0,.112,0,.167v-.056c-.056.056.056.112.056.167v-.056c.056.056-.056.056,0,.112h.056c-.056.056,0,.167,0,.223h0c0,.056.056.112.056.223,0,0,.056-.056.112.056-.056,0,0,.112-.056.112.056.056.112.167.056.167,0-.056.112,0,.056-.056h.056v.056c0,.056-.056.112-.056.223,0-.056.056,0,.056-.056l-.112.167a.055.055,0,0,1,.056.056l-.056.056a.109.109,0,0,0,.112.112s0-.056.056,0v.112h0s0,.112-.056.056c0,0,.056,0,0-.056a.077.077,0,0,0,0,.112l.056-.056c-.056.056,0,.167,0,.223-.056,0,.056-.056,0-.056.056.056,0,.223.112.279h-.056c0,.056.056,0,.056.056v.056h0c0,.056,0,.223.056.279a.2.2,0,0,0-.056.112h.056c.056,0,0,.056.056.056-.056.056,0-.167-.056-.112.056,0-.056.112,0,.056,0,.056,0,.112.056.112,0,0,.056-.056.056,0v.112c-.056,0,0,.056,0,.056.056,0,0,.112.056.056h.056a.2.2,0,0,0-.056.112h0c-.056.056,0,.056,0,.112.056.056.056.167.112.167v.112c.056,0,0,.056,0,.056a.2.2,0,0,0,.112.056.055.055,0,0,1-.056.056c.112,0,0,.112.056.167a.055.055,0,0,1,.056-.056c.112,0-.056.112,0,.167h-.056c.056,0,0,.112.056.056,0,.056.056.056,0,.056.112.112.056.279.167.279v.056c-.056,0,0-.056,0-.056h0s.056.056.056,0c.056.056-.056.112,0,.167h.056v.056c.056.056.056,0,.112,0v.112h.056c-.056,0,0,.056,0,.056h0v.056l-.056-.056v.056a.055.055,0,0,1,.056.056v.056s0,.056.056,0c0,0-.056,0,0-.056a.055.055,0,0,1,.056.056c0,.056-.112,0-.056.056l.056-.056.056.056h-.056a.077.077,0,0,0,0,.112.055.055,0,0,0,.056.056h0c.056,0,.056.056,0,.112h0v.112c.056.056.167-.056.112.056,0,.056-.056.112-.056.056.056.056,0,.167.112.223v.056c.056.112.056.279.112.335,0-.056.056,0,.056,0,0,.056.056,0,0,.056h-.056c0,.056.056.167.056.223h-.056c.056,0,.056,0,.056.056h0s-.056.056,0,.056h.056c0,.056-.056.112,0,.167h.056a.055.055,0,0,1-.056.056c.056.056.056.112.112.112a.787.787,0,0,0,.056.5h0c.056.056-.056.056,0,.056h.056a.077.077,0,0,1,0,.112c-.056,0,0-.056,0,0a.077.077,0,0,1,0,.112.055.055,0,0,0,.056-.056v.056c.056,0,.056-.112.167-.112v.056c.056,0,.056-.112.056-.056s-.056.112-.112.056c0,.056-.112.056-.056.167.056,0,0-.056.056-.056s0,.056,0,.112c-.056-.056-.056,0-.056.056.056.056.056-.056.056,0l-.056.056c-.056.056.056.056,0,.112.056,0,.112-.112.112-.056-.056,0-.056.112-.112.112h.056c.056,0-.056.112.056.112h0c0,.056-.056.112.056.112a.055.055,0,0,1-.056.056c-.056-.056,0-.056-.056-.056.056,0,0,.056,0,.112h0v.056h.056l-.056.056c0,.056.056,0,.056.056v-.056a.055.055,0,0,1,.056.056l-.112.056c0,.056.056,0,0,.056l.056-.056a.055.055,0,0,1,.056.056c0,.056-.056.112-.056.056,0,0,.056.056.056,0,0,.056-.056,0-.056.056.056,0,.056.056.112.056l.056-.056v.056c.056-.056.056,0,.112-.056v.056c-.112-.056-.112.112-.167.112,0,.112.223,0,.112.112,0,0-.056.056-.056,0,0,.056-.056.056,0,.112,0-.056.112,0,.112-.056,0,0-.056-.056,0-.056s.056-.056.112,0v.112c-.056,0,0-.056-.056,0,0,.056.056.056,0,.112,0-.056-.056-.056-.112,0v.056h0c.056.056-.056.056,0,.112h.056c.056-.056-.056-.112,0-.112v.056s.112,0,.056.112c0,.056,0,0-.056.056v.167c.056-.056.056.056.056,0-.056,0-.056-.112,0-.167.056,0-.056-.056.056-.112,0,.056.112.056.112.056v.056h-.112a.1.1,0,0,1,0,.167.055.055,0,0,0,.056-.056.29.29,0,0,0,.112.223c-.112,0,0,.112-.056.056s-.112-.056-.112,0h.056c0,.056.056.056,0,.056,0-.056.056-.056.112-.056,0,.056.056,0,.056.056v.223a.335.335,0,0,1,.056.223h.112c0,.056-.056,0,0,.056h0s.056.112,0,.167l.056-.056v.056h.056c.056,0,0,.112.056.112h-.056c0,.112.056.112.056.223h.056v.056c.056,0,.056,0,.056.056l.056-.167a.055.055,0,0,0-.056.056c-.056,0-.056-.056,0-.112v.056a.055.055,0,0,0,.056-.056v-.056c0,.056-.056,0-.056,0,.056,0,.056-.056,0-.112-.056,0,0-.112-.056-.167a.173.173,0,0,0-.056.112c-.056-.056,0-.056-.056-.056.056-.056.056-.056.056-.112h-.056c0-.056.056-.056,0-.112a.942.942,0,0,1-.112-.279h-.056c.056-.056,0-.167,0-.223-.056-.112-.056-.223-.112-.279-.056-.167-.056-.335-.112-.5l-.056.056c0-.056-.056,0-.056-.056.056,0,.056-.056.056-.112a.418.418,0,0,1-.056-.279h-.056c.056-.112-.056-.167-.056-.223a.055.055,0,0,1-.056-.056c.056-.056,0-.112.056-.167,0-.056-.056-.112-.112-.167,0-.223-.112-.39-.112-.613h-.056a1.977,1.977,0,0,0-.167-.613l-.056.056c-.056-.056,0-.112.056-.112-.056-.056,0-.167-.056-.167-.056-.056,0-.056,0-.112-.056-.112-.056-.167-.112-.223H29.65c0-.056-.056-.112.056-.112-.056-.112-.056-.279-.167-.335l.056-.056c-.056-.112-.112-.167-.112-.279,0,0-.056.056-.056,0a.055.055,0,0,0,.056-.056c0-.167-.167-.279-.167-.446-.056-.279-.167-.5-.223-.781h0c.056-.112-.112-.167-.056-.279l-.056-.056c0-.056-.112-.167-.056-.279h0c-.056-.056-.056-.167-.112-.279v.056c-.056,0,.056-.112-.056-.112,0,0,.056-.056.056,0a2.941,2.941,0,0,1-.167-.669c-.112-.167-.112.056-.112-.112h0c0-.056-.112-.056-.112-.112.056,0,0-.056.056-.056-.056-.112-.112-.112-.112-.167h0c.056-.112-.056-.223.056-.335a14.95,14.95,0,0,1-.39-1.506,14.9,14.9,0,0,0-.5-1.45c-.112-.112-.112-.112-.112-.223h0c.056,0,0-.112,0-.112-.056-.167-.112-.335-.167-.558,0,.056-.056.056-.056,0v-.056h0a.055.055,0,0,1,.056-.056c-.112-.5-.39-.892-.5-1.394a1.034,1.034,0,0,1-.112-.39,3.137,3.137,0,0,1-.39-1C26.3,201.267,26.193,201.323,26.193,201.49Z" transform="translate(-26.184 -201.1)"/>
          <path id="Path_1942" data-name="Path 1942" class="cls-10" d="M35.412,229.68c-.056,0-.056-.056-.112,0Z" transform="translate(-30.216 -213.731)"/>
          <path id="Path_1943" data-name="Path 1943" class="cls-10" d="M34.28,227.9Z" transform="translate(-29.754 -212.955)"/>
          <path id="Path_1944" data-name="Path 1944" class="cls-10" d="M34.1,227.4v0Z" transform="translate(-29.685 -212.733)"/>
          <path id="Path_1945" data-name="Path 1945" class="cls-10" d="M33.767,227Z" transform="translate(-29.52 -212.557)"/>
          <path id="Path_1946" data-name="Path 1946" class="cls-10" d="M33.867,226.9h0C33.811,226.9,33.811,226.956,33.867,226.9Z" transform="translate(-29.564 -212.512)"/>
          <path id="Path_1947" data-name="Path 1947" class="cls-10" d="M33.38,225.967h0C33.38,225.911,33.325,225.967,33.38,225.967Z" transform="translate(-29.356 -212.081)"/>
          <path id="Path_1948" data-name="Path 1948" class="cls-10" d="M33.3,225.48Z" transform="translate(-29.332 -211.873)"/>
          <path id="Path_1949" data-name="Path 1949" class="cls-10" d="M30.7,216.9Z" transform="translate(-28.181 -208.089)"/>
          <path id="Path_1950" data-name="Path 1950" class="cls-10" d="M29.48,213.167c0-.056-.056-.056,0,0C29.425,213.167,29.48,213.111,29.48,213.167Z" transform="translate(-27.631 -206.419)"/>
          <path id="Path_1951" data-name="Path 1951" class="cls-10" d="M29,211.056h0l.056-.056Z" transform="translate(-27.43 -205.479)"/>
        </g>
        <g id="Group_1586" data-name="Group 1586" transform="translate(11.675 13.636)">
          <path id="Path_1952" data-name="Path 1952" class="cls-10" d="M29.98,231.5c0,.112-.056,0,0,0C29.98,231.556,30.036,231.556,29.98,231.5Z" transform="translate(-24.897 -215.551)"/>
          <path id="Path_1953" data-name="Path 1953" class="cls-10" d="M20.893,203.235c-.056.223.167.446.112.669,0,0,.056-.056.056.056a1,1,0,0,0,.279.725h0c.056.056,0,.112,0,.167h.056c-.056,0,0,.112,0,.112h.056l-.056.056c-.112.112.056.167.056.335h0a2.877,2.877,0,0,0,.112.613s.056-.056.056,0c-.056,0-.056.112-.056.167.056,0,0,.112.056.167h0c-.056.056.056.056,0,.112h.056c-.056.056.056.056.056.112h0a.055.055,0,0,0,.056.056h0c0,.056.056.112,0,.112.056,0,0-.056.056-.056a2.068,2.068,0,0,0,.223.781.055.055,0,0,1,.056.056v.112h.056c.056.056-.056.056,0,.112a.055.055,0,0,1,.056-.056c-.056.056,0,.112,0,.167v-.056c-.056.056.056.112,0,.167h0c.056.056-.056.056,0,.112h.056c-.056.056,0,.167,0,.223h0c0,.056.056.112.056.223,0,0,.056-.056.112.056-.056,0,0,.112-.056.112.056.056.112.167.056.167,0-.056.112,0,.056-.056h.056v.056c0,.056-.056.112-.056.223,0-.056.056,0,.056-.056l.056.112a.055.055,0,0,1,.056.056l-.056.056a.109.109,0,0,0,.112.112s0-.056.056,0v.112h0c0,.056,0,.112-.056.056,0,0,.056,0,0-.056a.077.077,0,0,0,0,.112l.056-.056c-.056.056,0,.167,0,.223-.056,0,.056-.056,0-.056.056.056,0,.223.112.279h-.056c0,.056.056,0,.056.056v.056h0c0,.056,0,.223.056.279a.2.2,0,0,0-.056.112h.056c.056,0,0,.056.056.056-.056.056,0-.167-.056-.112.056,0-.056.112,0,.056,0,.056,0,.112.056.112,0,0,.056-.056.056,0v.112c-.056,0,0,.056,0,.056.056,0,0,.112.056.056h.056a.2.2,0,0,0-.056.112h0c-.056.056,0,.056,0,.112.056.056.056.167.112.167v.112c.056,0,0,.056,0,.056a.2.2,0,0,0,.112.056.055.055,0,0,1-.056.056c.112,0,0,.112.056.167a.055.055,0,0,1,.056-.056c.112,0-.056.112,0,.167h-.056c.056,0,0,.112.056.056,0,.056.056.056,0,.056.112.112.056.279.167.279v.056c-.056,0,0-.056,0-.056h0s.056.056.056,0c.056.056-.056.112,0,.167h.056v.056c.056.056.056,0,.112,0v.112h.056c-.056,0,0,.056,0,.056h0v.056l-.056-.056v.056a.055.055,0,0,1,.056.056v.056s0,.056.056,0c0,0-.056,0,0-.056a.055.055,0,0,1,.056.056c0,.056-.112,0-.056.056l.056-.056.056.056H23.96c-.056.056,0,.112-.056.112l.056.056h0c.056,0,.056.056,0,.112h0v.112c.056.056.167-.056.112.056,0,.056-.056.112-.056.056.056.056,0,.167.112.223v.056c.056.112.056.279.112.335,0-.056.056,0,.056,0,0,.056.056,0,0,.056h-.056c0,.056.056.167.056.223h-.056c.056,0,.056,0,.056.056h0s-.056.056,0,.056h.056c0,.056-.056.112,0,.167h.056a.055.055,0,0,1-.056.056c.056.056.056.112.112.112a.787.787,0,0,0,.056.5h0c.056.056-.056.056,0,.056h.056a.077.077,0,0,1,0,.112c-.056,0,0-.056-.056,0a.077.077,0,0,1,0,.112.055.055,0,0,0,.056-.056v.056c.056,0,.056-.112.167-.112v.056c.056,0,.056-.112.056-.056s-.056.112-.112.056c0,.056-.112.056-.056.167.056,0,0-.056.056-.056s0,.056,0,.112c-.056-.056-.056,0-.056.056.056.056.056-.056.056,0l-.056.056c-.056.056.056.056,0,.112.056,0,.112-.112.112-.056-.056,0-.056.112-.112.112h.056c.056,0-.056.112.056.112h0c0,.056-.056.112.056.112a.055.055,0,0,1-.056.056c-.056-.056,0-.056-.056-.056.056,0,0,.056,0,.112h0v.056h.056l-.056.056c0,.056.056,0,.056.056v-.056a.055.055,0,0,1,.056.056l-.112.056c0,.056.056,0,0,.056l.056-.056a.055.055,0,0,1,.056.056c0,.056-.056.112-.056.056,0,0,.056.056.056,0,0,.056-.056,0-.056.056.056,0,.056.056.112.056l.056-.056v.056c.056-.056.056,0,.112-.056v.056c-.112-.056-.112.112-.167.112,0,.112.223,0,.112.112,0,0-.056.056-.056,0,0,.056-.056.056,0,.112,0-.056.112,0,.112-.056,0,0-.056-.056,0-.056s.056-.056.112,0v.112c-.056,0,0-.056-.056,0,0,.056.056.056,0,.112,0-.056-.056-.056-.056,0v.056h0c.056.056-.056.056,0,.112h.056c.056-.056-.056-.112.056-.112v.056s.112,0,.056.112c0,.056,0,0-.056.056v.167c.056-.056.056.112.056,0-.056,0-.056-.112,0-.167.056,0-.056-.056.056-.112,0,.056.112.056.112.056v.056h-.112a.1.1,0,0,1,0,.167.055.055,0,0,0,.056-.056.29.29,0,0,0,.112.223c-.056,0,0,.112-.056.056s-.112-.056-.112,0H25.3c0,.056.056.056,0,.056,0-.056.056-.056.112-.056,0,.056.056,0,.056.056v.223a.418.418,0,0,1,.056.279h.112c0,.056-.056,0,0,.056h0s.056.112,0,.167l.056-.056v.056h.056c.056,0,0,.112.056.112h-.056c0,.112.056.112.056.223h.056v.056c.056,0,.056,0,.056.056l.056-.167a.055.055,0,0,0-.056.056c-.056,0-.056-.056,0-.112v.056a.055.055,0,0,0,.056-.056v-.056c0,.056-.056,0-.056,0,.056,0,.056-.056,0-.112-.056,0,0-.112-.056-.167a.173.173,0,0,0-.056.112c-.056-.056,0-.056-.056-.056.056-.056.056-.056.056-.112h-.056c0-.056.056-.056,0-.112-.056-.112-.056-.223-.112-.279h-.056c.056-.056,0-.167,0-.223-.056-.112-.056-.223-.112-.279-.056-.167-.056-.335-.112-.5l-.056.056c0-.056-.056,0-.056-.056.056,0,.056-.056.056-.112a.418.418,0,0,1-.056-.279h-.056c.056-.112-.056-.167-.056-.223a.055.055,0,0,1-.056-.056.2.2,0,0,0,.056-.167c0-.056-.056-.112-.112-.167,0-.223-.112-.39-.112-.613h-.056a1.977,1.977,0,0,0-.167-.613l-.056.056c-.056-.056,0-.112.056-.112-.056-.056,0-.167-.056-.167-.056-.056,0-.056,0-.112-.056-.112-.056-.167-.112-.223h-.056c0-.056-.056-.112.056-.112-.056-.112-.056-.279-.167-.335l.056-.056c-.056-.112-.112-.167-.112-.279,0,0-.056.056-.056,0a.055.055,0,0,0,.056-.056c0-.167-.167-.279-.167-.446-.056-.279-.167-.5-.223-.781h0c.056-.112-.112-.167-.056-.279l-.056-.056c0-.056-.112-.167-.056-.279h0c-.056-.056-.056-.167-.112-.279v.056c-.056,0,.056-.112-.056-.112,0,0,.056-.056.056,0a2.941,2.941,0,0,1-.167-.669c-.112-.167-.112.056-.112-.112h0c0-.056-.112-.056-.056-.112.056,0,0-.056.056-.056-.056-.112-.112-.112-.112-.167h0c.056-.112-.056-.223.056-.335a14.952,14.952,0,0,1-.39-1.506,14.9,14.9,0,0,0-.5-1.45c-.112-.112-.112-.112-.112-.223h0c.056,0,0-.112,0-.112-.056-.167-.112-.335-.167-.558,0,.056-.056.056-.056,0v-.056h0a.055.055,0,0,1,.056-.056c-.112-.5-.39-.892-.5-1.394a1.034,1.034,0,0,1-.112-.39,3.137,3.137,0,0,1-.39-1C21,203.012,20.893,203.067,20.893,203.235Z" transform="translate(-20.884 -202.9)"/>
          <path id="Path_1954" data-name="Path 1954" class="cls-10" d="M29.912,231.38c-.056,0-.056-.056-.112,0Z" transform="translate(-24.828 -215.487)"/>
          <path id="Path_1955" data-name="Path 1955" class="cls-10" d="M28.8,229.6Z" transform="translate(-24.385 -214.71)"/>
          <path id="Path_1956" data-name="Path 1956" class="cls-10" d="M28.7,229.1v0Z" transform="translate(-24.341 -214.489)"/>
          <path id="Path_1957" data-name="Path 1957" class="cls-10" d="M28.3,228.7Z" transform="translate(-24.164 -214.312)"/>
          <path id="Path_1958" data-name="Path 1958" class="cls-10" d="M28.38,228.68h0C28.38,228.625,28.325,228.68,28.38,228.68Z" transform="translate(-24.189 -214.293)"/>
          <path id="Path_1959" data-name="Path 1959" class="cls-10" d="M27.98,227.68h0C27.98,227.625,27.925,227.68,27.98,227.68Z" transform="translate(-24.012 -213.85)"/>
          <path id="Path_1960" data-name="Path 1960" class="cls-10" d="M27.867,227.18h0c-.056-.056-.056,0,0,0Z" transform="translate(-23.954 -213.629)"/>
          <path id="Path_1961" data-name="Path 1961" class="cls-10" d="M25.3,218.6v0Z" transform="translate(-22.837 -209.845)"/>
          <path id="Path_1962" data-name="Path 1962" class="cls-10" d="M24.08,214.867c0-.056-.056-.056,0,0C24.025,214.867,24.08,214.811,24.08,214.867Z" transform="translate(-22.287 -208.175)"/>
          <path id="Path_1963" data-name="Path 1963" class="cls-10" d="M23.6,212.8h0Z" transform="translate(-22.085 -207.279)"/>
        </g>
        <g id="Group_1587" data-name="Group 1587" transform="translate(8.831 14.528)">
          <path id="Path_1964" data-name="Path 1964" class="cls-10" d="M24.78,233.2c0,.056-.056,0,0,0Z" transform="translate(-19.752 -217.195)"/>
          <path id="Path_1965" data-name="Path 1965" class="cls-10" d="M15.793,204.835c-.056.223.167.446.112.669,0,0,.056-.056.056.056a1,1,0,0,0,.279.725h0c.056.056,0,.112,0,.167h.056c-.056,0,0,.112,0,.112h.056l-.056.056c-.112.112.056.167.056.335h0a2.878,2.878,0,0,0,.112.613s.056-.056.056,0c-.056,0-.056.112-.056.167.056,0,0,.112.056.167h0c-.056.056.056.056,0,.112h.056c-.056.056.056.056.056.112h0a.055.055,0,0,0,.056.056h0c0,.056.056.112,0,.112.056,0,0-.056.056-.056a3.907,3.907,0,0,0,.167.781.055.055,0,0,1,.056.056v.112h.056c.056.056-.056.056,0,.112a.055.055,0,0,1,.056-.056c-.056.056,0,.112,0,.167v-.056c-.056.056.056.112,0,.167v-.056c.056.056-.056.056,0,.112h.056c-.056.056,0,.167,0,.223h0c0,.056.056.112.056.223,0,0,.056-.056.112.056-.056,0,0,.112-.056.112.056.056.112.167.056.223,0-.056.112,0,.056-.056h.056v.056c0,.056-.056.112-.056.223,0-.056.056,0,.056-.056l-.112.167a.055.055,0,0,1,.056.056l-.056.056a.109.109,0,0,0,.112.112c.056,0,0-.056.056,0v.112h0c0,.056,0,.112-.056.056,0,0,.056,0,0-.056a.077.077,0,0,0,0,.112l.056-.056c-.056.056,0,.167,0,.223-.056,0,.056-.056,0-.056.056.056,0,.223.112.279h-.056c0,.056.056,0,.056.056v.056h0c0,.056,0,.223.056.279a.2.2,0,0,0-.056.112h.056c.056,0,0,.056.056.056-.056.056,0-.167-.056-.112.056,0-.056.112,0,.056,0,.056,0,.112.056.112,0,0,.056-.056.056,0v.112c-.056,0,0,.056,0,.056.056,0,0,.112.056.056h.056a.2.2,0,0,0-.056.112h0c-.056.056,0,.056,0,.112.056.056.056.167.112.167v.112c.056,0,0,.056,0,.056a.2.2,0,0,0,.112.056.055.055,0,0,1-.056.056c.112,0,0,.112.056.167a.055.055,0,0,1,.056-.056c.112,0-.056.112,0,.167h-.056c.056,0,0,.112.056.056,0,.056.056.056,0,.056.112.112.056.279.167.279v.056c-.056,0,0-.056,0-.056h0c0,.056.056.056.056,0,.056.056-.056.112,0,.167h.056v.056c.056.056.056,0,.112,0v.112h.056c-.056,0,0,.056,0,.056h0v.056a.055.055,0,0,1-.056-.056v.056a.055.055,0,0,1,.056.056v.056s0,.056.056,0c0,0-.056,0,0-.056a.055.055,0,0,1,.056.056c0,.056-.112,0-.056.056l.056-.056.056.056h-.056c-.056.056,0,.112-.056.112a.055.055,0,0,0,.056.056h0c.056,0,.056.056,0,.112h0v.112c.056.056.167-.056.112.056,0,.056-.056.112-.056.056.056.056,0,.167.112.223v.056c.056.112.056.279.112.335,0-.056.056,0,.056,0,0,.056.056,0,0,.056h-.056c0,.056.056.167.056.223h-.056c.056,0,.056,0,.056.056h0s-.056.056,0,.056h.056c0,.056-.056.112,0,.167h.056a.055.055,0,0,1-.056.056c.056.056.056.112.112.112a.787.787,0,0,0,.056.5h0c.056.056-.056.056,0,.056h.056a.077.077,0,0,1,0,.112c-.056,0,0-.056,0,0a.077.077,0,0,1,0,.112.055.055,0,0,0,.056-.056v.056c.056,0,.056-.112.167-.112v.056c.056,0,.056-.112.056-.056s-.056.112-.112.056c0,.056-.112.056-.056.167.056,0,0-.056.056-.056s0,.056,0,.112c-.056-.056-.056,0-.056.056.056.056.056-.056.056,0l-.056.056c-.056.056.056.056,0,.112.056,0,.112-.112.112-.056-.056,0-.056.112-.112.056h.056c.056,0-.056.112.056.112h0c0,.056-.056.112.056.112a.055.055,0,0,1-.056.056c-.056-.056,0-.056-.056-.056.056,0,0,.056,0,.112h0v.056h.056l-.056.056c0,.056.056,0,.056.056v-.056a.055.055,0,0,1,.056.056l-.112.056c0,.056.056,0,0,.056l.056-.056a.055.055,0,0,1,.056.056c0,.056-.056.112-.056.056,0,0,.056.056.056,0,0,.056-.056,0-.056.056.056,0,.056.056.112.056l.056-.056v.056c.056-.056.056,0,.112-.056v.056c-.112-.056-.112.112-.167.112,0,.112.223,0,.112.112,0,0-.056.056-.056,0,0,.056-.056.056,0,.112,0-.056.112,0,.112-.056,0,0-.056-.056,0-.056s.056-.056.112,0v.112c-.056,0,0-.056-.056,0,0,.056.056.056,0,.112,0-.056-.056-.056-.056,0v.056h0c.056.056-.056.056,0,.112h.056c.056-.056-.056-.112.056-.112v.056s.112,0,.056.112c0,.056,0,0-.056.056v.167c.056-.056.056.112.056,0-.056,0-.056-.112,0-.167.056,0-.056-.056.056-.112,0,.056.112.056.112.056v.056h-.112a.1.1,0,0,1,0,.167.055.055,0,0,0,.056-.056c0,.112.056.167.056.223-.056,0,0,.112-.056.056s-.112-.056-.112,0h.056c0,.056.056.056,0,.056,0-.056.056-.056.112-.056,0,.056.056,0,.056.056v.223a.418.418,0,0,1,.056.279h.112c0,.056-.056,0,0,.056h0s.056.112,0,.167l.056-.056v.056h.056c.056,0,0,.112.056.112h-.056c0,.112.056.112.056.223h.056v.056c.056,0,.056,0,.056.056l.056-.167a.055.055,0,0,0-.056.056c-.056,0-.056-.056,0-.112v.056a.055.055,0,0,0,.056-.056v-.056c0,.056-.056,0-.056,0,.056,0,.056-.056,0-.112-.056,0,0-.112-.056-.167a.173.173,0,0,0-.056.112c-.056-.056,0-.056-.056-.056.056-.056.056-.056.056-.112h-.056c0-.056.056-.056,0-.112-.056-.112-.056-.223-.112-.279h-.056c.056-.056,0-.167,0-.223-.056-.112-.056-.223-.112-.279-.056-.167-.056-.335-.112-.5l-.056.056c0-.056-.056,0-.056-.056.056,0,.056-.056.056-.112a.418.418,0,0,1-.056-.279h-.056c.056-.112-.056-.167-.056-.223a.055.055,0,0,1-.056-.056.2.2,0,0,0,.056-.167c0-.056-.056-.112-.112-.167,0-.223-.112-.39-.112-.613h-.056a1.977,1.977,0,0,0-.167-.613l-.056.056c-.056-.056,0-.112.056-.112-.056-.056,0-.167-.056-.167-.056-.056,0-.056,0-.112-.056-.112-.056-.167-.112-.223h-.056c0-.056-.056-.112.056-.112-.056-.112-.056-.279-.112-.335l.056-.056c-.056-.112-.112-.167-.112-.279,0,0-.056.056-.056,0a.055.055,0,0,0,.056-.056c0-.167-.167-.279-.167-.446-.056-.279-.167-.5-.223-.781h0c.056-.112-.112-.167-.056-.279l-.056-.056c0-.056-.112-.167-.056-.279h0c-.056-.056-.056-.167-.112-.279v.056c-.056,0,.056-.112-.056-.112,0,0,.056-.056.056,0a2.941,2.941,0,0,1-.167-.669c-.112-.167-.112.056-.112-.112h0c0-.056-.112-.056-.056-.112.056,0,0-.056.056-.056-.056-.112-.112-.112-.112-.167h0c.056-.112-.056-.223.056-.335a14.949,14.949,0,0,1-.39-1.506,14.9,14.9,0,0,0-.5-1.45c-.112-.112-.112-.112-.112-.223h0c.056,0,0-.112,0-.112-.056-.167-.112-.335-.167-.558,0,.056-.056.056-.056,0v-.056h0a.055.055,0,0,1,.056-.056,13.956,13.956,0,0,0-.5-1.394,1.034,1.034,0,0,1-.112-.39,3.137,3.137,0,0,1-.39-1C15.9,204.612,15.793,204.667,15.793,204.835Z" transform="translate(-15.784 -204.5)"/>
          <path id="Path_1966" data-name="Path 1966" class="cls-10" d="M24.712,233.08c-.056,0-.056-.056-.112,0Z" transform="translate(-19.684 -217.131)"/>
          <path id="Path_1967" data-name="Path 1967" class="cls-10" d="M23.6,231.3Z" transform="translate(-19.241 -216.355)"/>
          <path id="Path_1968" data-name="Path 1968" class="cls-10" d="M23.4,230.8v0Z" transform="translate(-19.153 -216.133)"/>
          <path id="Path_1969" data-name="Path 1969" class="cls-10" d="M23.08,230.4Z" transform="translate(-19 -215.957)"/>
          <path id="Path_1970" data-name="Path 1970" class="cls-10" d="M23.18,230.287h0C23.18,230.231,23.125,230.343,23.18,230.287Z" transform="translate(-19.045 -215.9)"/>
          <path id="Path_1971" data-name="Path 1971" class="cls-10" d="M22.78,229.367h0C22.78,229.311,22.725,229.367,22.78,229.367Z" transform="translate(-18.868 -215.481)"/>
          <path id="Path_1972" data-name="Path 1972" class="cls-10" d="M22.667,228.867Z" transform="translate(-18.81 -215.26)"/>
          <path id="Path_1973" data-name="Path 1973" class="cls-10" d="M20.1,220.3Z" transform="translate(-17.693 -211.489)"/>
          <path id="Path_1974" data-name="Path 1974" class="cls-10" d="M18.9,216.48Z" transform="translate(-17.162 -209.788)"/>
          <path id="Path_1975" data-name="Path 1975" class="cls-10" d="M18.5,214.4Z" transform="translate(-16.985 -208.879)"/>
        </g>
      </g>
      <path id="Path_1976" data-name="Path 1976" class="cls-1" d="M33.5,230.373l7.7-1.673,1.561,5.186c.112.39.725,2.677-.335,2.956a1.159,1.159,0,0,1-1.227-.613.95.95,0,0,1-1.785.613c-.056.446-.223.837-.669.948a1.159,1.159,0,0,1-1.227-.613,1.049,1.049,0,0,1-.669,1.115c-1,.279-1.561-1.171-1.729-1.729h0Z" transform="translate(-14.79 -101.162)"/>
      <path id="Path_1977" data-name="Path 1977" class="cls-4" d="M42.527,138.5S15.09,143.184,29.7,192.761l9.034-2.008s-12.715-35.858,4.684-43.5Z" transform="translate(-11.214 -61.263)"/>
      <g id="Group_1589" data-name="Group 1589" transform="translate(83.138 72.998)">
        <path id="Path_1978" data-name="Path 1978" class="cls-11" d="M168.093,178.677a8.039,8.039,0,0,0-5.967-8.755c-6.971-2.175-9.926,5.577-9.926,5.577v-.948s2.788-7.305,9.926-5.242c6.915,2.008,6.3,7.7,6.3,7.7Z" transform="translate(-150.433 -147.727)"/>
        <path id="Path_1979" data-name="Path 1979" class="cls-8" d="M150.185,156.887c3.736-10.428,9.7-9.815,11.432-9.369,2.231-9.536,2.119-14.834,2.119-14.834l.112-1.785c2.454.892,0,13.272-.781,16.9,1.952.5,6.079,2.788,4.629,12.771-1.394,9.536-6.3,10.651-9.09,10.094l.335-.948s6.3.837,7.64-9.536-4.684-11.153-4.684-11.153-7.305-2.342-10.54,8.253,2.621,11.321,2.621,11.321l-.39,1C153.531,169.546,146.281,167.706,150.185,156.887Z" transform="translate(-149.031 -130.9)"/>
        <path id="Path_1980" data-name="Path 1980" class="cls-11" d="M165.607,200.519c.112-.613,0-1.06-.613-1.171-.558-.112-.948-.167-1.171.558s-.056,1.06.39,1.171A.937.937,0,0,0,165.607,200.519Z" transform="translate(-155.53 -161.147)"/>
        <path id="Path_1981" data-name="Path 1981" class="cls-11" d="M157.9,198.067c.613.167.892.558.725,1.06-.167.558-.335.948-1.115.781s-.948-.446-.837-.892C156.843,198.569,157.066,197.844,157.9,198.067Z" transform="translate(-152.399 -160.592)"/>
      </g>
      <g id="Group_1590" data-name="Group 1590" transform="translate(34.308 73.946)">
        <circle id="Ellipse_154" data-name="Ellipse 154" class="cls-10" cx="4.461" cy="4.461" r="4.461" transform="translate(4.367 19.686)"/>
        <circle id="Ellipse_155" data-name="Ellipse 155" class="cls-9" cx="2.454" cy="2.454" r="2.454" transform="translate(6.375 21.693)"/>
        <path id="Path_1982" data-name="Path 1982" class="cls-8" d="M62.546,133.994s.39,7.807,8.532,22.53l-1.283.725S58.2,137.173,62.379,132.6Z" transform="translate(-61.469 -132.6)"/>
      </g>
    </g>
    <g id="Group_1642" data-name="Group 1642" transform="translate(174.915 13.161)">
      <g id="Group_1635" data-name="Group 1635">
        <g id="Group_1625" data-name="Group 1625">
          <g id="Group_1592" data-name="Group 1592" transform="translate(45.73 136.179)">
            <path id="Path_1983" data-name="Path 1983" class="cls-2" d="M476,275.159c0,4.127-18.013,7.473-40.152,7.528-22.2,0-40.152-3.29-40.152-7.417s17.957-7.473,40.152-7.473C457.991,267.686,476,271.032,476,275.159Z" transform="translate(-395.7 -267.795)"/>
          </g>
          <g id="Group_1624" data-name="Group 1624">
            <g id="Group_1623" data-name="Group 1623">
              <g id="Group_1619" data-name="Group 1619">
                <g id="Group_1618" data-name="Group 1618">
                  <g id="Group_1596" data-name="Group 1596" transform="translate(0 80.359)">
                    <g id="Group_1595" data-name="Group 1595">
                      <g id="Group_1594" data-name="Group 1594">
                        <g id="Group_1593" data-name="Group 1593">
                          <path id="Path_1984" data-name="Path 1984" class="cls-1" d="M313.7,177.4c.112.613.836.725,1.338.613-.446.056-1.283.223-1.171,1,.112.892,1.227.948,1.617.948h0c-.39.056-1.394.279-1.283,1s1.115.725,1.506.669c-.446.056-1.561.335-1.394,1.227.112.669,1.617.335,1.617.335,27.66-8.588,41.825-9.034,41.825-9.034l-2.286-6.469c-29.166,4.629-37.587,8.2-40.375,8.755C315.149,176.511,313.643,176.79,313.7,177.4Z" transform="translate(-313.697 -167.7)"/>
                        </g>
                      </g>
                    </g>
                  </g>
                  <g id="Group_1599" data-name="Group 1599" transform="translate(102.444 44.58)">
                    <g id="Group_1598" data-name="Group 1598">
                      <g id="Group_1597" data-name="Group 1597">
                        <path id="Path_1985" data-name="Path 1985" class="cls-1" d="M512.011,103.574c-.613.223-.613.948-.558,1.394-.112-.446-.39-1.227-1.171-1-.892.223-.781,1.338-.669,1.785h0c-.112-.39-.446-1.338-1.171-1.115s-.558,1.227-.446,1.617c-.112-.39-.558-1.506-1.394-1.227-.669.223-.112,1.673-.112,1.673,12.492,26.154-9.09,20.689-9.09,20.689l.948,6.8c29.5,1.338,15.67-26.6,14.667-29.277C513.015,104.856,512.68,103.295,512.011,103.574Z" transform="translate(-497.4 -103.54)"/>
                      </g>
                    </g>
                  </g>
                  <g id="Group_1602" data-name="Group 1602" transform="translate(102.444 68.37)">
                    <g id="Group_1601" data-name="Group 1601">
                      <g id="Group_1600" data-name="Group 1600">
                        <path id="Path_1986" data-name="Path 1986" class="cls-12" d="M497.4,146.2l.948,6.8c1.227.056,2.342.056,3.4,0l-.279-6.357A18.623,18.623,0,0,1,497.4,146.2Z" transform="translate(-497.4 -146.2)"/>
                      </g>
                    </g>
                  </g>
                  <g id="Group_1604" data-name="Group 1604" transform="translate(47.904 102.056)">
                    <g id="Group_1603" data-name="Group 1603">
                      <path id="Path_1987" data-name="Path 1987" class="cls-13" d="M477.45,214.856c-1.84-6.134-8.309,3.681-8.309,3.681s1.785-8.2-.335-10.986c-2.063-2.621-7.082.948-8.421,1.84l-54.651,12.046,2.119,8.755-6.3-.725s-4.573,9.7.279,10.317c4.907.613,1.617-6.525,1.617-6.525s4.684,2.565,8.03,1.617c2.621-.781.558-8.365.167-10.707,35.914-2.175,52.7-11.934,53.2-12.324,0,0,.892,8.811,1.84,13.217C466.742,225.228,479.29,220.99,477.45,214.856Z" transform="translate(-399.599 -206.606)"/>
                    </g>
                  </g>
                  <g id="Group_1607" data-name="Group 1607" class="cls-14" transform="translate(102.444 68.37)">
                    <g id="Group_1606" data-name="Group 1606">
                      <g id="Group_1605" data-name="Group 1605">
                        <path id="Path_1988" data-name="Path 1988" class="cls-15" d="M497.4,146.2l.948,6.8c.669.056,1.283.056,1.952.056l-2.677-6.8A.879.879,0,0,0,497.4,146.2Z" transform="translate(-497.4 -146.2)"/>
                      </g>
                    </g>
                  </g>
                  <g id="Group_1617" data-name="Group 1617" transform="translate(27.983)">
                    <g id="Group_1616" data-name="Group 1616">
                      <g id="Group_1613" data-name="Group 1613">
                        <g id="Group_1612" data-name="Group 1612">
                          <g id="Group_1609" data-name="Group 1609" transform="translate(12.456 24.39)">
                            <g id="Group_1608" data-name="Group 1608">
                              <path id="Path_1989" data-name="Path 1989" class="cls-1" d="M448.217,110.87s-5.354-66.083-52.42-35.412c0,0-13.942,14.722-8.2,47.9C439.072,124.2,448.217,110.87,448.217,110.87Z" transform="translate(-386.211 -67.336)"/>
                            </g>
                          </g>
                          <g id="Group_1611" data-name="Group 1611">
                            <g id="Group_1610" data-name="Group 1610">
                              <path id="Path_1990" data-name="Path 1990" class="cls-13" d="M421.719,23.6s33.85,36.806-34.687,41.323l1.673,12.771s-6.469-4.517-7.027,1.673,6.413,2.844,6.413,2.844-3.736,16.507-10.373,21.749c0,0-28.441-51.528-3.792-54.6,0,0-.613-9.48,12.1-16.284C404.208,23.488,417.815,46.966,421.719,23.6Z" transform="translate(-363.876 -23.6)"/>
                            </g>
                          </g>
                        </g>
                      </g>
                      <g id="Group_1615" data-name="Group 1615" transform="translate(13.844 67.924)">
                        <g id="Group_1614" data-name="Group 1614">
                          <path id="Path_1991" data-name="Path 1991" class="cls-16" d="M449.318,145.4l6.3,37.029s-21.86,9.313-54.651,12.046L388.7,157.947C388.7,157.892,430.246,156.107,449.318,145.4Z" transform="translate(-388.7 -145.4)"/>
                        </g>
                      </g>
                    </g>
                  </g>
                </g>
              </g>
              <g id="Group_1622" data-name="Group 1622" transform="translate(1.117 80.415)">
                <g id="Group_1620" data-name="Group 1620" transform="translate(0 10.317)">
                  <path id="Path_1992" data-name="Path 1992" class="cls-1" d="M315.7,186.3h0Z" transform="translate(-315.7 -186.3)"/>
                </g>
                <g id="Group_1621" data-name="Group 1621" transform="translate(36.304)">
                  <path id="Path_1993" data-name="Path 1993" class="cls-12" d="M385.206,167.8c-1.506.223-2.956.5-4.406.725l1.673,6.246c3.346-.446,5.019-.5,5.019-.5Z" transform="translate(-380.8 -167.8)"/>
                </g>
              </g>
            </g>
          </g>
        </g>
        <g id="Group_1628" data-name="Group 1628" transform="translate(73.332 55.117)">
          <g id="Group_1627" data-name="Group 1627">
            <g id="Group_1626" data-name="Group 1626">
              <path id="Path_1994" data-name="Path 1994" class="cls-7" d="M445.867,134.461S456.63,133.123,462.82,130c0,0-.781-9.536-10.763-7.194C442.187,125.093,445.867,134.461,445.867,134.461Z" transform="translate(-445.196 -122.436)"/>
            </g>
          </g>
        </g>
        <g id="Group_1634" data-name="Group 1634" transform="translate(72.331 81.642)">
          <g id="Group_1630" data-name="Group 1630">
            <g id="Group_1629" data-name="Group 1629" class="cls-17">
              <path id="Path_1995" data-name="Path 1995" class="cls-18" d="M472.546,198.1a1.168,1.168,0,0,1-.223.335c-.056.056-.167.112-.223.167.836.892,5.744,5.967,6.078,5.632.39-.39-4.963-5.465-5.632-6.134Zm0,0" transform="translate(-456.095 -182.43)"/>
            </g>
          </g>
          <path id="Path_1996" data-name="Path 1996" class="cls-19" d="M470.715,195.7a2.339,2.339,0,0,1-.5.781,2.3,2.3,0,0,1-.613.39l.446.446a.874.874,0,0,0,.892.167.77.77,0,0,0,.223-.167,1.166,1.166,0,0,0,.223-.335.828.828,0,0,0-.223-.781l-.446-.5Zm0,0" transform="translate(-454.989 -181.368)"/>
          <path id="Path_1997" data-name="Path 1997" class="cls-20" d="M448.3,175.525l.892.892.056-.056.613-.613-.892-.892Zm.669-.725" transform="translate(-445.567 -172.123)"/>
          <path id="Path_1998" data-name="Path 1998" class="cls-21" d="M450.332,177.4l-1.283-1.283-.948.948a.744.744,0,0,0,0,1.115l8.811,8.811h0a2.536,2.536,0,0,0,3.123.39,4.828,4.828,0,0,0,.558-.39,3.958,3.958,0,0,0,.558-.781,2.667,2.667,0,0,0-.335-2.788l-.223-.223-8.755-8.7a.745.745,0,0,0-1.115,0l-1.617,1.617.669-.613L451,176.843l.39-.39a.237.237,0,1,1,.335.335l-.39.39.892.892.39-.39a.237.237,0,0,1,.335.335l-.39.39.948.948.39-.39a.237.237,0,0,1,.335.335l-.39.39.836.837.892-.837a.376.376,0,0,1,.558-.056.535.535,0,0,1,.112.5l3.848,3.792.167.167a1.825,1.825,0,0,1-.167,2.509,1.851,1.851,0,0,1-2.621,0h0l-3.792-3.848a.33.33,0,0,1-.39-.056.376.376,0,0,1-.056-.558l.948-.948-.836-.892-.39.39a.237.237,0,0,1-.335-.335l.39-.39-.948-.948-.39.39a.237.237,0,0,1-.335-.335l.39-.39-.892-.892-.335.335a.237.237,0,0,1-.335-.335Zm-.335.335" transform="translate(-445.368 -171.88)"/>
          <g id="Group_1633" data-name="Group 1633">
            <g id="Group_1631" data-name="Group 1631" class="cls-17">
              <path id="Path_1999" data-name="Path 1999" class="cls-20" d="M458.067,187.065c-.056.056-.112.056-.167.112l3.792,3.792h0a1.851,1.851,0,0,0,2.621,0,1.947,1.947,0,0,0,.167-2.509l-.167-.167-3.792-3.792a.12.12,0,0,1-.112.112Zm2.4-2.454" transform="translate(-449.814 -176.414)"/>
            </g>
            <g id="Group_1632" data-name="Group 1632" class="cls-17">
              <path id="Path_2000" data-name="Path 2000" class="cls-18" d="M443.634,174a.58.58,0,0,0,0,.892l.112.112a.678.678,0,0,0,.892,0l1.506-1.506.335-.335.39-.39,1.506-1.506a.58.58,0,0,0,0-.892l-.112-.112a.679.679,0,0,0-.892,0L443.634,174Zm0,0" transform="translate(-443.411 -170.044)"/>
            </g>
          </g>
          <path id="Path_2001" data-name="Path 2001" class="cls-19" d="M453.425,179.3l-.725.725.892.892.725-.725Zm.892.892" transform="translate(-447.514 -174.114)"/>
          <path id="Path_2002" data-name="Path 2002" class="cls-19" d="M455.625,181.4l-.725.725.948.948.725-.725Zm.948.948" transform="translate(-448.487 -175.043)"/>
          <path id="Path_2003" data-name="Path 2003" class="cls-19" d="M457,185.954a.439.439,0,0,0,.446.725c.056,0,.112-.056.167-.112l2.454-2.454.112-.112a.444.444,0,0,0-.112-.5.438.438,0,0,0-.613,0l-.836.837-.836-.837-.725.725.836.836Zm.892-.892" transform="translate(-449.36 -175.916)"/>
          <path id="Path_2004" data-name="Path 2004" class="cls-19" d="M449.9,177.125h0l1.283,1.283.725-.725-1.283-1.283-.669.613Zm.056-.056" transform="translate(-446.275 -172.831)"/>
          <path id="Path_2005" data-name="Path 2005" class="cls-20" d="M456.034,183.828a.237.237,0,0,0,.335.335l.335-.335.725-.725.335-.335a.237.237,0,1,0-.335-.335Zm1.338-1.394" transform="translate(-448.951 -175.463)"/>
          <path id="Path_2006" data-name="Path 2006" class="cls-20" d="M454.693,180.568l-.725.725-.335.335a.237.237,0,0,0,.335.335l.335-.335.725-.725.335-.335a.237.237,0,0,0-.335-.335Zm.335-.39" transform="translate(-447.89 -174.49)"/>
          <path id="Path_2007" data-name="Path 2007" class="cls-20" d="M453.307,178.034a.209.209,0,0,0-.335,0l-.335.39-1,1a.237.237,0,0,0,.335.335l.335-.335.725-.725.335-.335c0-.112,0-.279-.056-.335Zm0,0" transform="translate(-447.005 -173.517)"/>
        </g>
      </g>
      <line id="Line_1" data-name="Line 1" class="cls-22" x2="9.48" y2="5.521" transform="translate(88.168 36.973)"/>
      <g id="Group_1637" data-name="Group 1637" transform="translate(87.174 43.624)">
        <g id="Group_1636" data-name="Group 1636">
          <path id="Path_2008" data-name="Path 2008" class="cls-23" d="M470.342,105.436c.558,1.729,1.673,2.9,2.51,2.621s1-1.84.446-3.569-1.673-2.9-2.509-2.621S469.785,103.764,470.342,105.436Z" transform="translate(-470.017 -101.826)"/>
        </g>
      </g>
      <g id="Group_1639" data-name="Group 1639" transform="translate(64.564 51.933)">
        <g id="Group_1638" data-name="Group 1638">
          <path id="Path_2009" data-name="Path 2009" class="cls-23" d="M429.823,120.336c.558,1.729,1.673,2.9,2.51,2.621s1-1.84.446-3.569-1.673-2.9-2.509-2.621S429.21,118.663,429.823,120.336Z" transform="translate(-429.474 -116.726)"/>
        </g>
      </g>
      <g id="Group_1640" data-name="Group 1640" transform="translate(60.229 47.29)">
        <path id="Path_2010" data-name="Path 2010" class="cls-13" d="M426.552,108.4l-4.852,7.975,1.06.725L428,109.181Z" transform="translate(-421.7 -108.4)"/>
      </g>
      <g id="Group_1641" data-name="Group 1641" transform="translate(85.213 39.817)">
        <path id="Path_2011" data-name="Path 2011" class="cls-13" d="M467.113,95l8.755,3.179-.335,1.227-9.034-2.9Z" transform="translate(-466.5 -95)"/>
      </g>
    </g>
  </g>
</svg>
