<svg xmlns="http://www.w3.org/2000/svg" viewBox="-395 619 36.348 32.395">
  <defs>
    <style>
      .cls-1 {
        fill: #fff;
      }
    </style>
  </defs>
  <g id="Group_1550" data-name="Group 1550" transform="translate(-394.964 618.95)">
    <path id="Path_1735" data-name="Path 1735" class="cls-1" d="M35.929,12.845,18.7.231a.948.948,0,0,0-1.115,0L.35,12.845a.945.945,0,1,0,1.115,1.526L18.139,2.162l16.668,12.2a.959.959,0,0,0,.554.185.945.945,0,0,0,.76-.383A.934.934,0,0,0,35.929,12.845Z"/>
    <path id="Path_1736" data-name="Path 1736" class="cls-1" d="M83.88,204.7a.948.948,0,0,0-.944.944v15.028H75.383v-8.2a4.721,4.721,0,1,0-9.441,0v8.206H58.388V205.644a.944.944,0,0,0-1.888,0v15.979a.948.948,0,0,0,.944.944h9.441a.95.95,0,0,0,.944-.873c0-.021.007-.05.007-.071v-9.15a2.832,2.832,0,0,1,5.665,0v9.15a.219.219,0,0,0,.007.071.945.945,0,0,0,.944.873h9.441a.948.948,0,0,0,.944-.944V205.644A.965.965,0,0,0,83.88,204.7Z" transform="translate(-52.523 -190.122)"/>
  </g>
</svg>
