<svg xmlns="http://www.w3.org/2000/svg" viewBox="58 3399 315 366.238">
  <defs>
    <style>
      .cls-1 {
        fill: #5a4b42;
      }

      .cls-2 {
        fill: #fddbbb;
      }

      .cls-3 {
        fill: #e7e8e9;
      }

      .cls-4 {
        fill: #ec7d87;
      }

      .cls-5 {
        fill: #f5f5f5;
      }

      .cls-6 {
        fill: #c49a6c;
      }

      .cls-7 {
        fill: #bdbdbc;
      }

      .cls-8 {
        fill: #e1e2e2;
      }

      .cls-9 {
        fill: #939599;
      }

      .cls-10 {
        fill: #e0e0e0;
      }

      .cls-11 {
        fill: #f1f2f2;
      }

      .cls-12 {
        fill: #343434;
      }

      .cls-13 {
        fill: #e5e7e7;
      }

      .cls-14 {
        fill: #2b424e;
      }

      .cls-15 {
        fill: #334e5c;
      }

      .cls-16 {
        fill: #e2584d;
      }

      .cls-17 {
        fill: #f3b5b1;
      }

      .cls-18 {
        fill: #cdd0d2;
      }

      .cls-19 {
        fill: #2ba7d2;
      }

      .cls-20 {
        fill: none;
        stroke: #000;
        stroke-miterlimit: 10;
        stroke-width: 2px;
      }

      .cls-21 {
        fill: #2a4d39;
        font-size: 20px;
        font-family: Montserrat-Regular, Montserrat;
      }
    </style>
  </defs>
  <g id="Group_1865" data-name="Group 1865" transform="translate(21)">
    <g id="Group_1734" data-name="Group 1734" transform="translate(36.973 3504.162)">
      <g id="Group_1731" data-name="Group 1731" transform="translate(0.027 2.221)">
        <path id="Path_2188" data-name="Path 2188" class="cls-1" d="M150.62,109.9s0,23.1,4.95,37.505c0,0-21.132,1.46-37.378-3.808-15.992-5.2-15.992-4.379-15.992-4.379Z" transform="translate(-37.361 -42.378)"/>
        <path id="Path_2189" data-name="Path 2189" class="cls-2" d="M227.986,106.963s2.094-13.771-6.854-12.565c-.254.063-.571.063-.825.127,0,0,.19-14.025-1.9-14.025-4.252,0-2.348,25.765-2.348,25.765Z" transform="translate(-78.808 -31.635)"/>
        <g id="Group_1720" data-name="Group 1720" transform="translate(0 7.552)">
          <ellipse id="Ellipse_163" data-name="Ellipse 163" class="cls-3" cx="38.901" cy="4.95" rx="38.901" ry="4.95" transform="translate(32.601 241.34)"/>
          <path id="Path_2190" data-name="Path 2190" class="cls-2" d="M131.106,65.216c0,27.542-18.975,49.816-43.724,49.816S41.5,92.695,41.5,65.216,61.553,15.4,86.3,15.4C129.266,15.4,131.106,37.675,131.106,65.216Z" transform="translate(-15.181 -15.4)"/>
          <path id="Path_2191" data-name="Path 2191" class="cls-2" d="M84.9,328.3v42.074s11.042,7.615,14.152,4.633c3.554-3.427-5.648-7.108-5.648-7.108l1.269-39.6H84.9Z" transform="translate(-31.039 -129.732)"/>
          <path id="Path_2192" data-name="Path 2192" class="cls-1" d="M126.383,319.823H51.5L52.706,305.1h72.408Z" transform="translate(-18.835 -121.255)"/>
          <path id="Path_2193" data-name="Path 2193" class="cls-3" d="M53.071,305.1l-.571,7.361,73.17-5.013-.19-2.348Z" transform="translate(-19.201 -121.255)"/>
          <path id="Path_2194" data-name="Path 2194" class="cls-1" d="M84.9,392.006v8.313h3.236l.571-2.348a21.478,21.478,0,0,0,9.9,2.348c9.2,0,0-7.869-5.267-9.519,0,0,6.6,2.665,4.379,4.76C94.165,398.859,84.9,392.006,84.9,392.006Z" transform="translate(-31.039 -152.57)"/>
          <path id="Path_2195" data-name="Path 2195" class="cls-2" d="M119,328.3v42.074s11.55,8.06,14.152,4.633c2.919-3.871-5.648-7.108-5.648-7.108l1.269-39.6H119Z" transform="translate(-43.5 -129.732)"/>
          <path id="Path_2196" data-name="Path 2196" class="cls-4" d="M109.1,129.5a11.169,11.169,0,0,0,22.338,0Z" transform="translate(-39.882 -57.092)"/>
          <path id="Path_2197" data-name="Path 2197" class="cls-2" d="M96.8,151v17.325l9.329,20.942,9.265-20.942V151Z" transform="translate(-35.388 -64.948)"/>
          <path id="Path_2198" data-name="Path 2198" class="cls-5" d="M79.517,178.3l-22.275,7.108L49.5,258.768h77.358l-8-74.376L98.111,178.3l-9.265,20.942Z" transform="translate(-18.104 -74.923)"/>
          <g id="Group_1717" data-name="Group 1717" transform="translate(0 141.28)">
            <g id="Group_1708" data-name="Group 1708">
              <path id="Path_2199" data-name="Path 2199" class="cls-3" d="M78.438,265.926l-7.171-10.344.444-.571s1.523.952,3.427-.888c1.65-1.587.063-4.061.063-4.061s-1.587-2.729-4.315-1.333c-1.967,1.015-1.777,2.475-1.777,2.475l-.7.254L61.177,241.05a3.863,3.863,0,0,0-5.394-.952l-2.094,1.46L49.5,281.094H63.334l14.088-9.773A3.876,3.876,0,0,0,78.438,265.926ZM72.79,250.442a.73.73,0,1,1-.19,1.015A.728.728,0,0,1,72.79,250.442Z" transform="translate(-18.104 -238.529)"/>
              <g id="Group_1704" data-name="Group 1704">
                <path id="Path_2200" data-name="Path 2200" class="cls-6" d="M23.3,294.68a3.92,3.92,0,0,1-5.394-.952L.708,268.852a3.92,3.92,0,0,1,.952-5.394l35.6-24.75a3.92,3.92,0,0,1,5.394.952l17.2,24.813a3.92,3.92,0,0,1-.952,5.394Z" transform="translate(-0.027 -238.027)"/>
              </g>
              <g id="Group_1705" data-name="Group 1705" transform="translate(4.632 5.596)">
                <rect id="Rectangle_157" data-name="Rectangle 157" class="cls-5" width="41.376" height="29.382" transform="matrix(0.822, -0.57, 0.57, 0.822, 0, 23.584)"/>
              </g>
              <g id="Group_1706" data-name="Group 1706" transform="translate(4.9 4.83)">
                <rect id="Rectangle_158" data-name="Rectangle 158" class="cls-5" width="41.376" height="29.382" transform="matrix(0.822, -0.57, 0.57, 0.822, 0, 23.584)"/>
              </g>
              <g id="Group_1707" data-name="Group 1707" transform="translate(40.597 8.85)">
                <path id="Path_2201" data-name="Path 2201" class="cls-7" d="M77.073,265.7l-1.967-5.14,1.46-1.9s1.523.952,3.427-.888c1.65-1.586.063-4.061.063-4.061s-1.587-2.729-4.315-1.333c-1.967,1.015-1.777,2.475-1.777,2.475l-2.221.888-4-3.617L64,253.513l10.661,15.357Zm.381-10.534a.73.73,0,1,1,1.015.19A.718.718,0,0,1,77.454,255.163Z" transform="translate(-64 -251.973)"/>
              </g>
            </g>
            <g id="Group_1709" data-name="Group 1709" transform="translate(20.874 21.158)">
              <rect id="Rectangle_159" data-name="Rectangle 159" class="cls-7" width="0.635" height="22.528" transform="matrix(0.818, -0.575, 0.575, 0.818, 0, 0.365)"/>
            </g>
            <g id="Group_1710" data-name="Group 1710" transform="translate(24.28 18.73)">
              <rect id="Rectangle_160" data-name="Rectangle 160" class="cls-7" width="0.635" height="22.528" transform="matrix(0.818, -0.575, 0.575, 0.818, 0, 0.365)"/>
            </g>
            <g id="Group_1711" data-name="Group 1711" transform="translate(27.67 16.391)">
              <rect id="Rectangle_161" data-name="Rectangle 161" class="cls-7" width="0.635" height="22.528" transform="matrix(0.818, -0.575, 0.575, 0.818, 0, 0.365)"/>
            </g>
            <g id="Group_1712" data-name="Group 1712" transform="translate(31.075 13.964)">
              <rect id="Rectangle_162" data-name="Rectangle 162" class="cls-7" width="0.635" height="22.528" transform="matrix(0.818, -0.575, 0.575, 0.818, 0, 0.365)"/>
            </g>
            <g id="Group_1713" data-name="Group 1713" transform="translate(34.429 11.573)">
              <rect id="Rectangle_163" data-name="Rectangle 163" class="cls-7" width="0.635" height="22.528" transform="matrix(0.818, -0.575, 0.575, 0.818, 0, 0.365)"/>
            </g>
            <g id="Group_1714" data-name="Group 1714" transform="translate(17.484 23.497)">
              <rect id="Rectangle_164" data-name="Rectangle 164" class="cls-7" width="0.635" height="22.528" transform="matrix(0.818, -0.575, 0.575, 0.818, 0, 0.365)"/>
            </g>
            <g id="Group_1715" data-name="Group 1715" transform="translate(14.131 25.887)">
              <rect id="Rectangle_165" data-name="Rectangle 165" class="cls-7" width="0.635" height="22.528" transform="matrix(0.818, -0.575, 0.575, 0.818, 0, 0.365)"/>
            </g>
            <g id="Group_1716" data-name="Group 1716" transform="translate(10.725 28.315)">
              <rect id="Rectangle_166" data-name="Rectangle 166" class="cls-7" width="0.635" height="22.528" transform="matrix(0.818, -0.575, 0.575, 0.818, 0, 0.365)"/>
            </g>
          </g>
          <g id="Group_1718" data-name="Group 1718" transform="translate(12.484 110.485)">
            <path id="Path_2202" data-name="Path 2202" class="cls-3" d="M47.559,284.315l1.079-.888S32.265,269.973,31.313,253.6L19.7,261.659c1.967,9.075,7.361,19.355,18.15,30.842l1.523-1.269a23,23,0,0,0,1.523,1.9l9.963-6.917A16.5,16.5,0,0,0,47.559,284.315Z" transform="translate(-19.7 -212.922)"/>
            <path id="Path_2203" data-name="Path 2203" class="cls-2" d="M52.1,306.017s7.806,11.359,14.025,4.76S60.286,299.1,60.286,299.1Z" transform="translate(-31.539 -229.547)"/>
            <path id="Path_2204" data-name="Path 2204" class="cls-5" d="M46.37,189.5s-54.449,27.859-7.615,77.739l10.788-9.075s-36.68-30.017-3.3-55.147Z" transform="translate(-19.717 -189.5)"/>
            <circle id="Ellipse_164" data-name="Ellipse 164" class="cls-8" cx="1.269" cy="1.269" r="1.269" transform="matrix(0.644, -0.765, 0.765, 0.644, 14.722, 70.452)"/>
            <circle id="Ellipse_165" data-name="Ellipse 165" class="cls-8" cx="1.269" cy="1.269" r="1.269" transform="translate(17.499 73.828) rotate(-49.855)"/>
          </g>
          <g id="Group_1719" data-name="Group 1719" transform="translate(91.366 67.078)">
            <path id="Path_2205" data-name="Path 2205" class="cls-5" d="M144,173.2s58.7,17.2,58.891-51.276L188.8,121.1s4.569,47.849-35.474,42.392Z" transform="translate(-144 -121.1)"/>
            <circle id="Ellipse_166" data-name="Ellipse 166" class="cls-8" cx="1.269" cy="1.269" r="1.269" transform="matrix(0.994, -0.113, 0.113, 0.994, 54.251, 6.812)"/>
            <circle id="Ellipse_167" data-name="Ellipse 167" class="cls-8" cx="1.269" cy="1.269" r="1.269" transform="matrix(0.994, -0.113, 0.113, 0.994, 54.5, 2.431)"/>
          </g>
          <path id="Path_2206" data-name="Path 2206" class="cls-1" d="M119,392.006v8.313h3.236l.571-2.348a21.478,21.478,0,0,0,9.9,2.348c9.2,0,0-7.869-5.267-9.519,0,0,6.6,2.665,4.379,4.76C128.329,398.859,119,392.006,119,392.006Z" transform="translate(-43.5 -152.57)"/>
        </g>
        <path id="Path_2207" data-name="Path 2207" class="cls-8" d="M111.5,198.694l12.756-8.631-3.49-4.633,5.521-2.919-1.713-3.681-3.808-2.031Z" transform="translate(-40.759 -66.823)"/>
        <path id="Path_2208" data-name="Path 2208" class="cls-8" d="M102.986,198.694l-12.756-8.631,3.427-4.633L88.2,182.511l1.65-3.681,3.808-2.031Z" transform="translate(-32.245 -66.823)"/>
        <path id="Path_2209" data-name="Path 2209" class="cls-3" d="M133.656,287.684h0a9.479,9.479,0,0,1-9.456-9.456V268.9h18.911v9.329A9.439,9.439,0,0,1,133.656,287.684Z" transform="translate(-45.4 -100.476)"/>
        <path id="Path_2210" data-name="Path 2210" class="cls-1" d="M98.538,95.265c0,3.871-1.333,5.965-2.919,5.965S92.7,99.136,92.7,95.265,94.033,89.3,95.619,89.3,98.538,91.394,98.538,95.265Z" transform="translate(-33.89 -34.851)"/>
        <path id="Path_2211" data-name="Path 2211" class="cls-1" d="M158.338,95.265c0,3.871-1.333,5.965-2.919,5.965s-2.919-2.094-2.919-5.965,1.333-5.965,2.919-5.965S158.338,91.394,158.338,95.265Z" transform="translate(-55.74 -34.851)"/>
        <path id="Path_2212" data-name="Path 2212" class="cls-1" d="M56.043,58.71l.381-13.073s37.949,7.234,71.9-.7A45.7,45.7,0,0,0,82.379,3.5c-57.939,0-59.018,53.5-46.2,97.856,16.246,6.917,28.43,7.615,28.43,7.615-8.123-15.23-8.631-41.947-8.631-41.947s-8.5,3.554-7.806-5.648C48.618,55.03,56.043,58.71,56.043,58.71Z" transform="translate(-10.813 -3.5)"/>
        <g id="Group_1721" data-name="Group 1721" transform="translate(51.886 112.515)">
          <path id="Path_2213" data-name="Path 2213" class="cls-3" d="M127.244,204.978l-.19-.063c.508-2.538,2.729-13.454,2.221-23.1a1.048,1.048,0,0,0-2.094.063c.508,9.329-1.65,20.18-2.158,22.592-2.665-.508-10.09-.7-14.786,12.565-4.442,12.5,2.221,15.992,4.061,16.69,0,.444.317.762,1.206.952,1.079.254,1.269-.317,1.587-1.079.254-.762-.19-1.333-1.015-1.587a1.144,1.144,0,0,0-1.333.381c-1.713-.571-6.473-3.173-2.919-14.85.063-.127.063-.254.127-.317,1.46-2.665,5.331-8.059,12.311-5.9,6.6,2.031,7.742,7.044,7.869,9.709a.8.8,0,0,1-.063.381c-1.46,11.169-7.234,12.565-9.329,12.692a1.076,1.076,0,0,0-.888-.888c-.825-.127-1.4-.254-1.713.825s-.063,1.523.571,1.65c.508.127,1.333.317,1.777-.254,3.744.254,9.392-1.9,11.106-13.517C135.367,208.659,129.846,205.676,127.244,204.978Zm-3.11,5.521a9.818,9.818,0,0,0-11.232,3.935c4.633-10.471,12.819-7.869,12.819-7.869s6.79.888,6.473,11.74C131.75,215.957,130.036,212.213,124.134,210.5Z" transform="translate(-91.636 -180.8)"/>
          <path id="Path_2214" data-name="Path 2214" class="cls-3" d="M91.505,212.022a4.253,4.253,0,0,0-1.269,0c-1.967-7.742-5.2-20.878-6.346-28.938a1.059,1.059,0,0,0-2.094.317c1.142,8.123,4.379,21.386,6.346,29.192a6.458,6.458,0,1,0,9.075,6.536A6.387,6.387,0,0,0,91.505,212.022Z" transform="translate(-81.789 -181.308)"/>
        </g>
        <g id="Group_1728" data-name="Group 1728" transform="translate(53.867 135.233)">
          <g id="Group_1722" data-name="Group 1722" transform="translate(17.572 5.75)">
            <path id="Path_2215" data-name="Path 2215" class="cls-9" d="M133.352,238.313a10.441,10.441,0,0,0-7.806-11.423c-9.138-2.792-12.946,7.3-12.946,7.3v-1.206s3.681-9.519,12.946-6.854c9.011,2.6,8.186,10.027,8.186,10.027Z" transform="translate(-112.6 -225.658)"/>
          </g>
          <g id="Group_1723" data-name="Group 1723" transform="translate(15.048)">
            <path id="Path_2216" data-name="Path 2216" class="cls-1" d="M127.2,217.234l-1.9-.381c-2.285-.571-10.217-1.4-15.167,12.438-5.14,14.406,4.506,16.88,4.506,16.88l.508-1.333s-7.742-.952-3.427-15.04c4.252-14.025,13.961-10.979,13.961-10.979s8,1.015,6.219,14.786-10.154,12.629-10.154,12.629L121.3,247.5c3.681.7,10.154-.762,11.994-13.39C135.325,220.914,129.8,217.932,127.2,217.234Z" transform="translate(-108.623 -216.598)"/>
          </g>
          <g id="Group_1724" data-name="Group 1724" transform="translate(0 6.477)">
            <circle id="Ellipse_168" data-name="Ellipse 168" class="cls-9" cx="6.473" cy="6.473" r="6.473" transform="translate(0 12.879) rotate(-84.163)"/>
          </g>
          <g id="Group_1725" data-name="Group 1725" transform="translate(3.201 9.678)">
            <circle id="Ellipse_169" data-name="Ellipse 169" class="cls-10" cx="3.554" cy="3.554" r="3.554" transform="translate(0 7.071) rotate(-84.163)"/>
          </g>
          <g id="Group_1726" data-name="Group 1726" transform="translate(26.256 28.794)">
            <path id="Path_2217" data-name="Path 2217" class="cls-9" d="M128.96,263.7c.19-.888-.063-1.523-.825-1.65-.825-.127-1.4-.254-1.713.825s-.063,1.523.571,1.65C127.627,264.718,128.706,264.908,128.96,263.7Z" transform="translate(-126.285 -261.97)"/>
          </g>
          <g id="Group_1727" data-name="Group 1727" transform="translate(20.588 27.61)">
            <path id="Path_2218" data-name="Path 2218" class="cls-9" d="M119.16,260.165c.888.254,1.333.762,1.015,1.587-.254.762-.444,1.333-1.587,1.079-1.079-.254-1.333-.7-1.206-1.333C117.573,260.864,117.954,259.848,119.16,260.165Z" transform="translate(-117.353 -260.106)"/>
          </g>
        </g>
        <g id="Group_1729" data-name="Group 1729" transform="translate(51.95 112.572)">
          <path id="Path_2219" data-name="Path 2219" class="cls-1" d="M90.907,218.211a1.086,1.086,0,0,1-1.015-.762c-.063-.254-6.346-23.417-8-35.347a1.073,1.073,0,0,1,.888-1.206,1.111,1.111,0,0,1,1.206.888c1.65,11.8,7.869,34.84,7.933,35.094a1.038,1.038,0,0,1-.762,1.269C91.1,218.147,90.971,218.211,90.907,218.211Z" transform="translate(-81.889 -180.889)"/>
        </g>
        <g id="Group_1730" data-name="Group 1730" transform="translate(85.059 111.812)">
          <path id="Path_2220" data-name="Path 2220" class="cls-1" d="M135.165,205.081h-.254a1.078,1.078,0,0,1-.825-1.269c0-.127,2.856-12.629,2.285-23.036a1.057,1.057,0,0,1,1.015-1.079,1.017,1.017,0,0,1,1.079,1.015c.571,10.788-2.221,23.1-2.348,23.671C136.117,204.7,135.672,205.081,135.165,205.081Z" transform="translate(-134.061 -179.692)"/>
        </g>
        <rect id="Rectangle_167" data-name="Rectangle 167" class="cls-11" width="18.911" height="4.442" transform="translate(78.8 168.424)"/>
      </g>
      <g id="Group_1733" data-name="Group 1733" transform="translate(195.531)">
        <rect id="Rectangle_168" data-name="Rectangle 168" class="cls-12" width="14.786" height="157.255" transform="translate(52.355 96.206)"/>
        <g id="Group_1732" data-name="Group 1732">
          <path id="Path_2221" data-name="Path 2221" class="cls-13" d="M326.757,0h82.181A18.688,18.688,0,0,1,427.6,18.657v82.181A18.688,18.688,0,0,1,408.939,119.5H326.757A18.688,18.688,0,0,1,308.1,100.839V18.657A18.688,18.688,0,0,1,326.757,0Zm0,0" transform="translate(-308.1)"/>
          <path id="Path_2222" data-name="Path 2222" class="cls-14" d="M331.032,11.8h82.181a11.253,11.253,0,0,1,11.233,11.232v61.62a11.253,11.253,0,0,1-11.233,11.232H331.032A11.253,11.253,0,0,1,319.8,84.653V22.969A11.281,11.281,0,0,1,331.032,11.8Zm0,0" transform="translate(-312.375 -4.312)"/>
          <path id="Path_2223" data-name="Path 2223" class="cls-15" d="M336.188,20.6h78.374a7.5,7.5,0,0,1,7.488,7.488V85.964a7.5,7.5,0,0,1-7.488,7.488H336.188a7.5,7.5,0,0,1-7.488-7.488V28.088a7.5,7.5,0,0,1,7.488-7.488Zm0,0" transform="translate(-315.627 -7.527)"/>
          <path id="Path_2224" data-name="Path 2224" class="cls-16" d="M347.036,155.9a6.536,6.536,0,1,1-6.536,6.536,6.527,6.527,0,0,1,6.536-6.536Zm0,0" transform="translate(-319.939 -56.965)"/>
          <path id="Path_2225" data-name="Path 2225" class="cls-17" d="M349.192,161.8a2.792,2.792,0,1,1-2.792,2.792,2.817,2.817,0,0,1,2.792-2.792Zm0,0" transform="translate(-322.095 -59.121)"/>
          <path id="Path_2226" data-name="Path 2226" class="cls-18" d="M380.4,158.9a4.7,4.7,0,1,0,4.7,4.7,4.646,4.646,0,0,0-4.7-4.7Zm14.977,0a4.7,4.7,0,1,0,4.7,4.7,4.646,4.646,0,0,0-4.7-4.7Zm14.913,0a4.7,4.7,0,1,0,4.7,4.7,4.646,4.646,0,0,0-4.7-4.7Zm14.913,0a4.7,4.7,0,1,0,4.7,4.7,4.646,4.646,0,0,0-4.7-4.7Zm0,0" transform="translate(-332.801 -58.061)"/>
          <path id="Path_2227" data-name="Path 2227" class="cls-19" d="M422.123,64.57H410.891a1.829,1.829,0,0,0-1.84,1.333l-3.808,11.232L397.691,52.83a1.906,1.906,0,0,0-1.777-1.333,1.8,1.8,0,0,0-1.84,1.206l-7.108,18.213-2.983-5.331a1.829,1.829,0,0,0-1.65-1.015H369.261a1.987,1.987,0,0,0-1.84,1.333l-3.808,11.232-7.679-24.242a1.906,1.906,0,0,0-1.777-1.333,1.876,1.876,0,0,0-1.84,1.206l-7.108,18.213-2.983-5.394a1.675,1.675,0,0,0-1.65-.825H328.9V68.5h10.471l4.379,8.059a2.026,2.026,0,0,0,1.777,1.015,1.694,1.694,0,0,0,1.65-1.206L353.9,59.3l7.679,24.623a1.97,1.97,0,0,0,1.777,1.333,1.881,1.881,0,0,0,1.84-1.333l5.331-15.611h10.661l4.379,8.123a2.026,2.026,0,0,0,1.777,1.015A1.694,1.694,0,0,0,389,76.246l6.6-17.2,7.679,24.623A1.906,1.906,0,0,0,405.052,85a1.829,1.829,0,0,0,1.84-1.333l5.331-15.484h9.9Zm0,0" transform="translate(-315.7 -18.815)"/>
        </g>
        <path id="Path_2228" data-name="Path 2228" class="cls-12" d="M413.876,403.946H359.3V401.09A10.075,10.075,0,0,1,369.39,391h34.459a10.075,10.075,0,0,1,10.09,10.09v2.856Z" transform="translate(-326.808 -142.87)"/>
      </g>
    </g>
    <g id="Group_1735" data-name="Group 1735" transform="translate(99.6 3399.5)">
      <path id="Path_2229" data-name="Path 2229" class="cls-20" d="M38.191.5A40.9,40.9,0,0,1,57.343,5.12,36.21,36.21,0,0,1,75.191.5c11.254,0,21.719,5.11,27.8,13.335a34.972,34.972,0,0,1,5.449-.385c18.323,0,33.21,13.2,33.21,29.471,0,16.241-14.887,29.471-33.21,29.471a37.414,37.414,0,0,1-8.174-.91A35.042,35.042,0,0,1,75.231,81.6a35.638,35.638,0,0,1-18.994-5.32,30.908,30.908,0,0,1-9.754-9.415,43.018,43.018,0,0,1-8.253.805C17.38,67.667.4,52.617.4,34.1.361,15.55,17.341.5,38.191.5Z"/>
      <path id="Path_2230" data-name="Path 2230" class="cls-20" d="M53.6,234.49c0,4.515,4.146,8.19,9.24,8.19s9.24-3.675,9.24-8.19-4.146-8.19-9.24-8.19-9.24,3.675-9.24,8.19Zm0,0" transform="translate(48.562 -146.767)"/>
      <path id="Path_2231" data-name="Path 2231" class="cls-20" d="M126.3,273.85c0,2.905,2.646,5.25,5.923,5.25s5.923-2.345,5.923-5.25-2.646-5.25-5.923-5.25-5.923,2.345-5.923,5.25Zm0,0" transform="translate(-46.212 -174.262)"/>
    </g>
    <text id="Rick_is_ziek_" data-name="Rick is ziek!" class="cls-21" transform="translate(114 3443)"><tspan x="0" y="0">Rick is ziek!</tspan></text>
  </g>
</svg>
