<svg xmlns="http://www.w3.org/2000/svg" xmlns:xlink="http://www.w3.org/1999/xlink" viewBox="58 910.61 308 175.18">
  <defs>
    <style>
      .cls-1 {
        fill: #fddcbf;
      }

      .cls-2 {
        fill: #e7e6e6;
      }

      .cls-3 {
        fill: #343434;
      }

      .cls-4 {
        fill: #f2f2f2;
      }

      .cls-5 {
        fill: #eceded;
      }

      .cls-6 {
        fill: #e3e3e4;
      }

      .cls-7 {
        fill: #ec7d87;
      }

      .cls-8 {
        fill: #c49a6c;
      }

      .cls-9 {
        fill: #e0e0e0;
      }

      .cls-10 {
        fill: #bdbdbc;
      }

      .cls-11 {
        fill: #5d5d5d;
      }

      .cls-12 {
        fill: #533e2a;
      }

      .cls-13 {
        fill: #584a3a;
      }

      .cls-14 {
        fill: #2980ba;
      }

      .cls-15 {
        fill: #166d9c;
      }

      .cls-16 {
        opacity: 0.18;
      }

      .cls-17 {
        fill: #010202;
      }

      .cls-18 {
        fill: none;
      }

      .cls-19 {
        clip-path: url(#clip-path);
      }

      .cls-20 {
        fill: #2c3338;
      }

      .cls-21 {
        fill: #599794;
      }

      .cls-22 {
        fill: #f7f1e5;
      }

      .cls-23 {
        fill: #64a6a3;
      }
    </style>
    <clipPath id="clip-path">
      <rect id="Rectangle_154" data-name="Rectangle 154" width="23.564" height="23.326"/>
    </clipPath>
  </defs>
  <g id="Group_1703" data-name="Group 1703" transform="translate(58.051 910.61)">
    <g id="Group_1660" data-name="Group 1660" transform="translate(-0.051)">
      <g id="Group_1647" data-name="Group 1647" transform="translate(29.049)">
        <path id="Path_2012" data-name="Path 2012" class="cls-1" d="M230.933,60.1c2.2.119,1.488,6.664,1.071,9.64.179-.714.417-1.488.774-1.428,2.321.357,1.666,1.666,1.607,2.38.119-.536.476-1.666,1.428-1.428.893.179,1.25,1.25,1.309,1.845a1.11,1.11,0,0,1,1.25-.952c3.451.714-1.19,8.212-1.19,8.212l-8.509-.179S228.137,59.981,230.933,60.1Z" transform="translate(-121.606 -24.338)"/>
        <g id="Group_1646" data-name="Group 1646">
          <ellipse id="Ellipse_156" data-name="Ellipse 156" class="cls-2" cx="45.64" cy="8.866" rx="45.64" ry="8.866" transform="translate(3.887 157.447)"/>
          <g id="Group_1645" data-name="Group 1645">
            <path id="Path_2013" data-name="Path 2013" class="cls-3" d="M149.745,220.8l-.059,27.55s10.77-11.663,14.221-1.19c3.63,11.068-19.577,6.426-19.577,6.426l-3.63-32.073Z" transform="translate(-85.997 -89.415)"/>
            <path id="Path_2014" data-name="Path 2014" class="cls-3" d="M92.445,228.3l1.309,28.086s9.7-12.258,14.459-1.19c4.582,10.711-19.577,6.426-19.577,6.426L83.4,229.014Z" transform="translate(-62.793 -92.452)"/>
            <path id="Path_2015" data-name="Path 2015" class="cls-1" d="M128.463,101.551s13.626-87.411-49.507-62c0,0-25.23.119-14.935,64.324Z" transform="translate(-53.945 -14.14)"/>
            <path id="Path_2016" data-name="Path 2016" class="cls-4" d="M130.516,134,127.9,191.957l-67.358,2.618L55.6,134.655Z" transform="translate(-51.535 -54.265)"/>
            <path id="Path_2017" data-name="Path 2017" class="cls-3" d="M140.9,0s-8.39,48.139-61.111,35.524l-7.8,14.935s-6.6-6.9-8.688.3c-2.142,7.2,6.9,4.879,6.9,4.879S65.865,72.059,56.761,76.7c0,0-23.147-76.225,9.342-62.9A30.442,30.442,0,0,1,89.25,1.547C104.542,1.071,112.873,24.813,140.9,0Z" transform="translate(-48.768)"/>
            <ellipse id="Ellipse_157" data-name="Ellipse 157" class="cls-3" cx="2.083" cy="3.57" rx="2.083" ry="3.57" transform="translate(61.89 48.393) rotate(-2.082)"/>
            <ellipse id="Ellipse_158" data-name="Ellipse 158" class="cls-3" cx="2.083" cy="3.57" rx="2.083" ry="3.57" transform="translate(35.946 48.929) rotate(-2.079)"/>
            <path id="Path_2018" data-name="Path 2018" class="cls-4" d="M179.488,117.509S200.73,161.542,206.859,87.4l11.6,1.012S211.5,169.277,178,131.016Z" transform="translate(-101.102 -35.394)"/>
            <path id="Path_2019" data-name="Path 2019" class="cls-5" d="M139.523,134.2l-21.9,29.93L94.3,134.617Z" transform="translate(-67.207 -54.346)"/>
            <path id="Path_2020" data-name="Path 2020" class="cls-6" d="M155.4,134.2l.476,12.674-7.2,1.488,1.071,9.759-16.245,6.01Z" transform="translate(-83.081 -54.346)"/>
            <path id="Path_2021" data-name="Path 2021" class="cls-6" d="M117.626,164.414l-15.769-7.557.536-7.081L94.776,147.1,94.3,134.9Z" transform="translate(-67.207 -54.629)"/>
            <path id="Path_2022" data-name="Path 2022" class="cls-3" d="M134.47,142.189l-2.38-3.511L125.9,138.5l-2.2,4.284,2.5,2.916-1.9,13.507,5.236,6.664,5.891-7.974-3.808-12.139Z" transform="translate(-79.113 -56.087)"/>
            <path id="Path_2023" data-name="Path 2023" class="cls-7" d="M118.7,106.277c.179,3.154,2.5,8.331,11.365,8.331,9.045,0,9.045-8.866,9.045-8.866S127.209,103.242,118.7,106.277Z" transform="translate(-77.088 -42.429)"/>
            <g id="Group_1644" data-name="Group 1644" transform="translate(6.802 113.221)">
              <path id="Path_2024" data-name="Path 2024" class="cls-6" d="M60.26,190.349c-.059,0-.059,0-.059-.059C60.379,190.29,60.14,190.23,60.26,190.349Z" transform="translate(-60.2 -190.275)"/>
              <path id="Path_2025" data-name="Path 2025" class="cls-6" d="M65,191.26c.06,0,.06-.059.119,0a.058.058,0,0,1,.06-.059c.06.119-.06.119-.179.059v.059C65.06,191.319,65.06,191.319,65,191.26Z" transform="translate(-62.144 -190.65)"/>
              <path id="Path_2026" data-name="Path 2026" class="cls-6" d="M64.9,191.3Z" transform="translate(-62.103 -190.69)"/>
              <path id="Path_2027" data-name="Path 2027" class="cls-6" d="M65,191.4Z" transform="translate(-62.144 -190.731)"/>
              <path id="Path_2028" data-name="Path 2028" class="cls-6" d="M84.5,204.8Z" transform="translate(-70.041 -196.157)"/>
              <path id="Path_2029" data-name="Path 2029" class="cls-6" d="M83.8,207.5Z" transform="translate(-69.757 -197.25)"/>
              <path id="Path_2030" data-name="Path 2030" class="cls-6" d="M78.6,196.8Z" transform="translate(-67.651 -192.917)"/>
              <path id="Path_2031" data-name="Path 2031" class="cls-6" d="M84.7,204.5Z" transform="translate(-70.122 -196.036)"/>
              <path id="Path_2032" data-name="Path 2032" class="cls-6" d="M60.619,190.3c.06.059-.06.059-.119.059C60.559,190.36,60.619,190.36,60.619,190.3Z" transform="translate(-60.321 -190.285)"/>
              <path id="Path_2033" data-name="Path 2033" class="cls-6" d="M64.8,191.382h0c0-.06.06,0,0,0Z" transform="translate(-62.063 -190.713)"/>
              <path id="Path_2034" data-name="Path 2034" class="cls-6" d="M65.738,191.619,65.5,191.5C65.619,191.5,65.738,191.56,65.738,191.619Z" transform="translate(-62.346 -190.771)"/>
              <path id="Path_2035" data-name="Path 2035" class="cls-6" d="M66.982,191.682h0C66.982,191.623,67.042,191.682,66.982,191.682Z" transform="translate(-62.936 -190.834)"/>
              <path id="Path_2036" data-name="Path 2036" class="cls-6" d="M67,191.782c0-.06.119,0,.119,0C67.06,191.782,67.06,191.842,67,191.782Z" transform="translate(-62.954 -190.875)"/>
              <path id="Path_2037" data-name="Path 2037" class="cls-6" d="M69.2,192.288c0-.06.119.059.119,0C69.319,192.348,69.26,192.288,69.2,192.288Z" transform="translate(-63.845 -191.083)"/>
              <path id="Path_2038" data-name="Path 2038" class="cls-6" d="M70.2,192.6h0c.06,0,.119.059,0,0Z" transform="translate(-64.25 -191.217)"/>
              <path id="Path_2039" data-name="Path 2039" class="cls-6" d="M86.3,200.1v0Z" transform="translate(-70.769 -194.254)"/>
              <path id="Path_2040" data-name="Path 2040" class="cls-6" d="M83.582,208.16s-.06,0,0-.059C83.522,208.16,83.642,208.1,83.582,208.16Z" transform="translate(-69.658 -197.493)"/>
              <path id="Path_2041" data-name="Path 2041" class="cls-6" d="M81.06,211.86,81,211.8Z" transform="translate(-68.623 -198.992)"/>
            </g>
          </g>
        </g>
      </g>
      <g id="Group_1657" data-name="Group 1657" transform="translate(0 106.184)">
        <path id="Path_2042" data-name="Path 2042" class="cls-8" d="M2.181,189.428A3.189,3.189,0,0,0,.1,193.415l7.5,23.623a3.189,3.189,0,0,0,3.987,2.083L45.5,208.291a3.189,3.189,0,0,0,2.083-3.987l-7.5-23.623A3.189,3.189,0,0,0,36.1,178.6Z" transform="translate(0.051 -178.449)"/>
        <rect id="Rectangle_153" data-name="Rectangle 153" class="cls-9" width="33.977" height="24.099" transform="translate(4.067 14.089) rotate(-17.668)"/>
        <path id="Path_2043" data-name="Path 2043" class="cls-10" d="M60.9,192.1l4.641,14.638,2.8-1.726-.357-4.4,1.666-1.012a2.3,2.3,0,0,0,2.559.06,2.679,2.679,0,0,0,1.309-3.451s-.833-2.261-2.678-1.964c-2.142.3-2.261,1.785-2.261,1.785H66.612l-2.321-3.868Zm10.77,4.4a.619.619,0,0,1,.774.357.6.6,0,0,1-.417.774.619.619,0,0,1-.774-.357A.648.648,0,0,1,71.67,196.5Z" transform="translate(-24.632 -183.977)"/>
        <g id="Group_1648" data-name="Group 1648" transform="translate(32.808 7.469)">
          <path id="Path_2044" data-name="Path 2044" class="cls-10" d="M64.882,220.988c0,.06-.059-.059,0,0Z" transform="translate(-59.041 -203.137)"/>
          <path id="Path_2045" data-name="Path 2045" class="cls-10" d="M55.093,191.357c-.06.238.179.476.179.714,0,0,.06-.06.06.059a1.2,1.2,0,0,0,.3.833h0c.06.059,0,.119,0,.178h.06c-.06,0,0,.119,0,.119h.06l-.06.06c-.06.119.06.238.06.357h0a2.139,2.139,0,0,0,.119.655s.06-.06.06,0c-.06,0-.06.119-.06.179.06,0,0,.119.06.178h0c-.06.06.06.06,0,.119h.06c-.06.059.06.059.06.119h0c0,.059.06.059.06.119h0c0,.119.06.119,0,.119.06,0,0-.06.06-.06a3.411,3.411,0,0,0,.238.833.058.058,0,0,1,.06.059v.119h.06c.06.06-.06.06,0,.119a.058.058,0,0,1,.06-.06c-.06.06,0,.119,0,.179v-.06c-.06.06.06.119.06.178v-.059c.06.059-.06.059,0,.119h.06c-.06.119,0,.179,0,.3h0c0,.06.06.179.06.238,0,0,.06-.06.119.059-.06,0,0,.119-.06.119.06.06.119.179.06.238,0-.059.119,0,.06-.059H57v.059c0,.059-.06.119-.06.238,0-.059.06,0,.06-.059l-.06.179a.058.058,0,0,1,.06.059l-.06.059a.117.117,0,0,0,.119.119c.06,0,0-.06.06,0v.119h0c0,.06,0,.119-.06.06,0,0,.06,0,0-.06-.06.06,0,.119,0,.179l.06-.06v.238c-.06,0,.06-.06,0-.06.06.06,0,.238.119.3h-.06a.058.058,0,0,0,.06.06v.059h0a.884.884,0,0,0,.06.357.208.208,0,0,0-.06.119h.06c.06,0,0,.06.06.06-.06.059,0-.238-.06-.119.06,0-.06.119,0,.06,0,.06,0,.119.06.119,0,0,.06-.059.06,0v.119c-.06,0,0,.06,0,.06.06,0,0,.119.06.059h.06c0,.06-.06.06-.06.119h0c-.06.06.06.06,0,.119.06.059.06.179.119.179v.119c.06,0,0,.059,0,.059a.208.208,0,0,0,.119.06.058.058,0,0,1-.06.06c.119,0,0,.178.06.178a.058.058,0,0,1,.06-.059c.119,0,0,.119.06.179h-.06c.06,0,0,.119.06.06,0,.06.06.06,0,.119.119.119.06.3.179.3v.06c-.06,0,0-.06,0-.06h0c0,.06.06.06.06,0,.06.06-.06.119,0,.238h.06v.06c.06.059.06,0,.119,0v.119h.06c-.06,0,0,.06,0,.06h0v.06l-.06-.06v.06a.058.058,0,0,1,.06.059v.06s0,.06.06,0c0,0-.06,0,0-.06a.058.058,0,0,1,.06.06c0,.06-.119,0-.06.06l.06-.06.06.06h-.06a.082.082,0,0,0,0,.119.058.058,0,0,0,.06.06h0c.06,0,.06.06,0,.119h0v.119c.06.059.179-.059.119.059a.208.208,0,0,1-.06.119c.06.06,0,.179.119.238v.06c.06.119.06.3.179.357,0-.06.06,0,.06,0,0,.059.06,0,0,.059h-.06a.451.451,0,0,0,.119.238H58.9c.06,0,.06,0,.06.06h0s-.06.059,0,.059h.06c0,.06-.06.119,0,.179h.06a.058.058,0,0,1-.06.059c.06.06.06.119.119.119a.84.84,0,0,0,.06.536h0c.06.06-.06.06,0,.06h.06a.082.082,0,0,1,0,.119c-.06,0,0-.06-.06,0a.082.082,0,0,1,0,.119.058.058,0,0,0,.06-.06v.06c.06,0,.06-.119.179-.119v.06c.06,0,.06-.119.06-.06s-.06.119-.119.06c0,.06-.119.06-.06.179.06,0,0-.06.06-.06s0,.119.06.119c-.06-.06-.06,0-.06.06.06.059.06-.06.06,0l-.06.059c-.06.059.06.059,0,.119.06,0,.119-.119.119-.06-.06,0-.06.119-.119.119h.06c.06,0-.06.119.06.119h-.06l.06.059c0,.059,0,.119.06.119a.058.058,0,0,1-.06.06c-.06-.06,0-.06-.06-.06.06,0,0,.06,0,.119h0v.06h.06l-.06.06c0,.06.06,0,.06.06v-.06a.058.058,0,0,1,.06.06l-.119.06c0,.06.06,0,0,.06l.06-.06a.184.184,0,0,1,.119.06c0,.059-.06.119-.06.059,0,0,.06.06.06,0,0,.06-.06,0-.06.06.06,0,.06.059.119.059l.06-.059v.059c.06-.059.06,0,.119-.059v.059c-.119-.059-.119.119-.179.119,0,.119.238,0,.119.119,0,0-.06.06-.06,0,0,.06-.06.06,0,.119,0-.06.119,0,.119-.06l-.06-.06c.06,0,.06-.06.119,0v.119c-.06,0,0-.06-.06,0,0,.06.06.06,0,.119,0-.06-.06-.06-.119-.06v.06h0c.06.059-.06.059,0,.119h.06c.06-.059-.06-.119,0-.119v.059s.119,0,.06.119c0,.06,0,0-.06.06v.179c.06-.06.06.119.06,0-.06,0-.06-.119-.06-.179.06,0-.06-.06.06-.119,0,.06.119.06.119.06v.06h-.119c.06.059.06.178,0,.178.06,0,.06,0,.06-.06,0,.119.06.179.119.3-.119-.059,0,.119-.06.059s-.119-.059-.119,0h.06c0,.06.06.06.06.119,0-.06.06-.06.119-.06,0,.06.06,0,.06.06v.238c.06.06.06.179.119.3h.119c0,.06-.06,0,0,.06h0s.06.119,0,.179l.06-.06v.06h.06c.06,0,0,.119.06.119h-.06c0,.119.06.119.06.238h.06v.06c.06,0,.06,0,.06.06l.06-.179a.058.058,0,0,0-.06.059c-.06,0-.06-.059,0-.119v.059a.058.058,0,0,0,.06-.059v-.06c0,.06-.06,0-.06,0,.06,0,.06-.06,0-.119-.06,0,0-.119-.06-.179a.184.184,0,0,0-.06.119c-.06-.06,0-.06-.06-.06,0-.059.06-.059.06-.119h-.06c0-.06.06-.06,0-.119a1,1,0,0,1-.119-.3h-.06c.06-.06,0-.179,0-.238-.06-.119-.06-.238-.119-.3-.06-.179-.06-.357-.119-.6l-.06.06c0-.06-.06,0-.06-.06.06,0,.06-.059.06-.119a.446.446,0,0,1-.06-.3h-.06c.06-.119-.06-.179-.119-.3a.058.058,0,0,1-.06-.06c.06-.06,0-.119.06-.179,0-.06-.06-.119-.119-.179,0-.238-.119-.476-.119-.714H59.5c0-.238-.179-.476-.179-.714l-.06.06c-.06-.06,0-.119.06-.119-.06-.059,0-.178-.06-.178-.06-.06,0-.06,0-.119-.06-.119-.06-.178-.119-.3h-.06c0-.06-.06-.179.06-.119-.119-.119-.06-.3-.179-.417l.06-.059c-.06-.119-.119-.179-.119-.3,0,0-.06.059-.06,0a.058.058,0,0,0,.06-.06c0-.179-.179-.357-.179-.476-.06-.3-.179-.6-.238-.833h0c.06-.119-.119-.179-.06-.3l-.06-.06c0-.06-.119-.178-.06-.3h0c-.06-.119-.06-.179-.119-.3v.06c-.06-.06.06-.119-.06-.119,0,0,.06-.06.06,0a2.952,2.952,0,0,1-.179-.774c-.119-.179-.119.06-.119-.119h0c0-.06-.119-.06-.119-.119.06,0,0-.06.06-.06-.06-.119-.119-.119-.119-.178h0c.06-.119-.06-.238,0-.357-.179-.536-.3-1.131-.476-1.666l-.536-1.607c-.119-.119-.119-.119-.119-.238h0c.06,0,0-.119,0-.119-.06-.179-.119-.417-.179-.6,0,.06-.06.06-.06,0v-.06h0a.058.058,0,0,1,.06-.06,16.5,16.5,0,0,0-.6-1.547,1.1,1.1,0,0,1-.119-.417A2.708,2.708,0,0,1,55.212,191C55.213,191.119,55.093,191.238,55.093,191.357Z" transform="translate(-55.084 -191)"/>
          <path id="Path_2046" data-name="Path 2046" class="cls-10" d="M64.819,220.782c-.06,0-.06-.059-.119,0C64.76,220.782,64.76,220.842,64.819,220.782Z" transform="translate(-58.978 -203.05)"/>
          <path id="Path_2047" data-name="Path 2047" class="cls-10" d="M63.682,218.982Z" transform="translate(-58.555 -202.321)"/>
          <path id="Path_2048" data-name="Path 2048" class="cls-10" d="M63.5,218.5v0Z" transform="translate(-58.492 -202.136)"/>
          <path id="Path_2049" data-name="Path 2049" class="cls-10" d="M63.1,218Z" transform="translate(-58.33 -201.934)"/>
          <path id="Path_2050" data-name="Path 2050" class="cls-10" d="M63.2,217.982Z" transform="translate(-58.371 -201.916)"/>
          <path id="Path_2051" data-name="Path 2051" class="cls-10" d="M62.782,216.96v-.06S62.722,216.96,62.782,216.96Z" transform="translate(-58.191 -201.489)"/>
          <path id="Path_2052" data-name="Path 2052" class="cls-10" d="M62.67,216.4Z" transform="translate(-58.138 -201.286)"/>
          <path id="Path_2053" data-name="Path 2053" class="cls-10" d="M59.9,207.4v.06h0Z" transform="translate(-57.034 -197.641)"/>
          <path id="Path_2054" data-name="Path 2054" class="cls-10" d="M58.582,203.5Z" transform="translate(-56.49 -196.062)"/>
          <path id="Path_2055" data-name="Path 2055" class="cls-10" d="M58.1,201.3v.059l.06-.059Z" transform="translate(-56.305 -195.171)"/>
        </g>
        <g id="Group_1649" data-name="Group 1649" transform="translate(30.308 8.897)">
          <path id="Path_2056" data-name="Path 2056" class="cls-10" d="M59.882,222c0,.059-.06,0,0,0C59.882,222.059,59.942,222,59.882,222Z" transform="translate(-54.517 -204.982)"/>
          <path id="Path_2057" data-name="Path 2057" class="cls-10" d="M50.893,193.7c-.06.238.179.476.119.714,0,0,.059-.06.059.06a1.067,1.067,0,0,0,.3.774h0c.06.059,0,.119,0,.179h.06c-.06,0,0,.119,0,.119h.06l-.06.06c-.119.119.06.179.06.357h0a3.07,3.07,0,0,0,.119.655s.06-.06.06,0c-.06,0-.06.119-.06.179.06,0,0,.119.06.179h0c-.06.059.06.059,0,.119h.06c-.06.059.06.059.06.119h0a.058.058,0,0,0,.06.06h0c0,.06.06.119,0,.119.06,0,0-.06.06-.06a4.169,4.169,0,0,0,.179.833.058.058,0,0,1,.06.059v.119h.06c.06.06-.06.06,0,.119a.058.058,0,0,1,.06-.06c-.06.06,0,.119,0,.179v-.059c-.06.059.06.119,0,.179h0c.06.06-.06.06,0,.119h.06c-.06.059,0,.179,0,.238h0c0,.06.06.119.06.238,0,0,.06-.059.119.06-.059,0,0,.119-.059.119.059.06.119.179.059.179,0-.059.119,0,.06-.059h.06v.059c0,.059-.06.119-.06.238,0-.06.06,0,.06-.06L52.5,200a.058.058,0,0,1,.06.059l-.06.06s0,.119.06.119,0-.06.059,0v.119h0c0,.059,0,.119-.059.059,0,0,.059,0,0-.059a.082.082,0,0,0,0,.119l.059-.059c-.059.059,0,.179,0,.238-.059,0,.06-.06,0-.06.06.06,0,.238.119.3h-.06c0,.06.06,0,.06.06v.06h0c0,.059,0,.238.059.3a.208.208,0,0,0-.059.119H52.8c.06,0,0,.059.06.059-.06.06,0-.178-.06-.119.06,0-.059.119,0,.059,0,.06,0,.119.06.119,0,0,.06-.06.06,0v.119c-.06,0,0,.06,0,.06.06,0,0,.119.06.06h.06c0,.059-.06.059-.06.119h0c-.06.06,0,.06,0,.119.06.06.06.179.119.179v.119c.059,0,0,.06,0,.06a.208.208,0,0,0,.119.059.058.058,0,0,1-.06.059c.119,0,0,.119.06.179a.058.058,0,0,1,.06-.06c.119,0-.06.119,0,.179h-.06c.06,0,0,.119.06.06,0,0,.06.06,0,.06.119.119.06.3.179.3v.059c-.06,0,0-.059,0-.059h0s.06.059.06,0c.06.059-.06.119,0,.178h.06v.06c.06.06.06,0,.119,0v.119h.06c-.06,0,0,.06,0,.06h0v.06l-.06-.06v.06a.058.058,0,0,1,.06.06v.06s0,.059.06,0c0,0-.06,0,0-.06a.058.058,0,0,1,.06.06c0,.059-.119,0-.06.059l.06-.059.06.059h-.06a.082.082,0,0,0,0,.119.058.058,0,0,0,.06.06h0c.06,0,.06.059,0,.119h0v.119c.06.06.179-.06.119.06,0,.059-.06.119-.06.059.06.06,0,.179.119.238v.059c.06.119.06.3.119.357,0-.06.06,0,.06,0,0,.06.06,0,0,.06h-.06c0,.06.06.179.06.238h-.06c.06,0,.06,0,.06.06h0s-.06.06,0,.06h.06c0,.059-.06.119,0,.178h.06a.058.058,0,0,1-.06.06c.06.059.06.119.119.119a.84.84,0,0,0,.06.536h0c.06.06-.06.06,0,.06h.06a.082.082,0,0,1,0,.119c-.06,0,0-.059,0,0a.082.082,0,0,1,0,.119.058.058,0,0,0,.06-.06v.06c.06,0,.06-.119.179-.119v.06c.06,0,.06-.119.06-.06s-.06.119-.119.06c0,.06-.119.06-.06.179.06,0,0-.059.06-.059s0,.059,0,.119c-.06-.059-.06,0-.06.06.06.06.06-.06.06,0l-.06.06c-.06.06.06.06,0,.119.06,0,.119-.119.119-.06-.06,0-.06.119-.119.06h.06c.06,0-.06.119.06.119h-.06l.06.06c0,.06-.06.119.06.119a.058.058,0,0,1-.06.059c-.06-.059,0-.059-.06-.059.06,0,0,.059,0,.119h0v.06h.06l-.06.06c0,.059.06,0,.06.059v-.059a.058.058,0,0,1,.06.059l-.119.06c0,.06.06,0,0,.06l.06-.06a.058.058,0,0,1,.06.06c0,.06-.06.119-.06.06,0,0,.06.06.06,0,0,.06-.06,0-.06.06.06,0,.06.06.119.06l.06-.06v.06c.06-.06.06,0,.119-.06v.06c-.119-.06-.119.119-.179.119,0,.119.238,0,.119.119,0,0-.06.06-.06,0,0,.06-.06.06,0,.119,0-.06.119,0,.119-.06,0,0-.06-.059,0-.059s.06-.06.119,0v.119c-.06,0,0-.06-.06,0,0,.06.06.06,0,.119,0-.06-.06-.06-.06,0v.06h0c.06.06-.06.06,0,.119h.06c.06-.059-.06-.119.06-.119v.06s.119,0,.06.119c0,.06,0,0-.06.06v.179c.06-.06.06.119.06,0-.06,0-.06-.119,0-.179.06,0-.06-.06.06-.119,0,.059.119.059.119.059v.06h-.119a.112.112,0,0,1,0,.178.058.058,0,0,0,.06-.059c0,.119.06.179.06.238-.06-.06,0,.119-.06.06s-.119-.06-.119,0h.06c0,.059.06.059,0,.059,0-.059.06-.059.119-.059,0,.059.06,0,.06.059v.238a.446.446,0,0,1,.06.3h.119c0,.059-.06,0,0,.059h0s.06.119,0,.179l.06-.06V210h.06c.06,0,0,.119.06.119h-.06c0,.119.06.119.06.238h.06v.06c.06,0,.06,0,.06.059l.06-.179a.058.058,0,0,0-.06.06c-.06,0-.06-.06,0-.119v.06a.058.058,0,0,0,.06-.06v-.059c0,.06-.06,0-.06,0,.06,0,.06-.06,0-.119-.06,0,0-.119-.06-.178a.184.184,0,0,0-.06.119c-.06-.06,0-.06-.06-.06.06-.06.06-.06.06-.119h-.06c0-.059.06-.059,0-.119-.06-.119-.06-.238-.119-.3h-.06c.06-.059,0-.179,0-.238-.06-.119-.06-.238-.119-.3-.06-.179-.06-.357-.119-.536l-.06.059c0-.059-.06,0-.06-.059.06,0,.06-.06.06-.119a.446.446,0,0,1-.06-.3h-.06c.06-.119-.06-.179-.06-.238a.058.058,0,0,1-.06-.059.219.219,0,0,0,.06-.179c0-.059-.06-.119-.119-.178,0-.238-.119-.417-.119-.655h-.06a2.109,2.109,0,0,0-.179-.655l-.06.06c-.06-.06,0-.119.06-.119-.06-.06,0-.179-.06-.179-.06-.06,0-.06,0-.119-.06-.119-.06-.179-.119-.238h-.06c0-.06-.06-.119.06-.119-.06-.119-.06-.3-.179-.357l.06-.06c-.06-.119-.119-.179-.119-.3,0,0-.06.06-.06,0a.058.058,0,0,0,.06-.059c0-.179-.179-.3-.179-.476-.06-.3-.179-.536-.238-.833h0c.06-.119-.119-.179-.06-.3l-.06-.059c0-.06-.119-.179-.06-.3h0c-.06-.06-.06-.179-.119-.3v.059c-.06,0,.06-.119-.06-.119,0,0,.06-.06.06,0a3.138,3.138,0,0,1-.179-.714c-.119-.179-.119.059-.119-.119h0c0-.06-.119-.06-.059-.119.059,0,0-.059.059-.059-.059-.119-.119-.119-.119-.179h0c.06-.119-.06-.238.06-.357-.179-.536-.238-1.071-.417-1.607a15.9,15.9,0,0,0-.536-1.547c-.119-.119-.119-.119-.119-.238h0c.06,0,0-.119,0-.119-.06-.179-.119-.357-.179-.6,0,.059-.06.059-.06,0v-.06h0a.058.058,0,0,1,.06-.06,14.893,14.893,0,0,0-.536-1.488,1.1,1.1,0,0,1-.119-.417,3.348,3.348,0,0,1-.417-1.071C51.012,193.46,50.893,193.579,50.893,193.7Z" transform="translate(-50.884 -193.4)"/>
          <path id="Path_2058" data-name="Path 2058" class="cls-10" d="M59.819,221.882c-.059,0-.059-.059-.119,0Z" transform="translate(-54.454 -204.923)"/>
          <path id="Path_2059" data-name="Path 2059" class="cls-10" d="M58.77,220.1Z" transform="translate(-54.059 -204.213)"/>
          <path id="Path_2060" data-name="Path 2060" class="cls-10" d="M58.6,219.6v0Z" transform="translate(-54.009 -204.01)"/>
          <path id="Path_2061" data-name="Path 2061" class="cls-10" d="M58.2,219.2Z" transform="translate(-53.847 -203.848)"/>
          <path id="Path_2062" data-name="Path 2062" class="cls-10" d="M58.3,219.1Z" transform="translate(-53.887 -203.808)"/>
          <path id="Path_2063" data-name="Path 2063" class="cls-10" d="M57.882,218.17h0C57.882,218.11,57.822,218.17,57.882,218.17Z" transform="translate(-53.707 -203.413)"/>
          <path id="Path_2064" data-name="Path 2064" class="cls-10" d="M57.782,217.682h0c0-.059-.06,0,0,0Z" transform="translate(-53.667 -203.223)"/>
          <path id="Path_2065" data-name="Path 2065" class="cls-10" d="M55.2,209.1Z" transform="translate(-52.632 -199.758)"/>
          <path id="Path_2066" data-name="Path 2066" class="cls-10" d="M54.07,205.3Z" transform="translate(-52.156 -198.219)"/>
          <path id="Path_2067" data-name="Path 2067" class="cls-10" d="M53.6,203.2Z" transform="translate(-51.984 -197.369)"/>
        </g>
        <g id="Group_1650" data-name="Group 1650" transform="translate(27.39 9.789)">
          <path id="Path_2068" data-name="Path 2068" class="cls-10" d="M55.182,223.5c0,.06-.06,0,0,0C55.182,223.56,55.242,223.5,55.182,223.5Z" transform="translate(-49.695 -206.482)"/>
          <path id="Path_2069" data-name="Path 2069" class="cls-10" d="M45.991,195.257c-.06.238.179.476.119.714,0,0,.06-.06.06.06a1.067,1.067,0,0,0,.3.774h0c.06.06,0,.119,0,.179h.06c-.06,0,0,.119,0,.119h.06l-.06.06c-.06.119.06.179.06.357h0a3.07,3.07,0,0,0,.119.655s.06-.06.06,0c-.06,0-.06.119-.06.178.06,0,0,.119.06.179h0c-.06.059.06.059,0,.119h.06c-.06.06.06.06.06.119h0a.058.058,0,0,0,.06.06h0c0,.06.06.119,0,.119.06,0,0-.059.06-.059a2.206,2.206,0,0,0,.238.833.058.058,0,0,1,.06.06v.119h.06c.059.059-.06.059,0,.119a.058.058,0,0,1,.059-.059c-.059.059,0,.119,0,.179v-.06c-.059.06.06.119,0,.179v-.06c.06.06-.059.06,0,.119h.06c-.06.059,0,.178,0,.238h0c0,.06.06.119.06.238,0,0,.06-.059.119.059-.06,0,0,.119-.06.119.06.06.119.179.06.179,0-.06.119,0,.06-.06h.059v.06c0,.059-.059.119-.059.238,0-.06.059,0,.059-.06l-.119.179a.058.058,0,0,1,.06.06l-.06.06a.117.117,0,0,0,.119.119c.06,0,0-.06.06,0v.119h0c0,.059,0,.119-.06.059,0,0,.06,0,0-.059a.082.082,0,0,0,0,.119l.06-.06c-.06.06,0,.179,0,.238-.06,0,.06-.06,0-.06.06.06,0,.238.119.3H47.9c0,.06.06,0,.06.06v.06h0c0,.06,0,.238.06.3a.208.208,0,0,0-.06.119h.06c.06,0,0,.06.06.06-.06.06,0-.178-.06-.119.06,0-.06.119,0,.059,0,.06,0,.119.06.119,0,0,.059-.06.059,0v.119c-.059,0,0,.06,0,.06.06,0,0,.119.06.06h.06a.208.208,0,0,0-.06.119h0c-.06.06,0,.06,0,.119.06.06.06.179.119.179v.119c.06,0,0,.06,0,.06a.208.208,0,0,0,.119.06.058.058,0,0,1-.06.06c.119,0,0,.119.06.179a.058.058,0,0,1,.06-.06c.119,0-.06.119,0,.179h-.06c.06,0,0,.119.06.06,0,0,.06.06,0,.06.119.119.06.3.179.3v.059c-.06,0,0-.059,0-.059h0s.06.059.06,0c.06.059-.06.119,0,.178h.06v.06c.06.06.06,0,.119,0v.119h.06c-.06,0,0,.059,0,.059h0v.06l-.06-.06v.06a.058.058,0,0,1,.06.06v.059s0,.059.06,0c0,0-.06,0,0-.059a.058.058,0,0,1,.06.059c0,.059-.119,0-.06.059l.06-.059.06.059h-.06a.082.082,0,0,0,0,.119.058.058,0,0,0,.06.06h0c.06,0,.06.059,0,.119h0v.119c.06.06.179-.06.119.06,0,.059-.059.119-.059.059.059.06,0,.179.119.238v.059c.06.119.06.3.119.357,0-.059.059,0,.059,0,0,.06.06,0,0,.06h-.059c0,.06.059.179.059.238h-.059c.059,0,.059,0,.059.06h0s-.059.06,0,.06h.06c0,.059-.06.119,0,.178h.06a.058.058,0,0,1-.06.06c.06.06.06.119.119.119a.84.84,0,0,0,.06.536h0c.06.06-.06.06,0,.06h.06a.082.082,0,0,1,0,.119c-.06,0,0-.059,0,0a.082.082,0,0,1,0,.119.058.058,0,0,0,.06-.059v.059c.06,0,.06-.119.179-.119v.06c.06,0,.06-.119.06-.06s-.06.119-.119.06c0,.06-.119.06-.06.179.06,0,0-.059.06-.059s0,.059,0,.119c-.06-.06-.06,0-.06.059.06.06.06-.059.06,0l-.06.06c-.06.06.06.06,0,.119.06,0,.119-.119.119-.06-.059,0-.059.119-.119.119h.06c.06,0-.06.119.06.119h0c0,.06-.06.119.06.119a.058.058,0,0,1-.06.06c-.06-.06,0-.06-.06-.06.06,0,0,.06,0,.119h0v.059h.06l-.06.06c0,.06.06,0,.06.06v-.06a.058.058,0,0,1,.06.06l-.119.059c0,.059.06,0,0,.059l.06-.059a.058.058,0,0,1,.059.059c0,.06-.059.119-.059.06,0,0,.059.06.059,0,0,.06-.059,0-.059.06.059,0,.059.059.119.059l.06-.059v.059c.06-.059.06,0,.119-.059v.059c-.119-.059-.119.119-.179.119,0,.119.238,0,.119.119,0,0-.06.06-.06,0,0,.06-.06.06,0,.119,0-.059.119,0,.119-.059,0,0-.06-.06,0-.06s.059-.06.119,0v.119c-.06,0,0-.06-.06,0,0,.059.06.059,0,.119,0-.06-.06-.06-.119,0v.06h0c.06.06-.06.06,0,.119h.06c.059-.06-.06-.119,0-.119v.059s.119,0,.059.119c0,.059,0,0-.059.059v.179c.059-.059.059.06.059,0-.059,0-.059-.119,0-.179.06,0-.059-.059.06-.119,0,.06.119.06.119.06v.059h-.119a.112.112,0,0,1,0,.179.058.058,0,0,0,.06-.06.309.309,0,0,0,.119.238c-.119,0,0,.119-.06.06s-.119-.06-.119,0h.06c0,.06.06.06,0,.06,0-.06.06-.06.119-.06,0,.06.06,0,.06.06v.238a.446.446,0,0,1,.06.3h.119c0,.059-.06,0,0,.059h0s.059.119,0,.179l.059-.059v.059h.06c.06,0,0,.119.06.119h-.06c0,.06.06.119.06.238h.06v.06c.06,0,.06,0,.06.059l.06-.178a.058.058,0,0,0-.06.06c-.06,0-.06-.06,0-.119v.06a.058.058,0,0,0,.06-.06v-.059c0,.06-.06,0-.06,0,.06,0,.06-.059,0-.119-.06,0,0-.119-.06-.179a.184.184,0,0,0-.06.119c-.06-.06,0-.06-.06-.06.06-.059.06-.059.06-.119h-.06c0-.06.06-.06,0-.119a1,1,0,0,1-.119-.3h-.06c.06-.059,0-.179,0-.238-.06-.119-.06-.238-.119-.3-.059-.179-.059-.357-.119-.536l-.06.059c0-.059-.06,0-.06-.059.06,0,.06-.06.06-.119a.446.446,0,0,1-.06-.3h-.06c.06-.119-.06-.179-.06-.238a.058.058,0,0,1-.06-.06c.06-.06,0-.119.06-.179,0-.06-.06-.119-.119-.179,0-.238-.119-.417-.119-.655h-.059a2.11,2.11,0,0,0-.179-.655l-.06.06c-.06-.06,0-.119.06-.119-.06-.059,0-.179-.06-.179-.06-.06,0-.06,0-.119-.06-.119-.06-.179-.119-.238h-.06c0-.06-.06-.119.06-.119-.06-.119-.06-.3-.179-.357l.06-.059c-.06-.119-.119-.179-.119-.3,0,0-.06.059-.06,0a.058.058,0,0,0,.06-.06c0-.179-.179-.3-.179-.476-.06-.3-.179-.536-.238-.833h0c.06-.119-.119-.179-.06-.3l-.06-.06c0-.06-.119-.179-.06-.3h0c-.06-.06-.06-.179-.119-.3v.06c-.06,0,.06-.119-.06-.119,0,0,.06-.06.06,0a3.138,3.138,0,0,1-.179-.714c-.119-.178-.119.06-.119-.119h0c0-.059-.119-.059-.119-.119.06,0,0-.06.06-.06-.06-.119-.119-.119-.119-.179h0c.06-.119-.06-.238.06-.357a15.953,15.953,0,0,1-.417-1.607,15.9,15.9,0,0,0-.536-1.547c-.119-.119-.119-.119-.119-.238h0c.06,0,0-.119,0-.119-.059-.179-.119-.357-.179-.6,0,.06-.06.06-.06,0v-.06h0a.058.058,0,0,1,.06-.059c-.119-.536-.417-.952-.536-1.488a1.1,1.1,0,0,1-.119-.417,3.348,3.348,0,0,1-.417-1.071C46.11,195.019,45.932,195.079,45.991,195.257Z" transform="translate(-45.979 -194.9)"/>
          <path id="Path_2070" data-name="Path 2070" class="cls-10" d="M55.119,223.382c-.06,0-.06-.06-.119,0Z" transform="translate(-49.632 -206.423)"/>
          <path id="Path_2071" data-name="Path 2071" class="cls-10" d="M54,221.6Z" transform="translate(-49.227 -205.713)"/>
          <path id="Path_2072" data-name="Path 2072" class="cls-10" d="M53.8,221.1v0Z" transform="translate(-49.146 -205.51)"/>
          <path id="Path_2073" data-name="Path 2073" class="cls-10" d="M53.482,220.7Z" transform="translate(-49.007 -205.348)"/>
          <path id="Path_2074" data-name="Path 2074" class="cls-10" d="M53.582,220.6Z" transform="translate(-49.047 -205.308)"/>
          <path id="Path_2075" data-name="Path 2075" class="cls-10" d="M53.1,219.682Z" transform="translate(-48.863 -204.925)"/>
          <path id="Path_2076" data-name="Path 2076" class="cls-10" d="M53,219.182Z" transform="translate(-48.822 -204.723)"/>
          <path id="Path_2077" data-name="Path 2077" class="cls-10" d="M50.4,210.6v.059l.06-.059Z" transform="translate(-47.769 -201.258)"/>
          <path id="Path_2078" data-name="Path 2078" class="cls-10" d="M49.182,206.87c0-.06-.06-.06,0,0C49.122,206.87,49.182,206.81,49.182,206.87Z" transform="translate(-47.265 -199.729)"/>
          <path id="Path_2079" data-name="Path 2079" class="cls-10" d="M48.8,204.8Z" transform="translate(-47.121 -198.909)"/>
        </g>
        <g id="Group_1651" data-name="Group 1651" transform="translate(24.474 10.741)">
          <path id="Path_2080" data-name="Path 2080" class="cls-10" d="M49.882,225.2c0,.06-.06,0,0,0Z" transform="translate(-44.634 -208.122)"/>
          <path id="Path_2081" data-name="Path 2081" class="cls-10" d="M41.092,196.857c-.06.238.119.476.119.714,0,0,.06-.06.06.059a1.067,1.067,0,0,0,.3.774h0c.06.06,0,.119,0,.179h.06c-.06,0,0,.119,0,.119h.06l-.06.06c-.119.119.06.178.06.357h0a3.07,3.07,0,0,0,.119.655s.06-.059.06,0c-.06,0-.06.119-.06.179.06,0,0,.119.06.179h0c-.06.06.059.06,0,.119h.059c-.059.06.06.06.06.119h0a.058.058,0,0,0,.06.06h0c0,.059.06.119,0,.119.06,0,0-.059.06-.059a4.169,4.169,0,0,0,.179.833.058.058,0,0,1,.06.06v.119h.06c.06.06-.06.06,0,.119a.058.058,0,0,1,.06-.06c-.06.06,0,.119,0,.179v-.06c-.06.06.06.119,0,.179v-.06c.06.06-.06.06,0,.119h.06c-.06.059,0,.179,0,.238h0c0,.059.059.119.059.238,0,0,.06-.059.119.06-.06,0,0,.119-.06.119a.358.358,0,0,1,.06.238c0-.06.119,0,.06-.06h.06v.059c0,.06-.119.119-.06.238,0-.06.06,0,.06-.06l-.119.179a.058.058,0,0,1,.06.059l-.06.06s0,.119.06.119c0,0,0-.059.06,0v.119h0c0,.06,0,.119-.06.06,0,0,.06,0,0-.06a.082.082,0,0,0,0,.119l.06-.06c-.06.06,0,.179,0,.238-.06,0,.059-.06,0-.06.059.06,0,.238.059.3h-.059c0,.06.059,0,.059.06v.06h0c0,.06,0,.238.06.3a.208.208,0,0,0-.06.119h.06c.06,0,0,.06.06.06-.06.06,0-.179-.06-.119.06,0-.06.119,0,.06,0,.06,0,.119.06.119,0,0,.06-.06.06,0v.119c-.06,0,0,.06,0,.06.06,0,0,.119.06.06h.06a.208.208,0,0,0-.06.119h0c-.06.06,0,.06,0,.119.06.059.06.178.119.178v.119c.06,0,0,.06,0,.06a.208.208,0,0,0,.119.06.058.058,0,0,1-.06.06c.119,0,0,.119.06.179a.058.058,0,0,1,.06-.059c.119,0-.06.119,0,.178h-.06c.06,0,0,.119.06.06,0,.059.06.059,0,.059.06.119.06.3.179.3v.059c-.06,0,0-.059,0-.059h0s.06.059.06,0c.06.059-.06.119,0,.178h.06v.06c.06.059.06,0,.119,0v.119h.06c-.06,0,0,.06,0,.06h0v.06l-.06-.06v.06a.058.058,0,0,1,.06.059v.059s0,.06.06,0c0,0-.06,0,0-.059a.058.058,0,0,1,.06.059c0,.06-.119,0-.06.06l.06-.06.06.06h-.06c-.06.06,0,.119-.06.119l.06.06h0c.06,0,.06.06,0,.119h0v.119c.06.059.179-.06.119.059,0,.06-.06.119-.06.06.06.06,0,.179.119.238v.059c.06.119.06.3.119.357,0-.06.06,0,.06,0,0,.06.06,0,0,.06H44.3c0,.059.06.179.06.238H44.3c.06,0,.06,0,.06.06h0s-.06.06,0,.06h.06c0,.059-.06.119,0,.178h.06a.058.058,0,0,1-.06.06c.06.059.06.119.119.119a.84.84,0,0,0,.059.536h0c.06.059-.059.059,0,.059h.06a.082.082,0,0,1,0,.119c-.06,0,0-.059,0,0a.082.082,0,0,1,0,.119h.06v.06c.06,0,.06-.119.179-.119v.06c.059,0,.059-.119.059-.06s-.059.119-.119.06c0,.06-.119.06-.06.179.06,0,0-.06.06-.06s0,.06,0,.119c-.06-.06-.06,0-.06.06.06.059.06-.06.06,0l-.06.059c-.06.06.06.06,0,.119.06,0,.119-.119.119-.06-.06,0-.06.119-.119.06h.06c.059,0-.06.119.059.119H44.84l.059.06c0,.059-.059.119.06.119a.058.058,0,0,1-.06.06c-.059-.06,0-.06-.059-.06.059,0,0,.06,0,.119h0v.059H44.9l-.059.059c0,.06.059,0,.059.06v-.06a.058.058,0,0,1,.06.06l-.119.06c0,.059.06,0,0,.059l.06-.059a.058.058,0,0,1,.06.059c0,.06-.06.119-.06.06,0,0,.06.06.06,0,0,.06-.06,0-.06.06.06,0,.06.059.119.059l.06-.059v.059c.06-.059.06,0,.119-.059v.059c-.119-.059-.119.119-.179.119,0,.119.238,0,.119.119,0,0-.06.06-.06,0,0,.06-.06.06,0,.119,0-.059.119,0,.119-.059,0,0-.06-.06,0-.06s.06-.059.119,0v.119c-.06,0,0-.06-.06,0,0,.059.06.059,0,.119a.058.058,0,0,0-.06-.059v.059h0c.06.06-.059.06,0,.119h.06c.06-.059-.06-.119.06-.119v.06s.119,0,.06.119c0,.06,0,0-.06.06v.178c.06,0,.06.119.06,0-.06,0-.06-.119,0-.178.06,0,0-.06.06-.119,0,.06.119.06.119.06v.06h-.119a.112.112,0,0,1,0,.178.058.058,0,0,0,.059-.059c0,.119.06.179.06.238-.06-.06,0,.119-.06.06,0-.06-.119-.06-.119,0h.06c0,.059.06.059,0,.059,0-.059.06-.059.119-.059,0,.059.06,0,.06.059v.179a.446.446,0,0,1,.06.3h.119c0,.059-.06,0,0,.059h0s.059.119,0,.179l.059-.06v.06h.06c.06,0,0,.119.06.119h-.06c0,.119.06.119.06.238h.06v.059c.06,0,.06,0,.06.06l.059-.178a.058.058,0,0,0-.059.059c-.06,0-.06-.059,0-.119v.059a.058.058,0,0,0,.059-.059v-.06c0,.06-.059,0-.059,0,.059,0,.059-.06,0-.119-.06,0,0-.119-.06-.178a.184.184,0,0,0-.06.119c-.06-.059,0-.059-.06-.059l.119-.119h-.06c0-.059.06-.059,0-.119-.06-.119-.06-.238-.119-.3h-.059c.059-.059,0-.178,0-.238-.06-.119-.06-.238-.119-.3a1.738,1.738,0,0,0-.119-.536l-.06.06c0-.06-.06,0-.06-.06.06,0,.06-.059.06-.119a.446.446,0,0,1-.06-.3h-.06c.06-.119-.06-.179-.06-.238a.058.058,0,0,1-.06-.06.219.219,0,0,0,.06-.179c0-.06-.06-.119-.119-.179,0-.238-.119-.417-.119-.655h-.06c0-.238-.119-.476-.119-.655l-.06.059c-.06-.059,0-.119.06-.119-.06-.06,0-.179-.06-.179-.06-.06,0-.06,0-.119-.06-.119-.06-.179-.119-.238h-.06c0-.059-.059-.119.06-.119-.06-.119-.06-.3-.119-.357l.06-.06c-.06-.119-.119-.178-.119-.3,0,0-.06.06-.06,0a.058.058,0,0,0,.06-.06c0-.178-.179-.3-.179-.476a4.383,4.383,0,0,0-.238-.833h0c.06-.119-.119-.179-.06-.3l-.06-.06c0-.059-.119-.179-.06-.3h0c-.06-.059-.06-.179-.119-.3v.06c-.06-.06.06-.119-.06-.119h.06a3.138,3.138,0,0,1-.179-.714c-.119-.179-.119.059-.119-.119h0c0-.06-.119-.06-.06-.119.06,0,0-.06.06-.06-.06-.119-.119-.119-.119-.179h0c.06-.119,0-.238.06-.357-.179-.536-.238-1.071-.417-1.607s-.3-1.012-.476-1.547c-.119-.119-.119-.119-.119-.238h0c.06,0,0-.119,0-.119-.06-.179-.119-.357-.179-.6,0,.059-.06.059-.06,0v-.06h0a.058.058,0,0,1,.06-.06,14.89,14.89,0,0,0-.536-1.488,1.1,1.1,0,0,1-.119-.417,3.348,3.348,0,0,1-.417-1.071C41.211,196.56,41.092,196.679,41.092,196.857Z" transform="translate(-41.08 -196.5)"/>
          <path id="Path_2082" data-name="Path 2082" class="cls-10" d="M49.719,225.082c-.06,0-.06-.06-.119,0Z" transform="translate(-44.53 -208.064)"/>
          <path id="Path_2083" data-name="Path 2083" class="cls-10" d="M48.7,223.3Z" transform="translate(-44.166 -207.353)"/>
          <path id="Path_2084" data-name="Path 2084" class="cls-10" d="M48.5,222.8v0Z" transform="translate(-44.085 -207.151)"/>
          <path id="Path_2085" data-name="Path 2085" class="cls-10" d="M48.182,222.4Z" transform="translate(-43.945 -206.989)"/>
          <path id="Path_2086" data-name="Path 2086" class="cls-10" d="M48.282,222.3Z" transform="translate(-43.986 -206.948)"/>
          <path id="Path_2087" data-name="Path 2087" class="cls-10" d="M47.882,221.3Z" transform="translate(-43.824 -206.543)"/>
          <path id="Path_2088" data-name="Path 2088" class="cls-10" d="M47.77,220.87Z" transform="translate(-43.771 -206.351)"/>
          <path id="Path_2089" data-name="Path 2089" class="cls-10" d="M45.3,212.2v.059h0Z" transform="translate(-42.789 -202.858)"/>
          <path id="Path_2090" data-name="Path 2090" class="cls-10" d="M44.17,208.47c0-.06-.06-.06,0,0C44.11,208.47,44.11,208.41,44.17,208.47Z" transform="translate(-42.313 -201.329)"/>
          <path id="Path_2091" data-name="Path 2091" class="cls-10" d="M43.8,206.4Z" transform="translate(-42.181 -200.509)"/>
        </g>
        <g id="Group_1652" data-name="Group 1652" transform="translate(21.442 11.753)">
          <path id="Path_2092" data-name="Path 2092" class="cls-10" d="M45.182,226.7c0,.059-.06,0,0,0Z" transform="translate(-39.698 -209.741)"/>
          <path id="Path_2093" data-name="Path 2093" class="cls-10" d="M35.993,198.5c-.06.238.179.476.119.714,0,0,.06-.06.06.06a1.067,1.067,0,0,0,.3.774h0c.059.06,0,.119,0,.179h.059c-.059,0,0,.119,0,.119h.06l-.06.06c-.119.119.06.179.06.357h0a3.07,3.07,0,0,0,.119.655s.06-.059.06,0c-.06,0-.06.119-.06.179.06,0,0,.119.06.179h0c-.06.06.06.06,0,.119h.06c-.06.06.059.06.059.119h0a.058.058,0,0,0,.06.059h0c0,.06.06.119,0,.119.06,0,0-.059.06-.059a2.206,2.206,0,0,0,.238.833.058.058,0,0,1,.06.06v.119h.06c.059.06-.06.06,0,.119a.058.058,0,0,1,.059-.06c-.059.06,0,.119,0,.179v-.06c-.059.06.06.119,0,.179h0c.06.059-.059.059,0,.119h.06c-.06.06,0,.179,0,.238h0c0,.059.06.119.06.238,0,0,.06-.06.119.06-.06,0,0,.119-.06.119.06.06.119.179.06.179,0-.06.119,0,.06-.06h.059v.06c0,.06-.059.119-.059.238,0-.059.059,0,.059-.059l-.119.178a.058.058,0,0,1,.06.06l-.06.059a.117.117,0,0,0,.119.119s0-.06.06,0v.119h0s0,.119-.06.06c0,0,.06,0,0-.06a.082.082,0,0,0,0,.119l.06-.06c-.06.06,0,.178,0,.238-.06,0,.06-.06,0-.06.06.06,0,.238.119.3H37.9c0,.059.06,0,.06.059v.059h0c0,.06,0,.238.06.3a.208.208,0,0,0-.06.119h.06c.06,0,0,.06.06.06-.06.059,0-.179-.06-.119.06,0-.06.119,0,.06,0,.06,0,.119.06.119,0,0,.059-.059.059,0v.119c-.059,0,0,.059,0,.059.06,0,0,.119.06.059h.06a.208.208,0,0,0-.06.119h0c-.06.059,0,.059,0,.119.06.06.06.179.119.179v.119c.06,0,0,.059,0,.059a.208.208,0,0,0,.119.06.058.058,0,0,1-.06.06c.119,0,0,.119.06.178a.058.058,0,0,1,.06-.06c.119,0-.06.119,0,.179h-.06c.06,0,0,.119.06.059,0,.06.06.06,0,.06.119.119.06.3.179.3v.06c-.06,0,0-.06,0-.06h0s.06.06.06,0c.06.06-.06.119,0,.179h.06v.059c.06.06.06,0,.119,0v.119h.06c-.06,0,0,.06,0,.06h0v.06l-.06-.06v.06a.058.058,0,0,1,.06.059v.06s0,.06.06,0v-.06a.058.058,0,0,1,.06.06c0,.06-.119,0-.06.06l.06-.06.06.06h-.06a.082.082,0,0,0,0,.119l.06.06h0c.059,0,.059.06,0,.119h0v.119c.059.06.179-.059.119.06,0,.06-.059.119-.059.06.059.059,0,.178.119.238v.06c.06.119.06.3.119.357,0-.06.06,0,.06,0,0,.06.06,0,0,.06h-.06c0,.059.06.179.06.238h-.06c.06,0,.06,0,.06.059h0s-.06.059,0,.059h.06c0,.06-.06.119,0,.179h.06a.058.058,0,0,1-.06.059c.06.06.06.119.119.119a.84.84,0,0,0,.06.536h0c.06.059-.06.059,0,.059h.06a.082.082,0,0,1,0,.119c-.06,0,0-.06,0,0a.082.082,0,0,1,0,.119.058.058,0,0,0,.06-.06v.06c.06,0,.06-.119.179-.119v.06c.06,0,.06-.119.06-.06s-.06.119-.119.06c0,.059-.119.059-.06.179.06,0,0-.06.06-.06s0,.06,0,.119c-.06-.06-.06,0-.06.06.06.06.06-.06.06,0l-.06.06c-.06.06.06.06,0,.119.06,0,.119-.119.119-.06-.059,0-.059.119-.119.119h.06c.06,0-.06.119.06.119h0c0,.06-.06.119.06.119a.058.058,0,0,1-.06.06c-.06-.06,0-.06-.06-.06.06,0,0,.06,0,.119h0v.059h.06l-.06.06c0,.059.06,0,.06.059v-.059a.058.058,0,0,1,.06.059l-.119.06c0,.06.06,0,0,.06l.06-.06a.058.058,0,0,1,.059.06c0,.059-.059.119-.059.059,0,0,.059.06.059,0,0,.06-.059,0-.059.06.059,0,.059.059.119.059l.06-.059v.059c.06-.059.06,0,.119-.059v.059c-.119-.059-.119.119-.179.119,0,.119.238,0,.119.119,0,0-.06.059-.06,0,0,.059-.06.059,0,.119,0-.059.119,0,.119-.059,0,0-.06-.06,0-.06s.059-.06.119,0v.119c-.06,0,0-.06-.06,0,0,.059.06.059,0,.119,0-.06-.06-.06-.119,0v.06h0c.06.059-.06.059,0,.119h.06c.059-.06-.06-.119,0-.119v.059s.119,0,.059.119c0,.06,0,0-.059.06v.179c.059-.059.059.119.059,0-.059,0-.059-.119,0-.179.06,0-.059-.06.06-.119,0,.06.119.06.119.06v.06h-.119a.112.112,0,0,1,0,.179.058.058,0,0,0,.06-.06.309.309,0,0,0,.119.238c-.119,0,0,.119-.06.06s-.119-.06-.119,0h.06c0,.06.06.06,0,.06,0-.06.06-.06.119-.06,0,.06.06,0,.06.06v.238a.446.446,0,0,1,.06.3h.119c0,.059-.06,0,0,.059h0s.059.119,0,.179l.059-.059v.059h.06c.06,0,0,.119.06.119h-.06c0,.119.06.119.06.238h.06v.06c.06,0,.06,0,.06.06l.06-.179a.058.058,0,0,0-.06.06c-.06,0-.06-.06,0-.119v.06a.058.058,0,0,0,.06-.06v-.059c0,.06-.06,0-.06,0,.06,0,.06-.059,0-.119-.06,0,0-.119-.06-.179a.184.184,0,0,0-.06.119c-.06-.06,0-.06-.06-.06.06-.059.06-.059.06-.119h-.06c0-.06.06-.06,0-.119-.06-.119-.06-.238-.119-.3h-.06c.06-.059,0-.178,0-.238-.06-.119-.06-.238-.119-.3-.059-.179-.059-.357-.119-.536l-.06.06c0-.06-.06,0-.06-.06.06,0,.06-.059.06-.119a.446.446,0,0,1-.06-.3H40.4c.06-.119-.06-.179-.06-.238a.058.058,0,0,1-.06-.06.219.219,0,0,0,.06-.179c0-.06-.06-.119-.119-.179,0-.238-.119-.417-.119-.655H40.04a2.109,2.109,0,0,0-.179-.655l-.06.059c-.06-.059,0-.119.06-.119-.06-.06,0-.179-.06-.179-.06-.059,0-.059,0-.119-.06-.119-.06-.179-.119-.238h-.06c0-.06-.06-.119.06-.119-.06-.119-.06-.3-.179-.357l.06-.06c-.06-.119-.119-.178-.119-.3,0,0-.06.06-.06,0a.058.058,0,0,0,.06-.06c0-.178-.179-.3-.179-.476-.06-.3-.179-.536-.238-.833h0c.06-.119-.119-.179-.06-.3l-.06-.06c0-.059-.119-.179-.06-.3h0c-.06-.059-.06-.179-.119-.3v.06c-.06,0,.06-.119-.06-.119,0,0,.06-.059.06,0a3.138,3.138,0,0,1-.179-.714c-.119-.179-.119.059-.119-.119h0c0-.06-.119-.06-.06-.119.06,0,0-.06.06-.06-.06-.119-.119-.119-.119-.179h0c.06-.119-.06-.238.06-.357a15.952,15.952,0,0,1-.417-1.607,15.9,15.9,0,0,0-.536-1.547c-.119-.119-.119-.119-.119-.238h0c.06,0,0-.119,0-.119-.059-.179-.119-.357-.179-.6,0,.059-.06.059-.06,0v-.06h0a.058.058,0,0,1,.06-.06c-.119-.536-.417-.952-.536-1.488a1.1,1.1,0,0,1-.119-.417,3.348,3.348,0,0,1-.417-1.071C36.112,198.2,35.993,198.319,35.993,198.5Z" transform="translate(-35.984 -198.2)"/>
          <path id="Path_2094" data-name="Path 2094" class="cls-10" d="M45.019,226.582c-.06,0-.06-.06-.119,0Z" transform="translate(-39.595 -209.683)"/>
          <path id="Path_2095" data-name="Path 2095" class="cls-10" d="M43.982,224.8Z" transform="translate(-39.212 -208.972)"/>
          <path id="Path_2096" data-name="Path 2096" class="cls-10" d="M43.8,224.3v0Z" transform="translate(-39.149 -208.77)"/>
          <path id="Path_2097" data-name="Path 2097" class="cls-10" d="M43.47,223.9Z" transform="translate(-38.997 -208.608)"/>
          <path id="Path_2098" data-name="Path 2098" class="cls-10" d="M43.57,223.8h0C43.51,223.8,43.51,223.859,43.57,223.8Z" transform="translate(-39.038 -208.567)"/>
          <path id="Path_2099" data-name="Path 2099" class="cls-10" d="M43.082,222.87h0C43.082,222.81,43.022,222.87,43.082,222.87Z" transform="translate(-38.848 -208.172)"/>
          <path id="Path_2100" data-name="Path 2100" class="cls-10" d="M42.982,222.382h0c0-.059-.06,0,0,0Z" transform="translate(-38.807 -207.982)"/>
          <path id="Path_2101" data-name="Path 2101" class="cls-10" d="M40.4,213.8Z" transform="translate(-37.772 -204.517)"/>
          <path id="Path_2102" data-name="Path 2102" class="cls-10" d="M39.2,210Z" transform="translate(-37.286 -202.979)"/>
          <path id="Path_2103" data-name="Path 2103" class="cls-10" d="M38.8,207.96h0l.06-.06Z" transform="translate(-37.124 -202.128)"/>
        </g>
        <g id="Group_1653" data-name="Group 1653" transform="translate(18.643 12.407)">
          <path id="Path_2104" data-name="Path 2104" class="cls-10" d="M40.182,228.3c0,.059-.06,0,0,0Z" transform="translate(-34.874 -211.044)"/>
          <path id="Path_2105" data-name="Path 2105" class="cls-10" d="M31.292,199.836c-.06.238.119.476.119.714,0,0,.06-.059.06.06a1.067,1.067,0,0,0,.3.774h0c.06.059,0,.119,0,.179h.06c-.06,0,0,.119,0,.119h.06l-.06.06c-.119.119.06.179.06.357h0a3.07,3.07,0,0,0,.119.655s.06-.06.06,0c-.06,0-.06.119-.06.178.06,0,0,.119.06.179h0c-.06.06.06.06,0,.119h.06c-.06.059.06.059.06.119h0a.058.058,0,0,0,.06.06h0c0,.06.06.119,0,.119.06,0,0-.06.06-.06a4.169,4.169,0,0,0,.179.833.058.058,0,0,1,.06.059v.119h.06c.06.06-.06.06,0,.119a.058.058,0,0,1,.06-.06c-.06.06,0,.119,0,.179h0c-.06.06.06.119,0,.179h0c.06.059-.06.059,0,.119h.06c-.06.059,0,.179,0,.238h0c0,.059.06.119.06.238,0,0,.06-.059.119.06-.06,0,0,.119-.06.119.06.059.119.179.06.179,0-.06.119,0,.06-.06h.06v.06c0,.06-.06.119-.06.238,0-.06.06,0,.06-.06l-.119.179a.058.058,0,0,1,.06.06l-.06.06a.117.117,0,0,0,.119.119s0-.06.06,0v.119h0c0,.06,0,.119-.06.06,0,0,.06,0,0-.06a.082.082,0,0,0,0,.119l.06-.06c-.06.06,0,.179,0,.238-.06,0,.06-.06,0-.06.06.06,0,.238.119.3h-.06c0,.06.06,0,.06.06v.059h0c0,.06,0,.238.06.3a.208.208,0,0,0-.06.119h.06c.06,0,0,.06.06.06-.06.059,0-.179-.06-.119.06,0-.06.119,0,.06,0,.06,0,.119.06.119,0,0,.06-.059.06,0v.119c-.06,0,0,.06,0,.06.06,0,0,.119.06.059h.06a.208.208,0,0,0-.06.119h0c-.06.06,0,.06,0,.119.06.06.06.178.119.178v.119c.06,0,0,.059,0,.059a.208.208,0,0,0,.119.059.058.058,0,0,1-.06.06c.119,0,0,.119.06.178a.058.058,0,0,1,.06-.059c.119,0-.06.119,0,.179h-.06c.06,0,0,.119.06.06,0,.06.06.06,0,.06.119.119.06.3.179.3v.059c-.06,0,0-.059,0-.059h0c0,.059.06.059.06,0,.06.059-.06.119,0,.179h.06v.06c.06.059.06,0,.119,0v.119h.06c-.06,0,0,.06,0,.06h0v.06a.058.058,0,0,1-.06-.06v.06a.058.058,0,0,1,.06.06v.059s0,.06.06,0c0,0-.06,0,0-.059a.058.058,0,0,1,.06.059c0,.06-.119,0-.06.06l.06-.06.06.06h-.06c-.06.06,0,.119-.06.119l.06.059h0c.06,0,.06.06,0,.119h0v.119c.06.06.179-.06.119.06,0,.06-.06.119-.06.06.06.06,0,.179.119.238v.059c.06.119.06.3.119.357,0-.06.06,0,.06,0,0,.06.06,0,0,.06h-.06c0,.06.06.179.06.238h-.06c.06,0,.06,0,.06.06h0s-.06.059,0,.059h.06c0,.059-.06.119,0,.179h.06a.058.058,0,0,1-.06.059c.06.06.06.119.119.119a.84.84,0,0,0,.06.536h0c.06.06-.06.06,0,.06h.06a.082.082,0,0,1,0,.119c-.06,0,0-.059,0,0a.082.082,0,0,1,0,.119.058.058,0,0,0,.06-.06v.06c.06,0,.06-.119.179-.119v.06c.06,0,.06-.119.06-.06s-.06.119-.119.06c0,.059-.119.059-.06.178.06,0,0-.059.06-.059s0,.059,0,.119c-.06-.06-.06,0-.06.06.06.059.06-.06.06,0l-.06.059c-.06.06.06.06,0,.119.06,0,.119-.119.119-.059-.06,0-.06.119-.119.059h.06c.06,0-.06.119.06.119h0c0,.06-.06.119.06.119a.058.058,0,0,1-.06.059c-.06-.059,0-.059-.06-.059.06,0,0,.059,0,.119h0v.059h0c0,.06.06,0,.06.06v-.06a.058.058,0,0,1,.06.06l-.119.06c0,.059.06,0,0,.059l.06-.059a.058.058,0,0,1,.06.059c0,.06-.06.119-.06.06,0,0,.06.059.06,0,0,.059-.06,0-.06.059.06,0,.06.06.119.06l.06-.06v.06c.06-.06.06,0,.119-.06v.06c-.119-.06-.119.119-.179.119,0,.119.238,0,.119.119,0,0-.06.059-.06,0,0,.059-.06.059,0,.119,0-.059.119,0,.119-.059,0,0-.06-.06,0-.06s.06-.059.119,0v.06c-.06,0,0-.06-.06,0,0,.059.06.059,0,.119a.058.058,0,0,0-.06-.06v.06h0c.06.059-.06.059,0,.119h.06c.06-.059-.06-.119.06-.119v.059s.119,0,.06.119c0,.06,0,0-.06,0v.179c.06-.059.06.119.06,0-.06,0-.06-.119,0-.179.06,0-.06-.06.06-.119,0,.059.119.059.119.059v.06h-.119a.112.112,0,0,1,0,.178.058.058,0,0,0,.06-.059c0,.119.06.179.06.238-.06,0,0,.119-.06.06s-.119-.06-.119,0h.06c0,.059.06.059,0,.059,0-.059.06-.059.119-.059,0,.059.06,0,.06.059v.238a.446.446,0,0,1,.06.3h.119c0,.059-.06,0,0,.059h0s.06.119,0,.179l.06-.06v.06h.06c.06,0,0,.119.06.119h-.06c0,.119.06.119.06.238h.06v.06c.06,0,.06,0,.06.059l.06-.178a.058.058,0,0,0-.06.059c-.06,0-.06-.059,0-.119v.06a.058.058,0,0,0,.06-.06v-.059c0,.06-.06,0-.06,0,.06,0,.06-.06,0-.119-.06,0,0-.119-.06-.178a.184.184,0,0,0-.06.119c-.06-.06,0-.06-.06-.06.06-.06.06-.06.06-.119h-.06c0-.059.06-.059,0-.119-.06-.119-.06-.238-.119-.3h-.06c.06-.059,0-.179,0-.238-.06-.119-.06-.238-.119-.3-.06-.179-.06-.357-.119-.536l-.06.059c0-.059-.06,0-.06-.059.06,0,.06-.06.06-.119a.446.446,0,0,1-.06-.3h-.06c.06-.119-.06-.179-.06-.238a.058.058,0,0,1-.06-.059.219.219,0,0,0,.06-.179c0-.059-.06-.119-.119-.178,0-.238-.119-.417-.119-.655h-.06c0-.238-.119-.476-.119-.655l-.06.06c-.06-.06,0-.119.06-.119-.06-.06,0-.179-.06-.179-.06-.06,0-.06,0-.119-.06-.119-.06-.179-.119-.238h-.06c0-.059-.06-.119.06-.119-.06-.119-.06-.3-.119-.357l.06-.06c-.06-.119-.119-.179-.119-.3,0,0-.06.06-.06,0a.058.058,0,0,0,.06-.059c0-.179-.179-.3-.179-.476a4.383,4.383,0,0,0-.238-.833h0c.06-.119-.119-.178-.06-.3l-.06-.059c0-.06-.119-.179-.06-.3h0c-.06-.059-.06-.179-.119-.3v.059c-.06,0,.06-.119-.06-.119,0,0,.06-.059.06,0a3.138,3.138,0,0,1-.179-.714c-.119-.179-.119.059-.119-.119h0c0-.06-.119-.06-.06-.119.06,0,0-.059.06-.059-.06-.119-.119-.119-.119-.179h0c.06-.119,0-.238.06-.357-.179-.536-.238-1.071-.417-1.607a15.9,15.9,0,0,0-.536-1.547c-.119-.119-.119-.119-.119-.238h0c.06,0,0-.119,0-.119-.06-.179-.119-.357-.179-.6,0,.059-.06.059-.06,0v-.06h0a.058.058,0,0,1,.06-.06,14.894,14.894,0,0,0-.536-1.488,1.1,1.1,0,0,1-.119-.417,3.348,3.348,0,0,1-.417-1.071C31.411,199.538,31.292,199.657,31.292,199.836Z" transform="translate(-31.28 -199.3)"/>
          <path id="Path_2106" data-name="Path 2106" class="cls-10" d="M40.119,228.182c-.06,0-.06-.059-.119,0Z" transform="translate(-34.811 -210.985)"/>
          <path id="Path_2107" data-name="Path 2107" class="cls-10" d="M39,226.4Z" transform="translate(-34.406 -210.275)"/>
          <path id="Path_2108" data-name="Path 2108" class="cls-10" d="M38.9,225.9v0Z" transform="translate(-34.366 -210.072)"/>
          <path id="Path_2109" data-name="Path 2109" class="cls-10" d="M38.5,225.482Z" transform="translate(-34.204 -209.892)"/>
          <path id="Path_2110" data-name="Path 2110" class="cls-10" d="M38.582,225.382h0C38.582,225.323,38.522,225.382,38.582,225.382Z" transform="translate(-34.226 -209.852)"/>
          <path id="Path_2111" data-name="Path 2111" class="cls-10" d="M38.182,224.382Z" transform="translate(-34.064 -209.447)"/>
          <path id="Path_2112" data-name="Path 2112" class="cls-10" d="M38.07,223.9Z" transform="translate(-34.011 -209.262)"/>
          <path id="Path_2113" data-name="Path 2113" class="cls-10" d="M35.6,215.3v.059h0Z" transform="translate(-33.029 -205.779)"/>
          <path id="Path_2114" data-name="Path 2114" class="cls-10" d="M34.4,211.582Z" transform="translate(-32.543 -204.263)"/>
          <path id="Path_2115" data-name="Path 2115" class="cls-10" d="M34,209.5Z" transform="translate(-32.381 -203.431)"/>
        </g>
        <g id="Group_1654" data-name="Group 1654" transform="translate(15.611 13.478)">
          <path id="Path_2116" data-name="Path 2116" class="cls-10" d="M35.482,229.8c0,.06-.06,0,0,0Z" transform="translate(-29.939 -212.722)"/>
          <path id="Path_2117" data-name="Path 2117" class="cls-10" d="M26.193,201.517c-.06.238.179.476.119.714,0,0,.06-.059.06.06a1.067,1.067,0,0,0,.3.774h0c.06.059,0,.119,0,.179h.06c-.06,0,0,.119,0,.119h.06l-.06.059c-.06.119.06.179.06.357h0a3.07,3.07,0,0,0,.119.655s.06-.06.06,0c-.06,0-.06.119-.06.179.06,0,0,.119.06.178h0c-.06.06.06.06,0,.119h.06c-.06.059.06.059.06.119h0a.058.058,0,0,0,.06.06h0c0,.06.06.119,0,.119.06,0,0-.06.06-.06a2.206,2.206,0,0,0,.238.833.058.058,0,0,1,.06.06v.119h.06c.06.06-.06.06,0,.119a.058.058,0,0,1,.06-.06c-.06.06,0,.119,0,.179v-.059c-.06.059.06.119.06.179v-.06c.06.06-.06.06,0,.119h.06c-.06.06,0,.179,0,.238h0c0,.06.06.119.06.238,0,0,.06-.06.119.06-.06,0,0,.119-.06.119.06.06.119.179.06.179,0-.06.119,0,.06-.06h.06v.059c0,.06-.06.119-.06.238,0-.059.06,0,.06-.059l-.119.179a.058.058,0,0,1,.06.06l-.06.059a.117.117,0,0,0,.119.119s0-.06.06,0v.119h0s0,.119-.06.059c0,0,.06,0,0-.059a.082.082,0,0,0,0,.119l.06-.059c-.06.059,0,.178,0,.238-.06,0,.06-.059,0-.059.06.059,0,.238.119.3h-.06c0,.06.06,0,.06.06v.06h0c0,.06,0,.238.06.3a.208.208,0,0,0-.06.119h.06c.06,0,0,.059.06.059-.06.059,0-.179-.06-.119.06,0-.06.119,0,.059,0,.059,0,.119.06.119,0,0,.06-.059.06,0v.119c-.06,0,0,.059,0,.059.06,0,0,.119.06.06h.06a.208.208,0,0,0-.06.119h0c-.06.059,0,.059,0,.119.06.06.06.179.119.179v.119c.06,0,0,.059,0,.059a.208.208,0,0,0,.119.06.058.058,0,0,1-.06.059c.119,0,0,.119.06.179a.058.058,0,0,1,.06-.06c.119,0-.06.119,0,.179h-.06c.06,0,0,.119.06.059,0,.06.06.06,0,.06.119.119.06.3.179.3v.06c-.06,0,0-.06,0-.06h0s.06.06.06,0c.06.06-.06.119,0,.179h.06v.06c.06.06.06,0,.119,0v.119h.06c-.06,0,0,.06,0,.06h0v.059l-.06-.059v.059a.058.058,0,0,1,.06.06v.06s0,.059.06,0c0,0-.06,0,0-.06a.058.058,0,0,1,.06.06c0,.059-.119,0-.06.059l.06-.059.06.059h-.06a.082.082,0,0,0,0,.119.058.058,0,0,0,.06.06h0c.06,0,.06.059,0,.119h0v.119c.06.06.179-.059.119.06,0,.06-.06.119-.06.06.06.06,0,.179.119.238v.06c.06.119.06.3.119.357,0-.06.06,0,.06,0,0,.059.06,0,0,.059H29.7c0,.06.06.179.06.238H29.7c.06,0,.06,0,.06.059h0s-.06.06,0,.06h.06c0,.06-.06.119,0,.179h.06a.058.058,0,0,1-.06.059c.06.06.06.119.119.119a.84.84,0,0,0,.06.536h0c.06.059-.06.059,0,.059h.06a.082.082,0,0,1,0,.119c-.06,0,0-.06,0,0a.082.082,0,0,1,0,.119.058.058,0,0,0,.06-.059v.059c.06,0,.06-.119.179-.119v.059c.06,0,.06-.119.06-.059s-.06.119-.119.059c0,.059-.119.059-.06.179.06,0,0-.06.06-.06s0,.06,0,.119c-.06-.06-.06,0-.06.06.06.059.06-.06.06,0l-.06.059c-.06.06.06.06,0,.119.06,0,.119-.119.119-.06-.06,0-.06.119-.119.119h.06c.06,0-.06.119.06.119h0c0,.06-.06.119.06.119a.058.058,0,0,1-.06.059c-.06-.059,0-.059-.06-.059.06,0,0,.059,0,.119h0v.059h.06l-.06.059c0,.059.06,0,.06.059v-.059a.058.058,0,0,1,.06.059l-.119.06c0,.059.06,0,0,.059l.06-.059a.058.058,0,0,1,.06.059c0,.059-.06.119-.06.059,0,0,.06.06.06,0,0,.06-.06,0-.06.06.06,0,.06.059.119.059l.06-.059v.059c.06-.059.06,0,.119-.059v.059c-.119-.059-.119.119-.179.119,0,.119.238,0,.119.119,0,0-.06.06-.06,0,0,.06-.06.06,0,.119,0-.06.119,0,.119-.06,0,0-.06-.059,0-.059s.06-.059.119,0v.119c-.06,0,0-.06-.06,0,0,.059.06.059,0,.119,0-.059-.06-.059-.119,0v.059h0c.06.06-.06.06,0,.119h.06c.06-.059-.06-.119,0-.119v.06s.119,0,.06.119c0,.06,0,0-.06.06v.178c.06-.059.06.06.06,0-.06,0-.06-.119,0-.178.06,0-.06-.06.06-.119,0,.06.119.06.119.06v.06h-.119a.112.112,0,0,1,0,.179.058.058,0,0,0,.06-.06.309.309,0,0,0,.119.238c-.119,0,0,.119-.06.06s-.119-.06-.119,0h.06c0,.06.06.06,0,.06,0-.06.06-.06.119-.06,0,.06.06,0,.06.06v.238a.358.358,0,0,1,.06.238h.119c0,.06-.06,0,0,.06h0s.06.119,0,.179l.06-.06v.06h.06c.06,0,0,.119.06.119h-.06c0,.119.06.119.06.238h.06v.059c.06,0,.06,0,.06.06l.06-.178a.058.058,0,0,0-.06.059c-.06,0-.06-.059,0-.119V218a.058.058,0,0,0,.06-.059v-.06c0,.06-.06,0-.06,0,.06,0,.06-.06,0-.119-.06,0,0-.119-.06-.178a.184.184,0,0,0-.06.119c-.06-.059,0-.059-.06-.059.06-.06.06-.06.06-.119h-.06c0-.06.06-.06,0-.119a1,1,0,0,1-.119-.3h-.06c.06-.06,0-.178,0-.238-.06-.119-.06-.238-.119-.3-.06-.179-.06-.357-.119-.536l-.06.06c0-.06-.06,0-.06-.06.06,0,.06-.059.06-.119a.446.446,0,0,1-.06-.3h-.06c.06-.119-.06-.179-.06-.238a.058.058,0,0,1-.06-.059c.06-.059,0-.119.06-.179,0-.059-.06-.119-.119-.178,0-.238-.119-.417-.119-.655H30.3a2.109,2.109,0,0,0-.179-.655l-.06.059c-.06-.059,0-.119.06-.119-.06-.06,0-.179-.06-.179-.06-.06,0-.06,0-.119-.06-.119-.06-.179-.119-.238h-.06c0-.059-.06-.119.06-.119-.06-.119-.06-.3-.179-.357l.06-.06c-.06-.119-.119-.179-.119-.3,0,0-.06.06-.06,0a.058.058,0,0,0,.06-.06c0-.178-.179-.3-.179-.476-.06-.3-.179-.536-.238-.833h0c.06-.119-.119-.179-.06-.3l-.06-.06c0-.06-.119-.179-.06-.3h0c-.06-.059-.06-.179-.119-.3v.06c-.06,0,.06-.119-.06-.119,0,0,.06-.059.06,0a3.138,3.138,0,0,1-.179-.714c-.119-.179-.119.059-.119-.119h0c0-.06-.119-.06-.119-.119.06,0,0-.06.06-.06-.06-.119-.119-.119-.119-.179h0c.06-.119-.06-.238.06-.357a15.952,15.952,0,0,1-.417-1.607,15.9,15.9,0,0,0-.536-1.547c-.119-.119-.119-.119-.119-.238h0c.06,0,0-.119,0-.119-.06-.179-.119-.357-.179-.6,0,.059-.06.059-.06,0v-.06h0a.058.058,0,0,1,.06-.06c-.119-.536-.417-.952-.536-1.488a1.1,1.1,0,0,1-.119-.417,3.348,3.348,0,0,1-.417-1.071C26.312,201.279,26.193,201.338,26.193,201.517Z" transform="translate(-26.184 -201.1)"/>
          <path id="Path_2118" data-name="Path 2118" class="cls-10" d="M35.419,229.682c-.06,0-.06-.06-.119,0Z" transform="translate(-29.876 -212.664)"/>
          <path id="Path_2119" data-name="Path 2119" class="cls-10" d="M34.282,227.9Z" transform="translate(-29.453 -211.953)"/>
          <path id="Path_2120" data-name="Path 2120" class="cls-10" d="M34.1,227.4v0Z" transform="translate(-29.39 -211.751)"/>
          <path id="Path_2121" data-name="Path 2121" class="cls-10" d="M33.77,227Z" transform="translate(-29.238 -211.589)"/>
          <path id="Path_2122" data-name="Path 2122" class="cls-10" d="M33.87,226.9h0C33.81,226.9,33.81,226.96,33.87,226.9Z" transform="translate(-29.278 -211.548)"/>
          <path id="Path_2123" data-name="Path 2123" class="cls-10" d="M33.382,225.97h0C33.382,225.91,33.322,225.97,33.382,225.97Z" transform="translate(-29.088 -211.153)"/>
          <path id="Path_2124" data-name="Path 2124" class="cls-10" d="M33.3,225.482Z" transform="translate(-29.066 -210.963)"/>
          <path id="Path_2125" data-name="Path 2125" class="cls-10" d="M30.7,216.9Z" transform="translate(-28.013 -207.498)"/>
          <path id="Path_2126" data-name="Path 2126" class="cls-10" d="M29.482,213.17c0-.06-.06-.06,0,0C29.422,213.17,29.482,213.11,29.482,213.17Z" transform="translate(-27.509 -205.97)"/>
          <path id="Path_2127" data-name="Path 2127" class="cls-10" d="M29,211.06h0l.06-.06Z" transform="translate(-27.324 -205.109)"/>
        </g>
        <g id="Group_1655" data-name="Group 1655" transform="translate(12.457 14.55)">
          <path id="Path_2128" data-name="Path 2128" class="cls-10" d="M29.982,231.5c0,.119-.06,0,0,0C29.982,231.56,30.042,231.56,29.982,231.5Z" transform="translate(-24.558 -214.482)"/>
          <path id="Path_2129" data-name="Path 2129" class="cls-10" d="M20.893,203.257c-.06.238.179.476.119.714,0,0,.06-.06.06.06a1.067,1.067,0,0,0,.3.774h0c.06.06,0,.119,0,.178h.06c-.06,0,0,.119,0,.119h.06l-.06.06c-.119.119.06.178.06.357h0a3.07,3.07,0,0,0,.119.655s.06-.059.06,0c-.06,0-.06.119-.06.179.06,0,0,.119.06.179h0c-.06.06.06.06,0,.119h.06c-.06.06.06.06.06.119h0a.058.058,0,0,0,.06.059h0c0,.06.06.119,0,.119.06,0,0-.059.06-.059a2.206,2.206,0,0,0,.238.833.058.058,0,0,1,.06.06v.119h.06c.06.06-.06.06,0,.119a.058.058,0,0,1,.06-.06c-.06.06,0,.119,0,.179v-.06c-.06.06.06.119,0,.179h0c.06.06-.06.06,0,.119h.06c-.06.06,0,.179,0,.238h0c0,.059.06.119.06.238,0,0,.06-.06.119.06-.06,0,0,.119-.06.119.06.06.119.179.06.179,0-.06.119,0,.06-.06h.06v.059c0,.06-.06.119-.06.238,0-.059.06,0,.06-.059l.06.119a.058.058,0,0,1,.06.06l-.06.059a.117.117,0,0,0,.119.119s0-.06.06,0v.119h0c0,.059,0,.119-.06.059,0,0,.06,0,0-.059a.082.082,0,0,0,0,.119l.06-.06c-.06.06,0,.179,0,.238-.06,0,.06-.06,0-.06.06.06,0,.238.119.3h-.06c0,.059.06,0,.06.059v.06h0c0,.06,0,.238.06.3a.208.208,0,0,0-.06.119h.06c.06,0,0,.06.06.06-.06.06,0-.179-.06-.119.06,0-.06.119,0,.059,0,.06,0,.119.06.119,0,0,.06-.06.06,0v.119c-.06,0,0,.059,0,.059.06,0,0,.119.06.06h.06a.208.208,0,0,0-.06.119h0c-.06.059,0,.059,0,.119.06.06.06.179.119.179v.119c.06,0,0,.06,0,.06a.208.208,0,0,0,.119.06.058.058,0,0,1-.06.06c.119,0,0,.119.06.179a.058.058,0,0,1,.06-.06c.119,0-.06.119,0,.179h-.06c.06,0,0,.119.06.059,0,.06.06.06,0,.06.119.119.06.3.179.3v.06c-.06,0,0-.06,0-.06h0s.06.06.06,0c.06.06-.06.119,0,.179h.06v.059c.06.06.06,0,.119,0v.119h.06c-.06,0,0,.059,0,.059h0v.059l-.06-.059v.059a.058.058,0,0,1,.06.06v.06s0,.059.06,0c0,0-.06,0,0-.06a.058.058,0,0,1,.06.06c0,.059-.119,0-.06.059l.06-.059.06.059h-.06c-.06.06,0,.119-.06.119l.06.06h0c.06,0,.06.059,0,.119h0v.119c.06.06.179-.059.119.06,0,.059-.06.119-.06.059.06.059,0,.179.119.238v.059c.06.119.06.3.119.357,0-.059.06,0,.06,0,0,.059.06,0,0,.059h-.06c0,.06.06.179.06.238h-.06c.06,0,.06,0,.06.059h0s-.06.06,0,.06h.06c0,.059-.06.119,0,.178h.06a.058.058,0,0,1-.06.059c.06.06.06.119.119.119a.84.84,0,0,0,.06.536h0c.06.06-.06.06,0,.06h.06a.082.082,0,0,1,0,.119c-.06,0,0-.059-.06,0a.082.082,0,0,1,0,.119.058.058,0,0,0,.06-.059v.059c.06,0,.06-.119.179-.119v.06c.06,0,.06-.119.06-.06s-.06.119-.119.06c0,.059-.119.059-.06.179.06,0,0-.06.06-.06s0,.06,0,.119c-.06-.06-.06,0-.06.059.06.059.06-.059.06,0l-.06.059c-.06.06.06.06,0,.119.06,0,.119-.119.119-.06-.06,0-.06.119-.119.119h.06c.06,0-.06.119.06.119h0c0,.059-.06.119.06.119a.058.058,0,0,1-.06.06c-.06-.06,0-.06-.06-.06.06,0,0,.06,0,.119h0v.059H25l-.06.06c0,.059.06,0,.06.059v-.059a.058.058,0,0,1,.06.059l-.119.06c0,.059.06,0,0,.059l.06-.059a.058.058,0,0,1,.06.059c0,.06-.06.119-.06.06,0,0,.06.06.06,0,0,.06-.06,0-.06.06.06,0,.06.059.119.059l.06-.059v.059c.06-.059.06,0,.119-.059v.059c-.119-.059-.119.119-.179.119,0,.119.238,0,.119.119,0,0-.06.059-.06,0,0,.059-.06.059,0,.119,0-.059.119,0,.119-.059,0,0-.06-.06,0-.06s.06-.059.119,0v.119c-.06,0,0-.06-.06,0,0,.059.06.059,0,.119,0-.06-.06-.06-.06,0v.059h0c.06.06-.06.06,0,.119h.06c.06-.06-.06-.119.06-.119v.059s.119,0,.06.119c0,.059,0,0-.06.059v.178c.06-.059.06.119.06,0-.06,0-.06-.119,0-.178.06,0-.06-.059.06-.119,0,.059.119.059.119.059v.059h-.119a.112.112,0,0,1,0,.179.058.058,0,0,0,.06-.06.309.309,0,0,0,.119.238c-.06,0,0,.119-.06.059s-.119-.059-.119,0h.06c0,.06.06.06,0,.06,0-.06.06-.06.119-.06,0,.06.06,0,.06.06v.238a.446.446,0,0,1,.06.3h.119c0,.059-.06,0,0,.059h0s.06.119,0,.179l.06-.059v.059h.06c.06,0,0,.119.06.119h-.06c0,.119.06.119.06.238h.06v.059c.06,0,.06,0,.06.06l.06-.179a.058.058,0,0,0-.06.059c-.06,0-.06-.059,0-.119v.06a.058.058,0,0,0,.06-.06v-.059c0,.059-.06,0-.06,0,.06,0,.06-.059,0-.119-.06,0,0-.119-.06-.179a.184.184,0,0,0-.06.119c-.06-.059,0-.059-.06-.059.06-.059.06-.059.06-.119h-.06c0-.06.06-.06,0-.119-.06-.119-.06-.238-.119-.3h-.06c.06-.06,0-.179,0-.238-.06-.119-.06-.238-.119-.3-.06-.179-.06-.357-.119-.536l-.06.06c0-.06-.06,0-.06-.06.06,0,.06-.059.06-.119a.446.446,0,0,1-.06-.3h-.06c.06-.119-.06-.178-.06-.238a.058.058,0,0,1-.06-.06.219.219,0,0,0,.06-.178c0-.06-.06-.119-.119-.179,0-.238-.119-.417-.119-.655h-.06a2.109,2.109,0,0,0-.179-.655l-.06.059c-.06-.059,0-.119.06-.119-.06-.059,0-.179-.06-.179-.06-.059,0-.059,0-.119-.06-.119-.06-.179-.119-.238H24.7c0-.06-.06-.119.06-.119-.06-.119-.06-.3-.179-.357l.06-.059c-.06-.119-.119-.179-.119-.3,0,0-.06.059-.06,0a.058.058,0,0,0,.06-.06c0-.178-.179-.3-.179-.476-.06-.3-.179-.536-.238-.833h0c.06-.119-.119-.179-.06-.3l-.06-.06c0-.059-.119-.178-.06-.3h0c-.06-.06-.06-.178-.119-.3v.06c-.06,0,.06-.119-.06-.119,0,0,.06-.06.06,0a3.138,3.138,0,0,1-.179-.714c-.119-.178-.119.06-.119-.119h0c0-.059-.119-.059-.06-.119.06,0,0-.06.06-.06-.06-.119-.119-.119-.119-.179h0c.06-.119-.06-.238.06-.357a15.954,15.954,0,0,1-.417-1.607,15.9,15.9,0,0,0-.536-1.547c-.119-.119-.119-.119-.119-.238h0c.06,0,0-.119,0-.119-.06-.179-.119-.357-.179-.6,0,.06-.06.06-.06,0v-.059h0a.058.058,0,0,1,.06-.059c-.119-.536-.417-.952-.536-1.488a1.1,1.1,0,0,1-.119-.417,3.348,3.348,0,0,1-.417-1.071C21.012,203.019,20.893,203.079,20.893,203.257Z" transform="translate(-20.884 -202.9)"/>
          <path id="Path_2130" data-name="Path 2130" class="cls-10" d="M29.919,231.382c-.06,0-.06-.06-.119,0Z" transform="translate(-24.495 -214.423)"/>
          <path id="Path_2131" data-name="Path 2131" class="cls-10" d="M28.8,229.6Z" transform="translate(-24.09 -213.713)"/>
          <path id="Path_2132" data-name="Path 2132" class="cls-10" d="M28.7,229.1v0Z" transform="translate(-24.049 -213.51)"/>
          <path id="Path_2133" data-name="Path 2133" class="cls-10" d="M28.3,228.7Z" transform="translate(-23.887 -213.348)"/>
          <path id="Path_2134" data-name="Path 2134" class="cls-10" d="M28.382,228.682h0C28.382,228.623,28.322,228.682,28.382,228.682Z" transform="translate(-23.91 -213.33)"/>
          <path id="Path_2135" data-name="Path 2135" class="cls-10" d="M27.982,227.682h0C27.982,227.622,27.922,227.682,27.982,227.682Z" transform="translate(-23.748 -212.925)"/>
          <path id="Path_2136" data-name="Path 2136" class="cls-10" d="M27.87,227.182h0c-.06-.06-.06,0,0,0Z" transform="translate(-23.695 -212.723)"/>
          <path id="Path_2137" data-name="Path 2137" class="cls-10" d="M25.3,218.6v0Z" transform="translate(-22.672 -209.258)"/>
          <path id="Path_2138" data-name="Path 2138" class="cls-10" d="M24.082,214.87c0-.06-.06-.06,0,0C24.022,214.87,24.082,214.81,24.082,214.87Z" transform="translate(-22.168 -207.729)"/>
          <path id="Path_2139" data-name="Path 2139" class="cls-10" d="M23.6,212.8h0Z" transform="translate(-21.984 -206.909)"/>
        </g>
        <g id="Group_1656" data-name="Group 1656" transform="translate(9.422 15.502)">
          <path id="Path_2140" data-name="Path 2140" class="cls-10" d="M24.782,233.2c0,.06-.06,0,0,0Z" transform="translate(-19.417 -216.122)"/>
          <path id="Path_2141" data-name="Path 2141" class="cls-10" d="M15.793,204.857c-.06.238.179.476.119.714,0,0,.06-.06.06.06a1.067,1.067,0,0,0,.3.774h0c.06.06,0,.119,0,.179h.06c-.06,0,0,.119,0,.119h.06l-.06.06c-.119.119.06.179.06.357h0a3.07,3.07,0,0,0,.119.655s.06-.06.06,0c-.06,0-.06.119-.06.178.06,0,0,.119.06.179h0c-.06.059.06.059,0,.119h.06c-.06.06.06.06.06.119h0a.058.058,0,0,0,.06.06h0c0,.059.06.119,0,.119.06,0,0-.059.06-.059a4.169,4.169,0,0,0,.179.833.058.058,0,0,1,.06.06v.119h.06c.06.059-.06.059,0,.119a.058.058,0,0,1,.06-.059c-.06.059,0,.119,0,.179v-.06c-.06.06.06.119,0,.179v-.06c.06.06-.06.06,0,.119h.06c-.06.059,0,.178,0,.238h0c0,.06.06.119.06.238,0,0,.06-.059.119.059-.06,0,0,.119-.06.119.06.06.119.179.06.238,0-.059.119,0,.06-.059h.06v.059c0,.059-.06.119-.06.238,0-.06.06,0,.06-.06l-.119.179a.058.058,0,0,1,.06.059l-.06.06a.117.117,0,0,0,.119.119c.06,0,0-.06.06,0v.119h0c0,.059,0,.119-.06.059,0,0,.06,0,0-.059a.082.082,0,0,0,0,.119l.06-.059c-.06.059,0,.179,0,.238-.06,0,.06-.06,0-.06.06.06,0,.238.119.3h-.06c0,.06.06,0,.06.06v.06h0c0,.059,0,.238.06.3a.208.208,0,0,0-.06.119h.06c.06,0,0,.059.06.059-.06.06,0-.178-.06-.119.06,0-.06.119,0,.06,0,.06,0,.119.06.119,0,0,.06-.06.06,0v.119c-.06,0,0,.06,0,.06.06,0,0,.119.06.06H18a.208.208,0,0,0-.06.119h0c-.06.06,0,.06,0,.119.06.06.06.179.119.179v.119c.06,0,0,.06,0,.06a.208.208,0,0,0,.119.06.058.058,0,0,1-.06.059c.119,0,0,.119.06.179a.058.058,0,0,1,.06-.06c.119,0-.06.119,0,.178h-.06c.06,0,0,.119.06.06,0,.06.06.06,0,.06.119.119.06.3.179.3v.06c-.06,0,0-.06,0-.06h0c0,.06.06.06.06,0,.06.06-.06.119,0,.179h.06v.06c.06.06.06,0,.119,0v.119h.06c-.06,0,0,.06,0,.06h0v.06a.058.058,0,0,1-.06-.06v.06a.058.058,0,0,1,.06.059v.06s0,.06.06,0c0,0-.06,0,0-.06a.058.058,0,0,1,.06.06c0,.06-.119,0-.06.06l.06-.06.06.06h-.06c-.06.059,0,.119-.06.119a.058.058,0,0,0,.06.06h0c.06,0,.06.059,0,.119h0v.119c.06.06.179-.06.119.06,0,.059-.06.119-.06.059.06.06,0,.179.119.238v.059c.06.119.06.3.119.357,0-.06.06,0,.06,0,0,.059.06,0,0,.059h-.06c0,.06.06.179.06.238h-.06c.06,0,.06,0,.06.06h0s-.06.06,0,.06h.06c0,.059-.06.119,0,.178h.06a.058.058,0,0,1-.06.06c.06.06.06.119.119.119a.84.84,0,0,0,.06.536h0c.06.06-.06.06,0,.06h.06a.082.082,0,0,1,0,.119c-.06,0,0-.059,0,0a.082.082,0,0,1,0,.119.058.058,0,0,0,.06-.06v.06c.06,0,.06-.119.179-.119v.06c.06,0,.06-.119.06-.06s-.06.119-.119.06c0,.059-.119.059-.06.179.06,0,0-.06.06-.06s0,.06,0,.119c-.06-.06-.06,0-.06.06.06.059.06-.06.06,0l-.06.059c-.06.06.06.06,0,.119.06,0,.119-.119.119-.06-.06,0-.06.119-.119.06h.06c.06,0-.06.119.06.119h0c0,.06-.06.119.06.119a.058.058,0,0,1-.06.06c-.06-.06,0-.06-.06-.06.06,0,0,.06,0,.119h0v.059h.06l-.06.06c0,.059.06,0,.06.059v-.059a.058.058,0,0,1,.06.059l-.119.06c0,.06.06,0,0,.06l.06-.06a.058.058,0,0,1,.06.06c0,.059-.06.119-.06.059,0,0,.06.06.06,0,0,.06-.06,0-.06.06.06,0,.06.06.119.06l.06-.06v.06c.06-.06.06,0,.119-.06v.06c-.119-.06-.119.119-.179.119,0,.119.238,0,.119.119,0,0-.06.059-.06,0,0,.059-.06.059,0,.119,0-.059.119,0,.119-.059,0,0-.06-.06,0-.06s.06-.06.119,0v.119c-.06,0,0-.06-.06,0,0,.06.06.06,0,.119,0-.059-.06-.059-.06,0v.06h0c.06.059-.06.059,0,.119h.06c.06-.06-.06-.119.06-.119v.059s.119,0,.06.119c0,.06,0,0-.06.06v.179c.06-.059.06.119.06,0-.06,0-.06-.119,0-.179.06,0-.06-.06.06-.119,0,.06.119.06.119.06v.06h-.119a.112.112,0,0,1,0,.179.058.058,0,0,0,.06-.06c0,.119.06.179.06.238-.06,0,0,.119-.06.06s-.119-.06-.119,0h.06c0,.06.06.06,0,.06,0-.06.06-.06.119-.06,0,.06.06,0,.06.06v.238a.446.446,0,0,1,.06.3h.119c0,.059-.06,0,0,.059h0s.06.119,0,.179l.06-.059v.059h.06c.06,0,0,.119.06.119h-.06c0,.119.06.119.06.238h.06v.06c.06,0,.06,0,.06.06l.06-.179a.058.058,0,0,0-.06.06c-.06,0-.06-.06,0-.119v.06a.058.058,0,0,0,.06-.06v-.06c0,.06-.06,0-.06,0,.06,0,.06-.059,0-.119-.06,0,0-.119-.06-.179a.184.184,0,0,0-.06.119c-.06-.06,0-.06-.06-.06.06-.059.06-.059.06-.119h-.06c0-.06.06-.06,0-.119-.06-.119-.06-.238-.119-.3h-.06c.06-.059,0-.178,0-.238-.06-.119-.06-.238-.119-.3-.06-.179-.06-.357-.119-.536l-.06.06c0-.06-.06,0-.06-.06.06,0,.06-.059.06-.119a.446.446,0,0,1-.06-.3h-.06c.06-.119-.06-.179-.06-.238a.058.058,0,0,1-.06-.06.219.219,0,0,0,.06-.179c0-.06-.06-.119-.119-.179,0-.238-.119-.417-.119-.655h-.06a2.109,2.109,0,0,0-.179-.655l-.06.06c-.06-.06,0-.119.06-.119-.06-.059,0-.178-.06-.178-.06-.06,0-.06,0-.119-.06-.119-.06-.179-.119-.238h-.06c0-.059-.06-.119.06-.119-.06-.119-.06-.3-.119-.357l.06-.059c-.06-.119-.119-.179-.119-.3,0,0-.06.059-.06,0a.058.058,0,0,0,.06-.06c0-.178-.179-.3-.179-.476-.06-.3-.179-.536-.238-.833h0c.06-.119-.119-.179-.06-.3l-.06-.06c0-.06-.119-.179-.06-.3h0c-.06-.06-.06-.179-.119-.3v.06c-.06,0,.06-.119-.06-.119,0,0,.06-.06.06,0a3.138,3.138,0,0,1-.179-.714c-.119-.179-.119.06-.119-.119h0c0-.059-.119-.059-.06-.119.06,0,0-.06.06-.06-.06-.119-.119-.119-.119-.179h0c.06-.119-.06-.238.06-.357a15.954,15.954,0,0,1-.417-1.607,15.9,15.9,0,0,0-.536-1.547c-.119-.119-.119-.119-.119-.238h0c.06,0,0-.119,0-.119-.06-.178-.119-.357-.179-.6,0,.06-.06.06-.06,0v-.06h0a.058.058,0,0,1,.06-.059,14.892,14.892,0,0,0-.536-1.488,1.1,1.1,0,0,1-.119-.417,3.348,3.348,0,0,1-.417-1.071C15.912,204.619,15.793,204.679,15.793,204.857Z" transform="translate(-15.784 -204.5)"/>
          <path id="Path_2142" data-name="Path 2142" class="cls-10" d="M24.719,233.082c-.06,0-.06-.06-.119,0Z" transform="translate(-19.354 -216.064)"/>
          <path id="Path_2143" data-name="Path 2143" class="cls-10" d="M23.6,231.3Z" transform="translate(-18.949 -215.353)"/>
          <path id="Path_2144" data-name="Path 2144" class="cls-10" d="M23.4,230.8v0Z" transform="translate(-18.868 -215.151)"/>
          <path id="Path_2145" data-name="Path 2145" class="cls-10" d="M23.082,230.4Z" transform="translate(-18.729 -214.989)"/>
          <path id="Path_2146" data-name="Path 2146" class="cls-10" d="M23.182,230.288h0C23.182,230.229,23.122,230.348,23.182,230.288Z" transform="translate(-18.769 -214.936)"/>
          <path id="Path_2147" data-name="Path 2147" class="cls-10" d="M22.782,229.37h0C22.782,229.31,22.722,229.37,22.782,229.37Z" transform="translate(-18.607 -214.553)"/>
          <path id="Path_2148" data-name="Path 2148" class="cls-10" d="M22.67,228.87Z" transform="translate(-18.554 -214.351)"/>
          <path id="Path_2149" data-name="Path 2149" class="cls-10" d="M20.1,220.3Z" transform="translate(-17.532 -210.898)"/>
          <path id="Path_2150" data-name="Path 2150" class="cls-10" d="M18.9,216.482Z" transform="translate(-17.046 -209.342)"/>
          <path id="Path_2151" data-name="Path 2151" class="cls-10" d="M18.5,214.4Z" transform="translate(-16.884 -208.509)"/>
        </g>
      </g>
      <path id="Path_2152" data-name="Path 2152" class="cls-1" d="M33.5,230.485l8.212-1.785,1.666,5.534c.119.417.774,2.856-.357,3.154a1.237,1.237,0,0,1-1.309-.655,1.014,1.014,0,0,1-1.9.655c-.06.476-.238.893-.714,1.012a1.237,1.237,0,0,1-1.309-.655,1.119,1.119,0,0,1-.714,1.19c-1.071.3-1.666-1.25-1.845-1.845h0Z" transform="translate(-13.536 -92.614)"/>
      <path id="Path_2153" data-name="Path 2153" class="cls-4" d="M43.674,138.5s-29.276,5-13.686,57.9l9.64-2.142s-13.567-38.261,5-46.413Z" transform="translate(-10.262 -56.087)"/>
      <g id="Group_1658" data-name="Group 1658" transform="translate(88.71 77.891)">
        <path id="Path_2154" data-name="Path 2154" class="cls-11" d="M169.159,179.33a8.578,8.578,0,0,0-6.367-9.342c-7.438-2.321-10.592,5.95-10.592,5.95v-1.012s2.975-7.8,10.592-5.593c7.378,2.142,6.724,8.212,6.724,8.212Z" transform="translate(-150.314 -146.305)"/>
        <path id="Path_2155" data-name="Path 2155" class="cls-8" d="M150.262,158.629c3.987-11.127,10.354-10.473,12.2-10,2.38-10.175,2.261-15.828,2.261-15.828l.119-1.9c2.618.952,0,14.162-.833,18.03,2.083.536,6.486,2.975,4.939,13.626-1.488,10.175-6.724,11.365-9.7,10.77l.357-1.012s6.724.893,8.152-10.175-5-11.9-5-11.9-7.8-2.5-11.246,8.807,2.8,12.079,2.8,12.079l-.417,1.071C153.832,172.136,146.1,170.173,150.262,158.629Z" transform="translate(-149.031 -130.9)"/>
        <path id="Path_2156" data-name="Path 2156" class="cls-11" d="M165.733,200.6c.119-.655,0-1.131-.655-1.25-.6-.119-1.012-.179-1.25.6s-.059,1.131.417,1.25A1,1,0,0,0,165.733,200.6Z" transform="translate(-154.981 -158.592)"/>
        <path id="Path_2157" data-name="Path 2157" class="cls-11" d="M157.986,198.07c.655.178.952.6.774,1.131-.179.6-.357,1.012-1.19.833s-1.012-.476-.893-.952C156.856,198.605,157.094,197.832,157.986,198.07Z" transform="translate(-152.114 -158.083)"/>
      </g>
      <g id="Group_1659" data-name="Group 1659" transform="translate(36.607 78.902)">
        <circle id="Ellipse_159" data-name="Ellipse 159" class="cls-10" cx="4.76" cy="4.76" r="4.76" transform="translate(4.66 21.005)"/>
        <circle id="Ellipse_160" data-name="Ellipse 160" class="cls-9" cx="2.618" cy="2.618" r="2.618" transform="translate(6.802 23.147)"/>
        <path id="Path_2158" data-name="Path 2158" class="cls-8" d="M62.618,134.088s.417,8.331,9.1,24.04l-1.369.774s-12.377-21.421-7.914-26.3Z" transform="translate(-61.469 -132.6)"/>
      </g>
    </g>
    <g id="Group_1702" data-name="Group 1702" transform="translate(207.02 16.306)">
      <g id="Group_1695" data-name="Group 1695">
        <g id="Group_1690" data-name="Group 1690">
          <path id="Path_2159" data-name="Path 2159" class="cls-4" d="M350.1,278.664c0,3.689,19.815,6.664,44.211,6.664s44.152-2.975,44.152-6.664S418.649,272,394.252,272,350.1,275.035,350.1,278.664Z" transform="translate(-348.817 -126.455)"/>
          <g id="Group_1689" data-name="Group 1689">
            <g id="Group_1688" data-name="Group 1688">
              <g id="Group_1687" data-name="Group 1687">
                <g id="Group_1686" data-name="Group 1686">
                  <g id="Group_1685" data-name="Group 1685">
                    <g id="Group_1666" data-name="Group 1666" transform="translate(11.696)">
                      <g id="Group_1661" data-name="Group 1661" transform="translate(8.866 12.992)">
                        <path id="Path_2160" data-name="Path 2160" class="cls-1" d="M382.5,103.3s5.593-75.689,58.909-47.96c0,0,9.521,19.041,6.843,54.922C403.267,115.562,382.5,103.3,382.5,103.3Z" transform="translate(-382.5 -49.237)"/>
                      </g>
                      <g id="Group_1662" data-name="Group 1662">
                        <path id="Path_2161" data-name="Path 2161" class="cls-12" d="M379.322,50.846c4.641,3.094,9.759,3.63,15.709,4.165a174.27,174.27,0,0,1,20.707,3.273c6.188,1.369,13.031,4.641,19.279,5,.655,4.225-1.547,10.175-2.321,14.459,0,0,7.438-4.4,6.962,2.2-.476,6.724-7.14,2.618-7.14,2.618s2.142,13.983,9.759,18.863c-.3.476,27.61-45.1,6.9-46.83,0,0,1.131-15.114-14.757-22.79-13.686-6.664-27.61-5.236-41.058.774-5.95,2.678-12.972,4.939-18.863,2.142-2.975-1.369-5.117-3.927-6.9-6.6.833,1.428.357,3.154.6,4.76a28.174,28.174,0,0,0,1.785,5.772,26.865,26.865,0,0,0,6.664,9.937A15.88,15.88,0,0,0,379.322,50.846Z" transform="translate(-367.6 -27.403)"/>
                      </g>
                      <g id="Group_1665" data-name="Group 1665" transform="translate(85.924 33.737)">
                        <g id="Group_1663" data-name="Group 1663" transform="translate(0.476)">
                          <path id="Path_2162" data-name="Path 2162" class="cls-1" d="M512.8,84.1h0Z" transform="translate(-512.8 -84.1)"/>
                        </g>
                        <g id="Group_1664" data-name="Group 1664" transform="translate(0 2.023)">
                          <path id="Path_2163" data-name="Path 2163" class="cls-1" d="M512,87.5h0Z" transform="translate(-512 -87.5)"/>
                        </g>
                      </g>
                    </g>
                    <g id="Group_1667" data-name="Group 1667" transform="translate(10.307 108.236)">
                      <path id="Path_2164" data-name="Path 2164" class="cls-13" d="M432.525,215.488l-2.2,21,1.369,17.554s-23.385,6.307-17.494-2.916c5.474-8.509,13.924-1.428,13.924-1.428L424.79,235.72l-.536-15.709s-24.218,1.488-44.628-4.463l-.714,17.673,3.57,18.387s-22.195,7.26-16.185-2.8c3.332-5.593,11.484-2.083,11.484-2.083l-4.344-13.507-.655-23.921Z" transform="translate(-365.265 -209.3)"/>
                    </g>
                    <g id="Group_1670" data-name="Group 1670" transform="translate(17.944 67.059)">
                      <g id="Group_1669" data-name="Group 1669">
                        <g id="Group_1668" data-name="Group 1668">
                          <path id="Path_2165" data-name="Path 2165" class="cls-14" d="M380.718,140.1,378.1,181.158s24.456,7.2,59.682,6.248l8.747-40.344C446.47,147.062,405.71,150.692,380.718,140.1Z" transform="translate(-378.1 -140.1)"/>
                        </g>
                      </g>
                    </g>
                    <g id="Group_1672" data-name="Group 1672" transform="translate(18.003 104.309)">
                      <g id="Group_1671" data-name="Group 1671">
                        <path id="Path_2166" data-name="Path 2166" class="cls-2" d="M383.853,209.007a1.087,1.087,0,0,1-1.25.179c.238.417.357.833.059,1.19a.9.9,0,0,1-1.131.179,1,1,0,0,1,0,1.071,1.087,1.087,0,0,1-1.25.179c.238.417.357.833.06,1.19-.6.714-1.428.179-2.142-.357v-6.129h0l.238-3.808a56.7,56.7,0,0,0,4.284,3.808C382.9,206.687,384.567,208.234,383.853,209.007Z" transform="translate(-378.2 -202.7)"/>
                      </g>
                    </g>
                    <g id="Group_1674" data-name="Group 1674" transform="translate(0 67.059)">
                      <g id="Group_1673" data-name="Group 1673">
                        <path id="Path_2167" data-name="Path 2167" class="cls-1" d="M368.506,140.1l-.476,7.8c-23.98,6.843-6.6,25.468,1.9,32.311.3.238,1.964,1.726,1.25,2.559a1.087,1.087,0,0,1-1.25.179c.238.417.357.833.06,1.19a.9.9,0,0,1-1.131.178,1,1,0,0,1,0,1.071,1.087,1.087,0,0,1-1.25.179c.238.417.357.833.06,1.19-.655.714-1.547.119-2.261-.476C345.776,171.1,337.564,147.6,368.506,140.1Z" transform="translate(-347.944 -140.1)"/>
                      </g>
                    </g>
                    <g id="Group_1676" data-name="Group 1676" transform="translate(10.506 67.059)">
                      <g id="Group_1675" data-name="Group 1675">
                        <path id="Path_2168" data-name="Path 2168" class="cls-15" d="M375.656,140.1l-.476,7.8a28.266,28.266,0,0,0-6.367,2.559L365.6,143.73A41.67,41.67,0,0,1,375.656,140.1Z" transform="translate(-365.6 -140.1)"/>
                      </g>
                    </g>
                    <g id="Group_1678" data-name="Group 1678" class="cls-16" transform="translate(18.241 67.059)">
                      <g id="Group_1677" data-name="Group 1677">
                        <path id="Path_2169" data-name="Path 2169" class="cls-17" d="M380.385,147.9q-.982.268-1.785.536l2.321-8.331Z" transform="translate(-378.6 -140.1)"/>
                      </g>
                    </g>
                    <g id="Group_1681" data-name="Group 1681" transform="translate(98.75 32.19)">
                      <g id="Group_1679" data-name="Group 1679" transform="translate(0.476)">
                        <path id="Path_2170" data-name="Path 2170" class="cls-18" d="M514.7,81.5h0Z" transform="translate(-514.7 -81.5)"/>
                      </g>
                      <g id="Group_1680" data-name="Group 1680" transform="translate(0 2.083)">
                        <path id="Path_2171" data-name="Path 2171" class="cls-18" d="M513.9,85h0Z" transform="translate(-513.9 -85)"/>
                      </g>
                    </g>
                    <g id="Group_1684" data-name="Group 1684" transform="translate(37.021 55.04)">
                      <g id="Group_1683" data-name="Group 1683">
                        <g id="Group_1682" data-name="Group 1682">
                          <path id="Path_2172" data-name="Path 2172" class="cls-7" d="M410.6,119.9s12.258.476,19.517,3.451c0,0-.059,10-11.484,8.331C407.328,129.956,410.6,119.9,410.6,119.9Z" transform="translate(-410.161 -119.9)"/>
                        </g>
                      </g>
                    </g>
                  </g>
                </g>
              </g>
            </g>
            <ellipse id="Ellipse_161" data-name="Ellipse 161" class="cls-13" cx="4.76" cy="2.44" rx="4.76" ry="2.44" transform="translate(31.754 44.446) rotate(-77.333)"/>
            <ellipse id="Ellipse_162" data-name="Ellipse 162" class="cls-13" cx="4.76" cy="2.44" rx="4.76" ry="2.44" transform="translate(61.48 51.117) rotate(-77.333)"/>
          </g>
        </g>
        <g id="Group_1692" data-name="Group 1692" transform="translate(68.45 77.711)">
          <g id="Group_1691" data-name="Group 1691">
            <path id="Path_2173" data-name="Path 2173" class="cls-1" d="M477.153,158l-1.607,7.617c21.183,13.031-.536,26.3-10.592,30.585-.357.119-2.38,1.131-1.9,2.083a1.045,1.045,0,0,0,1.19.476.889.889,0,0,0-.357,1.131.874.874,0,0,1,.774,1.547,1.045,1.045,0,0,0,1.19.476.889.889,0,0,0-.357,1.131c.417.893,1.488.536,2.321.178C490.6,193.94,504.882,173.59,477.153,158Z" transform="translate(-462.979 -158)"/>
          </g>
        </g>
        <g id="Group_1694" data-name="Group 1694" transform="translate(81.018 77.711)">
          <g id="Group_1693" data-name="Group 1693">
            <path id="Path_2174" data-name="Path 2174" class="cls-15" d="M485.707,158l-1.607,7.617a28.572,28.572,0,0,1,5.415,4.225l4.939-5.593A46.74,46.74,0,0,0,485.707,158Z" transform="translate(-484.1 -158)"/>
          </g>
        </g>
      </g>
      <g id="Group_1701" data-name="Group 1701" transform="translate(36.688 80.21)">
        <g id="Group_1697" data-name="Group 1697">
          <g id="Group_1696" data-name="Group 1696" class="cls-19">
            <path id="Path_2175" data-name="Path 2175" class="cls-20" d="M415.6,190.2c-.774.714-6.426,6.129-6.01,6.545s5.593-5,6.486-6.01a.821.821,0,0,1-.238-.179c-.119-.059-.179-.238-.238-.357Zm0,0" transform="translate(-409.585 -173.539)"/>
          </g>
        </g>
        <path id="Path_2176" data-name="Path 2176" class="cls-21" d="M420.459,187.9l-.536.536a.884.884,0,0,0-.238.833,1.244,1.244,0,0,0,.238.357c.06.06.179.119.238.179a.932.932,0,0,0,.952-.179l.476-.476a6.274,6.274,0,0,1-.655-.417,3.8,3.8,0,0,1-.476-.833Zm0,0" transform="translate(-413.676 -172.607)"/>
        <path id="Path_2177" data-name="Path 2177" class="cls-22" d="M442.452,167l-.952.952.655.655.06.06.952-.952Zm0,0" transform="translate(-422.518 -164.144)"/>
        <path id="Path_2178" data-name="Path 2178" class="cls-23" d="M432.8,170.128a.252.252,0,0,1-.357.357l-.357-.357-.952.952.417.417a.252.252,0,0,1-.357.357l-.417-.417-1.012,1.012.417.417a.252.252,0,0,1-.357.357l-.417-.417-.893.952,1.012,1.012a.4.4,0,0,1-.06.6.367.367,0,0,1-.417.06l-4.046,4.106h0a1.975,1.975,0,0,1-2.8,0,2.078,2.078,0,0,1-.178-2.678l.178-.179,4.106-4.046a.473.473,0,0,1,.119-.536.4.4,0,0,1,.6.06l.952.893.893-.893-.417-.417a.252.252,0,1,1,.357-.357l.417.417,1.012-1.012-.417-.417a.252.252,0,1,1,.357-.357l.417.417.952-.952-.417-.417a.252.252,0,1,1,.357-.357l.417.417,1.309-1.428.714.655-1.726-1.726a.794.794,0,0,0-1.19,0l-9.4,9.4-.238.238a2.846,2.846,0,0,0-.357,2.975,2.683,2.683,0,0,0,.6.833,2.138,2.138,0,0,0,.6.417,2.79,2.79,0,0,0,3.332-.417h0l9.4-9.4a.794.794,0,0,0,0-1.19l-1.012-1.012-1.369,1.369Zm0,0" transform="translate(-414.121 -163.881)"/>
        <g id="Group_1700" data-name="Group 1700">
          <g id="Group_1698" data-name="Group 1698" class="cls-19">
            <path id="Path_2179" data-name="Path 2179" class="cls-22" d="M426.838,176.819l-.119-.119-4.046,4.046-.178.179a1.948,1.948,0,0,0,.178,2.678,1.975,1.975,0,0,0,2.8,0h0l4.046-4.046c-.059,0-.119-.06-.178-.119Zm0,0" transform="translate(-414.639 -168.072)"/>
          </g>
          <g id="Group_1699" data-name="Group 1699" class="cls-19">
            <path id="Path_2180" data-name="Path 2180" class="cls-20" d="M445.277,166.475l-3.927-3.927a.619.619,0,0,0-.952,0l-.119.119a.724.724,0,0,0,0,.952l1.607,1.607.417.417.357.357,1.607,1.607a.619.619,0,0,0,.952,0l.119-.119a.737.737,0,0,0-.06-1.012Zm0,0" transform="translate(-421.951 -162.251)"/>
          </g>
        </g>
        <path id="Path_2181" data-name="Path 2181" class="cls-21" d="M437,172.352l.774.774.952-.952-.774-.774Zm0,0" transform="translate(-420.696 -165.926)"/>
        <path id="Path_2182" data-name="Path 2182" class="cls-21" d="M434.7,174.612l.774.774,1.012-1.012-.774-.774Zm0,0" transform="translate(-419.764 -166.817)"/>
        <path id="Path_2183" data-name="Path 2183" class="cls-21" d="M432.224,177.375l.893-.893-.773-.774-.893.893-.893-.893a.467.467,0,0,0-.655,0,.571.571,0,0,0-.119.536.128.128,0,0,0,.119.119l2.618,2.618c.06.06.119.06.179.119a.373.373,0,0,0,.476-.119.467.467,0,0,0,0-.655Zm0,0" transform="translate(-417.764 -167.616)"/>
        <path id="Path_2184" data-name="Path 2184" class="cls-21" d="M441.183,169.355l-.714-.655-1.369,1.369.773.774,1.369-1.369h0Zm0,0" transform="translate(-421.546 -164.832)"/>
        <path id="Path_2185" data-name="Path 2185" class="cls-22" d="M433.8,174.639a.252.252,0,0,0-.357.357l.357.357.774.774.357.357a.252.252,0,0,0,.357-.357Zm0,0" transform="translate(-419.218 -167.201)"/>
        <path id="Path_2186" data-name="Path 2186" class="cls-22" d="M436.1,172.339a.252.252,0,0,0-.357.357l.357.357.774.774.357.357a.252.252,0,0,0,.357-.357l-.357-.357-.774-.774Zm0,0" transform="translate(-420.149 -166.27)"/>
        <path id="Path_2187" data-name="Path 2187" class="cls-22" d="M437.839,170.17a.223.223,0,0,0,0,.357l.357.357.774.774.357.357a.252.252,0,0,0,.357-.357l-1.071-1.071-.357-.417a.5.5,0,0,0-.417,0Zm0,0" transform="translate(-421 -165.409)"/>
      </g>
    </g>
  </g>
</svg>
