<svg xmlns="http://www.w3.org/2000/svg" xmlns:xlink="http://www.w3.org/1999/xlink" viewBox="58 4118.162 315 261.076">
  <defs>
    <style>
      .cls-1 {
        fill: #5a4b42;
      }

      .cls-2 {
        fill: #fddbbb;
      }

      .cls-3 {
        fill: #e7e8e9;
      }

      .cls-4 {
        fill: #f5f5f5;
      }

      .cls-5 {
        fill: #c49a6c;
      }

      .cls-6 {
        fill: #bdbdbc;
      }

      .cls-7 {
        fill: #e1e2e2;
      }

      .cls-8 {
        fill: #ec7d87;
      }

      .cls-9 {
        fill: #939599;
      }

      .cls-10 {
        fill: #e0e0e0;
      }

      .cls-11 {
        fill: #f1f2f2;
      }

      .cls-12 {
        fill: #343434;
      }

      .cls-13 {
        fill: #e5e7e7;
      }

      .cls-14 {
        fill: #2b424e;
      }

      .cls-15 {
        fill: #334e5c;
      }

      .cls-16 {
        fill: #e2584d;
      }

      .cls-17 {
        fill: #f3b5b1;
      }

      .cls-18 {
        fill: #cdd0d2;
      }

      .cls-19 {
        clip-path: url(#clip-path);
      }

      .cls-20 {
        fill: #097333;
      }

      .cls-21 {
        fill: #2ba7d2;
      }
    </style>
    <clipPath id="clip-path">
      <path id="Path_2283" data-name="Path 2283" d="M336.488,20.2h78.437a7.5,7.5,0,0,1,7.488,7.488V85.564a7.5,7.5,0,0,1-7.488,7.488H336.488A7.5,7.5,0,0,1,329,85.564V27.625a7.489,7.489,0,0,1,7.488-7.425Zm0,0" transform="translate(-329 -20.2)"/>
    </clipPath>
  </defs>
  <g id="Group_1792" data-name="Group 1792" transform="translate(57.973 4118.162)">
    <g id="Group_1763" data-name="Group 1763" transform="translate(0.027 2.221)">
      <path id="Path_2232" data-name="Path 2232" class="cls-1" d="M150.62,109.9s0,23.1,4.95,37.505c0,0-21.132,1.46-37.378-3.808-15.992-5.2-15.992-4.379-15.992-4.379Z" transform="translate(-37.361 -42.378)"/>
      <path id="Path_2233" data-name="Path 2233" class="cls-2" d="M227.986,106.963s2.094-13.771-6.854-12.565c-.254.063-.571.063-.825.127,0,0,.19-14.025-1.9-14.025-4.252,0-2.348,25.765-2.348,25.765Z" transform="translate(-78.808 -31.635)"/>
      <g id="Group_1752" data-name="Group 1752" transform="translate(0 7.552)">
        <ellipse id="Ellipse_170" data-name="Ellipse 170" class="cls-3" cx="38.901" cy="4.95" rx="38.901" ry="4.95" transform="translate(32.601 241.34)"/>
        <path id="Path_2234" data-name="Path 2234" class="cls-2" d="M131.106,65.216c0,27.542-18.975,49.816-43.724,49.816S41.5,92.695,41.5,65.216,61.553,15.4,86.3,15.4C129.266,15.4,131.106,37.675,131.106,65.216Z" transform="translate(-15.181 -15.4)"/>
        <path id="Path_2235" data-name="Path 2235" class="cls-2" d="M84.9,328.3v42.074s11.042,7.615,14.152,4.633c3.554-3.427-5.648-7.108-5.648-7.108l1.269-39.6H84.9Z" transform="translate(-31.039 -129.732)"/>
        <path id="Path_2236" data-name="Path 2236" class="cls-1" d="M126.383,319.823H51.5L52.706,305.1h72.408Z" transform="translate(-18.835 -121.255)"/>
        <path id="Path_2237" data-name="Path 2237" class="cls-3" d="M53.071,305.1l-.571,7.361,73.17-5.013-.19-2.348Z" transform="translate(-19.201 -121.255)"/>
        <path id="Path_2238" data-name="Path 2238" class="cls-1" d="M84.9,392.006v8.313h3.236l.571-2.348a21.478,21.478,0,0,0,9.9,2.348c9.2,0,0-7.869-5.267-9.519,0,0,6.6,2.665,4.379,4.76C94.165,398.859,84.9,392.006,84.9,392.006Z" transform="translate(-31.039 -152.57)"/>
        <path id="Path_2239" data-name="Path 2239" class="cls-2" d="M119,328.3v42.074s11.55,8.059,14.152,4.633c2.919-3.871-5.648-7.108-5.648-7.108l1.269-39.6H119Z" transform="translate(-43.499 -129.732)"/>
        <path id="Path_2240" data-name="Path 2240" class="cls-2" d="M96.8,151v17.325l9.329,20.942,9.265-20.942V151Z" transform="translate(-35.388 -64.948)"/>
        <path id="Path_2241" data-name="Path 2241" class="cls-4" d="M79.517,178.3l-22.275,7.108L49.5,258.768h77.358l-8-74.376L98.111,178.3l-9.265,20.942Z" transform="translate(-18.104 -74.923)"/>
        <g id="Group_1749" data-name="Group 1749" transform="translate(0 141.28)">
          <g id="Group_1740" data-name="Group 1740">
            <path id="Path_2242" data-name="Path 2242" class="cls-3" d="M78.438,265.926l-7.171-10.344.444-.571s1.523.952,3.427-.888c1.65-1.587.063-4.061.063-4.061s-1.587-2.729-4.315-1.333c-1.967,1.015-1.777,2.475-1.777,2.475l-.7.254L61.177,241.05a3.863,3.863,0,0,0-5.394-.952l-2.094,1.46L49.5,281.094H63.334l14.088-9.773A3.876,3.876,0,0,0,78.438,265.926ZM72.79,250.442a.73.73,0,1,1-.19,1.015A.728.728,0,0,1,72.79,250.442Z" transform="translate(-18.104 -238.529)"/>
            <g id="Group_1736" data-name="Group 1736">
              <path id="Path_2243" data-name="Path 2243" class="cls-5" d="M23.3,294.68a3.92,3.92,0,0,1-5.394-.952L.708,268.852a3.92,3.92,0,0,1,.952-5.394l35.6-24.75a3.92,3.92,0,0,1,5.394.952l17.2,24.813a3.92,3.92,0,0,1-.952,5.394Z" transform="translate(-0.027 -238.027)"/>
            </g>
            <g id="Group_1737" data-name="Group 1737" transform="translate(4.632 5.596)">
              <rect id="Rectangle_169" data-name="Rectangle 169" class="cls-4" width="41.376" height="29.382" transform="matrix(0.822, -0.57, 0.57, 0.822, 0, 23.584)"/>
            </g>
            <g id="Group_1738" data-name="Group 1738" transform="translate(4.9 4.83)">
              <rect id="Rectangle_170" data-name="Rectangle 170" class="cls-4" width="41.376" height="29.382" transform="matrix(0.822, -0.57, 0.57, 0.822, 0, 23.584)"/>
            </g>
            <g id="Group_1739" data-name="Group 1739" transform="translate(40.597 8.85)">
              <path id="Path_2244" data-name="Path 2244" class="cls-6" d="M77.073,265.7l-1.967-5.14,1.46-1.9s1.523.952,3.427-.888c1.65-1.586.063-4.061.063-4.061s-1.587-2.729-4.315-1.333c-1.967,1.015-1.777,2.475-1.777,2.475l-2.221.888-4-3.617L64,253.513l10.661,15.357Zm.381-10.534a.73.73,0,1,1,1.015.19A.718.718,0,0,1,77.454,255.163Z" transform="translate(-64 -251.973)"/>
            </g>
          </g>
          <g id="Group_1741" data-name="Group 1741" transform="translate(20.874 21.158)">
            <rect id="Rectangle_171" data-name="Rectangle 171" class="cls-6" width="0.635" height="22.528" transform="matrix(0.818, -0.575, 0.575, 0.818, 0, 0.365)"/>
          </g>
          <g id="Group_1742" data-name="Group 1742" transform="translate(24.28 18.73)">
            <rect id="Rectangle_172" data-name="Rectangle 172" class="cls-6" width="0.635" height="22.528" transform="matrix(0.818, -0.575, 0.575, 0.818, 0, 0.365)"/>
          </g>
          <g id="Group_1743" data-name="Group 1743" transform="translate(27.67 16.391)">
            <rect id="Rectangle_173" data-name="Rectangle 173" class="cls-6" width="0.635" height="22.528" transform="matrix(0.818, -0.575, 0.575, 0.818, 0, 0.365)"/>
          </g>
          <g id="Group_1744" data-name="Group 1744" transform="translate(31.075 13.964)">
            <rect id="Rectangle_174" data-name="Rectangle 174" class="cls-6" width="0.635" height="22.528" transform="matrix(0.818, -0.575, 0.575, 0.818, 0, 0.365)"/>
          </g>
          <g id="Group_1745" data-name="Group 1745" transform="translate(34.429 11.573)">
            <rect id="Rectangle_175" data-name="Rectangle 175" class="cls-6" width="0.635" height="22.528" transform="matrix(0.818, -0.575, 0.575, 0.818, 0, 0.365)"/>
          </g>
          <g id="Group_1746" data-name="Group 1746" transform="translate(17.484 23.497)">
            <rect id="Rectangle_176" data-name="Rectangle 176" class="cls-6" width="0.635" height="22.528" transform="matrix(0.818, -0.575, 0.575, 0.818, 0, 0.365)"/>
          </g>
          <g id="Group_1747" data-name="Group 1747" transform="translate(14.131 25.887)">
            <rect id="Rectangle_177" data-name="Rectangle 177" class="cls-6" width="0.635" height="22.528" transform="matrix(0.818, -0.575, 0.575, 0.818, 0, 0.365)"/>
          </g>
          <g id="Group_1748" data-name="Group 1748" transform="translate(10.725 28.315)">
            <rect id="Rectangle_178" data-name="Rectangle 178" class="cls-6" width="0.635" height="22.528" transform="matrix(0.818, -0.575, 0.575, 0.818, 0, 0.365)"/>
          </g>
        </g>
        <g id="Group_1750" data-name="Group 1750" transform="translate(12.484 110.485)">
          <path id="Path_2245" data-name="Path 2245" class="cls-3" d="M47.559,284.315l1.079-.888S32.265,269.973,31.313,253.6L19.7,261.659c1.967,9.075,7.361,19.355,18.15,30.842l1.523-1.269a23,23,0,0,0,1.523,1.9l9.963-6.917A16.5,16.5,0,0,0,47.559,284.315Z" transform="translate(-19.7 -212.922)"/>
          <path id="Path_2246" data-name="Path 2246" class="cls-2" d="M52.1,306.017s7.806,11.359,14.025,4.76S60.286,299.1,60.286,299.1Z" transform="translate(-31.539 -229.547)"/>
          <path id="Path_2247" data-name="Path 2247" class="cls-4" d="M46.37,189.5s-54.449,27.859-7.615,77.739l10.788-9.075s-36.68-30.017-3.3-55.147Z" transform="translate(-19.717 -189.5)"/>
          <circle id="Ellipse_171" data-name="Ellipse 171" class="cls-7" cx="1.269" cy="1.269" r="1.269" transform="matrix(0.644, -0.765, 0.765, 0.644, 14.722, 70.452)"/>
          <circle id="Ellipse_172" data-name="Ellipse 172" class="cls-7" cx="1.269" cy="1.269" r="1.269" transform="translate(17.499 73.828) rotate(-49.855)"/>
        </g>
        <g id="Group_1751" data-name="Group 1751" transform="translate(91.366 67.078)">
          <path id="Path_2248" data-name="Path 2248" class="cls-4" d="M144,173.2s58.7,17.2,58.891-51.276L188.8,121.1s4.569,47.849-35.474,42.392Z" transform="translate(-144 -121.1)"/>
          <circle id="Ellipse_173" data-name="Ellipse 173" class="cls-7" cx="1.269" cy="1.269" r="1.269" transform="matrix(0.994, -0.113, 0.113, 0.994, 54.251, 6.812)"/>
          <circle id="Ellipse_174" data-name="Ellipse 174" class="cls-7" cx="1.269" cy="1.269" r="1.269" transform="matrix(0.994, -0.113, 0.113, 0.994, 54.5, 2.431)"/>
        </g>
        <path id="Path_2249" data-name="Path 2249" class="cls-1" d="M119,392.006v8.313h3.236l.571-2.348a21.478,21.478,0,0,0,9.9,2.348c9.2,0,0-7.869-5.267-9.519,0,0,6.6,2.665,4.379,4.76C128.329,398.859,119,392.006,119,392.006Z" transform="translate(-43.499 -152.57)"/>
      </g>
      <path id="Path_2250" data-name="Path 2250" class="cls-7" d="M111.5,198.694l12.756-8.631-3.49-4.633,5.521-2.919-1.713-3.681-3.808-2.031Z" transform="translate(-40.759 -66.823)"/>
      <path id="Path_2251" data-name="Path 2251" class="cls-7" d="M102.986,198.694l-12.756-8.631,3.427-4.633L88.2,182.511l1.65-3.681,3.808-2.031Z" transform="translate(-32.245 -66.823)"/>
      <path id="Path_2252" data-name="Path 2252" class="cls-3" d="M133.656,287.684h0a9.479,9.479,0,0,1-9.456-9.456V268.9h18.911v9.329A9.439,9.439,0,0,1,133.656,287.684Z" transform="translate(-45.4 -100.476)"/>
      <path id="Path_2253" data-name="Path 2253" class="cls-1" d="M98.538,95.265c0,3.871-1.333,5.965-2.919,5.965S92.7,99.136,92.7,95.265,94.033,89.3,95.619,89.3,98.538,91.394,98.538,95.265Z" transform="translate(-33.89 -34.851)"/>
      <path id="Path_2254" data-name="Path 2254" class="cls-1" d="M158.338,95.265c0,3.871-1.333,5.965-2.919,5.965s-2.919-2.094-2.919-5.965,1.333-5.965,2.919-5.965S158.338,91.394,158.338,95.265Z" transform="translate(-55.74 -34.851)"/>
      <path id="Path_2255" data-name="Path 2255" class="cls-8" d="M129.038,134.165c0,3.871-1.333,5.965-2.919,5.965s-2.919-2.094-2.919-5.965,1.333-5.965,2.919-5.965S129.038,130.294,129.038,134.165Z" transform="translate(-45.034 -49.065)"/>
      <path id="Path_2256" data-name="Path 2256" class="cls-1" d="M56.043,58.71l.381-13.073s37.949,7.234,71.9-.7A45.7,45.7,0,0,0,82.379,3.5c-57.939,0-59.018,53.5-46.2,97.856,16.246,6.917,28.43,7.615,28.43,7.615-8.123-15.23-8.631-41.947-8.631-41.947s-8.5,3.554-7.806-5.648C48.618,55.03,56.043,58.71,56.043,58.71Z" transform="translate(-10.813 -3.5)"/>
      <g id="Group_1753" data-name="Group 1753" transform="translate(51.886 112.515)">
        <path id="Path_2257" data-name="Path 2257" class="cls-3" d="M127.244,204.978l-.19-.063c.508-2.538,2.729-13.454,2.221-23.1a1.048,1.048,0,1,0-2.094.063c.508,9.329-1.65,20.18-2.158,22.592-2.665-.508-10.09-.7-14.786,12.565-4.442,12.5,2.221,15.992,4.061,16.69,0,.444.317.762,1.206.952,1.079.254,1.269-.317,1.587-1.079.254-.762-.19-1.333-1.015-1.587a1.144,1.144,0,0,0-1.333.381c-1.713-.571-6.473-3.173-2.919-14.85.063-.127.063-.254.127-.317,1.46-2.665,5.331-8.059,12.311-5.9,6.6,2.031,7.742,7.044,7.869,9.709a.8.8,0,0,1-.063.381c-1.46,11.169-7.234,12.565-9.329,12.692a1.076,1.076,0,0,0-.888-.888c-.825-.127-1.4-.254-1.713.825s-.063,1.523.571,1.65c.508.127,1.333.317,1.777-.254,3.744.254,9.392-1.9,11.106-13.517C135.367,208.659,129.846,205.676,127.244,204.978Zm-3.11,5.521a9.818,9.818,0,0,0-11.232,3.935c4.633-10.471,12.819-7.869,12.819-7.869s6.79.888,6.473,11.74C131.75,215.957,130.036,212.213,124.134,210.5Z" transform="translate(-91.636 -180.8)"/>
        <path id="Path_2258" data-name="Path 2258" class="cls-3" d="M91.505,212.022a4.253,4.253,0,0,0-1.269,0c-1.967-7.742-5.2-20.878-6.346-28.938a1.059,1.059,0,0,0-2.094.317c1.142,8.123,4.379,21.386,6.346,29.192a6.458,6.458,0,1,0,9.075,6.536A6.387,6.387,0,0,0,91.505,212.022Z" transform="translate(-81.789 -181.308)"/>
      </g>
      <g id="Group_1760" data-name="Group 1760" transform="translate(53.867 135.233)">
        <g id="Group_1754" data-name="Group 1754" transform="translate(17.572 5.75)">
          <path id="Path_2259" data-name="Path 2259" class="cls-9" d="M133.352,238.313a10.441,10.441,0,0,0-7.806-11.423c-9.138-2.792-12.946,7.3-12.946,7.3v-1.206s3.681-9.519,12.946-6.854c9.011,2.6,8.186,10.027,8.186,10.027Z" transform="translate(-112.6 -225.658)"/>
        </g>
        <g id="Group_1755" data-name="Group 1755" transform="translate(15.048)">
          <path id="Path_2260" data-name="Path 2260" class="cls-1" d="M127.2,217.234l-1.9-.381c-2.285-.571-10.217-1.4-15.167,12.438-5.14,14.406,4.506,16.88,4.506,16.88l.508-1.333s-7.742-.952-3.427-15.04c4.252-14.025,13.961-10.979,13.961-10.979s8,1.015,6.219,14.786-10.154,12.629-10.154,12.629L121.3,247.5c3.681.7,10.154-.762,11.994-13.39C135.325,220.914,129.8,217.932,127.2,217.234Z" transform="translate(-108.623 -216.598)"/>
        </g>
        <g id="Group_1756" data-name="Group 1756" transform="translate(0 6.477)">
          <circle id="Ellipse_175" data-name="Ellipse 175" class="cls-9" cx="6.473" cy="6.473" r="6.473" transform="translate(0 12.879) rotate(-84.163)"/>
        </g>
        <g id="Group_1757" data-name="Group 1757" transform="translate(3.201 9.678)">
          <circle id="Ellipse_176" data-name="Ellipse 176" class="cls-10" cx="3.554" cy="3.554" r="3.554" transform="translate(0 7.071) rotate(-84.163)"/>
        </g>
        <g id="Group_1758" data-name="Group 1758" transform="translate(26.256 28.794)">
          <path id="Path_2261" data-name="Path 2261" class="cls-9" d="M128.96,263.7c.19-.888-.063-1.523-.825-1.65-.825-.127-1.4-.254-1.713.825s-.063,1.523.571,1.65C127.627,264.718,128.706,264.908,128.96,263.7Z" transform="translate(-126.285 -261.97)"/>
        </g>
        <g id="Group_1759" data-name="Group 1759" transform="translate(20.588 27.61)">
          <path id="Path_2262" data-name="Path 2262" class="cls-9" d="M119.16,260.165c.888.254,1.333.762,1.015,1.587-.254.762-.444,1.333-1.587,1.079-1.079-.254-1.333-.7-1.206-1.333C117.573,260.864,117.954,259.848,119.16,260.165Z" transform="translate(-117.353 -260.106)"/>
        </g>
      </g>
      <g id="Group_1761" data-name="Group 1761" transform="translate(51.95 112.572)">
        <path id="Path_2263" data-name="Path 2263" class="cls-1" d="M90.907,218.211a1.086,1.086,0,0,1-1.015-.762c-.063-.254-6.346-23.417-8-35.347a1.073,1.073,0,0,1,.888-1.206,1.111,1.111,0,0,1,1.206.888c1.65,11.8,7.869,34.84,7.933,35.094a1.038,1.038,0,0,1-.762,1.269C91.1,218.147,90.971,218.211,90.907,218.211Z" transform="translate(-81.889 -180.889)"/>
      </g>
      <g id="Group_1762" data-name="Group 1762" transform="translate(85.059 111.812)">
        <path id="Path_2264" data-name="Path 2264" class="cls-1" d="M135.165,205.081h-.254a1.078,1.078,0,0,1-.825-1.269c0-.127,2.856-12.629,2.285-23.036a1.057,1.057,0,0,1,1.015-1.079,1.017,1.017,0,0,1,1.079,1.015c.571,10.788-2.221,23.1-2.348,23.671C136.117,204.7,135.672,205.081,135.165,205.081Z" transform="translate(-134.061 -179.692)"/>
      </g>
      <rect id="Rectangle_179" data-name="Rectangle 179" class="cls-11" width="18.911" height="4.442" transform="translate(78.8 168.424)"/>
    </g>
    <g id="Group_1791" data-name="Group 1791" transform="translate(195.531)">
      <rect id="Rectangle_180" data-name="Rectangle 180" class="cls-12" width="14.786" height="157.255" transform="translate(52.355 96.206)"/>
      <g id="Group_1790" data-name="Group 1790">
        <path id="Path_2265" data-name="Path 2265" class="cls-13" d="M326.757,0h82.181A18.688,18.688,0,0,1,427.6,18.657v82.181A18.688,18.688,0,0,1,408.939,119.5H326.757A18.688,18.688,0,0,1,308.1,100.839V18.657A18.688,18.688,0,0,1,326.757,0Zm0,0" transform="translate(-308.1)"/>
        <path id="Path_2266" data-name="Path 2266" class="cls-14" d="M331.033,11.8h82.181a11.253,11.253,0,0,1,11.233,11.232v61.62a11.253,11.253,0,0,1-11.233,11.232H331.033A11.253,11.253,0,0,1,319.8,84.653V22.969A11.281,11.281,0,0,1,331.033,11.8Zm0,0" transform="translate(-312.375 -4.312)"/>
        <path id="Path_2267" data-name="Path 2267" class="cls-15" d="M336.188,20.6h78.374a7.5,7.5,0,0,1,7.488,7.488V85.964a7.5,7.5,0,0,1-7.488,7.488H336.188a7.5,7.5,0,0,1-7.488-7.488V28.088a7.5,7.5,0,0,1,7.488-7.488Zm0,0" transform="translate(-315.627 -7.527)"/>
        <path id="Path_2268" data-name="Path 2268" class="cls-16" d="M347.036,155.9a6.536,6.536,0,1,1-6.536,6.536,6.527,6.527,0,0,1,6.536-6.536Zm0,0" transform="translate(-319.939 -56.965)"/>
        <path id="Path_2269" data-name="Path 2269" class="cls-17" d="M349.192,161.8a2.792,2.792,0,1,1-2.792,2.792,2.817,2.817,0,0,1,2.792-2.792Zm0,0" transform="translate(-322.095 -59.121)"/>
        <path id="Path_2270" data-name="Path 2270" class="cls-18" d="M380.4,158.9a4.7,4.7,0,1,0,4.7,4.7,4.646,4.646,0,0,0-4.7-4.7Zm14.977,0a4.7,4.7,0,1,0,4.7,4.7,4.646,4.646,0,0,0-4.7-4.7Zm14.913,0a4.7,4.7,0,1,0,4.7,4.7,4.646,4.646,0,0,0-4.7-4.7Zm14.913,0a4.7,4.7,0,1,0,4.7,4.7,4.646,4.646,0,0,0-4.7-4.7Zm0,0" transform="translate(-332.801 -58.061)"/>
        <g id="Group_1789" data-name="Group 1789" transform="translate(13.263 12.819)">
          <g id="Group_1788" data-name="Group 1788" class="cls-19">
            <g id="Group_1765" data-name="Group 1765" transform="translate(-1.523 -2.856)">
              <g id="Group_1764" data-name="Group 1764">
                <path id="Path_2271" data-name="Path 2271" class="cls-20" d="M334.85,15.7a.548.548,0,0,0-.381.19l-1.65,1.65a.538.538,0,0,0,.762.762h0l.7-.7v4.633H333.2a.54.54,0,0,0-.063,1.079h2.729a.54.54,0,0,0,.063-1.079h-.571V16.208c.063-.254-.19-.508-.508-.508Zm6.029,0a.549.549,0,0,0-.381.19l-1.65,1.65a.538.538,0,1,0,.762.762h0l.7-.7v4.633h-1.079a.54.54,0,1,0-.063,1.079h2.729a.54.54,0,1,0,.063-1.079h-.508V16.208a.559.559,0,0,0-.571-.508Zm-12.311,0a1.909,1.909,0,0,0-1.9,1.9v3.808a1.9,1.9,0,1,0,3.808,0V17.6a1.952,1.952,0,0,0-1.9-1.9Zm18.086,0a1.909,1.909,0,0,0-1.9,1.9v3.808a1.9,1.9,0,1,0,3.808,0V17.6a1.952,1.952,0,0,0-1.9-1.9Zm6.029,0a1.909,1.909,0,0,0-1.9,1.9v3.808a1.9,1.9,0,1,0,3.808,0V17.6a1.952,1.952,0,0,0-1.9-1.9Zm-24.115,1.079a.84.84,0,0,1,.825.825v3.808a.825.825,0,1,1-1.65,0V17.6a.8.8,0,0,1,.825-.825Zm18.086,0a.84.84,0,0,1,.825.825v3.808a.825.825,0,1,1-1.65,0V17.6a.8.8,0,0,1,.825-.825Zm6.029,0a.84.84,0,0,1,.825.825v3.808a.825.825,0,1,1-1.65,0V17.6a.8.8,0,0,1,.825-.825Zm-23.861,8.758a.549.549,0,0,0-.381.19l-1.65,1.65a.538.538,0,0,0,.762.762l.7-.7v4.7h-1.079a.54.54,0,0,0-.063,1.079h2.729a.54.54,0,1,0,.063-1.079h-.508V26.108a.569.569,0,0,0-.571-.571Zm12.057,0a.549.549,0,0,0-.381.19l-1.65,1.65a.538.538,0,1,0,.762.762h0l.7-.7v4.7h-1.079a.54.54,0,1,0-.063,1.079h2.729a.54.54,0,1,0,.063-1.079h-.508V26.108a.569.569,0,0,0-.571-.571Zm6.029,0a.549.549,0,0,0-.381.19l-1.65,1.65a.538.538,0,1,0,.762.762h0l.7-.7v4.7h-1.079a.54.54,0,1,0-.063,1.079h2.729a.54.54,0,1,0,.063-1.079h-.571V26.108a.486.486,0,0,0-.508-.571Zm-12.311,0a1.909,1.909,0,0,0-1.9,1.9v3.808a1.9,1.9,0,1,0,3.808,0V27.44a1.952,1.952,0,0,0-1.9-1.9Zm18.086,0a1.909,1.909,0,0,0-1.9,1.9v3.808a1.9,1.9,0,1,0,3.808,0V27.44a1.952,1.952,0,0,0-1.9-1.9ZM334.6,26.679a.84.84,0,0,1,.825.825v3.808a.825.825,0,1,1-1.65,0V27.5a.767.767,0,0,1,.825-.825Zm18.086,0a.84.84,0,0,1,.825.825v3.808a.825.825,0,1,1-1.65,0V27.5a.767.767,0,0,1,.825-.825Zm-23.861,8.694a.549.549,0,0,0-.381.19l-1.65,1.65a.538.538,0,0,0,.762.762l.7-.7v4.7h-1.079a.54.54,0,0,0-.063,1.079h2.729a.54.54,0,1,0,.063-1.079h-.508V35.944a.569.569,0,0,0-.571-.571Zm6.029,0a.548.548,0,0,0-.381.19l-1.65,1.65a.538.538,0,0,0,.762.762l.7-.7v4.7H333.2a.54.54,0,0,0-.063,1.079h2.729a.54.54,0,0,0,.063-1.079h-.571V35.944a.486.486,0,0,0-.508-.571Zm6.029,0a.549.549,0,0,0-.381.19l-1.65,1.65a.538.538,0,1,0,.762.762h0l.7-.7v4.7h-1.079a.54.54,0,1,0-.063,1.079h2.729a.54.54,0,1,0,.063-1.079h-.508V35.944a.569.569,0,0,0-.571-.571Zm6.029,0a.549.549,0,0,0-.381.19l-1.65,1.65a.538.538,0,1,0,.762.762h0l.7-.7v4.7h-1.079a.54.54,0,1,0-.063,1.079h2.729a.54.54,0,1,0,.063-1.079h-.571V35.944a.486.486,0,0,0-.508-.571Zm5.775,0a1.909,1.909,0,0,0-1.9,1.9v3.808a1.9,1.9,0,1,0,3.808,0V37.277a1.952,1.952,0,0,0-1.9-1.9Zm0,1.142a.84.84,0,0,1,.825.825v3.808a.825.825,0,1,1-1.65,0V37.34a.767.767,0,0,1,.825-.825Zm0,0" transform="translate(-326.6 -15.7)"/>
              </g>
            </g>
            <g id="Group_1767" data-name="Group 1767" transform="translate(28.05 -2.856)">
              <g id="Group_1766" data-name="Group 1766">
                <path id="Path_2272" data-name="Path 2272" class="cls-20" d="M381.45,15.7a.549.549,0,0,0-.381.19l-1.65,1.65a.538.538,0,1,0,.762.762h0l.7-.7v4.633H379.8a.54.54,0,0,0-.063,1.079h2.729a.54.54,0,0,0,.063-1.079h-.571V16.208a.5.5,0,0,0-.508-.508Zm6.029,0a.549.549,0,0,0-.381.19l-1.65,1.65a.538.538,0,1,0,.762.762h0l.7-.7v4.633h-1.079a.54.54,0,0,0-.063,1.079h2.729a.54.54,0,0,0,.063-1.079h-.571V16.208a.5.5,0,0,0-.508-.508Zm-12.311,0a1.909,1.909,0,0,0-1.9,1.9v3.808a1.9,1.9,0,1,0,3.808,0V17.6a1.952,1.952,0,0,0-1.9-1.9Zm18.086,0a1.909,1.909,0,0,0-1.9,1.9v3.808a1.9,1.9,0,1,0,3.808,0V17.6a1.952,1.952,0,0,0-1.9-1.9Zm6.029,0a1.909,1.909,0,0,0-1.9,1.9v3.808a1.9,1.9,0,1,0,3.808,0V17.6a1.952,1.952,0,0,0-1.9-1.9Zm-24.115,1.079a.84.84,0,0,1,.825.825v3.808a.825.825,0,1,1-1.65,0V17.6a.8.8,0,0,1,.825-.825Zm18.086,0a.84.84,0,0,1,.825.825v3.808a.825.825,0,1,1-1.65,0V17.6a.8.8,0,0,1,.825-.825Zm6.029,0a.84.84,0,0,1,.825.825v3.808a.825.825,0,1,1-1.65,0V17.6a.8.8,0,0,1,.825-.825Zm-23.861,8.758a.549.549,0,0,0-.381.19l-1.65,1.65a.538.538,0,0,0,.762.762l.7-.7v4.7h-1.079a.54.54,0,1,0-.063,1.079h2.729a.54.54,0,1,0,.063-1.079h-.571V26.108a.518.518,0,0,0-.508-.571Zm12.057,0a.549.549,0,0,0-.381.19l-1.65,1.65a.538.538,0,1,0,.762.762h0l.7-.7v4.7h-1.079a.54.54,0,0,0-.063,1.079h2.729a.54.54,0,0,0,.063-1.079h-.571V26.108a.518.518,0,0,0-.508-.571Zm6.029,0a.548.548,0,0,0-.381.19l-1.65,1.65a.538.538,0,0,0,.762.762h0l.7-.7v4.7h-1.079a.54.54,0,0,0-.063,1.079h2.729a.54.54,0,0,0,.063-1.079h-.571V26.108a.518.518,0,0,0-.508-.571Zm-12.311,0a1.909,1.909,0,0,0-1.9,1.9v3.808a1.9,1.9,0,0,0,3.808,0V27.44a1.952,1.952,0,0,0-1.9-1.9Zm18.086,0a1.909,1.909,0,0,0-1.9,1.9v3.808a1.9,1.9,0,1,0,3.808,0V27.44a1.952,1.952,0,0,0-1.9-1.9ZM381.2,26.679a.84.84,0,0,1,.825.825v3.808a.825.825,0,1,1-1.65,0V27.5a.767.767,0,0,1,.825-.825Zm18.086,0a.84.84,0,0,1,.825.825v3.808a.825.825,0,1,1-1.65,0V27.5a.767.767,0,0,1,.825-.825Zm-23.861,8.694a.549.549,0,0,0-.381.19l-1.65,1.65a.538.538,0,0,0,.762.762l.7-.7v4.7h-1.079a.54.54,0,1,0-.063,1.079h2.729a.54.54,0,1,0,.063-1.079h-.571V35.944a.518.518,0,0,0-.508-.571Zm6.029,0a.549.549,0,0,0-.381.19l-1.65,1.65a.538.538,0,1,0,.762.762l.7-.7v4.7H379.8a.54.54,0,0,0-.063,1.079h2.729a.54.54,0,0,0,.063-1.079h-.571V35.944a.518.518,0,0,0-.508-.571Zm6.029,0a.549.549,0,0,0-.381.19l-1.65,1.65a.538.538,0,1,0,.762.762h0l.7-.7v4.7h-1.079a.54.54,0,0,0-.063,1.079h2.729a.54.54,0,0,0,.063-1.079h-.571V35.944a.518.518,0,0,0-.508-.571Zm6.029,0a.548.548,0,0,0-.381.19l-1.65,1.65a.538.538,0,0,0,.762.762h0l.7-.7v4.7h-1.079a.54.54,0,0,0-.063,1.079h2.729a.54.54,0,0,0,.063-1.079h-.571V35.944a.518.518,0,0,0-.508-.571Zm5.775,0a1.909,1.909,0,0,0-1.9,1.9v3.808a1.9,1.9,0,1,0,3.808,0V37.277a1.952,1.952,0,0,0-1.9-1.9Zm0,1.142a.84.84,0,0,1,.825.825v3.808a.825.825,0,1,1-1.65,0V37.34a.767.767,0,0,1,.825-.825Zm0,0" transform="translate(-373.2 -15.7)"/>
              </g>
            </g>
            <g id="Group_1769" data-name="Group 1769" transform="translate(-1.523 26.082)">
              <g id="Group_1768" data-name="Group 1768">
                <path id="Path_2273" data-name="Path 2273" class="cls-20" d="M334.85,61.3a.548.548,0,0,0-.381.19l-1.65,1.65a.538.538,0,0,0,.762.762h0l.7-.7v4.7H333.2a.54.54,0,0,0-.063,1.079h2.729a.54.54,0,0,0,.063-1.079h-.571V61.871a.486.486,0,0,0-.508-.571Zm6.029,0a.549.549,0,0,0-.381.19l-1.65,1.65a.538.538,0,1,0,.762.762h0l.7-.7v4.7h-1.079a.54.54,0,1,0-.063,1.079h2.729a.54.54,0,0,0,.063-1.079h-.508V61.871a.569.569,0,0,0-.571-.571Zm-12.311,0a1.909,1.909,0,0,0-1.9,1.9v3.808a1.9,1.9,0,0,0,3.808,0V63.2a1.909,1.909,0,0,0-1.9-1.9Zm18.086,0a1.909,1.909,0,0,0-1.9,1.9v3.808a1.9,1.9,0,0,0,3.808,0V63.2a1.909,1.909,0,0,0-1.9-1.9Zm6.029,0a1.909,1.909,0,0,0-1.9,1.9v3.808a1.9,1.9,0,0,0,3.808,0V63.2a1.909,1.909,0,0,0-1.9-1.9Zm-24.115,1.079a.84.84,0,0,1,.825.825v3.808a.825.825,0,0,1-1.65,0V63.2a.8.8,0,0,1,.825-.825Zm18.086,0a.84.84,0,0,1,.825.825v3.808a.825.825,0,1,1-1.65,0V63.2a.8.8,0,0,1,.825-.825Zm6.029,0a.84.84,0,0,1,.825.825v3.808a.825.825,0,1,1-1.65,0V63.2a.8.8,0,0,1,.825-.825Zm-23.861,8.758a.549.549,0,0,0-.381.19l-1.65,1.65a.538.538,0,0,0,.762.762l.7-.7v4.7h-1.079a.54.54,0,0,0-.063,1.079h2.729a.54.54,0,0,0,.063-1.079h-.508V71.708a.569.569,0,0,0-.571-.571Zm12.057,0a.549.549,0,0,0-.381.19l-1.65,1.65a.538.538,0,1,0,.762.762h0l.7-.7v4.7h-1.079a.54.54,0,1,0-.063,1.079h2.729a.54.54,0,0,0,.063-1.079h-.508V71.708a.569.569,0,0,0-.571-.571Zm6.029,0a.549.549,0,0,0-.381.19l-1.65,1.65a.538.538,0,1,0,.762.762h0l.7-.7v4.7h-1.079a.54.54,0,1,0-.063,1.079h2.729a.54.54,0,1,0,.063-1.079h-.571V71.708a.486.486,0,0,0-.508-.571Zm-12.311,0a1.909,1.909,0,0,0-1.9,1.9v3.808a1.9,1.9,0,1,0,3.808,0V73.04a1.952,1.952,0,0,0-1.9-1.9Zm18.086,0a1.909,1.909,0,0,0-1.9,1.9v3.808a1.9,1.9,0,1,0,3.808,0V73.04a1.952,1.952,0,0,0-1.9-1.9ZM334.6,72.215a.84.84,0,0,1,.825.825v3.808a.825.825,0,1,1-1.65,0V73.04a.8.8,0,0,1,.825-.825Zm18.086,0a.84.84,0,0,1,.825.825v3.808a.825.825,0,1,1-1.65,0V73.04a.8.8,0,0,1,.825-.825Zm-23.861,8.758a.549.549,0,0,0-.381.19l-1.65,1.65a.538.538,0,0,0,.762.762l.7-.7v4.7h-1.079a.54.54,0,0,0-.063,1.079h2.729a.54.54,0,0,0,.063-1.079h-.508V81.544a.569.569,0,0,0-.571-.571Zm6.029,0a.548.548,0,0,0-.381.19l-1.65,1.65a.538.538,0,0,0,.762.762l.7-.7v4.7H333.2a.54.54,0,0,0-.063,1.079h2.729a.54.54,0,0,0,.063-1.079h-.571V81.544a.486.486,0,0,0-.508-.571Zm6.029,0a.549.549,0,0,0-.381.19l-1.65,1.65a.538.538,0,1,0,.762.762h0l.7-.7v4.7h-1.079a.54.54,0,1,0-.063,1.079h2.729a.54.54,0,0,0,.063-1.079h-.508V81.544a.569.569,0,0,0-.571-.571Zm6.029,0a.549.549,0,0,0-.381.19l-1.65,1.65a.538.538,0,1,0,.762.762h0l.7-.7v4.7h-1.079a.54.54,0,1,0-.063,1.079h2.729a.54.54,0,1,0,.063-1.079h-.571V81.544a.486.486,0,0,0-.508-.571Zm5.775,0a1.909,1.909,0,0,0-1.9,1.9v3.808a1.9,1.9,0,0,0,3.808,0V82.877a1.952,1.952,0,0,0-1.9-1.9Zm0,1.079a.84.84,0,0,1,.825.825v3.808a.825.825,0,1,1-1.65,0V82.877a.8.8,0,0,1,.825-.825Zm0,0" transform="translate(-326.6 -61.3)"/>
              </g>
            </g>
            <g id="Group_1771" data-name="Group 1771" transform="translate(28.05 26.082)">
              <g id="Group_1770" data-name="Group 1770">
                <path id="Path_2274" data-name="Path 2274" class="cls-20" d="M381.45,61.3a.549.549,0,0,0-.381.19l-1.65,1.65a.538.538,0,1,0,.762.762h0l.7-.7v4.7H379.8a.54.54,0,0,0-.063,1.079h2.729a.54.54,0,0,0,.063-1.079h-.571V61.871a.518.518,0,0,0-.508-.571Zm6.029,0a.549.549,0,0,0-.381.19l-1.65,1.65a.538.538,0,1,0,.762.762h0l.7-.7v4.7h-1.079a.54.54,0,0,0-.063,1.079h2.729a.54.54,0,0,0,.063-1.079h-.571V61.871a.518.518,0,0,0-.508-.571Zm-12.311,0a1.909,1.909,0,0,0-1.9,1.9v3.808a1.9,1.9,0,0,0,3.808,0V63.2a1.909,1.909,0,0,0-1.9-1.9Zm18.086,0a1.909,1.909,0,0,0-1.9,1.9v3.808a1.9,1.9,0,0,0,3.808,0V63.2a1.909,1.909,0,0,0-1.9-1.9Zm6.029,0a1.909,1.909,0,0,0-1.9,1.9v3.808a1.9,1.9,0,0,0,3.808,0V63.2a1.909,1.909,0,0,0-1.9-1.9Zm-24.115,1.079a.84.84,0,0,1,.825.825v3.808a.825.825,0,1,1-1.65,0V63.2a.8.8,0,0,1,.825-.825Zm18.086,0a.84.84,0,0,1,.825.825v3.808a.825.825,0,1,1-1.65,0V63.2a.8.8,0,0,1,.825-.825Zm6.029,0a.84.84,0,0,1,.825.825v3.808a.825.825,0,1,1-1.65,0V63.2a.8.8,0,0,1,.825-.825Zm-23.861,8.758a.549.549,0,0,0-.381.19l-1.65,1.65a.538.538,0,0,0,.762.762l.7-.7v4.7h-1.079a.54.54,0,1,0-.063,1.079h2.729a.54.54,0,1,0,.063-1.079h-.571V71.708a.518.518,0,0,0-.508-.571Zm12.057,0a.549.549,0,0,0-.381.19l-1.65,1.65a.538.538,0,1,0,.762.762h0l.7-.7v4.7h-1.079a.54.54,0,0,0-.063,1.079h2.729a.54.54,0,0,0,.063-1.079h-.571V71.708a.518.518,0,0,0-.508-.571Zm6.029,0a.548.548,0,0,0-.381.19l-1.65,1.65a.538.538,0,0,0,.762.762h0l.7-.7v4.7h-1.079a.54.54,0,0,0-.063,1.079h2.729a.54.54,0,0,0,.063-1.079h-.571V71.708a.518.518,0,0,0-.508-.571Zm-12.311,0a1.909,1.909,0,0,0-1.9,1.9v3.808a1.9,1.9,0,0,0,3.808,0V73.04a1.952,1.952,0,0,0-1.9-1.9Zm18.086,0a1.909,1.909,0,0,0-1.9,1.9v3.808a1.9,1.9,0,1,0,3.808,0V73.04a1.952,1.952,0,0,0-1.9-1.9ZM381.2,72.215a.84.84,0,0,1,.825.825v3.808a.825.825,0,1,1-1.65,0V73.04a.8.8,0,0,1,.825-.825Zm18.086,0a.84.84,0,0,1,.825.825v3.808a.825.825,0,1,1-1.65,0V73.04a.8.8,0,0,1,.825-.825Zm-23.861,8.758a.549.549,0,0,0-.381.19l-1.65,1.65a.538.538,0,0,0,.762.762l.7-.7v4.7h-1.079a.54.54,0,0,0-.063,1.079h2.729a.54.54,0,1,0,.063-1.079h-.571V81.544a.518.518,0,0,0-.508-.571Zm6.029,0a.549.549,0,0,0-.381.19l-1.65,1.65a.538.538,0,1,0,.762.762l.7-.7v4.7H379.8a.54.54,0,0,0-.063,1.079h2.729a.54.54,0,0,0,.063-1.079h-.571V81.544a.518.518,0,0,0-.508-.571Zm6.029,0a.549.549,0,0,0-.381.19l-1.65,1.65a.538.538,0,1,0,.762.762h0l.7-.7v4.7h-1.079a.54.54,0,0,0-.063,1.079h2.729a.54.54,0,0,0,.063-1.079h-.571V81.544a.518.518,0,0,0-.508-.571Zm6.029,0a.548.548,0,0,0-.381.19l-1.65,1.65a.538.538,0,0,0,.762.762h0l.7-.7v4.7h-1.079a.54.54,0,0,0-.063,1.079h2.729a.54.54,0,0,0,.063-1.079h-.571V81.544a.518.518,0,0,0-.508-.571Zm5.775,0a1.909,1.909,0,0,0-1.9,1.9v3.808a1.9,1.9,0,0,0,3.808,0V82.877a1.952,1.952,0,0,0-1.9-1.9Zm0,1.079a.84.84,0,0,1,.825.825v3.808a.825.825,0,1,1-1.65,0V82.877a.8.8,0,0,1,.825-.825Zm0,0" transform="translate(-373.2 -61.3)"/>
              </g>
            </g>
            <g id="Group_1773" data-name="Group 1773" transform="translate(-1.523 54.893)">
              <g id="Group_1772" data-name="Group 1772">
                <path id="Path_2275" data-name="Path 2275" class="cls-20" d="M334.85,106.7a.548.548,0,0,0-.381.19l-1.65,1.65a.538.538,0,1,0,.762.762h0l.7-.7v4.7H333.2a.54.54,0,0,0-.063,1.079h2.729a.54.54,0,0,0,.063-1.079h-.571v-6.029a.486.486,0,0,0-.508-.571Zm6.029,0a.549.549,0,0,0-.381.19l-1.65,1.65a.538.538,0,1,0,.762.762h0l.7-.7v4.7h-1.079a.54.54,0,1,0-.063,1.079h2.729a.54.54,0,1,0,.063-1.079h-.508v-6.029a.569.569,0,0,0-.571-.571Zm-12.311,0a1.909,1.909,0,0,0-1.9,1.9v3.808a1.9,1.9,0,1,0,3.808,0V108.6a1.909,1.909,0,0,0-1.9-1.9Zm18.086,0a1.909,1.909,0,0,0-1.9,1.9v3.808a1.9,1.9,0,1,0,3.808,0V108.6a1.909,1.909,0,0,0-1.9-1.9Zm6.029,0a1.909,1.909,0,0,0-1.9,1.9v3.808a1.9,1.9,0,1,0,3.808,0V108.6a1.909,1.909,0,0,0-1.9-1.9Zm-24.115,1.079a.84.84,0,0,1,.825.825v3.808a.825.825,0,1,1-1.65,0V108.6a.8.8,0,0,1,.825-.825Zm18.086,0a.84.84,0,0,1,.825.825v3.808a.825.825,0,1,1-1.65,0V108.6a.8.8,0,0,1,.825-.825Zm6.029,0a.84.84,0,0,1,.825.825v3.808a.825.825,0,1,1-1.65,0V108.6a.8.8,0,0,1,.825-.825Zm-23.861,8.758a.548.548,0,0,0-.381.19l-1.65,1.65a.538.538,0,1,0,.762.762l.7-.7v4.7h-1.079a.54.54,0,0,0-.063,1.079h2.729a.54.54,0,0,0,.063-1.079h-.508v-6.029a.569.569,0,0,0-.571-.571Zm12.057,0a.548.548,0,0,0-.381.19l-1.65,1.65a.538.538,0,1,0,.762.762h0l.7-.7v4.7h-1.079a.54.54,0,1,0-.063,1.079h2.729a.54.54,0,0,0,.063-1.079h-.508v-6.029a.569.569,0,0,0-.571-.571Zm6.029,0a.549.549,0,0,0-.381.19l-1.65,1.65a.538.538,0,1,0,.762.762h0l.7-.7v4.7h-1.079a.54.54,0,1,0-.063,1.079h2.729a.54.54,0,1,0,.063-1.079h-.571v-6.029a.486.486,0,0,0-.508-.571Zm-12.311,0a1.909,1.909,0,0,0-1.9,1.9v3.808a1.9,1.9,0,1,0,3.808,0V118.44a1.952,1.952,0,0,0-1.9-1.9Zm18.086,0a1.909,1.909,0,0,0-1.9,1.9v3.808a1.9,1.9,0,0,0,3.808,0V118.44a1.952,1.952,0,0,0-1.9-1.9ZM334.6,117.615a.84.84,0,0,1,.825.825v3.808a.825.825,0,1,1-1.65,0V118.44a.8.8,0,0,1,.825-.825Zm18.086,0a.84.84,0,0,1,.825.825v3.808a.825.825,0,1,1-1.65,0V118.44a.8.8,0,0,1,.825-.825Zm-23.861,8.758a.549.549,0,0,0-.381.19l-1.65,1.65a.538.538,0,1,0,.762.762l.7-.7v4.7h-1.079a.54.54,0,0,0-.063,1.079h2.729a.54.54,0,0,0,.063-1.079h-.508v-6.029a.569.569,0,0,0-.571-.571Zm6.029,0a.548.548,0,0,0-.381.19l-1.65,1.65a.538.538,0,0,0,.762.762l.7-.7v4.7H333.2a.54.54,0,0,0-.063,1.079h2.729a.54.54,0,0,0,.063-1.079h-.571v-6.029a.486.486,0,0,0-.508-.571Zm6.029,0a.549.549,0,0,0-.381.19l-1.65,1.65a.538.538,0,1,0,.762.762h0l.7-.7v4.7h-1.079a.54.54,0,1,0-.063,1.079h2.729a.54.54,0,0,0,.063-1.079h-.508v-6.029a.569.569,0,0,0-.571-.571Zm6.029,0a.549.549,0,0,0-.381.19l-1.65,1.65a.538.538,0,1,0,.762.762h0l.7-.7v4.7h-1.079a.54.54,0,1,0-.063,1.079h2.729a.54.54,0,1,0,.063-1.079h-.571v-6.029a.486.486,0,0,0-.508-.571Zm5.775,0a1.909,1.909,0,0,0-1.9,1.9v3.808a1.9,1.9,0,0,0,3.808,0v-3.808a1.952,1.952,0,0,0-1.9-1.9Zm0,1.079a.84.84,0,0,1,.825.825v3.808a.825.825,0,1,1-1.65,0v-3.808a.8.8,0,0,1,.825-.825Zm0,0" transform="translate(-326.6 -106.7)"/>
              </g>
            </g>
            <g id="Group_1775" data-name="Group 1775" transform="translate(28.05 54.893)">
              <g id="Group_1774" data-name="Group 1774">
                <path id="Path_2276" data-name="Path 2276" class="cls-20" d="M381.45,106.7a.549.549,0,0,0-.381.19l-1.65,1.65a.538.538,0,1,0,.762.762h0l.7-.7v4.7H379.8a.54.54,0,0,0-.063,1.079h2.729a.54.54,0,0,0,.063-1.079h-.571v-6.029a.518.518,0,0,0-.508-.571Zm6.029,0a.549.549,0,0,0-.381.19l-1.65,1.65a.538.538,0,1,0,.762.762h0l.7-.7v4.7h-1.079a.54.54,0,0,0-.063,1.079h2.729a.54.54,0,0,0,.063-1.079h-.571v-6.029a.518.518,0,0,0-.508-.571Zm-12.311,0a1.909,1.909,0,0,0-1.9,1.9v3.808a1.9,1.9,0,1,0,3.808,0V108.6a1.909,1.909,0,0,0-1.9-1.9Zm18.086,0a1.909,1.909,0,0,0-1.9,1.9v3.808a1.9,1.9,0,1,0,3.808,0V108.6a1.909,1.909,0,0,0-1.9-1.9Zm6.029,0a1.909,1.909,0,0,0-1.9,1.9v3.808a1.9,1.9,0,1,0,3.808,0V108.6a1.909,1.909,0,0,0-1.9-1.9Zm-24.115,1.079a.84.84,0,0,1,.825.825v3.808a.825.825,0,1,1-1.65,0V108.6a.8.8,0,0,1,.825-.825Zm18.086,0a.84.84,0,0,1,.825.825v3.808a.825.825,0,1,1-1.65,0V108.6a.8.8,0,0,1,.825-.825Zm6.029,0a.84.84,0,0,1,.825.825v3.808a.825.825,0,1,1-1.65,0V108.6a.8.8,0,0,1,.825-.825Zm-23.861,8.758a.549.549,0,0,0-.381.19l-1.65,1.65a.538.538,0,0,0,.762.762l.7-.7v4.7h-1.079a.559.559,0,0,0-.571.508.61.61,0,0,0,.508.571h2.729a.54.54,0,1,0,.063-1.079h-.571v-6.029a.518.518,0,0,0-.508-.571Zm12.057,0a.548.548,0,0,0-.381.19l-1.65,1.65a.538.538,0,1,0,.762.762h0l.7-.7v4.7h-1.079a.54.54,0,0,0-.063,1.079h2.729a.54.54,0,0,0,.063-1.079h-.571v-6.029a.518.518,0,0,0-.508-.571Zm6.029,0a.548.548,0,0,0-.381.19l-1.65,1.587a.538.538,0,0,0,.762.762h0l.7-.7v4.7h-1.079a.54.54,0,0,0-.063,1.079h2.729a.54.54,0,0,0,.063-1.079h-.571v-6.029a.5.5,0,0,0-.508-.508Zm-12.311,0a1.909,1.909,0,0,0-1.9,1.9v3.808a1.9,1.9,0,0,0,3.808,0V118.44a1.952,1.952,0,0,0-1.9-1.9Zm18.086,0a1.909,1.909,0,0,0-1.9,1.9v3.808a1.9,1.9,0,0,0,3.808,0V118.44a1.952,1.952,0,0,0-1.9-1.9ZM381.2,117.615a.84.84,0,0,1,.825.825v3.808a.825.825,0,1,1-1.65,0V118.44a.8.8,0,0,1,.825-.825Zm18.086,0a.84.84,0,0,1,.825.825v3.808a.825.825,0,1,1-1.65,0V118.44a.8.8,0,0,1,.825-.825Zm-23.861,8.758a.549.549,0,0,0-.381.19l-1.65,1.65a.538.538,0,0,0,.762.762l.7-.7v4.7h-1.079a.54.54,0,0,0-.063,1.079h2.729a.54.54,0,1,0,.063-1.079h-.571v-6.029a.518.518,0,0,0-.508-.571Zm6.029,0a.549.549,0,0,0-.381.19l-1.65,1.65a.538.538,0,1,0,.762.762l.7-.7v4.7H379.8a.54.54,0,0,0-.063,1.079h2.729a.54.54,0,0,0,.063-1.079h-.571v-6.029a.518.518,0,0,0-.508-.571Zm6.029,0a.549.549,0,0,0-.381.19l-1.65,1.65a.538.538,0,1,0,.762.762h0l.7-.7v4.7h-1.079a.54.54,0,0,0-.063,1.079h2.729a.54.54,0,0,0,.063-1.079h-.571v-6.029a.518.518,0,0,0-.508-.571Zm6.029,0a.548.548,0,0,0-.381.19l-1.65,1.65a.538.538,0,0,0,.762.762h0l.7-.7v4.7h-1.079a.54.54,0,0,0-.063,1.079h2.729a.54.54,0,0,0,.063-1.079h-.571v-6.029a.518.518,0,0,0-.508-.571Zm5.775,0a1.909,1.909,0,0,0-1.9,1.9v3.808a1.9,1.9,0,0,0,3.808,0v-3.808a1.952,1.952,0,0,0-1.9-1.9Zm0,1.079a.84.84,0,0,1,.825.825v3.808a.825.825,0,1,1-1.65,0v-3.808a.8.8,0,0,1,.825-.825Zm0,0" transform="translate(-373.2 -106.7)"/>
              </g>
            </g>
            <g id="Group_1777" data-name="Group 1777" transform="translate(57.559 -2.856)">
              <g id="Group_1776" data-name="Group 1776">
                <path id="Path_2277" data-name="Path 2277" class="cls-20" d="M427.95,15.7a.549.549,0,0,0-.381.19l-1.65,1.65a.538.538,0,1,0,.762.762h0l.7-.7v4.633H426.3a.54.54,0,0,0-.063,1.079h2.729a.54.54,0,0,0,.063-1.079h-.571V16.208a.5.5,0,0,0-.508-.508Zm6.029,0a.549.549,0,0,0-.381.19l-1.65,1.65a.538.538,0,1,0,.762.762h0l.7-.7v4.633h-1.079a.54.54,0,0,0-.063,1.079h2.729a.54.54,0,0,0,.063-1.079h-.571V16.208a.5.5,0,0,0-.508-.508Zm-12.375,0a1.909,1.909,0,0,0-1.9,1.9v3.808a1.9,1.9,0,1,0,3.808,0V17.6a1.869,1.869,0,0,0-1.9-1.9Zm18.086,0a1.909,1.909,0,0,0-1.9,1.9v3.808a1.9,1.9,0,1,0,3.808,0V17.6a1.869,1.869,0,0,0-1.9-1.9Zm6.029,0a1.909,1.909,0,0,0-1.9,1.9v3.808a1.9,1.9,0,1,0,3.808,0V17.6a1.869,1.869,0,0,0-1.9-1.9ZM421.6,16.779a.84.84,0,0,1,.825.825v3.808a.825.825,0,1,1-1.65,0V17.6a.887.887,0,0,1,.825-.825Zm18.086,0a.84.84,0,0,1,.825.825v3.808a.825.825,0,1,1-1.65,0V17.6a.887.887,0,0,1,.825-.825Zm6.029,0a.84.84,0,0,1,.825.825v3.808a.825.825,0,1,1-1.65,0V17.6a.887.887,0,0,1,.825-.825Zm-23.8,8.758a.548.548,0,0,0-.381.19l-1.65,1.65a.538.538,0,0,0,.762.762l.7-.7v4.7h-1.079a.54.54,0,1,0-.063,1.079h2.729A.54.54,0,1,0,423,32.136h-.571V26.108a.518.518,0,0,0-.508-.571Zm12.057,0a.549.549,0,0,0-.381.19l-1.65,1.65a.538.538,0,1,0,.762.762h0l.7-.7v4.7h-1.079a.54.54,0,0,0-.063,1.079h2.729a.54.54,0,0,0,.063-1.079h-.571V26.108a.518.518,0,0,0-.508-.571Zm5.965,0a.549.549,0,0,0-.381.19l-1.65,1.65a.538.538,0,0,0,.762.762h0l.7-.7v4.7h-1.079a.54.54,0,0,0-.063,1.079h2.729a.54.54,0,0,0,.063-1.079h-.571V26.108a.46.46,0,0,0-.508-.571Zm-12.311,0a1.909,1.909,0,0,0-1.9,1.9v3.808a1.9,1.9,0,1,0,3.808,0V27.44a1.869,1.869,0,0,0-1.9-1.9Zm18.086,0a1.909,1.909,0,0,0-1.9,1.9v3.808a1.9,1.9,0,1,0,3.808,0V27.44a1.869,1.869,0,0,0-1.9-1.9Zm-18.086,1.142a.84.84,0,0,1,.825.825v3.808a.825.825,0,1,1-1.65,0V27.5a.838.838,0,0,1,.825-.825Zm18.086,0a.84.84,0,0,1,.825.825v3.808a.825.825,0,1,1-1.65,0V27.5a.838.838,0,0,1,.825-.825Zm-23.8,8.694a.548.548,0,0,0-.381.19l-1.65,1.65a.538.538,0,0,0,.762.762l.7-.7v4.7h-1.079a.54.54,0,1,0-.063,1.079h2.729A.54.54,0,1,0,423,41.973h-.571V35.944a.518.518,0,0,0-.508-.571Zm6.029,0a.549.549,0,0,0-.381.19l-1.65,1.65a.538.538,0,1,0,.762.762l.7-.7v4.7H426.3a.54.54,0,0,0-.063,1.079h2.729a.54.54,0,0,0,.063-1.079h-.571V35.944a.518.518,0,0,0-.508-.571Zm6.029,0a.549.549,0,0,0-.381.19l-1.65,1.65a.538.538,0,1,0,.762.762h0l.7-.7v4.7h-1.079a.54.54,0,0,0-.063,1.079h2.729a.54.54,0,0,0,.063-1.079h-.571V35.944a.518.518,0,0,0-.508-.571Zm5.965,0a.549.549,0,0,0-.381.19l-1.65,1.65a.538.538,0,0,0,.762.762h0l.7-.7v4.7h-1.079a.54.54,0,0,0-.063,1.079h2.729a.54.54,0,0,0,.063-1.079h-.571V35.944a.46.46,0,0,0-.508-.571Zm5.775,0a1.909,1.909,0,0,0-1.9,1.9v3.808a1.9,1.9,0,1,0,3.808,0V37.277a1.869,1.869,0,0,0-1.9-1.9Zm0,1.142a.84.84,0,0,1,.825.825v3.808a.825.825,0,1,1-1.65,0V37.34a.838.838,0,0,1,.825-.825Zm0,0" transform="translate(-419.7 -15.7)"/>
              </g>
            </g>
            <g id="Group_1779" data-name="Group 1779" transform="translate(57.559 26.082)">
              <g id="Group_1778" data-name="Group 1778">
                <path id="Path_2278" data-name="Path 2278" class="cls-20" d="M427.95,61.3a.549.549,0,0,0-.381.19l-1.65,1.65a.538.538,0,1,0,.762.762h0l.7-.7v4.7H426.3a.54.54,0,0,0-.063,1.079h2.729a.54.54,0,0,0,.063-1.079h-.571V61.871a.518.518,0,0,0-.508-.571Zm6.029,0a.549.549,0,0,0-.381.19l-1.65,1.65a.538.538,0,1,0,.762.762h0l.7-.7v4.7h-1.079a.54.54,0,0,0-.063,1.079h2.729a.54.54,0,0,0,.063-1.079h-.571V61.871a.518.518,0,0,0-.508-.571Zm-12.375,0a1.909,1.909,0,0,0-1.9,1.9v3.808a1.9,1.9,0,0,0,3.808,0V63.2a1.833,1.833,0,0,0-1.9-1.9Zm18.086,0a1.909,1.909,0,0,0-1.9,1.9v3.808a1.9,1.9,0,0,0,3.808,0V63.2a1.833,1.833,0,0,0-1.9-1.9Zm6.029,0a1.909,1.909,0,0,0-1.9,1.9v3.808a1.9,1.9,0,0,0,3.808,0V63.2a1.833,1.833,0,0,0-1.9-1.9ZM421.6,62.379a.84.84,0,0,1,.825.825v3.808a.825.825,0,0,1-1.65,0V63.2a.887.887,0,0,1,.825-.825Zm18.086,0a.84.84,0,0,1,.825.825v3.808a.825.825,0,1,1-1.65,0V63.2a.887.887,0,0,1,.825-.825Zm6.029,0a.84.84,0,0,1,.825.825v3.808a.825.825,0,1,1-1.65,0V63.2a.887.887,0,0,1,.825-.825Zm-23.8,8.758a.548.548,0,0,0-.381.19l-1.65,1.65a.538.538,0,0,0,.762.762l.7-.7v4.7h-1.079a.54.54,0,1,0-.063,1.079h2.729A.54.54,0,1,0,423,77.736h-.571V71.708a.518.518,0,0,0-.508-.571Zm12.057,0a.549.549,0,0,0-.381.19l-1.65,1.65a.538.538,0,1,0,.762.762h0l.7-.7v4.7h-1.079a.54.54,0,0,0-.063,1.079h2.729a.54.54,0,0,0,.063-1.079h-.571V71.708a.518.518,0,0,0-.508-.571Zm5.965,0a.549.549,0,0,0-.381.19l-1.65,1.65a.538.538,0,0,0,.762.762h0l.7-.7v4.7h-1.079a.54.54,0,0,0-.063,1.079h2.729a.54.54,0,0,0,.063-1.079h-.571V71.708a.46.46,0,0,0-.508-.571Zm-12.311,0a1.909,1.909,0,0,0-1.9,1.9v3.808a1.9,1.9,0,1,0,3.808,0V73.04a1.869,1.869,0,0,0-1.9-1.9Zm18.086,0a1.909,1.909,0,0,0-1.9,1.9v3.808a1.9,1.9,0,1,0,3.808,0V73.04a1.869,1.869,0,0,0-1.9-1.9Zm-18.086,1.079a.84.84,0,0,1,.825.825v3.808a.825.825,0,1,1-1.65,0V73.04a.887.887,0,0,1,.825-.825Zm18.086,0a.84.84,0,0,1,.825.825v3.808a.825.825,0,1,1-1.65,0V73.04a.887.887,0,0,1,.825-.825Zm-23.8,8.758a.548.548,0,0,0-.381.19l-1.65,1.65a.538.538,0,0,0,.762.762l.7-.7v4.7h-1.079a.54.54,0,0,0-.063,1.079h2.729A.54.54,0,0,0,423,87.573h-.571V81.544a.518.518,0,0,0-.508-.571Zm6.029,0a.549.549,0,0,0-.381.19l-1.65,1.65a.538.538,0,1,0,.762.762l.7-.7v4.7H426.3a.54.54,0,0,0-.063,1.079h2.729a.54.54,0,0,0,.063-1.079h-.571V81.544a.518.518,0,0,0-.508-.571Zm6.029,0a.549.549,0,0,0-.381.19l-1.65,1.65a.538.538,0,1,0,.762.762h0l.7-.7v4.7h-1.079a.54.54,0,0,0-.063,1.079h2.729a.54.54,0,0,0,.063-1.079h-.571V81.544a.518.518,0,0,0-.508-.571Zm5.965,0a.549.549,0,0,0-.381.19l-1.65,1.65a.538.538,0,0,0,.762.762h0l.7-.7v4.7h-1.079a.54.54,0,0,0-.063,1.079h2.729a.54.54,0,0,0,.063-1.079h-.571V81.544a.46.46,0,0,0-.508-.571Zm5.775,0a1.909,1.909,0,0,0-1.9,1.9v3.808a1.9,1.9,0,0,0,3.808,0V82.877a1.869,1.869,0,0,0-1.9-1.9Zm0,1.079a.84.84,0,0,1,.825.825v3.808a.825.825,0,1,1-1.65,0V82.877a.887.887,0,0,1,.825-.825Zm0,0" transform="translate(-419.7 -61.3)"/>
              </g>
            </g>
            <g id="Group_1781" data-name="Group 1781" transform="translate(57.559 54.893)">
              <g id="Group_1780" data-name="Group 1780">
                <path id="Path_2279" data-name="Path 2279" class="cls-20" d="M427.95,106.7a.549.549,0,0,0-.381.19l-1.65,1.65a.538.538,0,1,0,.762.762h0l.7-.7v4.7H426.3a.54.54,0,0,0-.063,1.079h2.729a.54.54,0,0,0,.063-1.079h-.571v-6.029a.518.518,0,0,0-.508-.571Zm6.029,0a.549.549,0,0,0-.381.19l-1.65,1.65a.538.538,0,1,0,.762.762h0l.7-.7v4.7h-1.079a.54.54,0,0,0-.063,1.079h2.729a.54.54,0,0,0,.063-1.079h-.571v-6.029a.518.518,0,0,0-.508-.571Zm-12.375,0a1.909,1.909,0,0,0-1.9,1.9v3.808a1.9,1.9,0,1,0,3.808,0V108.6a1.833,1.833,0,0,0-1.9-1.9Zm18.086,0a1.909,1.909,0,0,0-1.9,1.9v3.808a1.9,1.9,0,1,0,3.808,0V108.6a1.833,1.833,0,0,0-1.9-1.9Zm6.029,0a1.909,1.909,0,0,0-1.9,1.9v3.808a1.9,1.9,0,1,0,3.808,0V108.6a1.833,1.833,0,0,0-1.9-1.9ZM421.6,107.779a.84.84,0,0,1,.825.825v3.808a.825.825,0,1,1-1.65,0V108.6a.887.887,0,0,1,.825-.825Zm18.086,0a.84.84,0,0,1,.825.825v3.808a.825.825,0,1,1-1.65,0V108.6a.887.887,0,0,1,.825-.825Zm6.029,0a.84.84,0,0,1,.825.825v3.808a.825.825,0,1,1-1.65,0V108.6a.887.887,0,0,1,.825-.825Zm-23.8,8.758a.548.548,0,0,0-.381.19l-1.65,1.587a.538.538,0,0,0,.762.762l.7-.7v4.7h-1.079a.559.559,0,0,0-.571.508.61.61,0,0,0,.508.571h2.729a.54.54,0,1,0,.063-1.079h-.571v-6.029a.5.5,0,0,0-.508-.508Zm12.057,0a.548.548,0,0,0-.381.19l-1.65,1.587a.538.538,0,1,0,.762.762h0l.7-.7v4.7h-1.079a.54.54,0,0,0-.063,1.079h2.729a.54.54,0,0,0,.063-1.079h-.571v-6.029a.5.5,0,0,0-.508-.508Zm5.965,0a.548.548,0,0,0-.381.19l-1.65,1.65a.538.538,0,0,0,.762.762h0l.7-.7v4.7h-1.079a.54.54,0,0,0-.063,1.079h2.729a.54.54,0,0,0,.063-1.079h-.571v-6.029a.46.46,0,0,0-.508-.571Zm-12.311,0a1.909,1.909,0,0,0-1.9,1.9v3.808a1.9,1.9,0,0,0,3.808,0V118.44a1.869,1.869,0,0,0-1.9-1.9Zm18.086,0a1.909,1.909,0,0,0-1.9,1.9v3.808a1.9,1.9,0,0,0,3.808,0V118.44a1.869,1.869,0,0,0-1.9-1.9Zm-18.086,1.079a.84.84,0,0,1,.825.825v3.808a.825.825,0,1,1-1.65,0V118.44a.887.887,0,0,1,.825-.825Zm18.086,0a.84.84,0,0,1,.825.825v3.808a.825.825,0,1,1-1.65,0V118.44a.887.887,0,0,1,.825-.825Zm-23.8,8.758a.548.548,0,0,0-.381.19l-1.65,1.65a.538.538,0,0,0,.762.762l.7-.7v4.7h-1.079a.54.54,0,0,0-.063,1.079h2.729a.54.54,0,0,0,.063-1.079h-.571v-6.029a.518.518,0,0,0-.508-.571Zm6.029,0a.549.549,0,0,0-.381.19l-1.65,1.65a.538.538,0,1,0,.762.762l.7-.7v4.7H426.3a.54.54,0,0,0-.063,1.079h2.729a.54.54,0,0,0,.063-1.079h-.571v-6.029a.518.518,0,0,0-.508-.571Zm6.029,0a.549.549,0,0,0-.381.19l-1.65,1.65a.538.538,0,1,0,.762.762h0l.7-.7v4.7h-1.079a.54.54,0,0,0-.063,1.079h2.729a.54.54,0,0,0,.063-1.079h-.571v-6.029a.518.518,0,0,0-.508-.571Zm5.965,0a.549.549,0,0,0-.381.19l-1.65,1.65a.538.538,0,0,0,.762.762h0l.7-.7v4.7h-1.079a.54.54,0,0,0-.063,1.079h2.729a.54.54,0,0,0,.063-1.079h-.571v-6.029a.46.46,0,0,0-.508-.571Zm5.775,0a1.909,1.909,0,0,0-1.9,1.9v3.808a1.9,1.9,0,0,0,3.808,0v-3.808a1.869,1.869,0,0,0-1.9-1.9Zm0,1.079a.84.84,0,0,1,.825.825v3.808a.825.825,0,1,1-1.65,0v-3.808a.887.887,0,0,1,.825-.825Zm0,0" transform="translate(-419.7 -106.7)"/>
              </g>
            </g>
            <g id="Group_1783" data-name="Group 1783" transform="translate(86.56 -2.856)">
              <g id="Group_1782" data-name="Group 1782">
                <path id="Path_2280" data-name="Path 2280" class="cls-20" d="M473.65,15.7a.548.548,0,0,0-.381.19l-1.65,1.65a.538.538,0,0,0,.761.762h0l.7-.7v4.633H472a.54.54,0,1,0-.063,1.079h2.729a.54.54,0,0,0,.063-1.079h-.571V16.208a.5.5,0,0,0-.508-.508Zm6.029,0a.548.548,0,0,0-.381.19l-1.65,1.65a.538.538,0,1,0,.762.762h0l.7-.7v4.633h-1.079a.54.54,0,1,0-.063,1.079h2.729a.54.54,0,0,0,.063-1.079h-.571V16.208a.5.5,0,0,0-.508-.508Zm-12.311,0a1.909,1.909,0,0,0-1.9,1.9v3.808a1.9,1.9,0,0,0,3.808,0V17.6a1.952,1.952,0,0,0-1.9-1.9Zm18.086,0a1.909,1.909,0,0,0-1.9,1.9v3.808a1.9,1.9,0,1,0,3.808,0V17.6a1.952,1.952,0,0,0-1.9-1.9Zm6.029,0a1.909,1.909,0,0,0-1.9,1.9v3.808a1.9,1.9,0,1,0,3.808,0V17.6a1.952,1.952,0,0,0-1.9-1.9Zm-24.115,1.079a.84.84,0,0,1,.825.825v3.808a.825.825,0,1,1-1.65,0V17.6a.8.8,0,0,1,.825-.825Zm18.086,0a.84.84,0,0,1,.825.825v3.808a.825.825,0,1,1-1.65,0V17.6a.8.8,0,0,1,.825-.825Zm6.029,0a.84.84,0,0,1,.825.825v3.808a.825.825,0,1,1-1.65,0V17.6a.8.8,0,0,1,.825-.825Zm-23.861,8.758a.548.548,0,0,0-.381.19l-1.65,1.65a.538.538,0,0,0,.762.762l.7-.7v4.7h-1.079a.54.54,0,0,0-.063,1.079h2.729a.54.54,0,0,0,.063-1.079h-.571V26.108a.518.518,0,0,0-.508-.571Zm12.057,0a.548.548,0,0,0-.381.19l-1.65,1.65a.538.538,0,1,0,.762.762h0l.7-.7v4.7h-1.079a.54.54,0,1,0-.063,1.079h2.729a.54.54,0,0,0,.063-1.079h-.571V26.108a.518.518,0,0,0-.508-.571Zm6.029,0a.549.549,0,0,0-.381.19l-1.65,1.65a.538.538,0,0,0,.762.762h0l.7-.7v4.7h-1.079a.54.54,0,1,0-.063,1.079h2.729a.54.54,0,1,0,.063-1.079h-.571V26.108a.518.518,0,0,0-.508-.571Zm-12.311,0a1.909,1.909,0,0,0-1.9,1.9v3.808a1.9,1.9,0,1,0,3.808,0V27.44a1.952,1.952,0,0,0-1.9-1.9Zm18.086,0a1.909,1.909,0,0,0-1.9,1.9v3.808a1.9,1.9,0,1,0,3.808,0V27.44a1.952,1.952,0,0,0-1.9-1.9ZM473.4,26.679a.84.84,0,0,1,.825.825v3.808a.825.825,0,1,1-1.65,0V27.5a.767.767,0,0,1,.825-.825Zm18.086,0a.84.84,0,0,1,.825.825v3.808a.825.825,0,1,1-1.65,0V27.5a.767.767,0,0,1,.825-.825Zm-23.861,8.694a.548.548,0,0,0-.381.19l-1.65,1.65a.538.538,0,0,0,.762.762l.7-.7v4.7h-1.079a.54.54,0,0,0-.063,1.079h2.729a.54.54,0,0,0,.063-1.079h-.571V35.944a.518.518,0,0,0-.508-.571Zm6.029,0a.548.548,0,0,0-.381.19l-1.65,1.65a.538.538,0,0,0,.761.762l.7-.7v4.7H472a.54.54,0,1,0-.063,1.079h2.729a.54.54,0,0,0,.063-1.079h-.571V35.944a.518.518,0,0,0-.508-.571Zm6.029,0a.548.548,0,0,0-.381.19l-1.65,1.65a.538.538,0,1,0,.762.762h0l.7-.7v4.7h-1.079a.54.54,0,1,0-.063,1.079h2.729a.54.54,0,0,0,.063-1.079h-.571V35.944a.518.518,0,0,0-.508-.571Zm6.029,0a.549.549,0,0,0-.381.19l-1.65,1.65a.538.538,0,0,0,.762.762h0l.7-.7v4.7h-1.079a.54.54,0,1,0-.063,1.079h2.729a.54.54,0,1,0,.063-1.079h-.571V35.944a.518.518,0,0,0-.508-.571Zm5.775,0a1.909,1.909,0,0,0-1.9,1.9v3.808a1.9,1.9,0,1,0,3.808,0V37.277a1.952,1.952,0,0,0-1.9-1.9Zm0,1.142a.84.84,0,0,1,.825.825v3.808a.825.825,0,1,1-1.65,0V37.34a.767.767,0,0,1,.825-.825Zm0,0" transform="translate(-465.4 -15.7)"/>
              </g>
            </g>
            <g id="Group_1785" data-name="Group 1785" transform="translate(86.56 26.082)">
              <g id="Group_1784" data-name="Group 1784">
                <path id="Path_2281" data-name="Path 2281" class="cls-20" d="M473.65,61.3a.548.548,0,0,0-.381.19l-1.65,1.65a.538.538,0,0,0,.761.762h0l.7-.7v4.7H472a.54.54,0,1,0-.063,1.079h2.729a.54.54,0,0,0,.063-1.079h-.571V61.871a.518.518,0,0,0-.508-.571Zm6.029,0a.548.548,0,0,0-.381.19l-1.65,1.65a.538.538,0,1,0,.762.762h0l.7-.7v4.7h-1.079a.54.54,0,1,0-.063,1.079h2.729a.54.54,0,0,0,.063-1.079h-.571V61.871a.518.518,0,0,0-.508-.571Zm-12.311,0a1.909,1.909,0,0,0-1.9,1.9v3.808a1.9,1.9,0,0,0,3.808,0V63.2a1.909,1.909,0,0,0-1.9-1.9Zm18.086,0a1.909,1.909,0,0,0-1.9,1.9v3.808a1.9,1.9,0,0,0,3.808,0V63.2a1.909,1.909,0,0,0-1.9-1.9Zm6.029,0a1.909,1.909,0,0,0-1.9,1.9v3.808a1.9,1.9,0,1,0,3.808,0V63.2a1.909,1.909,0,0,0-1.9-1.9Zm-24.115,1.079a.84.84,0,0,1,.825.825v3.808a.825.825,0,1,1-1.65,0V63.2a.8.8,0,0,1,.825-.825Zm18.086,0a.84.84,0,0,1,.825.825v3.808a.825.825,0,1,1-1.65,0V63.2a.8.8,0,0,1,.825-.825Zm6.029,0a.84.84,0,0,1,.825.825v3.808a.825.825,0,1,1-1.65,0V63.2a.8.8,0,0,1,.825-.825Zm-23.861,8.758a.548.548,0,0,0-.381.19l-1.65,1.65a.538.538,0,0,0,.762.762l.7-.7v4.7h-1.079a.54.54,0,0,0-.063,1.079h2.729a.54.54,0,0,0,.063-1.079h-.571V71.708a.518.518,0,0,0-.508-.571Zm12.057,0a.548.548,0,0,0-.381.19l-1.65,1.65a.538.538,0,1,0,.762.762h0l.7-.7v4.7h-1.079a.54.54,0,1,0-.063,1.079h2.729a.54.54,0,0,0,.063-1.079h-.571V71.708a.518.518,0,0,0-.508-.571Zm6.029,0a.549.549,0,0,0-.381.19l-1.65,1.65a.538.538,0,0,0,.762.762h0l.7-.7v4.7h-1.079a.54.54,0,1,0-.063,1.079h2.729a.54.54,0,1,0,.063-1.079h-.571V71.708a.518.518,0,0,0-.508-.571Zm-12.311,0a1.909,1.909,0,0,0-1.9,1.9v3.808a1.9,1.9,0,1,0,3.808,0V73.04a1.952,1.952,0,0,0-1.9-1.9Zm18.086,0a1.909,1.909,0,0,0-1.9,1.9v3.808a1.9,1.9,0,1,0,3.808,0V73.04a1.952,1.952,0,0,0-1.9-1.9ZM473.4,72.215a.84.84,0,0,1,.825.825v3.808a.825.825,0,1,1-1.65,0V73.04a.8.8,0,0,1,.825-.825Zm18.086,0a.84.84,0,0,1,.825.825v3.808a.825.825,0,1,1-1.65,0V73.04a.8.8,0,0,1,.825-.825Zm-23.861,8.758a.548.548,0,0,0-.381.19l-1.65,1.65a.538.538,0,0,0,.762.762l.7-.7v4.7h-1.079a.54.54,0,0,0-.063,1.079h2.729a.54.54,0,0,0,.063-1.079h-.571V81.544a.518.518,0,0,0-.508-.571Zm6.029,0a.548.548,0,0,0-.381.19l-1.65,1.65a.538.538,0,0,0,.761.762l.7-.7v4.7H472a.54.54,0,1,0-.063,1.079h2.729a.54.54,0,0,0,.063-1.079h-.571V81.544a.518.518,0,0,0-.508-.571Zm6.029,0a.548.548,0,0,0-.381.19l-1.65,1.65a.538.538,0,1,0,.762.762h0l.7-.7v4.7h-1.079a.54.54,0,1,0-.063,1.079h2.729a.54.54,0,0,0,.063-1.079h-.571V81.544a.518.518,0,0,0-.508-.571Zm6.029,0a.549.549,0,0,0-.381.19l-1.65,1.65a.538.538,0,0,0,.762.762h0l.7-.7v4.7h-1.079a.54.54,0,1,0-.063,1.079h2.729a.54.54,0,1,0,.063-1.079h-.571V81.544a.518.518,0,0,0-.508-.571Zm5.775,0a1.909,1.909,0,0,0-1.9,1.9v3.808a1.9,1.9,0,1,0,3.808,0V82.877a1.952,1.952,0,0,0-1.9-1.9Zm0,1.079a.84.84,0,0,1,.825.825v3.808a.825.825,0,1,1-1.65,0V82.877a.8.8,0,0,1,.825-.825Zm0,0" transform="translate(-465.4 -61.3)"/>
              </g>
            </g>
            <g id="Group_1787" data-name="Group 1787" transform="translate(86.56 54.893)">
              <g id="Group_1786" data-name="Group 1786">
                <path id="Path_2282" data-name="Path 2282" class="cls-20" d="M473.65,106.7a.548.548,0,0,0-.381.19l-1.65,1.65a.538.538,0,1,0,.761.762h0l.7-.7v4.7H472a.54.54,0,1,0-.063,1.079h2.729a.54.54,0,0,0,.063-1.079h-.571v-6.029a.518.518,0,0,0-.508-.571Zm6.029,0a.548.548,0,0,0-.381.19l-1.65,1.65a.538.538,0,1,0,.762.762h0l.7-.7v4.7h-1.079a.54.54,0,1,0-.063,1.079h2.729a.54.54,0,0,0,.063-1.079h-.571v-6.029a.518.518,0,0,0-.508-.571Zm-12.311,0a1.909,1.909,0,0,0-1.9,1.9v3.808a1.9,1.9,0,0,0,3.808,0V108.6a1.909,1.909,0,0,0-1.9-1.9Zm18.086,0a1.909,1.909,0,0,0-1.9,1.9v3.808a1.9,1.9,0,1,0,3.808,0V108.6a1.909,1.909,0,0,0-1.9-1.9Zm6.029,0a1.909,1.909,0,0,0-1.9,1.9v3.808a1.9,1.9,0,1,0,3.808,0V108.6a1.909,1.909,0,0,0-1.9-1.9Zm-24.115,1.079a.84.84,0,0,1,.825.825v3.808a.825.825,0,1,1-1.65,0V108.6a.8.8,0,0,1,.825-.825Zm18.086,0a.84.84,0,0,1,.825.825v3.808a.825.825,0,1,1-1.65,0V108.6a.8.8,0,0,1,.825-.825Zm6.029,0a.84.84,0,0,1,.825.825v3.808a.825.825,0,1,1-1.65,0V108.6a.8.8,0,0,1,.825-.825Zm-23.861,8.758a.548.548,0,0,0-.381.19l-1.65,1.65a.538.538,0,0,0,.762.762l.7-.7v4.7h-1.079a.54.54,0,0,0-.063,1.079h2.729a.54.54,0,0,0,.063-1.079h-.571v-6.029a.518.518,0,0,0-.508-.571Zm12.057,0a.548.548,0,0,0-.381.19l-1.65,1.65a.538.538,0,1,0,.762.762h0l.7-.7v4.7h-1.079a.54.54,0,1,0-.063,1.079h2.729a.54.54,0,0,0,.063-1.079h-.571v-6.029a.518.518,0,0,0-.508-.571Zm6.029,0a.549.549,0,0,0-.381.19l-1.65,1.65a.538.538,0,0,0,.762.762h0l.7-.7v4.7h-1.079a.54.54,0,1,0-.063,1.079h2.729a.54.54,0,1,0,.063-1.079h-.571v-6.029a.518.518,0,0,0-.508-.571Zm-12.311,0a1.909,1.909,0,0,0-1.9,1.9v3.808a1.9,1.9,0,0,0,3.808,0V118.44a1.952,1.952,0,0,0-1.9-1.9Zm18.086,0a1.909,1.909,0,0,0-1.9,1.9v3.808a1.9,1.9,0,1,0,3.808,0V118.44a1.952,1.952,0,0,0-1.9-1.9ZM473.4,117.615a.84.84,0,0,1,.825.825v3.808a.825.825,0,1,1-1.65,0V118.44a.8.8,0,0,1,.825-.825Zm18.086,0a.84.84,0,0,1,.825.825v3.808a.825.825,0,1,1-1.65,0V118.44a.8.8,0,0,1,.825-.825Zm-23.861,8.758a.548.548,0,0,0-.381.19l-1.65,1.65a.538.538,0,0,0,.762.762l.7-.7v4.7h-1.079a.54.54,0,0,0-.063,1.079h2.729a.54.54,0,0,0,.063-1.079h-.571v-6.029a.518.518,0,0,0-.508-.571Zm6.029,0a.548.548,0,0,0-.381.19l-1.65,1.65a.538.538,0,0,0,.761.762l.7-.7v4.7H472a.54.54,0,1,0-.063,1.079h2.729a.54.54,0,0,0,.063-1.079h-.571v-6.029a.518.518,0,0,0-.508-.571Zm6.029,0a.548.548,0,0,0-.381.19l-1.65,1.65a.538.538,0,1,0,.762.762h0l.7-.7v4.7h-1.079a.54.54,0,1,0-.063,1.079h2.729a.54.54,0,0,0,.063-1.079h-.571v-6.029a.518.518,0,0,0-.508-.571Zm6.029,0a.549.549,0,0,0-.381.19l-1.65,1.65a.538.538,0,0,0,.762.762h0l.7-.7v4.7h-1.079a.54.54,0,1,0-.063,1.079h2.729a.54.54,0,1,0,.063-1.079h-.571v-6.029a.518.518,0,0,0-.508-.571Zm5.775,0a1.909,1.909,0,0,0-1.9,1.9v3.808a1.9,1.9,0,0,0,3.808,0v-3.808a1.952,1.952,0,0,0-1.9-1.9Zm0,1.079a.84.84,0,0,1,.825.825v3.808a.825.825,0,1,1-1.65,0v-3.808a.8.8,0,0,1,.825-.825Zm0,0" transform="translate(-465.4 -106.7)"/>
              </g>
            </g>
          </g>
        </g>
        <path id="Path_2284" data-name="Path 2284" class="cls-21" d="M422.05,72.1l-93.35.063v3.744l93.35-.19Zm0,0" transform="translate(-315.627 -26.345)"/>
      </g>
      <path id="Path_2285" data-name="Path 2285" class="cls-12" d="M413.876,403.946H359.3V401.09A10.075,10.075,0,0,1,369.39,391h34.459a10.075,10.075,0,0,1,10.09,10.09v2.856Z" transform="translate(-326.808 -142.87)"/>
    </g>
  </g>
</svg>
