<svg xmlns="http://www.w3.org/2000/svg" viewBox="148.609 2196 120.928 137.737">
  <defs>
    <style>
      .cls-1 {
        fill: #f1c411;
      }

      .cls-2 {
        opacity: 0.5;
      }

      .cls-3 {
        fill: #fff;
      }

      .cls-4 {
        fill: #35495e;
      }

      .cls-5 {
        fill: #f5d264;
      }
    </style>
  </defs>
  <g id="Group_1078" data-name="Group 1078" transform="translate(148.631 2196)">
    <g id="Group_1075" data-name="Group 1075" transform="translate(20.229 28.681)">
      <path id="Path_973" data-name="Path 973" class="cls-1" d="M116.1,89.666a40.8,40.8,0,1,0-65.584,32.44,10.522,10.522,0,0,1,4.106,7.391l.352,4.458a3.318,3.318,0,0,0,3.285,3.05H92.282a3.318,3.318,0,0,0,3.285-3.05l.352-4.458a10.522,10.522,0,0,1,4.106-7.391A40.76,40.76,0,0,0,116.1,89.666Z" transform="translate(-34.5 -48.892)"/>
    </g>
    <g id="Group_1076" data-name="Group 1076" class="cls-2" transform="translate(24.98 33.378)">
      <path id="Path_974" data-name="Path 974" class="cls-3" d="M44.77,94.8h0a2.165,2.165,0,0,1-2.17-2.17v-.117A35.492,35.492,0,0,1,48.114,73.56,36.383,36.383,0,0,1,62.369,60.654a1.928,1.928,0,0,1,1-.235A2.179,2.179,0,0,1,65.3,61.593a2.139,2.139,0,0,1-.939,2.874A32.457,32.457,0,0,0,51.751,75.906a30.957,30.957,0,0,0-4.81,16.66h0v.059A2.165,2.165,0,0,1,44.77,94.8ZM73.632,61.534a2.149,2.149,0,0,1-2.112-1.877v-.293A2.149,2.149,0,0,1,73.4,57.252q2.2-.264,4.4-.352h.059a2.141,2.141,0,0,1,.059,4.282,27.12,27.12,0,0,0-3.813.293A1.887,1.887,0,0,1,73.632,61.534Z" transform="translate(-42.6 -56.9)"/>
    </g>
    <g id="Group_1077" data-name="Group 1077" transform="translate(37.923 58.756)">
      <path id="Path_975" data-name="Path 975" class="cls-4" d="M92.784,158.141c0-3.52-.117-25.459,2.816-39.127a22.112,22.112,0,0,1-7.567-3.872,22.661,22.661,0,0,1-7.1,3.813l-1.76.528c3.285,12.906,3.578,31.208,3.578,38.717h-2.17a204.712,204.712,0,0,0-1.989-30.672c-.395-2.541-.918-5.2-1.53-7.634-3.813.587-7.274,0-9.62-1.76a5.889,5.889,0,0,1-2.64-6.1,5.425,5.425,0,0,1,4.165-4.106c2.522-.469,5.045.821,7.039,3.637a19.957,19.957,0,0,1,2.581,5.807c.528-.117,1.056-.293,1.643-.469a19.81,19.81,0,0,0,6.159-3.226,15.975,15.975,0,0,1-3.52-5.338c-1.643-4.224.293-6.335,1.173-7.039a6,6,0,0,1,6.863-.117c2.17,1.467,2.933,4.106,1.994,7.1a13.159,13.159,0,0,1-3.285,5.4,19.184,19.184,0,0,0,6.453,3.285c.7-2.7,1.584-4.752,2.64-5.866,2.405-2.581,5.1-3.7,7.45-2.992a4.518,4.518,0,0,1,3.226,3.461c.469,2.229-.645,4.634-2.874,6.453-1.994,1.643-5.221,2.17-8.8,1.525-2.405,11.38-2.816,29.507-2.757,38.658h-2.17ZM70.023,109.98a2,2,0,0,0-.587.059,3.213,3.213,0,0,0-2.464,2.464,3.936,3.936,0,0,0,1.819,3.93c1.818,1.349,4.576,1.819,7.743,1.408a18.18,18.18,0,0,0-2.229-4.986C73.015,110.978,71.49,109.98,70.023,109.98Zm28.158,7.391c2.933.469,5.456.059,6.922-1.115,1.643-1.349,2.464-2.933,2.17-4.341a2.459,2.459,0,0,0-1.643-1.819c-1.525-.411-3.52.469-5.28,2.405A11.125,11.125,0,0,0,98.18,117.372ZM87.563,102.3a3.392,3.392,0,0,0-2.112.7c-1.115.88-1.291,2.522-.528,4.576a13.384,13.384,0,0,0,3.109,4.693,11.74,11.74,0,0,0,2.874-4.576c.645-2.112.235-3.754-1.173-4.693A3.323,3.323,0,0,0,87.563,102.3Z" transform="translate(-64.663 -100.161)"/>
    </g>
    <path id="Path_976" data-name="Path 976" class="cls-4" d="M108.206,205.218a3.247,3.247,0,0,0,1.76-2.933A3.28,3.28,0,0,0,106.681,199h-33.5a3.28,3.28,0,0,0-3.285,3.285,3.247,3.247,0,0,0,1.76,2.933,3.247,3.247,0,0,0-1.76,2.933h0a3.247,3.247,0,0,0,1.76,2.933,3.247,3.247,0,0,0-1.76,2.933,3.28,3.28,0,0,0,3.285,3.285H83.1a3.326,3.326,0,0,0,3.226,2.7h7.215a3.278,3.278,0,0,0,3.226-2.7h9.914a3.28,3.28,0,0,0,3.285-3.285,3.247,3.247,0,0,0-1.76-2.933,3.247,3.247,0,0,0,1.76-2.933h0A3.27,3.27,0,0,0,108.206,205.218Z" transform="translate(-28.905 -82.264)"/>
    <path id="Path_977" data-name="Path 977" class="cls-5" d="M101.116,19.828A2.816,2.816,0,0,1,98.3,17.012V2.816A2.816,2.816,0,0,1,101.116,0a2.855,2.855,0,0,1,2.816,2.816v14.2A2.855,2.855,0,0,1,101.116,19.828Z" transform="translate(-40.645)"/>
    <path id="Path_978" data-name="Path 978" class="cls-5" d="M51.446,33.082a2.879,2.879,0,0,1-2.464-1.408l-7.039-12.26A2.838,2.838,0,1,1,46.87,16.6l7.1,12.26a2.875,2.875,0,0,1-1.056,3.872A3.363,3.363,0,0,1,51.446,33.082Z" transform="translate(-17.197 -6.274)"/>
    <path id="Path_979" data-name="Path 979" class="cls-5" d="M15.067,69.433a3.124,3.124,0,0,1-1.408-.352L1.4,61.983A2.86,2.86,0,0,1,.343,58.111a2.8,2.8,0,0,1,3.872-1l12.26,7.1a2.86,2.86,0,0,1,1.056,3.872A2.825,2.825,0,0,1,15.067,69.433Z" transform="translate(0 -23.442)"/>
    <path id="Path_980" data-name="Path 980" class="cls-5" d="M145.706,33.082a3.124,3.124,0,0,1-1.408-.352,2.86,2.86,0,0,1-1.056-3.872l7.1-12.26a2.838,2.838,0,0,1,4.928,2.816l-7.1,12.26A2.758,2.758,0,0,1,145.706,33.082Z" transform="translate(-59.073 -6.274)"/>
    <path id="Path_981" data-name="Path 981" class="cls-5" d="M178.406,69.42A2.822,2.822,0,0,1,177,64.141l12.26-7.1a2.838,2.838,0,1,1,2.816,4.928l-12.26,7.1A3.124,3.124,0,0,1,178.406,69.42Z" transform="translate(-72.59 -23.43)"/>
  </g>
</svg>
