<svg xmlns="http://www.w3.org/2000/svg" viewBox="54 4890.367 319 100.566">
  <defs>
    <style>
      .cls-1 {
        fill: #efc7a3;
      }

      .cls-2 {
        fill: #343e48;
      }

      .cls-3 {
        fill: #019639;
      }

      .cls-4 {
        fill: #2ba945;
      }

      .cls-5 {
        fill: #c4c6c9;
      }

      .cls-6 {
        fill: #fdc846;
      }

      .cls-7 {
        fill: #efefef;
      }

      .cls-8 {
        fill: #f6cca7;
      }

      .cls-9 {
        fill: #d2d6d9;
      }

      .cls-10 {
        fill: #676767;
      }

      .cls-11 {
        fill: #cdcccc;
      }

      .cls-12 {
        fill: #9a9999;
      }

      .cls-13, .cls-27 {
        fill: #e7e6e6;
      }

      .cls-14 {
        fill: #fce8ca;
      }

      .cls-15 {
        fill: #fcf3e6;
      }

      .cls-16 {
        fill: #343434;
      }

      .cls-17, .cls-28 {
        fill: #f2f2f2;
      }

      .cls-18 {
        fill: #fddcbf;
      }

      .cls-19 {
        fill: #d6863d;
      }

      .cls-20 {
        fill: #584a3a;
      }

      .cls-21 {
        fill: #f5f5f5;
      }

      .cls-22 {
        opacity: 0.18;
      }

      .cls-23 {
        fill: #010202;
      }

      .cls-24 {
        fill: none;
      }

      .cls-25 {
        fill: #ec7d87;
      }

      .cls-26 {
        fill: #5cb130;
      }

      .cls-27, .cls-28, .cls-30, .cls-31, .cls-32, .cls-35 {
        fill-rule: evenodd;
      }

      .cls-29, .cls-30 {
        fill: #cccccb;
      }

      .cls-31 {
        fill: #fff;
      }

      .cls-32 {
        fill: #989999;
      }

      .cls-33 {
        fill: #46311d;
      }

      .cls-34 {
        fill: #eebf58;
      }

      .cls-35 {
        fill: #f8f7f7;
      }
    </style>
  </defs>
  <g id="Group_1866" data-name="Group 1866" transform="translate(21)">
    <g id="Group_1546" data-name="Group 1546" transform="translate(33.013 4915.318)">
      <g id="Group_1543" data-name="Group 1543" transform="translate(1.358 0)">
        <path id="Path_1691" data-name="Path 1691" class="cls-1" d="M52.541,67.354c4.851,3.28,16.6,20.839,16.6,20.839L51.311,106.129C41.3,96.017,37.954,100.766,17.9,85.29L39.389,61S50.526,71.556,52.541,67.354Z" transform="translate(-13.151 -40.161)"/>
        <g id="Group_1541" data-name="Group 1541">
          <path id="Path_1692" data-name="Path 1692" class="cls-2" d="M69.649,6.423A.672.672,0,0,1,69,5.774V.649a.649.649,0,0,1,1.3,0V5.774a.672.672,0,0,1-.649.649Zm0,0" transform="translate(-46.794 0)"/>
          <path id="Path_1693" data-name="Path 1693" class="cls-2" d="M59.849,6.423a.672.672,0,0,1-.649-.649V.649a.649.649,0,1,1,1.3,0V5.774a.672.672,0,0,1-.649.649Zm0,0" transform="translate(-40.342 0)"/>
          <path id="Path_1694" data-name="Path 1694" class="cls-2" d="M50.049,6.423a.672.672,0,0,1-.649-.649V.649a.649.649,0,0,1,1.3,0V5.774a.672.672,0,0,1-.649.649Zm0,0" transform="translate(-33.89 0)"/>
          <path id="Path_1695" data-name="Path 1695" class="cls-2" d="M40.249,6.423a.672.672,0,0,1-.649-.649V.649a.649.649,0,1,1,1.3,0V5.774a.672.672,0,0,1-.649.649Zm0,0" transform="translate(-27.438 0)"/>
          <path id="Path_1696" data-name="Path 1696" class="cls-2" d="M79.449,6.423a.649.649,0,0,1-.649-.649V.649a.649.649,0,1,1,1.3,0V5.774a.672.672,0,0,1-.649.649Zm0,0" transform="translate(-53.246 0)"/>
          <path id="Path_1697" data-name="Path 1697" class="cls-2" d="M89.249,6.423a.672.672,0,0,1-.649-.649V.649a.649.649,0,0,1,1.3,0V5.774a.672.672,0,0,1-.649.649Zm0,0" transform="translate(-59.698 0)"/>
          <path id="Path_1698" data-name="Path 1698" class="cls-2" d="M99.049,6.423a.672.672,0,0,1-.649-.649V.649a.649.649,0,1,1,1.3,0V5.774a.672.672,0,0,1-.649.649Zm0,0" transform="translate(-66.15 0)"/>
          <path id="Path_1699" data-name="Path 1699" class="cls-2" d="M69.649,106.923a.672.672,0,0,1-.649-.649v-5.124a.649.649,0,1,1,1.3,0v5.124a.672.672,0,0,1-.649.649Zm0,0" transform="translate(-46.794 -66.166)"/>
          <path id="Path_1700" data-name="Path 1700" class="cls-2" d="M79.449,106.923a.649.649,0,0,1-.649-.649v-5.124a.649.649,0,1,1,1.3,0v5.124a.672.672,0,0,1-.649.649Zm0,0" transform="translate(-53.246 -66.166)"/>
          <path id="Path_1701" data-name="Path 1701" class="cls-2" d="M89.249,106.923a.672.672,0,0,1-.649-.649v-5.124a.649.649,0,1,1,1.3,0v5.124a.672.672,0,0,1-.649.649Zm0,0" transform="translate(-59.698 -66.166)"/>
          <path id="Path_1702" data-name="Path 1702" class="cls-2" d="M99.049,106.923a.672.672,0,0,1-.649-.649v-5.124a.649.649,0,1,1,1.3,0v5.124a.672.672,0,0,1-.649.649Zm0,0" transform="translate(-66.15 -66.166)"/>
          <path id="Path_1703" data-name="Path 1703" class="cls-2" d="M59.849,106.923a.672.672,0,0,1-.649-.649v-5.124a.649.649,0,1,1,1.3,0v5.124a.672.672,0,0,1-.649.649Zm0,0" transform="translate(-40.342 -66.166)"/>
          <path id="Path_1704" data-name="Path 1704" class="cls-2" d="M50.049,106.923a.672.672,0,0,1-.649-.649v-5.124a.649.649,0,1,1,1.3,0v5.124a.672.672,0,0,1-.649.649Zm0,0" transform="translate(-33.89 -66.166)"/>
          <path id="Path_1705" data-name="Path 1705" class="cls-2" d="M40.249,106.923a.672.672,0,0,1-.649-.649v-5.124a.649.649,0,1,1,1.3,0v5.124a.672.672,0,0,1-.649.649Zm0,0" transform="translate(-27.438 -66.166)"/>
          <path id="Path_1706" data-name="Path 1706" class="cls-2" d="M117.874,59h-5.124a.672.672,0,0,1-.649-.649.649.649,0,0,1,.649-.649h5.124a.628.628,0,0,1,.649.649.649.649,0,0,1-.649.649Zm0,0" transform="translate(-75.17 -37.988)"/>
          <path id="Path_1707" data-name="Path 1707" class="cls-2" d="M117.874,49.2h-5.124a.649.649,0,1,1,0-1.3h5.124a.649.649,0,0,1,0,1.3Zm0,0" transform="translate(-75.17 -31.536)"/>
          <path id="Path_1708" data-name="Path 1708" class="cls-2" d="M117.874,39.4h-5.124a.649.649,0,1,1,0-1.3h5.124a.649.649,0,0,1,0,1.3Zm0,0" transform="translate(-75.17 -25.084)"/>
          <path id="Path_1709" data-name="Path 1709" class="cls-2" d="M117.874,29.6h-5.124a.649.649,0,1,1,0-1.3h5.124a.649.649,0,0,1,.649.649.672.672,0,0,1-.649.649Zm0,0" transform="translate(-75.17 -18.632)"/>
          <path id="Path_1710" data-name="Path 1710" class="cls-2" d="M117.874,68.8h-5.124a.672.672,0,0,1-.649-.649.649.649,0,0,1,.649-.649h5.124a.628.628,0,0,1,.649.649.649.649,0,0,1-.649.649Zm0,0" transform="translate(-75.17 -44.44)"/>
          <path id="Path_1711" data-name="Path 1711" class="cls-2" d="M117.874,78.6h-5.124a.649.649,0,0,1,0-1.3h5.124a.649.649,0,0,1,0,1.3Zm0,0" transform="translate(-75.17 -50.892)"/>
          <path id="Path_1712" data-name="Path 1712" class="cls-2" d="M117.874,88.4h-5.124a.649.649,0,0,1,0-1.3h5.124a.649.649,0,0,1,0,1.3Zm0,0" transform="translate(-75.17 -57.344)"/>
          <path id="Path_1713" data-name="Path 1713" class="cls-3" d="M50.877,14.576A1.764,1.764,0,0,0,49.1,12.8H20.676A1.764,1.764,0,0,0,18.9,14.576V43a1.764,1.764,0,0,0,1.776,1.776H49.1A1.764,1.764,0,0,0,50.877,43Zm0,0" transform="translate(-13.81 -8.427)"/>
          <path id="Path_1714" data-name="Path 1714" class="cls-2" d="M9.774,59H4.649A.672.672,0,0,1,4,58.349a.649.649,0,0,1,.649-.649H9.774a.649.649,0,1,1,0,1.3Zm0,0" transform="translate(-4 -37.988)"/>
          <path id="Path_1715" data-name="Path 1715" class="cls-2" d="M9.774,68.8H4.649A.672.672,0,0,1,4,68.149a.649.649,0,0,1,.649-.649H9.774a.649.649,0,1,1,0,1.3Zm0,0" transform="translate(-4 -44.44)"/>
          <path id="Path_1716" data-name="Path 1716" class="cls-2" d="M9.774,78.6H4.649a.649.649,0,0,1,0-1.3H9.774a.672.672,0,0,1,.649.649.649.649,0,0,1-.649.649Zm0,0" transform="translate(-4 -50.892)"/>
          <path id="Path_1717" data-name="Path 1717" class="cls-2" d="M9.774,88.4H4.649a.649.649,0,0,1,0-1.3H9.774a.672.672,0,0,1,.649.649.649.649,0,0,1-.649.649Zm0,0" transform="translate(-4 -57.344)"/>
          <path id="Path_1718" data-name="Path 1718" class="cls-2" d="M9.774,49.2H4.649a.649.649,0,0,1,0-1.3H9.774a.672.672,0,0,1,.649.649.649.649,0,0,1-.649.649Zm0,0" transform="translate(-4 -31.536)"/>
          <path id="Path_1719" data-name="Path 1719" class="cls-2" d="M9.774,39.4H4.649a.649.649,0,0,1,0-1.3H9.774a.672.672,0,0,1,.649.649.649.649,0,0,1-.649.649Zm0,0" transform="translate(-4 -25.084)"/>
          <path id="Path_1720" data-name="Path 1720" class="cls-2" d="M9.774,29.6H4.649a.649.649,0,1,1,0-1.3H9.774a.649.649,0,1,1,0,1.3Zm0,0" transform="translate(-4 -18.632)"/>
          <path id="Path_1721" data-name="Path 1721" class="cls-4" d="M57.411,14.576A1.764,1.764,0,0,0,55.634,12.8H27.176A1.764,1.764,0,0,0,25.4,14.576V43a1.764,1.764,0,0,0,1.776,1.776H55.6A1.764,1.764,0,0,0,57.377,43V14.576Zm0,0" transform="translate(-18.089 -8.427)"/>
          <path id="Path_1722" data-name="Path 1722" class="cls-5" d="M59.736,26.057A2.362,2.362,0,0,0,57.379,23.7H38.657A2.362,2.362,0,0,0,36.3,26.057v17.7a2.362,2.362,0,0,0,2.357,2.357H57.379a2.362,2.362,0,0,0,2.357-2.357Zm0,0" transform="translate(-25.265 -15.603)"/>
          <rect id="Rectangle_115" data-name="Rectangle 115" class="cls-6" width="2.391" height="15.168" transform="translate(36.93 8.097)"/>
          <rect id="Rectangle_116" data-name="Rectangle 116" class="cls-2" width="17.287" height="2.528" transform="translate(14.109 13.699)"/>
          <rect id="Rectangle_117" data-name="Rectangle 117" class="cls-2" width="13.939" height="1.264" transform="translate(15.783 17.594)"/>
        </g>
        <path id="Path_1723" data-name="Path 1723" class="cls-7" d="M30.506,73.045a3.583,3.583,0,0,0-.957-4.988l-2.87-1.981a3.925,3.925,0,0,0,3.929-1.606h0A3.932,3.932,0,0,0,29.652,59l-.888-.649a3.947,3.947,0,0,0,4.3-1.5h0a3.932,3.932,0,0,0-.957-5.466l-2.528-1.776a3.923,3.923,0,0,0,4.2-1.537h0a3.932,3.932,0,0,0-.957-5.466l-9.873-6.867a2.548,2.548,0,0,0-.41-.239v26h1.571L17.9,68.536c3.006,2.323,5.637,4.168,7.96,5.705A3.634,3.634,0,0,0,30.506,73.045Z" transform="translate(-13.151 -23.372)"/>
        <g id="Group_1542" data-name="Group 1542" transform="translate(33.549 9.053)">
          <path id="Path_1724" data-name="Path 1724" class="cls-7" d="M104.627,26.5a2.348,2.348,0,0,0-1.5.752c-2.255,2.357.171,8.2,1.5,11.445Z" transform="translate(-102.202 -26.5)"/>
        </g>
      </g>
      <path id="Path_1725" data-name="Path 1725" class="cls-8" d="M21.061,119.266h0a3.613,3.613,0,0,1-4.988.957l-9.292-6.354a3.613,3.613,0,0,1-.957-4.988h0a3.613,3.613,0,0,1,4.988-.957l9.292,6.32A3.623,3.623,0,0,1,21.061,119.266Z" transform="translate(-3.441 -70.652)"/>
      <path id="Path_1726" data-name="Path 1726" class="cls-8" d="M17.722,90.988h0a3.9,3.9,0,0,1-5.466.957L1.665,84.532a3.9,3.9,0,0,1-.957-5.466h0a3.9,3.9,0,0,1,5.466-.957l10.591,7.413A3.932,3.932,0,0,1,17.722,90.988Z" transform="translate(0 -50.949)"/>
      <path id="Path_1727" data-name="Path 1727" class="cls-8" d="M21.894,66.516h0a3.9,3.9,0,0,1-5.466.957L4.265,58.932a3.9,3.9,0,0,1-.957-5.466h0a3.9,3.9,0,0,1,5.466-.957L20.937,61.05A3.963,3.963,0,0,1,21.894,66.516Z" transform="translate(-1.712 -34.095)"/>
      <path id="Path_1728" data-name="Path 1728" class="cls-8" d="M28.4,43.976h0a3.9,3.9,0,0,1-5.466.957l-9.873-6.9a3.9,3.9,0,0,1-.957-5.466h0a3.9,3.9,0,0,1,5.466-.957l9.873,6.9A3.932,3.932,0,0,1,28.4,43.976Z" transform="translate(-7.505 -20.335)"/>
      <path id="Path_1729" data-name="Path 1729" class="cls-8" d="M115.182,72.882c-14.109-11.684-7.174-25.93-7.174-25.93l.307-7.311s-5.569-11.41-2.7-14.383c3.655-3.792,10.454,9.019,11.24,11.786.888,3.177,2.426,18.448,9.5,25.725Z" transform="translate(-69.002 -16.171)"/>
      <path id="Path_1730" data-name="Path 1730" class="cls-7" d="M121.241,129.9a19.89,19.89,0,0,1-2.084-2.8L97.6,144.557a4.453,4.453,0,0,1,.512.342.033.033,0,0,1,.034.034c.342.239.683.478,1.059.717a.033.033,0,0,1,.034.034c.171.137.342.273.547.41h0c.376.273.717.581,1.127.888l.034.034c.376.307.752.649,1.162,1.025Z" transform="translate(-64.265 -83.679)"/>
      <rect id="Rectangle_118" data-name="Rectangle 118" class="cls-9" width="31.533" height="14.109" transform="matrix(0.71, -0.704, 0.704, 0.71, 34.095, 65.036)"/>
      <g id="Group_1544" data-name="Group 1544" transform="translate(39.544 42.806)">
        <path id="Path_1731" data-name="Path 1731" class="cls-7" d="M142.635,135.344l-18.38,18.209-7.448-7.482a3.567,3.567,0,0,1,.034-5.056L132.66,125.3Z" transform="translate(-115.775 -125.3)"/>
      </g>
      <g id="Group_1545" data-name="Group 1545" transform="translate(43.408 58.791)">
        <circle id="Ellipse_150" data-name="Ellipse 150" class="cls-9" cx="2.46" cy="2.46" r="2.46" transform="translate(0 3.463) rotate(-44.749)"/>
      </g>
    </g>
    <g id="Group_1831" data-name="Group 1831" transform="translate(129.624 4915.294)">
      <path id="Path_2286" data-name="Path 2286" class="cls-10" d="M28.424,104.486l-2.024,7h9.391L34.739,104Z" transform="translate(-15.714 -61.888)"/>
      <path id="Path_2287" data-name="Path 2287" class="cls-11" d="M19.8,122.762H31.782V120.9H20.488Z" transform="translate(-11.785 -71.947)"/>
      <path id="Path_2288" data-name="Path 2288" class="cls-10" d="M27.445,73H2.793A2.8,2.8,0,0,1,0,70.211V50.093A2.8,2.8,0,0,1,2.793,47.3H21.656L26.15,67.175Z" transform="translate(0 -28.139)"/>
      <path id="Path_2289" data-name="Path 2289" class="cls-12" d="M17,47.3,4.331,72.964H2.793A2.8,2.8,0,0,1,0,70.171V50.093A2.8,2.8,0,0,1,2.793,47.3Z" transform="translate(0 -28.139)"/>
      <path id="Path_2290" data-name="Path 2290" class="cls-11" d="M27.445,102.289H2.793A2.8,2.8,0,0,1,0,99.5v-3H26.15Z" transform="translate(0 -57.424)"/>
      <path id="Path_2291" data-name="Path 2291" class="cls-13" d="M7.205,96.4l-2.874,5.789H2.793A2.8,2.8,0,0,1,0,99.4v-3Z" transform="translate(0 -57.364)"/>
      <path id="Path_2292" data-name="Path 2292" class="cls-14" d="M141.563,89.667v14.37A2.263,2.263,0,0,1,139.3,106.3h-7.529a2.263,2.263,0,0,1-2.267-2.267V89.667a2.263,2.263,0,0,1,2.267-2.267H139.3A2.263,2.263,0,0,1,141.563,89.667Z" transform="translate(-77.079 -52.007)"/>
      <path id="Path_2293" data-name="Path 2293" class="cls-15" d="M147.1,89.725v14.37a2.263,2.263,0,0,1-2.267,2.267H138.8L144.386,87.5h.445A2.2,2.2,0,0,1,147.1,89.725Z" transform="translate(-82.615 -52.065)"/>
      <path id="Path_2294" data-name="Path 2294" class="cls-10" d="M141.563,126.1v.971a2.263,2.263,0,0,1-2.267,2.267h-7.529a2.263,2.263,0,0,1-2.267-2.267V126.1Z" transform="translate(-77.079 -75.042)"/>
      <path id="Path_2295" data-name="Path 2295" class="cls-10" d="M141.622,89.667v.972H129.6v-.972a2.263,2.263,0,0,1,2.267-2.267H139.4A2.255,2.255,0,0,1,141.622,89.667Z" transform="translate(-77.139 -52.007)"/>
      <path id="Path_2296" data-name="Path 2296" class="cls-12" d="M147.1,126.1v.971a2.263,2.263,0,0,1-2.267,2.267H138.8l.931-3.2H147.1Z" transform="translate(-82.615 -75.042)"/>
      <path id="Path_2297" data-name="Path 2297" class="cls-16" d="M142.929,91.591h-3.684a.445.445,0,1,1,0-.891h3.684a.445.445,0,1,1,0,.891Z" transform="translate(-82.615 -53.971)"/>
      <g id="Group_1830" data-name="Group 1830" transform="translate(8.903 0.023)">
        <g id="Group_1828" data-name="Group 1828">
          <g id="Group_1827" data-name="Group 1827">
            <g id="Group_1822" data-name="Group 1822">
              <path id="Path_2298" data-name="Path 2298" class="cls-17" d="M23.5,173.457c0,1.741,9.391,3.157,20.928,3.157,11.577,0,20.928-1.417,20.928-3.157S55.964,170.3,44.428,170.3,23.5,171.717,23.5,173.457Z" transform="translate(-22.89 -101.373)"/>
              <g id="Group_1821" data-name="Group 1821">
                <g id="Group_1820" data-name="Group 1820">
                  <g id="Group_1819" data-name="Group 1819">
                    <g id="Group_1818" data-name="Group 1818">
                      <g id="Group_1817" data-name="Group 1817">
                        <g id="Group_1798" data-name="Group 1798" transform="translate(5.508)">
                          <g id="Group_1793" data-name="Group 1793" transform="translate(4.25 6.117)">
                            <path id="Path_2299" data-name="Path 2299" class="cls-18" d="M46.1,40.744S48.772,4.88,74.031,18.035c0,0,4.534,9.027,3.238,26.028C55.936,46.573,46.1,40.744,46.1,40.744Z" transform="translate(-46.1 -15.135)"/>
                          </g>
                          <g id="Group_1794" data-name="Group 1794">
                            <path id="Path_2300" data-name="Path 2300" class="cls-19" d="M41.186,11.105c2.226,1.457,4.615,1.741,7.448,1.983a73.545,73.545,0,0,1,9.8,1.538c2.914.648,6.193,2.186,9.148,2.388.324,1.983-.729,4.817-1.093,6.841,0,0,3.522-2.064,3.319,1.052-.243,3.2-3.4,1.255-3.4,1.255s1.012,6.639,4.615,8.946c-.162.243,13.075-21.373,3.279-22.183a11.66,11.66,0,0,0-7-10.808c-6.477-3.157-13.075-2.51-19.47.364C44.991,3.738,41.672,4.831,38.879,3.5A8.37,8.37,0,0,1,35.6.378c.4.688.162,1.5.283,2.267a11.383,11.383,0,0,0,.85,2.753,12.832,12.832,0,0,0,3.157,4.7A15.862,15.862,0,0,0,41.186,11.105Z" transform="translate(-35.6 -0.023)"/>
                          </g>
                          <g id="Group_1797" data-name="Group 1797" transform="translate(40.763 15.939)">
                            <g id="Group_1795" data-name="Group 1795" transform="translate(0.243)">
                              <path id="Path_2301" data-name="Path 2301" class="cls-18" d="M136.9,39.4Z" transform="translate(-136.9 -39.4)"/>
                            </g>
                            <g id="Group_1796" data-name="Group 1796" transform="translate(0 0.971)">
                              <path id="Path_2302" data-name="Path 2302" class="cls-18" d="M136.3,41.8h0Z" transform="translate(-136.3 -41.8)"/>
                            </g>
                          </g>
                        </g>
                        <g id="Group_1799" data-name="Group 1799" transform="translate(4.889 51.197)">
                          <path id="Path_2303" data-name="Path 2303" class="cls-20" d="M65.94,129.455l-1.052,9.958.648,8.3s-11.091,3-8.3-1.376c2.591-4.048,6.6-.688,6.6-.688l-1.579-6.639-.243-7.448s-11.456.688-21.171-2.1l-.324,8.379,1.7,8.7s-10.525,3.441-7.651-1.336c1.579-2.631,5.465-.972,5.465-.972l-2.064-6.4L37.645,126.5Z" transform="translate(-34.072 -126.5)"/>
                        </g>
                        <g id="Group_1802" data-name="Group 1802" transform="translate(8.503 31.726)">
                          <g id="Group_1801" data-name="Group 1801">
                            <g id="Group_1800" data-name="Group 1800">
                              <path id="Path_2304" data-name="Path 2304" class="cls-21" d="M44.255,78.4,43,97.87s11.577,3.4,28.254,2.955l4.129-19.106S56.115,83.46,44.255,78.4Z" transform="translate(-43 -78.4)"/>
                            </g>
                          </g>
                        </g>
                        <g id="Group_1804" data-name="Group 1804" transform="translate(8.463 49.375)">
                          <g id="Group_1803" data-name="Group 1803">
                            <path id="Path_2305" data-name="Path 2305" class="cls-13" d="M45.653,125a.554.554,0,0,1-.607.081c.121.2.162.4,0,.567a.438.438,0,0,1-.526.081.494.494,0,0,1,0,.526.554.554,0,0,1-.607.081c.121.2.162.4,0,.567-.283.324-.688.081-1.012-.162v-2.915h0L43.021,122c.729.688,1.417,1.3,2.024,1.781C45.207,123.9,45.976,124.631,45.653,125Z" transform="translate(-42.9 -122)"/>
                          </g>
                        </g>
                        <g id="Group_1806" data-name="Group 1806" transform="translate(0 31.726)">
                          <g id="Group_1805" data-name="Group 1805">
                            <path id="Path_2306" data-name="Path 2306" class="cls-18" d="M31.752,78.4l-.243,3.684c-11.334,3.238-3.117,12.063.931,15.3.121.121.931.81.607,1.214a.554.554,0,0,1-.607.081c.121.2.162.4,0,.567a.438.438,0,0,1-.526.081.494.494,0,0,1,0,.526.554.554,0,0,1-.607.081c.121.2.162.4,0,.567-.324.364-.729.04-1.052-.2C20.984,93.094,17.058,81.962,31.752,78.4Z" transform="translate(-21.994 -78.4)"/>
                          </g>
                        </g>
                        <g id="Group_1808" data-name="Group 1808" transform="translate(4.982 31.726)">
                          <g id="Group_1807" data-name="Group 1807">
                            <path id="Path_2307" data-name="Path 2307" class="cls-21" d="M39.077,78.4l-.243,3.684a14.305,14.305,0,0,0-3,1.214L34.3,80.1A23.986,23.986,0,0,1,39.077,78.4Z" transform="translate(-34.3 -78.4)"/>
                          </g>
                        </g>
                        <g id="Group_1810" data-name="Group 1810" class="cls-22" transform="translate(8.665 31.726)">
                          <g id="Group_1809" data-name="Group 1809">
                            <path id="Path_2308" data-name="Path 2308" class="cls-23" d="M44.25,82.084a6.975,6.975,0,0,0-.85.283L44.493,78.4Z" transform="translate(-43.4 -78.4)"/>
                          </g>
                        </g>
                        <g id="Group_1813" data-name="Group 1813" transform="translate(46.797 15.211)">
                          <g id="Group_1811" data-name="Group 1811" transform="translate(0.243)">
                            <path id="Path_2309" data-name="Path 2309" class="cls-24" d="M138.2,37.6h0Z" transform="translate(-138.2 -37.6)"/>
                          </g>
                          <g id="Group_1812" data-name="Group 1812" transform="translate(0 0.972)">
                            <path id="Path_2310" data-name="Path 2310" class="cls-24" d="M137.6,40h0Z" transform="translate(-137.6 -40)"/>
                          </g>
                        </g>
                        <g id="Group_1816" data-name="Group 1816" transform="translate(17.555 26.019)">
                          <g id="Group_1815" data-name="Group 1815">
                            <g id="Group_1814" data-name="Group 1814">
                              <path id="Path_2311" data-name="Path 2311" class="cls-25" d="M65.58,64.3s5.789.243,9.229,1.619c0,0-.04,4.736-5.465,3.926C64,69.077,65.58,64.3,65.58,64.3Z" transform="translate(-65.362 -64.3)"/>
                            </g>
                          </g>
                        </g>
                      </g>
                    </g>
                  </g>
                </g>
                <ellipse id="Ellipse_177" data-name="Ellipse 177" class="cls-20" cx="2.267" cy="1.174" rx="2.267" ry="1.174" transform="translate(15.016 21.008) rotate(-77.333)"/>
                <ellipse id="Ellipse_178" data-name="Ellipse 178" class="cls-20" cx="2.267" cy="1.174" rx="2.267" ry="1.174" transform="translate(29.138 24.189) rotate(-77.333)"/>
              </g>
            </g>
            <g id="Group_1824" data-name="Group 1824" transform="translate(32.428 36.786)">
              <g id="Group_1823" data-name="Group 1823">
                <path id="Path_2312" data-name="Path 2312" class="cls-18" d="M108.822,90.9l-.769,3.6c10.039,6.193-.243,12.468-5.019,14.492-.162.081-1.133.526-.891,1.012a.585.585,0,0,0,.567.243c-.162.162-.283.324-.162.526.081.2.283.243.486.243-.121.162-.2.324-.121.486a.585.585,0,0,0,.567.243c-.162.162-.283.324-.162.526.2.4.688.243,1.093.081C115.218,107.942,121.978,98.308,108.822,90.9Z" transform="translate(-102.104 -90.9)"/>
              </g>
            </g>
            <g id="Group_1826" data-name="Group 1826" transform="translate(38.377 36.786)">
              <g id="Group_1825" data-name="Group 1825">
                <path id="Path_2313" data-name="Path 2313" class="cls-21" d="M117.569,90.9l-.769,3.6a11.631,11.631,0,0,1,2.55,1.983l2.348-2.631A20.928,20.928,0,0,0,117.569,90.9Z" transform="translate(-116.8 -90.9)"/>
              </g>
            </g>
          </g>
        </g>
        <g id="Group_1829" data-name="Group 1829" transform="translate(16.113 41.927)">
          <path id="Path_2314" data-name="Path 2314" class="cls-26" d="M64.148,108.822,61.8,105.948l2.874-2.348.769.891L63.46,106.11l1.619,1.983Z" transform="translate(-61.8 -103.6)"/>
          <path id="Path_2315" data-name="Path 2315" class="cls-26" d="M83.529,110.522l-.729-.891,1.943-1.619-1.619-1.983.931-.729,2.348,2.874Z" transform="translate(-74.299 -104.612)"/>
          <rect id="Rectangle_181" data-name="Rectangle 181" class="cls-26" width="5.181" height="1.174" transform="matrix(0.525, -0.851, 0.851, 0.525, 4.115, 4.825)"/>
        </g>
      </g>
      <path id="Path_2316" data-name="Path 2316" class="cls-12" d="M153.943,89.725V90.7H150.3l.931-3.2h.445A2.2,2.2,0,0,1,153.943,89.725Z" transform="translate(-89.46 -52.065)"/>
      <circle id="Ellipse_179" data-name="Ellipse 179" class="cls-10" cx="0.81" cy="0.81" r="0.81" transform="translate(57.642 51.706)"/>
    </g>
    <g id="Group_1864" data-name="Group 1864" transform="translate(223.812 4890.367)">
      <g id="Group_1836" data-name="Group 1836" transform="translate(0 13.767)">
        <path id="Path_2317" data-name="Path 2317" class="cls-27" d="M64.094,299.57c35.307,0,64.094-2.047,64.094-4.535,0-2.52-28.787-4.535-64.094-4.535C28.787,290.468,0,292.515,0,295.035,0,297.523,28.787,299.57,64.094,299.57Z" transform="translate(0 -212.771)"/>
        <g id="Group_1835" data-name="Group 1835">
          <path id="Path_2318" data-name="Path 2318" class="cls-28" d="M20.761,44.653h0A6.078,6.078,0,0,0,18.9,53.062l16.6,26.11A6.072,6.072,0,0,0,43.91,81.03h0a6.072,6.072,0,0,0,1.858-8.409L29.17,46.542A6.108,6.108,0,0,0,20.761,44.653Z" transform="translate(-12.288 -43.711)"/>
          <rect id="Rectangle_193" data-name="Rectangle 193" class="cls-29" width="123.653" height="5.102" transform="translate(0 50.453)"/>
          <path id="Path_2319" data-name="Path 2319" class="cls-30" d="M0,53.751v48.094A2.561,2.561,0,0,0,2.551,104.4h0A2.561,2.561,0,0,0,5.1,101.845V53.751A2.561,2.561,0,0,0,2.551,51.2h0A2.541,2.541,0,0,0,0,53.751Z" transform="translate(0 -48.841)"/>
          <path id="Path_2320" data-name="Path 2320" class="cls-28" d="M16.2,171.21h0a6.116,6.116,0,0,0,6.11,6.11h91.622a6.116,6.116,0,0,0,6.11-6.11h0a6.116,6.116,0,0,0-6.11-6.11H22.279A6.15,6.15,0,0,0,16.2,171.21Z" transform="translate(-11.098 -126.868)"/>
          <g id="Group_1834" data-name="Group 1834" transform="translate(32.252 52.185)">
            <g id="Group_1833" data-name="Group 1833" transform="translate(4.094)">
              <rect id="Rectangle_194" data-name="Rectangle 194" class="cls-29" width="3.055" height="27.118" transform="translate(47.874)"/>
              <rect id="Rectangle_195" data-name="Rectangle 195" class="cls-29" width="3.055" height="27.118"/>
            </g>
            <rect id="Rectangle_196" data-name="Rectangle 196" class="cls-29" width="50.929" height="3.118" transform="translate(4.094 21.386)"/>
            <path id="Path_2321" data-name="Path 2321" class="cls-31" d="M260.038,284.876a5.638,5.638,0,1,0-5.638-5.638A5.652,5.652,0,0,0,260.038,284.876Z" transform="translate(-206.526 -253.38)"/>
            <path id="Path_2322" data-name="Path 2322" class="cls-32" d="M266.683,288.465a2.583,2.583,0,1,0-2.583-2.583A2.594,2.594,0,0,0,266.683,288.465Z" transform="translate(-213.171 -260.025)"/>
            <path id="Path_2323" data-name="Path 2323" class="cls-31" d="M108.038,284.876a5.638,5.638,0,1,0-5.638-5.638A5.625,5.625,0,0,0,108.038,284.876Z" transform="translate(-102.4 -253.38)"/>
            <path id="Path_2324" data-name="Path 2324" class="cls-32" d="M114.683,288.465a2.583,2.583,0,1,0-2.583-2.583A2.594,2.594,0,0,0,114.683,288.465Z" transform="translate(-109.045 -260.025)"/>
          </g>
          <path id="Path_2325" data-name="Path 2325" class="cls-30" d="M376.4,133.151v23.087a2.561,2.561,0,0,0,2.551,2.551h0a2.561,2.561,0,0,0,2.551-2.551V133.151a2.561,2.561,0,0,0-2.551-2.551h0A2.541,2.541,0,0,0,376.4,133.151Z" transform="translate(-257.849 -103.234)"/>
        </g>
      </g>
      <g id="Group_1863" data-name="Group 1863" transform="translate(15.871)">
        <g id="Group_1839" data-name="Group 1839" transform="translate(32.002 33.323)">
          <g id="Group_1838" data-name="Group 1838">
            <g id="Group_1837" data-name="Group 1837">
              <path id="Path_2326" data-name="Path 2326" class="cls-18" d="M164.535,128.1c.283-.157.22-.535.094-.756.094.22.315.567.693.409.409-.189.252-.756.189-.976h0c.094.189.346.63.724.472.346-.157.157-.661.094-.85.094.189.409.693.819.472.315-.157-.094-.85-.094-.85-8.85-12.126-12.441-20.22-12.441-20.22L152,107.312a217.031,217.031,0,0,0,11.874,20.22C163.842,127.564,164.252,128.257,164.535,128.1Z" transform="translate(-152 -105.8)"/>
            </g>
          </g>
        </g>
        <path id="Path_2327" data-name="Path 2327" class="cls-33" d="M191.1,139.584s11.15-2.362,18.929,4.945c0,0,4.283-4.031,2.8-6.047s-4.63-1.26-3.591,3.055a20.97,20.97,0,0,0-15.5-4.945Z" transform="translate(-146.783 -93.537)"/>
        <path id="Path_2328" data-name="Path 2328" class="cls-33" d="M160.5,123.1c2.268,3.874,1.8,5.858-4.945,10.3-12.252,8.063-13.354,4.913-13.354,4.913Z" transform="translate(-113.284 -84.329)"/>
        <g id="Group_1861" data-name="Group 1861">
          <g id="Group_1860" data-name="Group 1860">
            <g id="Group_1840" data-name="Group 1840" transform="translate(48.727 27.118)">
              <path id="Path_2329" data-name="Path 2329" class="cls-18" d="M205.163,86.131c-.031,0-.031-.031-.063-.031C205.132,86.1,205.163,86.1,205.163,86.131Z" transform="translate(-205.1 -86.1)"/>
            </g>
            <g id="Group_1855" data-name="Group 1855">
              <g id="Group_1854" data-name="Group 1854">
                <g id="Group_1853" data-name="Group 1853">
                  <g id="Group_1852" data-name="Group 1852">
                    <g id="Group_1849" data-name="Group 1849">
                      <g id="Group_1846" data-name="Group 1846">
                        <g id="Group_1845" data-name="Group 1845">
                          <g id="Group_1842" data-name="Group 1842" transform="translate(7.602 12.52)">
                            <g id="Group_1841" data-name="Group 1841">
                              <path id="Path_2330" data-name="Path 2330" class="cls-18" d="M105.166,52.334s-17.512-26.709-30.583-2.3c0,0-1.323,8.882,9.165,19.464C102.52,59.956,105.166,52.334,105.166,52.334Z" transform="translate(-74.53 -39.751)"/>
                            </g>
                          </g>
                          <g id="Group_1844" data-name="Group 1844">
                            <g id="Group_1843" data-name="Group 1843">
                              <path id="Path_2331" data-name="Path 2331" class="cls-34" d="M68.441,0S81.67,13.354,62.079,25.606l2.866,4.913s-3.307.157-1.953,2.551,2.866-.756,2.866-.756,2.488,6.362,1.386,9.953C67.5,42.331,42.3,27.275,53.071,21.89c0,0-2.488-4.913,2.583-10.394C60.945,5.8,69.859,10.362,68.441,0Z" transform="translate(-50.392)"/>
                            </g>
                          </g>
                        </g>
                      </g>
                      <g id="Group_1848" data-name="Group 1848" transform="translate(16.884 25.102)">
                        <g id="Group_1847" data-name="Group 1847">
                          <path id="Path_2332" data-name="Path 2332" class="cls-21" d="M125.354,79.7l8.976,13.638s-5.921,7.528-18.3,15.213L104,96.865C103.968,96.865,120,87.794,125.354,79.7Z" transform="translate(-104 -79.7)"/>
                        </g>
                      </g>
                      <path id="Path_2333" data-name="Path 2333" class="cls-11" d="M124.122,151.107c-.157-.189-.283-.409-.472-.63l2.079-1.039-.22-.472-1.071.535a1.125,1.125,0,0,1-1.512-.535l-1.1-2.236a1.125,1.125,0,0,1,.535-1.512l.693-.346c-1.008-.094-1.2-.6-1.2-.6l-6.8-6.614-.756-1.228c-.567-.945-1.2-1.921-1.8-2.961l2.52-1.669s.567,1.1,1.764,3.055a140.356,140.356,0,0,0,9.638,13.669l-.189.094.567,1.165Z" transform="translate(-92.938 -90.288)"/>
                    </g>
                    <g id="Group_1851" data-name="Group 1851" transform="translate(32.79 31.401)">
                      <g id="Group_1850" data-name="Group 1850">
                        <path id="Path_2334" data-name="Path 2334" class="cls-33" d="M156.138,99.7l1.1.535.094,1.48,5.8,5.386-.661,3.685-4.094-1.008-2.236-7.055-1.512-.5-.126-.976Z" transform="translate(-154.5 -99.7)"/>
                      </g>
                    </g>
                  </g>
                </g>
              </g>
            </g>
            <g id="Group_1857" data-name="Group 1857" transform="translate(17.814 22.644)">
              <g id="Group_1856" data-name="Group 1856">
                <path id="Path_2335" data-name="Path 2335" class="cls-33" d="M111.06,76.622a2.482,2.482,0,0,1-1.228.409A4.568,4.568,0,0,1,107,75.677a.2.2,0,1,1,.283-.283,4.409,4.409,0,0,0,2.551,1.26,1.87,1.87,0,0,0,1.386-.661,1.355,1.355,0,0,0,.409-1.228c-.22-1.323-2.268-2.488-2.3-2.52a.184.184,0,1,1,.189-.315c.094.063,2.236,1.26,2.488,2.8a1.822,1.822,0,0,1-.5,1.543A4.235,4.235,0,0,1,111.06,76.622Z" transform="translate(-106.95 -71.896)"/>
              </g>
            </g>
            <g id="Group_1859" data-name="Group 1859" transform="translate(23.01 15.684)">
              <g id="Group_1858" data-name="Group 1858">
                <path id="Path_2336" data-name="Path 2336" class="cls-33" d="M127.56,54.522a2.482,2.482,0,0,1-1.228.409,4.568,4.568,0,0,1-2.835-1.354.2.2,0,0,1,.283-.283,4.409,4.409,0,0,0,2.551,1.26,1.87,1.87,0,0,0,1.386-.661,1.355,1.355,0,0,0,.409-1.228c-.22-1.323-2.268-2.488-2.3-2.52a.184.184,0,1,1,.189-.315c.094.063,2.236,1.26,2.488,2.8a1.822,1.822,0,0,1-.5,1.543A4.233,4.233,0,0,1,127.56,54.522Z" transform="translate(-123.45 -49.796)"/>
              </g>
            </g>
          </g>
          <ellipse id="Ellipse_180" data-name="Ellipse 180" class="cls-33" cx="1.827" cy="2.425" rx="1.827" ry="2.425" transform="translate(25.534 24.982) rotate(-38.263)"/>
        </g>
        <g id="Group_1862" data-name="Group 1862" transform="translate(19.404 41.48)">
          <path id="Path_2337" data-name="Path 2337" class="cls-18" d="M152.331,200.194a.116.116,0,0,1-.031-.094A.116.116,0,0,0,152.331,200.194Z" transform="translate(-139.607 -178.557)"/>
          <path id="Path_2338" data-name="Path 2338" class="cls-21" d="M112,133.212l2.614-1.512s.5,1.134,1.575,3.181l-2.551,1.417C113.134,135.322,112.567,134.283,112,133.212Z" transform="translate(-112 -131.7)"/>
          <path id="Path_2339" data-name="Path 2339" class="cls-18" d="M119.751,141.8a148.152,148.152,0,0,0,10.866,17.039s.409.693.094.85c-.409.22-.724-.283-.819-.472.094.189.283.693-.094.85-.346.157-.63-.283-.724-.472h0c.063.189.252.756-.189.976-.315.157-.535-.094-.63-.315,0-.031-.031-.063-.031-.094,0,.031.031.063.031.094a.5.5,0,0,1-.126.661c-.283.157-.693-.535-.693-.535-.693-1.165-4.126-5.858-10.236-17.165Z" transform="translate(-115.562 -138.619)"/>
        </g>
        <path id="Path_2340" data-name="Path 2340" class="cls-33" d="M162.8,160.484s11.15-2.362,18.929,4.945c0,0,4.283-4.031,2.8-6.047s-4.63-1.26-3.591,3.055a20.97,20.97,0,0,0-15.5-4.945Z" transform="translate(-127.396 -107.854)"/>
      </g>
      <path id="Path_2341" data-name="Path 2341" class="cls-35" d="M146.5,111.441c3.5.724,7.181-.315,10.646.472a71.162,71.162,0,0,0,8.787,1.827c3.055.315,6.142.535,9.2.819,2.772.252,5.669.724,8.441.724,5.953,0,15.37,4.661,15.37,9.291v15.213H150.471c-5.386,0-10.74-.378-16.157-.535a137.741,137.741,0,0,0-16.913.5,35.021,35.021,0,0,1,8.819-14.016c2.929-2.772,6.394-5.1,8.409-8.567,1.417-2.457,2.362-5.669,5.039-6.614C141.935,109.8,144.235,110.969,146.5,111.441Z" transform="translate(-80.424 -75.567)"/>
    </g>
  </g>
</svg>
