<svg xmlns="http://www.w3.org/2000/svg" viewBox="151.71 287 113.78 106.967">
  <defs>
    <style>
      .cls-1 {
        fill: #333e48;
      }

      .cls-2 {
        fill: #009638;
      }

      .cls-3 {
        fill: #00af41;
      }

      .cls-4 {
        fill: #c3c6c8;
      }

      .cls-5 {
        fill: #ffc843;
      }
    </style>
  </defs>
  <g id="Group_1414" data-name="Group 1414" transform="translate(151.71 287)">
    <path id="Path_1287" data-name="Path 1287" class="cls-1" d="M138.6,16.863a1.708,1.708,0,0,1-1.7-1.7V1.7a1.7,1.7,0,0,1,3.407,0V15.159a1.708,1.708,0,0,1-1.7,1.7Zm0,0" transform="translate(-78.605 0)"/>
    <path id="Path_1288" data-name="Path 1288" class="cls-1" d="M118,16.863a1.708,1.708,0,0,1-1.7-1.7V1.7a1.7,1.7,0,1,1,3.407,0V15.159a1.708,1.708,0,0,1-1.7,1.7Zm0,0" transform="translate(-66.777 0)"/>
    <path id="Path_1289" data-name="Path 1289" class="cls-1" d="M97.3,16.863a1.708,1.708,0,0,1-1.7-1.7V1.7a1.7,1.7,0,1,1,3.407,0V15.159a1.708,1.708,0,0,1-1.7,1.7Zm0,0" transform="translate(-54.891 0)"/>
    <path id="Path_1290" data-name="Path 1290" class="cls-1" d="M76.7,16.863a1.708,1.708,0,0,1-1.7-1.7V1.7a1.7,1.7,0,1,1,3.407,0V15.159a1.708,1.708,0,0,1-1.7,1.7Zm0,0" transform="translate(-43.063 0)"/>
    <path id="Path_1291" data-name="Path 1291" class="cls-1" d="M159.2,16.863a1.708,1.708,0,0,1-1.7-1.7V1.7a1.7,1.7,0,0,1,3.407,0V15.159a1.708,1.708,0,0,1-1.7,1.7Zm0,0" transform="translate(-90.433 0)"/>
    <path id="Path_1292" data-name="Path 1292" class="cls-1" d="M179.8,16.863a1.708,1.708,0,0,1-1.7-1.7V1.7a1.7,1.7,0,0,1,3.407,0V15.159a1.708,1.708,0,0,1-1.7,1.7Zm0,0" transform="translate(-102.261 0)"/>
    <path id="Path_1293" data-name="Path 1293" class="cls-1" d="M200.5,16.863a1.708,1.708,0,0,1-1.7-1.7V1.7a1.7,1.7,0,1,1,3.407,0V15.159a1.708,1.708,0,0,1-1.7,1.7Zm0,0" transform="translate(-114.146 0)"/>
    <path id="Path_1294" data-name="Path 1294" class="cls-1" d="M138.6,228.463a1.708,1.708,0,0,1-1.7-1.7V213.3a1.7,1.7,0,1,1,3.407,0v13.456a1.708,1.708,0,0,1-1.7,1.7Zm0,0" transform="translate(-78.605 -121.496)"/>
    <path id="Path_1295" data-name="Path 1295" class="cls-1" d="M159.2,228.463a1.708,1.708,0,0,1-1.7-1.7V213.3a1.7,1.7,0,0,1,3.407,0v13.456a1.708,1.708,0,0,1-1.7,1.7Zm0,0" transform="translate(-90.433 -121.496)"/>
    <path id="Path_1296" data-name="Path 1296" class="cls-1" d="M179.8,228.463a1.708,1.708,0,0,1-1.7-1.7V213.3a1.7,1.7,0,1,1,3.407,0v13.456a1.708,1.708,0,0,1-1.7,1.7Zm0,0" transform="translate(-102.261 -121.496)"/>
    <path id="Path_1297" data-name="Path 1297" class="cls-1" d="M200.5,228.463a1.708,1.708,0,0,1-1.7-1.7V213.3a1.7,1.7,0,1,1,3.407,0v13.456a1.708,1.708,0,0,1-1.7,1.7Zm0,0" transform="translate(-114.146 -121.496)"/>
    <path id="Path_1298" data-name="Path 1298" class="cls-1" d="M118,228.463a1.708,1.708,0,0,1-1.7-1.7V213.3a1.7,1.7,0,1,1,3.407,0v13.456a1.708,1.708,0,0,1-1.7,1.7Zm0,0" transform="translate(-66.777 -121.496)"/>
    <path id="Path_1299" data-name="Path 1299" class="cls-1" d="M97.3,228.463a1.708,1.708,0,0,1-1.7-1.7V213.3a1.7,1.7,0,1,1,3.407,0v13.456a1.708,1.708,0,0,1-1.7,1.7Zm0,0" transform="translate(-54.891 -121.496)"/>
    <path id="Path_1300" data-name="Path 1300" class="cls-1" d="M76.7,228.463a1.708,1.708,0,0,1-1.7-1.7V213.3a1.7,1.7,0,1,1,3.407,0v13.456a1.708,1.708,0,0,1-1.7,1.7Zm0,0" transform="translate(-43.063 -121.496)"/>
    <path id="Path_1301" data-name="Path 1301" class="cls-1" d="M242.759,125.007H229.3a1.7,1.7,0,0,1,0-3.407h13.456a1.7,1.7,0,1,1,0,3.407Zm0,0" transform="translate(-130.683 -69.82)"/>
    <path id="Path_1302" data-name="Path 1302" class="cls-1" d="M242.759,104.407H229.3a1.7,1.7,0,1,1,0-3.407h13.456a1.7,1.7,0,1,1,0,3.407Zm0,0" transform="translate(-130.683 -57.992)"/>
    <path id="Path_1303" data-name="Path 1303" class="cls-1" d="M242.759,83.707H229.3a1.7,1.7,0,0,1,0-3.407h13.456a1.7,1.7,0,1,1,0,3.407Zm0,0" transform="translate(-130.683 -46.106)"/>
    <path id="Path_1304" data-name="Path 1304" class="cls-1" d="M242.759,63.107H229.3a1.7,1.7,0,1,1,0-3.407h13.456a1.7,1.7,0,1,1,0,3.407Zm0,0" transform="translate(-130.683 -34.278)"/>
    <path id="Path_1305" data-name="Path 1305" class="cls-1" d="M242.759,145.607H229.3a1.7,1.7,0,1,1,0-3.407h13.456a1.7,1.7,0,1,1,0,3.407Zm0,0" transform="translate(-130.683 -81.648)"/>
    <path id="Path_1306" data-name="Path 1306" class="cls-1" d="M242.759,166.307H229.3a1.7,1.7,0,0,1,0-3.407h13.456a1.7,1.7,0,1,1,0,3.407Zm0,0" transform="translate(-130.683 -93.534)"/>
    <path id="Path_1307" data-name="Path 1307" class="cls-1" d="M242.759,186.907H229.3a1.7,1.7,0,1,1,0-3.407h13.456a1.7,1.7,0,1,1,0,3.407Zm0,0" transform="translate(-130.683 -105.362)"/>
    <path id="Path_1308" data-name="Path 1308" class="cls-2" d="M115.372,31.641A4.652,4.652,0,0,0,110.731,27H36.041A4.652,4.652,0,0,0,31.4,31.641v74.647a4.652,4.652,0,0,0,4.641,4.641h74.647a4.652,4.652,0,0,0,4.641-4.641V31.641Zm0,0" transform="translate(-18.029 -15.503)"/>
    <path id="Path_1309" data-name="Path 1309" class="cls-1" d="M15.159,125.007H1.7a1.7,1.7,0,0,1,0-3.407H15.159a1.7,1.7,0,0,1,0,3.407Zm0,0" transform="translate(0 -69.82)"/>
    <path id="Path_1310" data-name="Path 1310" class="cls-1" d="M15.159,145.607H1.7a1.7,1.7,0,1,1,0-3.407H15.159a1.7,1.7,0,1,1,0,3.407Zm0,0" transform="translate(0 -81.648)"/>
    <path id="Path_1311" data-name="Path 1311" class="cls-1" d="M15.159,166.307H1.7a1.7,1.7,0,0,1,0-3.407H15.159a1.7,1.7,0,0,1,0,3.407Zm0,0" transform="translate(0 -93.534)"/>
    <path id="Path_1312" data-name="Path 1312" class="cls-1" d="M15.159,186.907H1.7a1.7,1.7,0,0,1,0-3.407H15.159a1.7,1.7,0,0,1,0,3.407Zm0,0" transform="translate(0 -105.362)"/>
    <path id="Path_1313" data-name="Path 1313" class="cls-1" d="M15.159,104.407H1.7A1.7,1.7,0,1,1,1.7,101H15.159a1.7,1.7,0,1,1,0,3.407Zm0,0" transform="translate(0 -57.992)"/>
    <path id="Path_1314" data-name="Path 1314" class="cls-1" d="M15.159,83.707H1.7a1.7,1.7,0,0,1,0-3.407H15.159a1.7,1.7,0,0,1,0,3.407Zm0,0" transform="translate(0 -46.106)"/>
    <path id="Path_1315" data-name="Path 1315" class="cls-1" d="M15.159,63.107H1.7a1.7,1.7,0,1,1,0-3.407H15.159a1.7,1.7,0,1,1,0,3.407Zm0,0" transform="translate(0 -34.278)"/>
    <path id="Path_1316" data-name="Path 1316" class="cls-3" d="M129.172,31.641A4.652,4.652,0,0,0,124.531,27H49.841A4.652,4.652,0,0,0,45.2,31.641v74.647a4.652,4.652,0,0,0,4.641,4.641h74.647a4.652,4.652,0,0,0,4.641-4.641V31.641Zm0,0" transform="translate(-25.953 -15.503)"/>
    <path id="Path_1317" data-name="Path 1317" class="cls-4" d="M129.531,56.017a6.252,6.252,0,0,0-6.217-6.217h-49.1A6.252,6.252,0,0,0,68,56.017v46.5a6.252,6.252,0,0,0,6.217,6.217h49.1a6.252,6.252,0,0,0,6.217-6.217Zm0,0" transform="translate(-39.044 -28.594)"/>
    <rect id="Rectangle_106" data-name="Rectangle 106" class="cls-5" width="6.26" height="39.814" transform="translate(96.917 21.206)"/>
    <rect id="Rectangle_107" data-name="Rectangle 107" class="cls-1" width="45.393" height="6.685" transform="translate(37.047 35.982)"/>
    <rect id="Rectangle_108" data-name="Rectangle 108" class="cls-1" width="36.578" height="3.321" transform="translate(41.433 46.202)"/>
  </g>
</svg>
