<svg xmlns="http://www.w3.org/2000/svg" viewBox="121.484 2859.7 174.233 163.8">
  <defs>
    <style>
      .cls-1 {
        fill: #343e48;
      }

      .cls-2 {
        fill: #019639;
      }

      .cls-3 {
        fill: #2ba945;
      }

      .cls-4 {
        fill: #c4c6c9;
      }

      .cls-5 {
        fill: #fdc846;
      }
    </style>
  </defs>
  <g id="Group_1417" data-name="Group 1417" transform="translate(121.484 2859.7)">
    <path id="Path_1318" data-name="Path 1318" class="cls-1" d="M139.508,25.822a2.616,2.616,0,0,1-2.608-2.608V2.608a2.608,2.608,0,0,1,5.217,0V23.214a2.616,2.616,0,0,1-2.608,2.608Zm0,0" transform="translate(-47.632)"/>
    <path id="Path_1319" data-name="Path 1319" class="cls-1" d="M118.908,25.822a2.616,2.616,0,0,1-2.608-2.608V2.608a2.608,2.608,0,0,1,5.217,0V23.214a2.616,2.616,0,0,1-2.608,2.608Zm0,0" transform="translate(-40.464)"/>
    <path id="Path_1320" data-name="Path 1320" class="cls-1" d="M98.208,25.822A2.616,2.616,0,0,1,95.6,23.214V2.608a2.608,2.608,0,0,1,5.217,0V23.214a2.616,2.616,0,0,1-2.608,2.608Zm0,0" transform="translate(-33.262)"/>
    <path id="Path_1321" data-name="Path 1321" class="cls-1" d="M77.608,25.822A2.616,2.616,0,0,1,75,23.214V2.608a2.608,2.608,0,0,1,5.217,0V23.214a2.616,2.616,0,0,1-2.608,2.608Zm0,0" transform="translate(-26.095)"/>
    <path id="Path_1322" data-name="Path 1322" class="cls-1" d="M160.108,25.822a2.616,2.616,0,0,1-2.608-2.608V2.608a2.608,2.608,0,0,1,5.217,0V23.214a2.616,2.616,0,0,1-2.608,2.608Zm0,0" transform="translate(-54.799)"/>
    <path id="Path_1323" data-name="Path 1323" class="cls-1" d="M180.708,25.822a2.616,2.616,0,0,1-2.608-2.608V2.608a2.608,2.608,0,0,1,5.217,0V23.214a2.616,2.616,0,0,1-2.608,2.608Zm0,0" transform="translate(-61.967)"/>
    <path id="Path_1324" data-name="Path 1324" class="cls-1" d="M201.408,25.822a2.616,2.616,0,0,1-2.608-2.608V2.608a2.608,2.608,0,0,1,5.217,0V23.214a2.616,2.616,0,0,1-2.608,2.608Zm0,0" transform="translate(-69.169)"/>
    <path id="Path_1325" data-name="Path 1325" class="cls-1" d="M139.508,237.422a2.616,2.616,0,0,1-2.608-2.608V214.208a2.608,2.608,0,0,1,5.217,0v20.605a2.616,2.616,0,0,1-2.608,2.608Zm0,0" transform="translate(-47.632 -73.622)"/>
    <path id="Path_1326" data-name="Path 1326" class="cls-1" d="M160.108,237.422a2.616,2.616,0,0,1-2.608-2.608V214.208a2.608,2.608,0,1,1,5.217,0v20.605a2.616,2.616,0,0,1-2.608,2.608Zm0,0" transform="translate(-54.799 -73.622)"/>
    <path id="Path_1327" data-name="Path 1327" class="cls-1" d="M180.708,237.422a2.616,2.616,0,0,1-2.608-2.608V214.208a2.608,2.608,0,0,1,5.217,0v20.605a2.616,2.616,0,0,1-2.608,2.608Zm0,0" transform="translate(-61.967 -73.622)"/>
    <path id="Path_1328" data-name="Path 1328" class="cls-1" d="M201.408,237.422a2.616,2.616,0,0,1-2.608-2.608V214.208a2.608,2.608,0,0,1,5.217,0v20.605a2.616,2.616,0,0,1-2.608,2.608Zm0,0" transform="translate(-69.169 -73.622)"/>
    <path id="Path_1329" data-name="Path 1329" class="cls-1" d="M118.908,237.422a2.616,2.616,0,0,1-2.608-2.608V214.208a2.608,2.608,0,0,1,5.217,0v20.605a2.616,2.616,0,0,1-2.608,2.608Zm0,0" transform="translate(-40.464 -73.622)"/>
    <path id="Path_1330" data-name="Path 1330" class="cls-1" d="M98.208,237.422a2.616,2.616,0,0,1-2.608-2.608V214.208a2.608,2.608,0,1,1,5.217,0v20.605a2.616,2.616,0,0,1-2.608,2.608Zm0,0" transform="translate(-33.262 -73.622)"/>
    <path id="Path_1331" data-name="Path 1331" class="cls-1" d="M77.608,237.422A2.616,2.616,0,0,1,75,234.814V214.208a2.608,2.608,0,1,1,5.217,0v20.605a2.616,2.616,0,0,1-2.608,2.608Zm0,0" transform="translate(-26.095 -73.622)"/>
    <path id="Path_1332" data-name="Path 1332" class="cls-1" d="M250.814,126.817H230.208a2.608,2.608,0,0,1,0-5.217h20.605a2.608,2.608,0,1,1,0,5.217Zm0,0" transform="translate(-79.189 -42.308)"/>
    <path id="Path_1333" data-name="Path 1333" class="cls-1" d="M250.814,106.217H230.208a2.608,2.608,0,0,1,0-5.217h20.605a2.608,2.608,0,1,1,0,5.217Zm0,0" transform="translate(-79.189 -35.141)"/>
    <path id="Path_1334" data-name="Path 1334" class="cls-1" d="M250.814,85.517H230.208a2.608,2.608,0,0,1,0-5.217h20.605a2.608,2.608,0,1,1,0,5.217Zm0,0" transform="translate(-79.189 -27.939)"/>
    <path id="Path_1335" data-name="Path 1335" class="cls-1" d="M250.814,64.917H230.208a2.608,2.608,0,0,1,0-5.217h20.605a2.608,2.608,0,1,1,0,5.217Zm0,0" transform="translate(-79.189 -20.771)"/>
    <path id="Path_1336" data-name="Path 1336" class="cls-1" d="M250.814,147.417H230.208a2.608,2.608,0,0,1,0-5.217h20.605a2.608,2.608,0,1,1,0,5.217Zm0,0" transform="translate(-79.189 -49.476)"/>
    <path id="Path_1337" data-name="Path 1337" class="cls-1" d="M250.814,168.117H230.208a2.608,2.608,0,0,1,0-5.217h20.605a2.608,2.608,0,1,1,0,5.217Zm0,0" transform="translate(-79.189 -56.678)"/>
    <path id="Path_1338" data-name="Path 1338" class="cls-1" d="M250.814,188.717H230.208a2.608,2.608,0,0,1,0-5.217h20.605a2.608,2.608,0,1,1,0,5.217Zm0,0" transform="translate(-79.189 -63.845)"/>
    <path id="Path_1339" data-name="Path 1339" class="cls-2" d="M159.988,34.108A7.124,7.124,0,0,0,152.88,27H38.508A7.124,7.124,0,0,0,31.4,34.108V148.415a7.124,7.124,0,0,0,7.108,7.108H152.815a7.124,7.124,0,0,0,7.108-7.108V34.108Zm0,0" transform="translate(-10.925 -9.394)"/>
    <path id="Path_1340" data-name="Path 1340" class="cls-1" d="M23.214,126.817H2.608a2.608,2.608,0,0,1,0-5.217H23.214a2.608,2.608,0,0,1,0,5.217Zm0,0" transform="translate(0 -42.308)"/>
    <path id="Path_1341" data-name="Path 1341" class="cls-1" d="M23.214,147.417H2.608a2.608,2.608,0,0,1,0-5.217H23.214a2.608,2.608,0,0,1,0,5.217Zm0,0" transform="translate(0 -49.476)"/>
    <path id="Path_1342" data-name="Path 1342" class="cls-1" d="M23.214,168.117H2.608a2.608,2.608,0,0,1,0-5.217H23.214a2.608,2.608,0,0,1,0,5.217Zm0,0" transform="translate(0 -56.678)"/>
    <path id="Path_1343" data-name="Path 1343" class="cls-1" d="M23.214,188.717H2.608a2.608,2.608,0,0,1,0-5.217H23.214a2.608,2.608,0,0,1,0,5.217Zm0,0" transform="translate(0 -63.845)"/>
    <path id="Path_1344" data-name="Path 1344" class="cls-1" d="M23.214,106.217H2.608a2.608,2.608,0,0,1,0-5.217H23.214a2.608,2.608,0,0,1,0,5.217Zm0,0" transform="translate(0 -35.141)"/>
    <path id="Path_1345" data-name="Path 1345" class="cls-1" d="M23.214,85.517H2.608a2.608,2.608,0,0,1,0-5.217H23.214a2.608,2.608,0,0,1,0,5.217Zm0,0" transform="translate(0 -27.939)"/>
    <path id="Path_1346" data-name="Path 1346" class="cls-1" d="M23.214,64.917H2.608a2.608,2.608,0,0,1,0-5.217H23.214a2.608,2.608,0,0,1,0,5.217Zm0,0" transform="translate(0 -20.771)"/>
    <path id="Path_1347" data-name="Path 1347" class="cls-3" d="M173.788,34.108A7.124,7.124,0,0,0,166.68,27H52.308A7.124,7.124,0,0,0,45.2,34.108V148.415a7.124,7.124,0,0,0,7.108,7.108H166.615a7.124,7.124,0,0,0,7.108-7.108V34.108Zm0,0" transform="translate(-15.726 -9.394)"/>
    <path id="Path_1348" data-name="Path 1348" class="cls-4" d="M162.224,59.32a9.574,9.574,0,0,0-9.52-9.52H77.52A9.574,9.574,0,0,0,68,59.32v71.206a9.574,9.574,0,0,0,9.52,9.52H152.7a9.574,9.574,0,0,0,9.52-9.52Zm0,0" transform="translate(-23.659 -17.327)"/>
    <rect id="Rectangle_109" data-name="Rectangle 109" class="cls-5" width="9.585" height="60.968" transform="translate(148.411 32.473)"/>
    <rect id="Rectangle_110" data-name="Rectangle 110" class="cls-1" width="69.511" height="10.237" transform="translate(56.73 55.1)"/>
    <rect id="Rectangle_111" data-name="Rectangle 111" class="cls-1" width="56.013" height="5.086" transform="translate(63.446 70.749)"/>
  </g>
</svg>
